<svg xmlns="http://www.w3.org/2000/svg" xmlns:xlink="http://www.w3.org/1999/xlink" width="505" height="488.147" viewBox="0 0 505 488.147">
  <defs>
    <radialGradient id="radial-gradient" cx="0.5" cy="0.5" r="0.5" gradientUnits="objectBoundingBox">
      <stop offset="0" stop-color="#fff"/>
      <stop offset="1" stop-color="#91b3fa"/>
    </radialGradient>
    <clipPath id="clip-path">
      <rect id="Rectángulo_44318" data-name="Rectángulo 44318" width="414.929" height="414.929" fill="none"/>
    </clipPath>
  </defs>
  <g id="Grupo_1019296" data-name="Grupo 1019296" transform="translate(-915 -5503.148)">
    <g id="Grupo_1019295" data-name="Grupo 1019295">
      <path id="Trazado_750990" data-name="Trazado 750990" d="M0,0H505V488.147H0Z" transform="translate(915 5503.148)" opacity="0.1" fill="url(#radial-gradient)"/>
      <g id="Grupo_138304" data-name="Grupo 138304" transform="translate(960.07 5540.218)" clip-path="url(#clip-path)">
        <path id="Trazado_204375" data-name="Trazado 204375" d="M414.929,207.464c0,114.579-92.885,207.465-207.465,207.465S0,322.043,0,207.464,92.885,0,207.464,0,414.929,92.884,414.929,207.464" transform="translate(0 0)" fill="#d8e4fd"/>
        <path id="Trazado_204376" data-name="Trazado 204376" d="M362.635,237.434A124.479,124.479,0,1,1,238.156,112.955,124.479,124.479,0,0,1,362.635,237.434" transform="translate(-30.478 -30.284)" fill="#ffcdc8"/>
        <path id="Trazado_204377" data-name="Trazado 204377" d="M316.608,264.042A51.844,51.844,0,1,1,264.764,212.2a51.844,51.844,0,0,1,51.844,51.844" transform="translate(-57.086 -56.893)" fill="#c4f2f1"/>
        <path id="Trazado_204378" data-name="Trazado 204378" d="M235.014,32.779v4.767h-2.788V24.017H237.5a6.1,6.1,0,0,1,2.68.558,4.106,4.106,0,0,1,1.78,1.585,4.416,4.416,0,0,1,.623,2.336,3.883,3.883,0,0,1-1.362,3.136,5.665,5.665,0,0,1-3.767,1.148Zm0-2.258h2.49A2.447,2.447,0,0,0,239.19,30a1.892,1.892,0,0,0,.581-1.486,2.23,2.23,0,0,0-.586-1.607,2.185,2.185,0,0,0-1.617-.632h-2.555Z" transform="translate(-62.262 -6.439)"/>
        <path id="Trazado_204379" data-name="Trazado 204379" d="M254.4,31.216a7.266,7.266,0,0,0-.966-.075,1.967,1.967,0,0,0-2,1.032v6.578h-2.685V28.7h2.537l.075,1.2a2.486,2.486,0,0,1,2.239-1.384,2.819,2.819,0,0,1,.837.121Z" transform="translate(-66.694 -7.644)"/>
        <path id="Trazado_204380" data-name="Trazado 204380" d="M257.211,33.632a5.962,5.962,0,0,1,.576-2.667,4.219,4.219,0,0,1,1.658-1.811,4.839,4.839,0,0,1,2.513-.641,4.575,4.575,0,0,1,3.321,1.245,4.992,4.992,0,0,1,1.436,3.382l.019.687a5.256,5.256,0,0,1-1.292,3.712,5,5,0,0,1-6.936,0,5.345,5.345,0,0,1-1.3-3.79Zm2.685.19a3.758,3.758,0,0,0,.539,2.192,1.936,1.936,0,0,0,3.067.009,4.114,4.114,0,0,0,.548-2.4,3.721,3.721,0,0,0-.548-2.177,1.784,1.784,0,0,0-1.543-.772,1.753,1.753,0,0,0-1.524.767,4.184,4.184,0,0,0-.539,2.378" transform="translate(-68.961 -7.644)"/>
        <path id="Trazado_204381" data-name="Trazado 204381" d="M271.912,32.173a6.065,6.065,0,0,1,1.054-3.744,3.422,3.422,0,0,1,2.886-1.394,3.078,3.078,0,0,1,2.425,1.1V23h2.695V37.274h-2.425l-.13-1.069a3.162,3.162,0,0,1-2.584,1.254,3.411,3.411,0,0,1-2.848-1.4,6.252,6.252,0,0,1-1.073-3.889m2.685.2a3.967,3.967,0,0,0,.493,2.169,1.6,1.6,0,0,0,1.431.754,1.8,1.8,0,0,0,1.756-1.052V30.269a1.772,1.772,0,0,0-1.738-1.051q-1.942,0-1.942,3.154" transform="translate(-72.903 -6.167)"/>
        <path id="Trazado_204382" data-name="Trazado 204382" d="M293.131,37.8A3.368,3.368,0,0,1,290.38,39a3.179,3.179,0,0,1-2.467-.929,3.965,3.965,0,0,1-.868-2.723V28.765h2.685v6.5q0,1.573,1.431,1.572a1.939,1.939,0,0,0,1.877-.949V28.765h2.695V38.818h-2.527Z" transform="translate(-76.96 -7.712)"/>
        <path id="Trazado_204383" data-name="Trazado 204383" d="M305.71,36.772a1.758,1.758,0,0,0,1.208-.409,1.435,1.435,0,0,0,.484-1.087h2.518a3.449,3.449,0,0,1-.558,1.872,3.671,3.671,0,0,1-1.5,1.32,4.7,4.7,0,0,1-2.1.469,4.363,4.363,0,0,1-3.4-1.371,5.419,5.419,0,0,1-1.245-3.786V33.6a5.362,5.362,0,0,1,1.235-3.708,4.313,4.313,0,0,1,3.392-1.384,4.229,4.229,0,0,1,3.024,1.073,3.8,3.8,0,0,1,1.157,2.857H307.4a1.851,1.851,0,0,0-.484-1.275,1.8,1.8,0,0,0-2.644.193,3.971,3.971,0,0,0-.478,2.22v.279a4.02,4.02,0,0,0,.474,2.234,1.637,1.637,0,0,0,1.44.679" transform="translate(-80.731 -7.644)"/>
        <path id="Trazado_204384" data-name="Trazado 204384" d="M318.112,25.388V27.86h1.719v1.97h-1.719v5.018a1.2,1.2,0,0,0,.214.8,1.071,1.071,0,0,0,.818.242,4.289,4.289,0,0,0,.789-.065v2.035a5.526,5.526,0,0,1-1.625.242,2.564,2.564,0,0,1-2.881-2.852V29.829h-1.469V27.86h1.469V25.388Z" transform="translate(-84.176 -6.807)"/>
        <path id="Trazado_204385" data-name="Trazado 204385" d="M323.074,33.632a5.962,5.962,0,0,1,.576-2.667,4.219,4.219,0,0,1,1.659-1.811,4.839,4.839,0,0,1,2.513-.641,4.575,4.575,0,0,1,3.321,1.245,4.993,4.993,0,0,1,1.436,3.382l.019.687a5.256,5.256,0,0,1-1.292,3.712,5,5,0,0,1-6.936,0,5.345,5.345,0,0,1-1.3-3.79Zm2.685.19a3.758,3.758,0,0,0,.539,2.192,1.936,1.936,0,0,0,3.067.009,4.114,4.114,0,0,0,.548-2.4,3.721,3.721,0,0,0-.548-2.177,1.784,1.784,0,0,0-1.543-.772,1.753,1.753,0,0,0-1.524.767,4.184,4.184,0,0,0-.539,2.378" transform="translate(-86.62 -7.644)"/>
        <path id="Trazado_204386" data-name="Trazado 204386" d="M225,69.951a2.985,2.985,0,0,1-.269-.9,3.248,3.248,0,0,1-2.537,1.088,3.567,3.567,0,0,1-2.448-.855,2.752,2.752,0,0,1-.971-2.156,2.842,2.842,0,0,1,1.185-2.453,5.843,5.843,0,0,1,3.424-.864h1.236v-.576a1.654,1.654,0,0,0-.358-1.115,1.407,1.407,0,0,0-1.129-.419,1.6,1.6,0,0,0-1.063.326,1.1,1.1,0,0,0-.386.891H219a2.7,2.7,0,0,1,.539-1.617,3.572,3.572,0,0,1,1.524-1.166,5.559,5.559,0,0,1,2.212-.422,4.39,4.39,0,0,1,2.95.933,3.268,3.268,0,0,1,1.091,2.625v4.358a4.818,4.818,0,0,0,.4,2.165v.158Zm-2.221-1.868a2.314,2.314,0,0,0,1.1-.265,1.74,1.74,0,0,0,.744-.711V65.38h-1q-2.016,0-2.147,1.394l-.01.158a1.076,1.076,0,0,0,.354.827,1.372,1.372,0,0,0,.966.325" transform="translate(-58.656 -16.009)"/>
        <path id="Trazado_204387" data-name="Trazado 204387" d="M239.258,69a3.367,3.367,0,0,1-2.75,1.208,3.176,3.176,0,0,1-2.466-.929,3.969,3.969,0,0,1-.869-2.723V59.965h2.685v6.5q0,1.573,1.431,1.572a1.938,1.938,0,0,0,1.877-.949V59.965h2.695V70.018h-2.527Z" transform="translate(-62.516 -16.077)"/>
        <path id="Trazado_204388" data-name="Trazado 204388" d="M250.328,59.9l.083,1.124a3.535,3.535,0,0,1,2.889-1.31,2.681,2.681,0,0,1,2.667,1.533,3.452,3.452,0,0,1,3.02-1.533,3,3,0,0,1,2.434.952,4.374,4.374,0,0,1,.8,2.867v6.42h-2.695V63.54a1.914,1.914,0,0,0-.334-1.25,1.479,1.479,0,0,0-1.18-.4,1.677,1.677,0,0,0-1.672,1.153l.009,6.9h-2.685v-6.4a1.891,1.891,0,0,0-.344-1.263,1.5,1.5,0,0,0-1.171-.391,1.739,1.739,0,0,0-1.653.948V69.95H247.81V59.9Z" transform="translate(-66.441 -16.009)"/>
        <path id="Trazado_204389" data-name="Trazado 204389" d="M274.812,70.137a4.936,4.936,0,0,1-3.6-1.356,4.821,4.821,0,0,1-1.389-3.615v-.26a6.074,6.074,0,0,1,.585-2.709,4.305,4.305,0,0,1,1.659-1.84,4.658,4.658,0,0,1,2.448-.646,4.172,4.172,0,0,1,3.247,1.3,5.286,5.286,0,0,1,1.184,3.689v1.1h-6.4a2.5,2.5,0,0,0,.786,1.58,2.373,2.373,0,0,0,1.658.594,2.9,2.9,0,0,0,2.425-1.124l1.319,1.478a4.03,4.03,0,0,1-1.635,1.333,5.361,5.361,0,0,1-2.286.479m-.307-8.26a1.678,1.678,0,0,0-1.3.542,2.8,2.8,0,0,0-.637,1.549h3.736v-.214a2,2,0,0,0-.483-1.386,1.732,1.732,0,0,0-1.32-.49" transform="translate(-72.343 -16.009)"/>
        <path id="Trazado_204390" data-name="Trazado 204390" d="M286.823,59.9l.083,1.162a3.512,3.512,0,0,1,2.889-1.347,2.914,2.914,0,0,1,2.379.938,4.375,4.375,0,0,1,.8,2.806V69.95h-2.685V63.52a1.744,1.744,0,0,0-.371-1.241,1.665,1.665,0,0,0-1.236-.386,1.847,1.847,0,0,0-1.7.967V69.95H284.3V59.9Z" transform="translate(-76.223 -16.009)"/>
        <path id="Trazado_204391" data-name="Trazado 204391" d="M301.8,56.589v2.472h1.719v1.97H301.8v5.018a1.2,1.2,0,0,0,.214.8,1.074,1.074,0,0,0,.818.242,4.291,4.291,0,0,0,.79-.065v2.035A5.523,5.523,0,0,1,302,69.3a2.564,2.564,0,0,1-2.881-2.852V61.03h-1.468v-1.97h1.468V56.589Z" transform="translate(-79.804 -15.172)"/>
        <path id="Trazado_204392" data-name="Trazado 204392" d="M313.4,69.951a2.984,2.984,0,0,1-.269-.9,3.248,3.248,0,0,1-2.537,1.088,3.567,3.567,0,0,1-2.448-.855,2.752,2.752,0,0,1-.971-2.156,2.842,2.842,0,0,1,1.185-2.453,5.843,5.843,0,0,1,3.424-.864h1.236v-.576a1.654,1.654,0,0,0-.358-1.115,1.407,1.407,0,0,0-1.129-.419,1.6,1.6,0,0,0-1.063.326,1.1,1.1,0,0,0-.386.891H307.4a2.7,2.7,0,0,1,.539-1.617,3.572,3.572,0,0,1,1.524-1.166,5.559,5.559,0,0,1,2.212-.422,4.39,4.39,0,0,1,2.95.933,3.268,3.268,0,0,1,1.091,2.625v4.358a4.818,4.818,0,0,0,.4,2.165v.158Zm-2.221-1.868a2.314,2.314,0,0,0,1.1-.265,1.74,1.74,0,0,0,.744-.711V65.38h-1q-2.016,0-2.147,1.394l-.01.158a1.075,1.075,0,0,0,.354.827,1.371,1.371,0,0,0,.966.325" transform="translate(-82.356 -16.009)"/>
        <path id="Trazado_204393" data-name="Trazado 204393" d="M321.087,63.373a6.061,6.061,0,0,1,1.055-3.744,3.421,3.421,0,0,1,2.885-1.394,3.076,3.076,0,0,1,2.425,1.1V54.2h2.695V68.474h-2.425l-.13-1.069a3.161,3.161,0,0,1-2.584,1.254,3.411,3.411,0,0,1-2.847-1.4,6.252,6.252,0,0,1-1.074-3.889m2.685.2a3.973,3.973,0,0,0,.492,2.169,1.605,1.605,0,0,0,1.431.754,1.8,1.8,0,0,0,1.756-1.052V61.469a1.771,1.771,0,0,0-1.737-1.051q-1.941,0-1.942,3.154" transform="translate(-86.087 -14.532)"/>
        <path id="Trazado_204394" data-name="Trazado 204394" d="M335.737,64.832a5.972,5.972,0,0,1,.576-2.667,4.221,4.221,0,0,1,1.659-1.811,4.837,4.837,0,0,1,2.513-.641,4.578,4.578,0,0,1,3.322,1.245,4.992,4.992,0,0,1,1.435,3.382l.019.687a5.253,5.253,0,0,1-1.292,3.712,5,5,0,0,1-6.935,0,5.345,5.345,0,0,1-1.3-3.79Zm2.685.19a3.764,3.764,0,0,0,.539,2.192,1.936,1.936,0,0,0,3.067.009,4.108,4.108,0,0,0,.548-2.4,3.715,3.715,0,0,0-.548-2.177,1.782,1.782,0,0,0-1.543-.772,1.755,1.755,0,0,0-1.524.767,4.19,4.19,0,0,0-.539,2.378" transform="translate(-90.015 -16.009)"/>
        <path id="Trazado_204395" data-name="Trazado 204395" d="M235.014,146.7v4.767h-2.788V137.942H237.5a6.1,6.1,0,0,1,2.68.558,4.106,4.106,0,0,1,1.78,1.585,4.416,4.416,0,0,1,.623,2.336,3.883,3.883,0,0,1-1.362,3.136,5.665,5.665,0,0,1-3.767,1.148Zm0-2.258h2.49a2.447,2.447,0,0,0,1.686-.52,1.892,1.892,0,0,0,.581-1.486,2.231,2.231,0,0,0-.586-1.607,2.185,2.185,0,0,0-1.617-.632h-2.555Z" transform="translate(-62.262 -36.984)"/>
        <path id="Trazado_204396" data-name="Trazado 204396" d="M254.4,145.14a7.266,7.266,0,0,0-.966-.075,1.967,1.967,0,0,0-2,1.032v6.578h-2.685V142.622h2.537l.075,1.2a2.486,2.486,0,0,1,2.239-1.384,2.819,2.819,0,0,1,.837.121Z" transform="translate(-66.694 -38.189)"/>
        <path id="Trazado_204397" data-name="Trazado 204397" d="M257.211,147.557a5.962,5.962,0,0,1,.576-2.667,4.219,4.219,0,0,1,1.658-1.811,4.84,4.84,0,0,1,2.513-.641,4.575,4.575,0,0,1,3.321,1.245,4.992,4.992,0,0,1,1.436,3.382l.019.687a5.256,5.256,0,0,1-1.292,3.712,5,5,0,0,1-6.936,0,5.345,5.345,0,0,1-1.3-3.79Zm2.685.19a3.758,3.758,0,0,0,.539,2.192,1.936,1.936,0,0,0,3.067.009,4.114,4.114,0,0,0,.548-2.4,3.721,3.721,0,0,0-.548-2.177,1.784,1.784,0,0,0-1.543-.772,1.753,1.753,0,0,0-1.524.767,4.184,4.184,0,0,0-.539,2.378" transform="translate(-68.961 -38.189)"/>
        <path id="Trazado_204398" data-name="Trazado 204398" d="M271.912,146.1a6.065,6.065,0,0,1,1.054-3.744,3.422,3.422,0,0,1,2.886-1.394,3.078,3.078,0,0,1,2.425,1.1v-5.129h2.695V151.2h-2.425l-.13-1.069a3.162,3.162,0,0,1-2.584,1.254,3.411,3.411,0,0,1-2.848-1.4,6.252,6.252,0,0,1-1.073-3.889m2.685.2a3.967,3.967,0,0,0,.493,2.169,1.6,1.6,0,0,0,1.431.754,1.8,1.8,0,0,0,1.756-1.052v-3.974a1.772,1.772,0,0,0-1.738-1.051q-1.942,0-1.942,3.154" transform="translate(-72.903 -36.712)"/>
        <path id="Trazado_204399" data-name="Trazado 204399" d="M293.131,151.722a3.368,3.368,0,0,1-2.75,1.208,3.179,3.179,0,0,1-2.467-.929,3.965,3.965,0,0,1-.868-2.723V142.69h2.685v6.5q0,1.573,1.431,1.572a1.939,1.939,0,0,0,1.877-.949V142.69h2.695v10.053h-2.527Z" transform="translate(-76.96 -38.257)"/>
        <path id="Trazado_204400" data-name="Trazado 204400" d="M305.71,150.7a1.758,1.758,0,0,0,1.208-.409,1.435,1.435,0,0,0,.484-1.087h2.518a3.449,3.449,0,0,1-.558,1.872,3.671,3.671,0,0,1-1.5,1.32,4.7,4.7,0,0,1-2.1.469,4.363,4.363,0,0,1-3.4-1.371,5.419,5.419,0,0,1-1.245-3.786v-.176a5.362,5.362,0,0,1,1.235-3.708,4.313,4.313,0,0,1,3.392-1.384,4.229,4.229,0,0,1,3.024,1.073,3.8,3.8,0,0,1,1.157,2.857H307.4a1.851,1.851,0,0,0-.484-1.275,1.8,1.8,0,0,0-2.644.193,3.971,3.971,0,0,0-.478,2.22v.279a4.02,4.02,0,0,0,.474,2.234,1.637,1.637,0,0,0,1.44.679" transform="translate(-80.731 -38.189)"/>
        <path id="Trazado_204401" data-name="Trazado 204401" d="M318.112,139.313v2.472h1.719v1.969h-1.719v5.018a1.194,1.194,0,0,0,.214.8,1.071,1.071,0,0,0,.818.242,4.29,4.29,0,0,0,.789-.065v2.035a5.525,5.525,0,0,1-1.625.242,2.564,2.564,0,0,1-2.881-2.852v-5.417h-1.469v-1.969h1.469v-2.472Z" transform="translate(-84.176 -37.351)"/>
        <path id="Trazado_204402" data-name="Trazado 204402" d="M323.074,147.557a5.962,5.962,0,0,1,.576-2.667,4.219,4.219,0,0,1,1.659-1.811,4.839,4.839,0,0,1,2.513-.641,4.575,4.575,0,0,1,3.321,1.245,4.992,4.992,0,0,1,1.436,3.382l.019.687a5.256,5.256,0,0,1-1.292,3.712,5,5,0,0,1-6.936,0,5.345,5.345,0,0,1-1.3-3.79Zm2.685.19a3.758,3.758,0,0,0,.539,2.192,1.936,1.936,0,0,0,3.067.009,4.114,4.114,0,0,0,.548-2.4,3.721,3.721,0,0,0-.548-2.177,1.784,1.784,0,0,0-1.543-.772,1.753,1.753,0,0,0-1.524.767,4.184,4.184,0,0,0-.539,2.378" transform="translate(-86.62 -38.189)"/>
        <path id="Trazado_204403" data-name="Trazado 204403" d="M268.75,176.341a7.264,7.264,0,0,0-.966-.075,1.967,1.967,0,0,0-2,1.032v6.578H263.1V173.823h2.537l.075,1.2a2.486,2.486,0,0,1,2.239-1.384,2.819,2.819,0,0,1,.837.121Z" transform="translate(-70.54 -46.554)"/>
        <path id="Trazado_204404" data-name="Trazado 204404" d="M276.838,184.061a4.938,4.938,0,0,1-3.6-1.356,4.823,4.823,0,0,1-1.388-3.615v-.26a6.074,6.074,0,0,1,.585-2.709,4.3,4.3,0,0,1,1.658-1.84,4.658,4.658,0,0,1,2.449-.646,4.17,4.17,0,0,1,3.247,1.3,5.287,5.287,0,0,1,1.185,3.689v1.1h-6.4a2.494,2.494,0,0,0,.785,1.58,2.375,2.375,0,0,0,1.659.594,2.9,2.9,0,0,0,2.425-1.124l1.319,1.478a4.035,4.035,0,0,1-1.635,1.333,5.362,5.362,0,0,1-2.286.479m-.307-8.26a1.677,1.677,0,0,0-1.3.542,2.8,2.8,0,0,0-.637,1.549h3.736v-.214a2,2,0,0,0-.483-1.386,1.734,1.734,0,0,0-1.32-.49" transform="translate(-72.886 -46.554)"/>
        <path id="Trazado_204405" data-name="Trazado 204405" d="M292.076,183.876a2.966,2.966,0,0,1-.269-.9,3.248,3.248,0,0,1-2.537,1.088,3.57,3.57,0,0,1-2.449-.855,2.753,2.753,0,0,1-.97-2.156,2.841,2.841,0,0,1,1.184-2.453,5.844,5.844,0,0,1,3.424-.864H291.7v-.576a1.65,1.65,0,0,0-.359-1.115,1.4,1.4,0,0,0-1.129-.419,1.6,1.6,0,0,0-1.064.326,1.106,1.106,0,0,0-.385.891h-2.685a2.7,2.7,0,0,1,.539-1.617,3.563,3.563,0,0,1,1.524-1.166,5.557,5.557,0,0,1,2.212-.422,4.388,4.388,0,0,1,2.949.933,3.266,3.266,0,0,1,1.092,2.625v4.358a4.808,4.808,0,0,0,.4,2.165v.158Zm-2.221-1.868a2.316,2.316,0,0,0,1.1-.265,1.744,1.744,0,0,0,.744-.711V179.3h-1q-2.017,0-2.147,1.394l-.01.158a1.073,1.073,0,0,0,.354.827,1.37,1.37,0,0,0,.966.325" transform="translate(-76.64 -46.554)"/>
        <rect id="Rectángulo_44311" data-name="Rectángulo 44311" width="2.695" height="14.272" transform="translate(219.952 123.05)"/>
        <path id="Trazado_204406" data-name="Trazado 204406" d="M230.093,270.692V257.163h4.739a6.227,6.227,0,0,1,3.736.943,3.226,3.226,0,0,1,1.273,2.764,3.064,3.064,0,0,1-.511,1.751,2.957,2.957,0,0,1-1.422,1.11,2.853,2.853,0,0,1,1.639,1.05,3.1,3.1,0,0,1,.6,1.932,3.572,3.572,0,0,1-1.245,2.955,5.607,5.607,0,0,1-3.55,1.022Zm2.788-7.86h2.062q2.109-.037,2.109-1.682a1.553,1.553,0,0,0-.534-1.324,2.806,2.806,0,0,0-1.686-.4h-1.951Zm0,1.97v3.651h2.388a2.3,2.3,0,0,0,1.537-.469,1.607,1.607,0,0,0,.553-1.3,1.7,1.7,0,0,0-1.923-1.886Z" transform="translate(-61.691 -68.948)"/>
        <path id="Trazado_204407" data-name="Trazado 204407" d="M250.939,272.082a4.938,4.938,0,0,1-3.6-1.356,4.823,4.823,0,0,1-1.388-3.615v-.26a6.074,6.074,0,0,1,.585-2.709,4.3,4.3,0,0,1,1.658-1.84,4.659,4.659,0,0,1,2.449-.646,4.17,4.17,0,0,1,3.247,1.3,5.286,5.286,0,0,1,1.185,3.689v1.1h-6.4a2.5,2.5,0,0,0,.785,1.58,2.375,2.375,0,0,0,1.658.594,2.9,2.9,0,0,0,2.425-1.124l1.319,1.478a4.035,4.035,0,0,1-1.635,1.333,5.361,5.361,0,0,1-2.286.479m-.307-8.26a1.677,1.677,0,0,0-1.3.542,2.8,2.8,0,0,0-.637,1.549h3.736V265.7a2.005,2.005,0,0,0-.483-1.386,1.734,1.734,0,0,0-1.32-.49" transform="translate(-65.942 -70.153)"/>
        <path id="Trazado_204408" data-name="Trazado 204408" d="M262.95,261.843l.083,1.161a3.511,3.511,0,0,1,2.889-1.347,2.915,2.915,0,0,1,2.379.938,4.379,4.379,0,0,1,.8,2.806V271.9h-2.685v-6.43a1.747,1.747,0,0,0-.371-1.241,1.666,1.666,0,0,0-1.236-.386,1.845,1.845,0,0,0-1.7.967V271.9h-2.685V261.843Z" transform="translate(-69.822 -70.153)"/>
        <path id="Trazado_204409" data-name="Trazado 204409" d="M279.555,272.082a4.938,4.938,0,0,1-3.6-1.356,4.823,4.823,0,0,1-1.388-3.615v-.26a6.074,6.074,0,0,1,.585-2.709,4.3,4.3,0,0,1,1.658-1.84,4.658,4.658,0,0,1,2.449-.646,4.17,4.17,0,0,1,3.247,1.3,5.286,5.286,0,0,1,1.185,3.689v1.1h-6.4a2.494,2.494,0,0,0,.785,1.58,2.375,2.375,0,0,0,1.658.594,2.9,2.9,0,0,0,2.426-1.124l1.319,1.478a4.035,4.035,0,0,1-1.635,1.333,5.361,5.361,0,0,1-2.286.479m-.307-8.26a1.677,1.677,0,0,0-1.3.542,2.8,2.8,0,0,0-.637,1.549h3.736V265.7a2.005,2.005,0,0,0-.483-1.386,1.734,1.734,0,0,0-1.32-.49" transform="translate(-73.614 -70.153)"/>
        <path id="Trazado_204410" data-name="Trazado 204410" d="M289.569,270.348v-8.084h-1.5V260.3h1.5v-.855a3.473,3.473,0,0,1,.97-2.625,3.763,3.763,0,0,1,2.718-.934,6.285,6.285,0,0,1,1.366.186l-.028,2.081a3.436,3.436,0,0,0-.818-.083q-1.515,0-1.514,1.421v.809h2v1.97h-2v8.084Z" transform="translate(-77.236 -68.605)"/>
        <path id="Trazado_204411" data-name="Trazado 204411" d="M298.407,257.85a1.323,1.323,0,0,1,.4-.995,1.743,1.743,0,0,1,2.2,0,1.42,1.42,0,0,1-.005,2,1.723,1.723,0,0,1-2.184,0,1.32,1.32,0,0,1-.413-1m2.852,12.655h-2.695V260.452h2.695Z" transform="translate(-80.006 -68.761)"/>
        <path id="Trazado_204412" data-name="Trazado 204412" d="M309.354,269.917a1.759,1.759,0,0,0,1.208-.409,1.435,1.435,0,0,0,.484-1.087h2.518a3.449,3.449,0,0,1-.558,1.872,3.671,3.671,0,0,1-1.5,1.32,4.7,4.7,0,0,1-2.1.469,4.363,4.363,0,0,1-3.4-1.371,5.419,5.419,0,0,1-1.245-3.786v-.176a5.362,5.362,0,0,1,1.235-3.708,4.313,4.313,0,0,1,3.392-1.384,4.229,4.229,0,0,1,3.024,1.073,3.8,3.8,0,0,1,1.157,2.857h-2.518a1.851,1.851,0,0,0-.484-1.275,1.8,1.8,0,0,0-2.644.193,3.971,3.971,0,0,0-.478,2.22V267a4.019,4.019,0,0,0,.474,2.234,1.637,1.637,0,0,0,1.44.679" transform="translate(-81.708 -70.153)"/>
        <path id="Trazado_204413" data-name="Trazado 204413" d="M318.859,257.85a1.323,1.323,0,0,1,.4-.995,1.743,1.743,0,0,1,2.2,0,1.42,1.42,0,0,1-.005,2,1.722,1.722,0,0,1-2.183,0,1.321,1.321,0,0,1-.414-1m2.853,12.655h-2.695V260.452h2.695Z" transform="translate(-85.49 -68.761)"/>
        <path id="Trazado_204414" data-name="Trazado 204414" d="M325.207,266.778a5.962,5.962,0,0,1,.576-2.667,4.219,4.219,0,0,1,1.658-1.811,4.839,4.839,0,0,1,2.513-.641,4.575,4.575,0,0,1,3.321,1.245,4.992,4.992,0,0,1,1.436,3.382l.019.687a5.256,5.256,0,0,1-1.292,3.712,5,5,0,0,1-6.936,0,5.345,5.345,0,0,1-1.3-3.79Zm2.685.19a3.758,3.758,0,0,0,.539,2.192,1.936,1.936,0,0,0,3.067.009,4.114,4.114,0,0,0,.548-2.4,3.721,3.721,0,0,0-.548-2.177,1.784,1.784,0,0,0-1.543-.772,1.753,1.753,0,0,0-1.524.767,4.184,4.184,0,0,0-.539,2.378" transform="translate(-87.192 -70.153)"/>
        <path id="Trazado_204415" data-name="Trazado 204415" d="M255.675,296.686a6.088,6.088,0,0,1-1.031,3.767,3.416,3.416,0,0,1-2.881,1.353,3.14,3.14,0,0,1-2.611-1.254l-.121,1.069h-2.416V287.348H249.3v5.12a3.06,3.06,0,0,1,2.444-1.087,3.444,3.444,0,0,1,2.885,1.351,6.1,6.1,0,0,1,1.045,3.805Zm-2.685-.2a4,4,0,0,0-.483-2.226,1.633,1.633,0,0,0-1.44-.7,1.771,1.771,0,0,0-1.765,1.05v3.967a1.8,1.8,0,0,0,1.784,1.06,1.657,1.657,0,0,0,1.71-1.282,6.607,6.607,0,0,0,.2-1.868" transform="translate(-66.121 -77.041)"/>
        <path id="Trazado_204416" data-name="Trazado 204416" d="M266.933,301.62a2.989,2.989,0,0,1-.269-.9,3.25,3.25,0,0,1-2.537,1.087,3.57,3.57,0,0,1-2.448-.855,2.749,2.749,0,0,1-.971-2.155,2.841,2.841,0,0,1,1.185-2.453,5.841,5.841,0,0,1,3.424-.864h1.235V294.9a1.66,1.66,0,0,0-.357-1.115,1.407,1.407,0,0,0-1.129-.418,1.6,1.6,0,0,0-1.063.325,1.1,1.1,0,0,0-.386.892h-2.685a2.7,2.7,0,0,1,.539-1.617,3.564,3.564,0,0,1,1.524-1.167,5.554,5.554,0,0,1,2.211-.422,4.391,4.391,0,0,1,2.951.933,3.268,3.268,0,0,1,1.091,2.625V299.3a4.808,4.808,0,0,0,.4,2.165v.158Zm-2.221-1.868a2.314,2.314,0,0,0,1.1-.265,1.738,1.738,0,0,0,.743-.711v-1.728h-1q-2.016,0-2.147,1.394l-.009.158a1.078,1.078,0,0,0,.353.827,1.373,1.373,0,0,0,.967.325m1.022-12.4h2.927l-2.574,2.881H263.9Z" transform="translate(-69.899 -77.041)"/>
        <path id="Trazado_204417" data-name="Trazado 204417" d="M280.451,300.319a.867.867,0,0,0-.488-.777,5.56,5.56,0,0,0-1.566-.506q-3.586-.753-3.586-3.048a2.764,2.764,0,0,1,1.111-2.235,4.48,4.48,0,0,1,2.9-.9,4.823,4.823,0,0,1,3.062.9,2.839,2.839,0,0,1,1.147,2.341h-2.685a1.3,1.3,0,0,0-.37-.952,1.575,1.575,0,0,0-1.162-.376,1.606,1.606,0,0,0-1.05.307.967.967,0,0,0-.372.78.826.826,0,0,0,.422.72,4.346,4.346,0,0,0,1.426.474,11.763,11.763,0,0,1,1.691.451,2.777,2.777,0,0,1,2.128,2.7,2.621,2.621,0,0,1-1.18,2.225,5.091,5.091,0,0,1-3.048.85,5.308,5.308,0,0,1-2.243-.451,3.755,3.755,0,0,1-1.538-1.236,2.869,2.869,0,0,1-.558-1.7h2.546a1.408,1.408,0,0,0,.53,1.1,2.1,2.1,0,0,0,1.319.381,1.953,1.953,0,0,0,1.167-.293.913.913,0,0,0,.394-.766" transform="translate(-73.595 -78.519)"/>
        <path id="Trazado_204418" data-name="Trazado 204418" d="M288.536,289.05a1.318,1.318,0,0,1,.4-.994,1.742,1.742,0,0,1,2.2,0,1.42,1.42,0,0,1,0,2,1.721,1.721,0,0,1-2.184,0,1.317,1.317,0,0,1-.413-1m2.852,12.655h-2.695V291.652h2.695Z" transform="translate(-77.36 -77.126)"/>
        <path id="Trazado_204419" data-name="Trazado 204419" d="M299.483,301.118a1.759,1.759,0,0,0,1.208-.409,1.432,1.432,0,0,0,.484-1.087h2.518a3.438,3.438,0,0,1-.558,1.872,3.667,3.667,0,0,1-1.5,1.319,4.692,4.692,0,0,1-2.1.47,4.365,4.365,0,0,1-3.4-1.371,5.423,5.423,0,0,1-1.245-3.786v-.176a5.364,5.364,0,0,1,1.235-3.708,4.315,4.315,0,0,1,3.392-1.384,4.227,4.227,0,0,1,3.025,1.073,3.8,3.8,0,0,1,1.156,2.857h-2.518a1.842,1.842,0,0,0-.484-1.275,1.8,1.8,0,0,0-2.643.193,3.964,3.964,0,0,0-.479,2.22v.279a4.015,4.015,0,0,0,.474,2.233,1.638,1.638,0,0,0,1.44.68" transform="translate(-79.062 -78.519)"/>
        <path id="Trazado_204420" data-name="Trazado 204420" d="M308.442,297.978a5.966,5.966,0,0,1,.576-2.666,4.218,4.218,0,0,1,1.659-1.812,4.836,4.836,0,0,1,2.513-.641,4.578,4.578,0,0,1,3.322,1.245,4.991,4.991,0,0,1,1.435,3.382l.019.688a5.251,5.251,0,0,1-1.292,3.711,5,5,0,0,1-6.935.005,5.347,5.347,0,0,1-1.3-3.791Zm2.685.19a3.764,3.764,0,0,0,.539,2.192,1.937,1.937,0,0,0,3.067.009,4.112,4.112,0,0,0,.548-2.4,3.717,3.717,0,0,0-.548-2.177,1.782,1.782,0,0,0-1.543-.772,1.755,1.755,0,0,0-1.524.768,4.185,4.185,0,0,0-.539,2.377" transform="translate(-82.697 -78.519)"/>
        <path id="Trazado_204421" data-name="Trazado 204421" d="M50.167,157.418H44.754v4.426h6.287v1.347H43.108V150.7h7.848v1.347h-6.2v4.022h5.412Z" transform="translate(-11.558 -40.405)"/>
        <path id="Trazado_204422" data-name="Trazado 204422" d="M57.91,155.023l.051,1.167a3.382,3.382,0,0,1,2.779-1.338q2.942,0,2.968,3.319V164.3H62.121v-6.141a2.136,2.136,0,0,0-.459-1.484,1.838,1.838,0,0,0-1.4-.481,2.293,2.293,0,0,0-1.355.412A2.8,2.8,0,0,0,58,157.691V164.3H56.409v-9.28Z" transform="translate(-15.124 -41.518)"/>
        <path id="Trazado_204423" data-name="Trazado 204423" d="M71.392,152.015v2.247h1.732v1.227H71.392v5.762a1.287,1.287,0,0,0,.231.837.974.974,0,0,0,.79.28,3.832,3.832,0,0,0,.755-.1v1.279a4.608,4.608,0,0,1-1.218.171,1.978,1.978,0,0,1-1.6-.643,2.762,2.762,0,0,1-.54-1.827v-5.755h-1.69v-1.227H69.8v-2.247Z" transform="translate(-18.262 -40.757)"/>
        <path id="Trazado_204424" data-name="Trazado 204424" d="M81.977,156.447a4.731,4.731,0,0,0-.78-.06,2.091,2.091,0,0,0-2.119,1.329V164.3H77.491v-9.28h1.544l.026,1.072a2.47,2.47,0,0,1,2.212-1.244,1.626,1.626,0,0,1,.7.12Z" transform="translate(-20.776 -41.517)"/>
        <path id="Trazado_204425" data-name="Trazado 204425" d="M89.093,164.474a4.055,4.055,0,0,1-3.071-1.239,4.6,4.6,0,0,1-1.183-3.315v-.292a5.562,5.562,0,0,1,.528-2.466,4.111,4.111,0,0,1,1.475-1.7,3.708,3.708,0,0,1,2.054-.613,3.476,3.476,0,0,1,2.813,1.192,5.161,5.161,0,0,1,1,3.414v.66H86.426a3.294,3.294,0,0,0,.8,2.217,2.52,2.52,0,0,0,1.951.845,2.767,2.767,0,0,0,1.424-.343,3.6,3.6,0,0,0,1.021-.909l.969.755a3.9,3.9,0,0,1-3.5,1.792m-.2-8.319a2.116,2.116,0,0,0-1.612.7,3.4,3.4,0,0,0-.807,1.96h4.649v-.12a3.022,3.022,0,0,0-.652-1.874,1.993,1.993,0,0,0-1.578-.665" transform="translate(-22.746 -41.517)"/>
        <path id="Trazado_204426" data-name="Trazado 204426" d="M97.588,159.586a5.454,5.454,0,0,1,1-3.452,3.459,3.459,0,0,1,5.309-.081l.078-1.029h1.449v9.057a3.773,3.773,0,0,1-1.068,2.838,3.937,3.937,0,0,1-2.869,1.038,4.767,4.767,0,0,1-1.964-.429,3.376,3.376,0,0,1-1.467-1.175l.823-.952a3.1,3.1,0,0,0,2.5,1.261,2.431,2.431,0,0,0,1.806-.652,2.491,2.491,0,0,0,.648-1.836v-.8a3.262,3.262,0,0,1-2.6,1.1,3.171,3.171,0,0,1-2.638-1.312,5.737,5.737,0,0,1-1.008-3.577m1.6.18a4.159,4.159,0,0,0,.643,2.466,2.089,2.089,0,0,0,1.8.9,2.324,2.324,0,0,0,2.2-1.364v-4.237a2.353,2.353,0,0,0-2.188-1.329,2.108,2.108,0,0,0-1.809.9,4.533,4.533,0,0,0-.652,2.668" transform="translate(-26.164 -41.517)"/>
        <path id="Trazado_204427" data-name="Trazado 204427" d="M117.2,164.3a3.327,3.327,0,0,1-.223-.978,3.541,3.541,0,0,1-2.641,1.15,3.278,3.278,0,0,1-2.252-.777,2.512,2.512,0,0,1-.879-1.968,2.622,2.622,0,0,1,1.1-2.251,5.193,5.193,0,0,1,3.1-.8h1.544v-.729a1.783,1.783,0,0,0-.5-1.325,2,2,0,0,0-1.467-.493,2.316,2.316,0,0,0-1.424.429,1.264,1.264,0,0,0-.575,1.038h-1.6a2.191,2.191,0,0,1,.493-1.342,3.362,3.362,0,0,1,1.338-1.025,4.5,4.5,0,0,1,1.857-.378,3.671,3.671,0,0,1,2.513.8,2.892,2.892,0,0,1,.943,2.209v4.271a5.221,5.221,0,0,0,.326,2.032v.137Zm-2.633-1.209a2.794,2.794,0,0,0,1.415-.386,2.342,2.342,0,0,0,.969-1v-1.9h-1.243q-2.917,0-2.917,1.707a1.445,1.445,0,0,0,.5,1.167,1.911,1.911,0,0,0,1.278.42" transform="translate(-29.815 -41.517)"/>
        <path id="Trazado_204428" data-name="Trazado 204428" d="M40.8,190.841l2.161-6.956h1.7L40.928,194.6q-.866,2.315-2.753,2.316l-.3-.026-.592-.112V195.49l.429.034a2.11,2.11,0,0,0,1.257-.326,2.362,2.362,0,0,0,.742-1.192l.351-.943-3.31-9.177h1.732Z" transform="translate(-9.853 -49.302)"/>
        <path id="Trazado_204429" data-name="Trazado 204429" d="M59,191.979a2.284,2.284,0,0,0,1.484-.515,1.81,1.81,0,0,0,.7-1.287h1.5a2.875,2.875,0,0,1-.549,1.518,3.612,3.612,0,0,1-1.351,1.15,3.9,3.9,0,0,1-1.788.429,3.823,3.823,0,0,1-3.015-1.265,5.037,5.037,0,0,1-1.119-3.46v-.266a5.59,5.59,0,0,1,.5-2.41,3.789,3.789,0,0,1,1.428-1.638,4.06,4.06,0,0,1,2.2-.583,3.723,3.723,0,0,1,2.595.935,3.339,3.339,0,0,1,1.1,2.428h-1.5a2.189,2.189,0,0,0-.681-1.48,2.123,2.123,0,0,0-1.514-.579,2.22,2.22,0,0,0-1.874.871,4.085,4.085,0,0,0-.665,2.517v.3a4,4,0,0,0,.66,2.47,2.231,2.231,0,0,0,1.887.867" transform="translate(-14.711 -49.239)"/>
        <path id="Trazado_204430" data-name="Trazado 204430" d="M72.479,185.247a4.731,4.731,0,0,0-.78-.06,2.091,2.091,0,0,0-2.119,1.329V193.1H67.993v-9.28h1.544l.026,1.072a2.47,2.47,0,0,1,2.213-1.244,1.626,1.626,0,0,1,.7.12Z" transform="translate(-18.23 -49.239)"/>
        <path id="Trazado_204431" data-name="Trazado 204431" d="M79.594,191.91a4.053,4.053,0,0,1-3.07-1.239,4.6,4.6,0,0,1-1.184-3.315v-.292a5.572,5.572,0,0,1,.528-2.466,4.112,4.112,0,0,1,1.475-1.7,3.7,3.7,0,0,1,2.054-.613,3.475,3.475,0,0,1,2.813,1.192,5.161,5.161,0,0,1,1,3.414v.66H76.927a3.3,3.3,0,0,0,.8,2.218,2.522,2.522,0,0,0,1.951.845,2.758,2.758,0,0,0,1.424-.343,3.567,3.567,0,0,0,1.021-.909l.969.755a3.9,3.9,0,0,1-3.5,1.792m-.2-8.319a2.118,2.118,0,0,0-1.612.7,3.4,3.4,0,0,0-.806,1.96h4.648v-.12a3.022,3.022,0,0,0-.651-1.874,2,2,0,0,0-1.579-.665m.772-5.026H82.09l-2.3,2.521-1.278,0Z" transform="translate(-20.199 -47.875)"/>
        <path id="Trazado_204432" data-name="Trazado 204432" d="M88.079,187.022a5.435,5.435,0,0,1,1.012-3.435,3.442,3.442,0,0,1,5.232-.184v-4.838h1.587v13.174H94.452l-.077-.995a3.234,3.234,0,0,1-2.65,1.167A3.169,3.169,0,0,1,89.1,190.59a5.5,5.5,0,0,1-1.017-3.448Zm1.587.18a4.115,4.115,0,0,0,.652,2.47,2.108,2.108,0,0,0,1.8.892,2.314,2.314,0,0,0,2.2-1.355v-4.263a2.332,2.332,0,0,0-2.187-1.312,2.117,2.117,0,0,0-1.818.9,4.533,4.533,0,0,0-.652,2.668" transform="translate(-23.615 -47.875)"/>
        <path id="Trazado_204433" data-name="Trazado 204433" d="M102.153,180.186a.948.948,0,0,1,.236-.652.887.887,0,0,1,.7-.266.9.9,0,0,1,.7.266.937.937,0,0,1,.24.652.9.9,0,0,1-.24.643.916.916,0,0,1-.7.258.9.9,0,0,1-.7-.258.914.914,0,0,1-.236-.643m1.716,11.742h-1.587v-9.28h1.587Z" transform="translate(-27.388 -48.064)"/>
        <path id="Trazado_204434" data-name="Trazado 204434" d="M109.707,180.815v2.247h1.732v1.227h-1.732v5.762a1.287,1.287,0,0,0,.231.837.974.974,0,0,0,.79.28,3.833,3.833,0,0,0,.755-.1v1.279a4.608,4.608,0,0,1-1.218.171,1.977,1.977,0,0,1-1.6-.643,2.762,2.762,0,0,1-.54-1.827v-5.755h-1.69v-1.227h1.69v-2.247Z" transform="translate(-28.535 -48.479)"/>
        <path id="Trazado_204435" data-name="Trazado 204435" d="M115,188.377a5.473,5.473,0,0,1,.536-2.453,3.994,3.994,0,0,1,1.492-1.681,4.062,4.062,0,0,1,2.183-.592,3.915,3.915,0,0,1,3.067,1.312,5.05,5.05,0,0,1,1.17,3.491v.111a5.524,5.524,0,0,1-.519,2.431,3.934,3.934,0,0,1-1.484,1.677,4.109,4.109,0,0,1-2.217.6,3.9,3.9,0,0,1-3.058-1.312A5.026,5.026,0,0,1,115,188.489Zm1.6.189a3.969,3.969,0,0,0,.717,2.479,2.427,2.427,0,0,0,3.838-.013,4.343,4.343,0,0,0,.711-2.655,3.966,3.966,0,0,0-.725-2.475,2.3,2.3,0,0,0-1.926-.948,2.279,2.279,0,0,0-1.9.935,4.309,4.309,0,0,0-.72,2.676" transform="translate(-30.832 -49.239)"/>
        <path id="Trazado_204436" data-name="Trazado 204436" d="M148.172,217.722l4.082,10.189,4.082-10.189h2.136V230.21h-1.647v-4.863l.154-5.249-4.1,10.112H151.62l-4.091-10.086.163,5.224v4.863h-1.647V217.722Z" transform="translate(-39.156 -58.374)"/>
        <path id="Trazado_204437" data-name="Trazado 204437" d="M172.29,231.322a3.328,3.328,0,0,1-.223-.978,3.541,3.541,0,0,1-2.641,1.15,3.278,3.278,0,0,1-2.252-.777,2.512,2.512,0,0,1-.879-1.968,2.622,2.622,0,0,1,1.1-2.251,5.193,5.193,0,0,1,3.1-.8h1.544v-.729a1.783,1.783,0,0,0-.5-1.325,2,2,0,0,0-1.467-.493,2.316,2.316,0,0,0-1.424.429,1.264,1.264,0,0,0-.575,1.038h-1.6a2.191,2.191,0,0,1,.493-1.342,3.362,3.362,0,0,1,1.338-1.025,4.5,4.5,0,0,1,1.857-.378,3.671,3.671,0,0,1,2.513.8,2.892,2.892,0,0,1,.943,2.209v4.271a5.221,5.221,0,0,0,.326,2.032v.137Zm-2.633-1.209a2.794,2.794,0,0,0,1.415-.386,2.342,2.342,0,0,0,.969-1v-1.9H170.8q-2.917,0-2.917,1.707a1.445,1.445,0,0,0,.5,1.167,1.911,1.911,0,0,0,1.278.42" transform="translate(-44.585 -59.486)"/>
        <path id="Trazado_204438" data-name="Trazado 204438" d="M184.2,223.466a4.73,4.73,0,0,0-.781-.06,2.092,2.092,0,0,0-2.119,1.329v6.587h-1.587v-9.28h1.544l.026,1.072a2.471,2.471,0,0,1,2.213-1.244,1.629,1.629,0,0,1,.7.12Z" transform="translate(-48.183 -59.486)"/>
        <path id="Trazado_204439" data-name="Trazado 204439" d="M191.183,230.2a2.284,2.284,0,0,0,1.484-.515,1.81,1.81,0,0,0,.7-1.287h1.5a2.874,2.874,0,0,1-.549,1.518,3.613,3.613,0,0,1-1.351,1.15,3.9,3.9,0,0,1-1.788.429,3.823,3.823,0,0,1-3.015-1.265,5.037,5.037,0,0,1-1.119-3.46V226.5a5.59,5.59,0,0,1,.5-2.41,3.79,3.79,0,0,1,1.428-1.638,4.06,4.06,0,0,1,2.2-.583,3.723,3.723,0,0,1,2.595.935,3.339,3.339,0,0,1,1.1,2.428h-1.5a2.189,2.189,0,0,0-.681-1.48,2.123,2.123,0,0,0-1.514-.579,2.22,2.22,0,0,0-1.874.871,4.085,4.085,0,0,0-.665,2.517v.3a4,4,0,0,0,.66,2.47,2.231,2.231,0,0,0,1.887.867" transform="translate(-50.15 -59.486)"/>
        <path id="Trazado_204440" data-name="Trazado 204440" d="M205.806,231.322a3.328,3.328,0,0,1-.223-.978,3.541,3.541,0,0,1-2.641,1.15,3.278,3.278,0,0,1-2.252-.777,2.512,2.512,0,0,1-.879-1.968,2.622,2.622,0,0,1,1.1-2.251,5.193,5.193,0,0,1,3.1-.8h1.544v-.729a1.783,1.783,0,0,0-.5-1.325,2,2,0,0,0-1.467-.493,2.316,2.316,0,0,0-1.424.429,1.264,1.264,0,0,0-.575,1.038H200a2.191,2.191,0,0,1,.493-1.342,3.362,3.362,0,0,1,1.338-1.025,4.5,4.5,0,0,1,1.857-.378,3.671,3.671,0,0,1,2.513.8,2.892,2.892,0,0,1,.943,2.209v4.271a5.221,5.221,0,0,0,.326,2.032v.137Zm-2.633-1.209a2.794,2.794,0,0,0,1.415-.386,2.342,2.342,0,0,0,.969-1v-1.9h-1.243q-2.917,0-2.917,1.707a1.445,1.445,0,0,0,.5,1.167,1.911,1.911,0,0,0,1.278.42" transform="translate(-53.571 -59.486)"/>
        <path id="Trazado_204441" data-name="Trazado 204441" d="M358.743,226.185a4.6,4.6,0,0,1-1.462,3.058,4.793,4.793,0,0,1-3.272,1.076,4.4,4.4,0,0,1-3.546-1.587,6.381,6.381,0,0,1-1.334-4.245v-1.2a7.112,7.112,0,0,1,.622-3.062,4.644,4.644,0,0,1,1.762-2.028,4.9,4.9,0,0,1,2.641-.708,4.512,4.512,0,0,1,3.191,1.111,4.649,4.649,0,0,1,1.4,3.075h-1.656a3.588,3.588,0,0,0-.93-2.168,2.818,2.818,0,0,0-2-.671A2.946,2.946,0,0,0,351.68,220a5.357,5.357,0,0,0-.9,3.322v1.211a5.513,5.513,0,0,0,.849,3.236,2.746,2.746,0,0,0,2.376,1.2,3.171,3.171,0,0,0,2.106-.622,3.447,3.447,0,0,0,.973-2.166Z" transform="translate(-93.605 -58.311)"/>
        <path id="Trazado_204442" data-name="Trazado 204442" d="M370.628,231.322a3.325,3.325,0,0,1-.223-.978,3.541,3.541,0,0,1-2.641,1.15,3.278,3.278,0,0,1-2.252-.777,2.512,2.512,0,0,1-.879-1.968,2.622,2.622,0,0,1,1.1-2.251,5.193,5.193,0,0,1,3.1-.8h1.544v-.729a1.783,1.783,0,0,0-.5-1.325,2,2,0,0,0-1.467-.493,2.316,2.316,0,0,0-1.424.429,1.264,1.264,0,0,0-.575,1.038h-1.6a2.191,2.191,0,0,1,.493-1.342,3.362,3.362,0,0,1,1.338-1.025,4.5,4.5,0,0,1,1.857-.378,3.671,3.671,0,0,1,2.513.8,2.892,2.892,0,0,1,.943,2.209v4.271a5.222,5.222,0,0,0,.326,2.032v.137Zm-2.633-1.209a2.794,2.794,0,0,0,1.415-.386,2.342,2.342,0,0,0,.969-1v-1.9h-1.243q-2.917,0-2.917,1.707a1.445,1.445,0,0,0,.5,1.167,1.911,1.911,0,0,0,1.278.42" transform="translate(-97.762 -59.486)"/>
        <path id="Trazado_204443" data-name="Trazado 204443" d="M382.536,223.466a4.727,4.727,0,0,0-.78-.06,2.091,2.091,0,0,0-2.119,1.329v6.587H378.05v-9.28h1.544l.026,1.072a2.47,2.47,0,0,1,2.212-1.244,1.626,1.626,0,0,1,.7.12Z" transform="translate(-101.359 -59.486)"/>
        <path id="Trazado_204444" data-name="Trazado 204444" d="M391.335,231.322a3.328,3.328,0,0,1-.223-.978,3.541,3.541,0,0,1-2.641,1.15,3.278,3.278,0,0,1-2.252-.777,2.512,2.512,0,0,1-.879-1.968,2.622,2.622,0,0,1,1.1-2.251,5.193,5.193,0,0,1,3.1-.8h1.544v-.729a1.783,1.783,0,0,0-.5-1.325,2,2,0,0,0-1.467-.493,2.316,2.316,0,0,0-1.424.429,1.264,1.264,0,0,0-.574,1.038h-1.6a2.191,2.191,0,0,1,.493-1.342,3.362,3.362,0,0,1,1.338-1.025,4.5,4.5,0,0,1,1.857-.378,3.671,3.671,0,0,1,2.513.8,2.892,2.892,0,0,1,.943,2.209v4.271a5.22,5.22,0,0,0,.326,2.032v.137Zm-2.633-1.209a2.794,2.794,0,0,0,1.416-.386,2.342,2.342,0,0,0,.969-1v-1.9h-1.243q-2.917,0-2.917,1.707a1.445,1.445,0,0,0,.5,1.167,1.911,1.911,0,0,0,1.278.42" transform="translate(-103.314 -59.486)"/>
        <path id="Trazado_204445" data-name="Trazado 204445" d="M402.329,230.2a2.284,2.284,0,0,0,1.483-.515,1.808,1.808,0,0,0,.7-1.287h1.5a2.862,2.862,0,0,1-.549,1.518,3.613,3.613,0,0,1-1.351,1.15,3.9,3.9,0,0,1-1.787.429,3.823,3.823,0,0,1-3.015-1.265,5.037,5.037,0,0,1-1.119-3.46V226.5a5.589,5.589,0,0,1,.5-2.41,3.787,3.787,0,0,1,1.429-1.638,4.055,4.055,0,0,1,2.2-.583,3.724,3.724,0,0,1,2.595.935,3.339,3.339,0,0,1,1.1,2.428h-1.5a2.186,2.186,0,0,0-.681-1.48,2.123,2.123,0,0,0-1.514-.579,2.22,2.22,0,0,0-1.874.871,4.085,4.085,0,0,0-.665,2.517v.3a4,4,0,0,0,.661,2.47,2.23,2.23,0,0,0,1.887.867" transform="translate(-106.761 -59.486)"/>
        <path id="Trazado_204446" data-name="Trazado 204446" d="M413.061,219.035v2.247h1.732v1.227h-1.732v5.762a1.287,1.287,0,0,0,.231.837.974.974,0,0,0,.79.28,3.832,3.832,0,0,0,.755-.1v1.279a4.608,4.608,0,0,1-1.218.171,1.977,1.977,0,0,1-1.6-.643,2.762,2.762,0,0,1-.54-1.827v-5.755h-1.69v-1.227h1.69v-2.247Z" transform="translate(-109.868 -58.726)"/>
        <path id="Trazado_204447" data-name="Trazado 204447" d="M422.863,231.494a4.055,4.055,0,0,1-3.071-1.239,4.6,4.6,0,0,1-1.183-3.315v-.292a5.562,5.562,0,0,1,.528-2.466,4.11,4.11,0,0,1,1.475-1.7,3.709,3.709,0,0,1,2.054-.613,3.476,3.476,0,0,1,2.813,1.192,5.161,5.161,0,0,1,1,3.414v.66H420.2a3.294,3.294,0,0,0,.8,2.217,2.52,2.52,0,0,0,1.951.845,2.767,2.767,0,0,0,1.424-.343,3.6,3.6,0,0,0,1.021-.909l.969.755a3.9,3.9,0,0,1-3.5,1.792m-.2-8.319a2.116,2.116,0,0,0-1.612.7,3.4,3.4,0,0,0-.807,1.96H424.9v-.12a3.022,3.022,0,0,0-.652-1.874,1.993,1.993,0,0,0-1.578-.665" transform="translate(-112.234 -59.486)"/>
        <rect id="Rectángulo_44312" data-name="Rectángulo 44312" width="4.186" height="1.295" transform="translate(315.2 165.883)"/>
        <path id="Trazado_204448" data-name="Trazado 204448" d="M368.292,252.266a4.73,4.73,0,0,0-.78-.06,2.091,2.091,0,0,0-2.119,1.329v6.587h-1.587v-9.28h1.544l.026,1.072a2.47,2.47,0,0,1,2.213-1.244,1.625,1.625,0,0,1,.7.12Z" transform="translate(-97.54 -67.207)"/>
        <path id="Trazado_204449" data-name="Trazado 204449" d="M373.7,245.6h1.921l-2.3,2.522-1.278,0Zm-.017,13.166h-1.6v-9.28h1.6Z" transform="translate(-99.749 -65.847)"/>
        <path id="Trazado_204450" data-name="Trazado 204450" d="M383.119,257.66a1.168,1.168,0,0,0-.485-1,4.665,4.665,0,0,0-1.69-.613,8.02,8.02,0,0,1-1.912-.618,2.722,2.722,0,0,1-1.047-.858,2.054,2.054,0,0,1-.339-1.183,2.408,2.408,0,0,1,.965-1.93,3.772,3.772,0,0,1,2.466-.789,3.88,3.88,0,0,1,2.56.815,2.589,2.589,0,0,1,.982,2.084h-1.6a1.432,1.432,0,0,0-.553-1.123,2.071,2.071,0,0,0-1.393-.472,2.17,2.17,0,0,0-1.355.378,1.189,1.189,0,0,0-.489.987.961.961,0,0,0,.455.866,5.578,5.578,0,0,0,1.642.558,8.534,8.534,0,0,1,1.925.635,2.813,2.813,0,0,1,1.094.888,2.185,2.185,0,0,1,.356,1.265,2.375,2.375,0,0,1-.995,1.994,4.173,4.173,0,0,1-2.582.751,4.677,4.677,0,0,1-1.972-.394,3.214,3.214,0,0,1-1.342-1.1,2.66,2.66,0,0,1-.484-1.531h1.587a1.641,1.641,0,0,0,.639,1.265,2.478,2.478,0,0,0,1.574.468,2.559,2.559,0,0,0,1.445-.365,1.12,1.12,0,0,0,.545-.973" transform="translate(-101.166 -67.207)"/>
        <path id="Trazado_204451" data-name="Trazado 204451" d="M391.974,247.835v2.247h1.732v1.227h-1.732v5.762a1.287,1.287,0,0,0,.231.837.974.974,0,0,0,.79.28,3.834,3.834,0,0,0,.755-.1v1.279a4.607,4.607,0,0,1-1.218.171,1.978,1.978,0,0,1-1.6-.643,2.762,2.762,0,0,1-.54-1.827v-5.755H388.7v-1.227h1.69v-2.247Z" transform="translate(-104.214 -66.447)"/>
        <path id="Trazado_204452" data-name="Trazado 204452" d="M398.084,247.206a.946.946,0,0,1,.236-.652.886.886,0,0,1,.7-.266.9.9,0,0,1,.7.266.936.936,0,0,1,.24.652.9.9,0,0,1-.24.643.914.914,0,0,1-.7.258.9.9,0,0,1-.7-.258.914.914,0,0,1-.236-.643m1.715,11.742h-1.587v-9.28H399.8Z" transform="translate(-106.731 -66.033)"/>
        <path id="Trazado_204453" data-name="Trazado 204453" d="M407.468,259a2.284,2.284,0,0,0,1.484-.515,1.811,1.811,0,0,0,.7-1.287h1.5a2.874,2.874,0,0,1-.549,1.518,3.612,3.612,0,0,1-1.351,1.15,3.9,3.9,0,0,1-1.788.429,3.823,3.823,0,0,1-3.015-1.265,5.036,5.036,0,0,1-1.119-3.46V255.3a5.59,5.59,0,0,1,.5-2.41,3.789,3.789,0,0,1,1.428-1.638,4.06,4.06,0,0,1,2.2-.583,3.723,3.723,0,0,1,2.595.935,3.339,3.339,0,0,1,1.1,2.428h-1.5a2.189,2.189,0,0,0-.681-1.48,2.123,2.123,0,0,0-1.514-.579,2.22,2.22,0,0,0-1.874.871,4.085,4.085,0,0,0-.665,2.517v.3a4,4,0,0,0,.66,2.47,2.231,2.231,0,0,0,1.887.867" transform="translate(-108.138 -67.207)"/>
        <path id="Trazado_204454" data-name="Trazado 204454" d="M422.091,260.122a3.323,3.323,0,0,1-.223-.978,3.54,3.54,0,0,1-2.641,1.15,3.278,3.278,0,0,1-2.252-.777,2.512,2.512,0,0,1-.879-1.968,2.622,2.622,0,0,1,1.1-2.251,5.194,5.194,0,0,1,3.1-.8h1.544v-.729a1.783,1.783,0,0,0-.5-1.325,2,2,0,0,0-1.467-.493,2.316,2.316,0,0,0-1.424.429,1.264,1.264,0,0,0-.575,1.038h-1.6a2.191,2.191,0,0,1,.493-1.342,3.361,3.361,0,0,1,1.338-1.025,4.5,4.5,0,0,1,1.857-.378,3.671,3.671,0,0,1,2.513.8,2.892,2.892,0,0,1,.943,2.209v4.271a5.221,5.221,0,0,0,.326,2.032v.137Zm-2.633-1.209a2.794,2.794,0,0,0,1.415-.386,2.341,2.341,0,0,0,.969-1v-1.9H420.6q-2.917,0-2.917,1.707a1.445,1.445,0,0,0,.5,1.167,1.911,1.911,0,0,0,1.278.42" transform="translate(-111.56 -67.207)"/>
        <path id="Trazado_204455" data-name="Trazado 204455" d="M434.775,257.66a1.168,1.168,0,0,0-.484-1,4.665,4.665,0,0,0-1.69-.613,8.02,8.02,0,0,1-1.912-.618,2.723,2.723,0,0,1-1.047-.858,2.055,2.055,0,0,1-.339-1.183,2.408,2.408,0,0,1,.965-1.93,3.772,3.772,0,0,1,2.466-.789,3.88,3.88,0,0,1,2.56.815,2.589,2.589,0,0,1,.982,2.084h-1.6a1.432,1.432,0,0,0-.553-1.123,2.071,2.071,0,0,0-1.393-.472,2.17,2.17,0,0,0-1.355.378,1.189,1.189,0,0,0-.489.987.961.961,0,0,0,.455.866,5.579,5.579,0,0,0,1.642.558,8.534,8.534,0,0,1,1.925.635,2.813,2.813,0,0,1,1.094.888,2.185,2.185,0,0,1,.356,1.265,2.375,2.375,0,0,1-.995,1.994,4.173,4.173,0,0,1-2.582.751,4.678,4.678,0,0,1-1.972-.394,3.215,3.215,0,0,1-1.342-1.1,2.66,2.66,0,0,1-.484-1.531h1.587a1.642,1.642,0,0,0,.639,1.265,2.478,2.478,0,0,0,1.574.468,2.559,2.559,0,0,0,1.445-.365,1.12,1.12,0,0,0,.544-.973" transform="translate(-115.016 -67.207)"/>
        <path id="Trazado_204456" data-name="Trazado 204456" d="M352.378,359.816V347.328H355.9a5.67,5.67,0,0,1,2.882.721,4.867,4.867,0,0,1,1.934,2.049,6.667,6.667,0,0,1,.691,3.053v.8a6.7,6.7,0,0,1-.682,3.1,4.8,4.8,0,0,1-1.947,2.041,6.041,6.041,0,0,1-2.946.729Zm1.647-11.142v9.795h1.732a3.769,3.769,0,0,0,2.963-1.184,4.9,4.9,0,0,0,1.059-3.374v-.73a4.971,4.971,0,0,0-1-3.309,3.557,3.557,0,0,0-2.835-1.2Z" transform="translate(-94.476 -93.123)"/>
        <path id="Trazado_204457" data-name="Trazado 204457" d="M367.788,348.011a.946.946,0,0,1,.236-.651.884.884,0,0,1,.7-.266.9.9,0,0,1,.7.266.936.936,0,0,1,.24.651.9.9,0,0,1-.24.643.914.914,0,0,1-.7.258.9.9,0,0,1-.7-.258.914.914,0,0,1-.236-.643m1.715,11.742h-1.587v-9.28H369.5Z" transform="translate(-98.608 -93.06)"/>
        <path id="Trazado_204458" data-name="Trazado 204458" d="M378.862,358.466a1.168,1.168,0,0,0-.484-1,4.667,4.667,0,0,0-1.69-.613,8.024,8.024,0,0,1-1.912-.618,2.722,2.722,0,0,1-1.047-.858,2.054,2.054,0,0,1-.339-1.183,2.408,2.408,0,0,1,.965-1.93,3.771,3.771,0,0,1,2.466-.789,3.879,3.879,0,0,1,2.56.815,2.588,2.588,0,0,1,.982,2.084h-1.6a1.432,1.432,0,0,0-.553-1.123,2.071,2.071,0,0,0-1.393-.472,2.17,2.17,0,0,0-1.355.378,1.189,1.189,0,0,0-.489.987.961.961,0,0,0,.455.866,5.578,5.578,0,0,0,1.642.558A8.531,8.531,0,0,1,379,356.2a2.813,2.813,0,0,1,1.094.888,2.185,2.185,0,0,1,.356,1.265,2.374,2.374,0,0,1-.995,1.994,4.173,4.173,0,0,1-2.582.751,4.677,4.677,0,0,1-1.972-.394,3.214,3.214,0,0,1-1.342-1.1,2.66,2.66,0,0,1-.484-1.531h1.587a1.642,1.642,0,0,0,.639,1.265,2.478,2.478,0,0,0,1.574.468,2.559,2.559,0,0,0,1.445-.364,1.12,1.12,0,0,0,.545-.973" transform="translate(-100.025 -94.235)"/>
        <path id="Trazado_204459" data-name="Trazado 204459" d="M389.678,361.1a4.055,4.055,0,0,1-3.071-1.239,4.6,4.6,0,0,1-1.183-3.315v-.292a5.563,5.563,0,0,1,.528-2.466,4.111,4.111,0,0,1,1.475-1.7,3.709,3.709,0,0,1,2.054-.613,3.476,3.476,0,0,1,2.813,1.192,5.161,5.161,0,0,1,1,3.414v.66h-6.287a3.294,3.294,0,0,0,.8,2.217,2.52,2.52,0,0,0,1.951.845,2.767,2.767,0,0,0,1.424-.343,3.6,3.6,0,0,0,1.021-.909l.969.755a3.9,3.9,0,0,1-3.5,1.792m-.2-8.319a2.116,2.116,0,0,0-1.612.7,3.4,3.4,0,0,0-.807,1.96h4.649v-.12a3.022,3.022,0,0,0-.652-1.874,1.993,1.993,0,0,0-1.578-.665" transform="translate(-103.337 -94.235)"/>
        <path id="Trazado_204460" data-name="Trazado 204460" d="M400.191,350.346l.051,1.167a3.382,3.382,0,0,1,2.779-1.338q2.942,0,2.968,3.319v6.133H404.4v-6.141a2.137,2.137,0,0,0-.459-1.484,1.84,1.84,0,0,0-1.4-.48,2.288,2.288,0,0,0-1.355.411,2.791,2.791,0,0,0-.91,1.081v6.613H398.69v-9.28Zm5.249-3.619a2.132,2.132,0,0,1-.528,1.5,1.713,1.713,0,0,1-1.317.575,1.937,1.937,0,0,1-.609-.086,3.279,3.279,0,0,1-.673-.352,2.926,2.926,0,0,0-.6-.321,1.465,1.465,0,0,0-.424-.056.786.786,0,0,0-.6.27.977.977,0,0,0-.249.69l-1.063-.06a2.237,2.237,0,0,1,.519-1.518,1.663,1.663,0,0,1,1.317-.6,1.6,1.6,0,0,1,.54.086,3.9,3.9,0,0,1,.652.334,3.854,3.854,0,0,0,.63.326,1.454,1.454,0,0,0,.485.078.767.767,0,0,0,.613-.292,1.021,1.021,0,0,0,.245-.678Z" transform="translate(-106.893 -92.934)"/>
        <path id="Trazado_204461" data-name="Trazado 204461" d="M411.358,356.2a5.473,5.473,0,0,1,.536-2.453,3.994,3.994,0,0,1,1.492-1.681,4.062,4.062,0,0,1,2.182-.592,3.915,3.915,0,0,1,3.067,1.312,5.049,5.049,0,0,1,1.17,3.491v.111a5.524,5.524,0,0,1-.519,2.431A3.935,3.935,0,0,1,417.8,360.5a4.109,4.109,0,0,1-2.217.6,3.9,3.9,0,0,1-3.058-1.312,5.026,5.026,0,0,1-1.171-3.474Zm1.6.189a3.969,3.969,0,0,0,.717,2.479,2.427,2.427,0,0,0,3.838-.013,4.343,4.343,0,0,0,.711-2.655,3.966,3.966,0,0,0-.725-2.475,2.3,2.3,0,0,0-1.926-.948,2.279,2.279,0,0,0-1.9.935,4.309,4.309,0,0,0-.72,2.676" transform="translate(-110.29 -94.235)"/>
        <path id="Trazado_204462" data-name="Trazado 204462" d="M242.4,412.847h-5.412v4.426h6.287v1.347h-7.934V406.131h7.848v1.347h-6.2V411.5H242.4Z" transform="translate(-63.099 -108.888)"/>
        <path id="Trazado_204463" data-name="Trazado 204463" d="M250.136,410.451l.043,1.029a3.425,3.425,0,0,1,2.753-1.2,2.652,2.652,0,0,1,2.65,1.492,3.512,3.512,0,0,1,1.205-1.081,3.56,3.56,0,0,1,1.754-.411q3.054,0,3.105,3.233v6.218H260.06v-6.125a2.132,2.132,0,0,0-.454-1.488,2,2,0,0,0-1.527-.493,2.105,2.105,0,0,0-1.467.528,2.139,2.139,0,0,0-.678,1.42v6.158h-1.6V413.65a1.77,1.77,0,0,0-1.981-2.024,2.124,2.124,0,0,0-2.136,1.33v6.776h-1.587v-9.28Z" transform="translate(-66.662 -110.001)"/>
        <path id="Trazado_204464" data-name="Trazado 204464" d="M277.521,415.195a5.556,5.556,0,0,1-.969,3.414,3.106,3.106,0,0,1-2.625,1.3,3.405,3.405,0,0,1-2.659-1.072V423.3h-1.587V410.452h1.45l.077,1.029a3.268,3.268,0,0,1,2.693-1.2,3.164,3.164,0,0,1,2.646,1.261,5.616,5.616,0,0,1,.973,3.508Zm-1.587-.18a4.1,4.1,0,0,0-.669-2.479,2.155,2.155,0,0,0-1.836-.909,2.333,2.333,0,0,0-2.161,1.278v4.435a2.337,2.337,0,0,0,2.179,1.269,2.144,2.144,0,0,0,1.814-.9,4.477,4.477,0,0,0,.673-2.689" transform="translate(-72.305 -110.001)"/>
        <path id="Trazado_204465" data-name="Trazado 204465" d="M288.78,419.732a3.327,3.327,0,0,1-.223-.978,3.541,3.541,0,0,1-2.641,1.15,3.278,3.278,0,0,1-2.252-.777,2.512,2.512,0,0,1-.879-1.968,2.622,2.622,0,0,1,1.1-2.251,5.193,5.193,0,0,1,3.1-.8h1.544v-.729a1.783,1.783,0,0,0-.5-1.325,2,2,0,0,0-1.467-.493,2.316,2.316,0,0,0-1.424.429,1.264,1.264,0,0,0-.575,1.038h-1.6a2.191,2.191,0,0,1,.493-1.342,3.362,3.362,0,0,1,1.338-1.025,4.5,4.5,0,0,1,1.857-.378,3.671,3.671,0,0,1,2.513.8,2.892,2.892,0,0,1,.943,2.209v4.271a5.221,5.221,0,0,0,.326,2.032v.137Zm-2.633-1.209a2.794,2.794,0,0,0,1.415-.386,2.342,2.342,0,0,0,.969-1v-1.9h-1.243q-2.917,0-2.917,1.707a1.445,1.445,0,0,0,.5,1.167,1.911,1.911,0,0,0,1.278.42" transform="translate(-75.818 -110.001)"/>
        <path id="Trazado_204466" data-name="Trazado 204466" d="M295.674,415.015a5.45,5.45,0,0,1,1-3.461,3.542,3.542,0,0,1,5.292-.167l.068-.935H303.5V423.3H301.91v-4.426a3.331,3.331,0,0,1-2.557,1.03,3.2,3.2,0,0,1-2.68-1.309,5.567,5.567,0,0,1-1-3.469Zm1.587.18a4.131,4.131,0,0,0,.673,2.5,2.141,2.141,0,0,0,1.814.909,2.377,2.377,0,0,0,2.162-1.252V412.81a2.385,2.385,0,0,0-2.144-1.227,2.157,2.157,0,0,0-1.827.913,4.5,4.5,0,0,0-.678,2.7" transform="translate(-79.274 -110.001)"/>
        <path id="Trazado_204467" data-name="Trazado 204467" d="M315.56,418.877a3.371,3.371,0,0,1-2.719,1.089,2.886,2.886,0,0,1-2.26-.861,3.735,3.735,0,0,1-.785-2.552v-6.038h1.587v6q0,2.11,1.716,2.109a2.374,2.374,0,0,0,2.418-1.355v-6.75H317.1v9.28h-1.509Z" transform="translate(-83.06 -110.063)"/>
        <path id="Trazado_204468" data-name="Trazado 204468" d="M326.776,419.9a4.055,4.055,0,0,1-3.071-1.239,4.6,4.6,0,0,1-1.183-3.315v-.292a5.562,5.562,0,0,1,.528-2.466,4.111,4.111,0,0,1,1.475-1.7,3.709,3.709,0,0,1,2.054-.613,3.476,3.476,0,0,1,2.813,1.192,5.161,5.161,0,0,1,1,3.414v.66h-6.287a3.294,3.294,0,0,0,.8,2.217,2.52,2.52,0,0,0,1.951.845,2.767,2.767,0,0,0,1.424-.343,3.6,3.6,0,0,0,1.021-.909l.969.755a3.9,3.9,0,0,1-3.5,1.792m-.2-8.319a2.116,2.116,0,0,0-1.612.7,3.4,3.4,0,0,0-.807,1.96h4.649v-.12a3.022,3.022,0,0,0-.652-1.874,1.993,1.993,0,0,0-1.578-.665" transform="translate(-86.472 -110.001)"/>
        <path id="Trazado_204469" data-name="Trazado 204469" d="M141.38,302.216h-1.656l-6.287-9.623v9.623h-1.655V289.729h1.655l6.3,9.666v-9.666h1.638Z" transform="translate(-35.333 -77.679)"/>
        <path id="Trazado_204470" data-name="Trazado 204470" d="M148.564,290.412a.95.95,0,0,1,.236-.652.887.887,0,0,1,.7-.266.9.9,0,0,1,.7.266.937.937,0,0,1,.241.652.983.983,0,0,1-1.643.643.92.92,0,0,1-.236-.643m1.716,11.742h-1.587v-9.28h1.587Z" transform="translate(-39.832 -77.617)"/>
        <path id="Trazado_204471" data-name="Trazado 204471" d="M157.1,301.238l2.3-7.127h1.62l-3.327,9.28h-1.21l-3.362-9.28h1.62Z" transform="translate(-41.054 -78.855)"/>
        <path id="Trazado_204472" data-name="Trazado 204472" d="M169.552,303.5a4.056,4.056,0,0,1-3.071-1.239,4.6,4.6,0,0,1-1.183-3.315v-.292a5.552,5.552,0,0,1,.528-2.466,4.1,4.1,0,0,1,1.475-1.7,3.705,3.705,0,0,1,2.054-.613,3.477,3.477,0,0,1,2.813,1.192,5.161,5.161,0,0,1,1,3.414v.66h-6.287a3.29,3.29,0,0,0,.8,2.217,2.519,2.519,0,0,0,1.951.845,2.764,2.764,0,0,0,1.423-.343,3.6,3.6,0,0,0,1.021-.909l.97.755a3.9,3.9,0,0,1-3.5,1.792m-.2-8.319a2.115,2.115,0,0,0-1.612.7,3.4,3.4,0,0,0-.807,1.96h4.65v-.12a3.022,3.022,0,0,0-.653-1.874,1.991,1.991,0,0,0-1.577-.665" transform="translate(-44.318 -78.792)"/>
        <rect id="Rectángulo_44313" data-name="Rectángulo 44313" width="1.587" height="13.174" transform="translate(130.827 211.363)"/>
        <path id="Trazado_204473" data-name="Trazado 204473" d="M144.263,326.047a5.435,5.435,0,0,1,1.012-3.435,3.442,3.442,0,0,1,5.232-.184V317.59h1.587v13.174h-1.458l-.077-.995a3.234,3.234,0,0,1-2.65,1.167,3.169,3.169,0,0,1-2.629-1.321,5.5,5.5,0,0,1-1.017-3.448Zm1.587.18a4.115,4.115,0,0,0,.652,2.47,2.108,2.108,0,0,0,1.8.892,2.314,2.314,0,0,0,2.2-1.355v-4.263a2.332,2.332,0,0,0-2.187-1.312,2.117,2.117,0,0,0-1.818.9,4.533,4.533,0,0,0-.652,2.668" transform="translate(-38.679 -85.149)"/>
        <path id="Trazado_204474" data-name="Trazado 204474" d="M162.029,332.3a4.055,4.055,0,0,1-3.071-1.239,4.6,4.6,0,0,1-1.183-3.315v-.292a5.562,5.562,0,0,1,.528-2.466,4.111,4.111,0,0,1,1.475-1.7,3.709,3.709,0,0,1,2.054-.613,3.476,3.476,0,0,1,2.813,1.192,5.161,5.161,0,0,1,1,3.414v.66h-6.287a3.294,3.294,0,0,0,.8,2.217,2.52,2.52,0,0,0,1.951.845,2.767,2.767,0,0,0,1.424-.343,3.6,3.6,0,0,0,1.021-.909l.969.755a3.9,3.9,0,0,1-3.5,1.792m-.2-8.319a2.116,2.116,0,0,0-1.612.7,3.4,3.4,0,0,0-.807,1.96h4.649v-.12a3.022,3.022,0,0,0-.652-1.874,1.993,1.993,0,0,0-1.578-.665" transform="translate(-42.301 -86.513)"/>
        <path id="Trazado_204475" data-name="Trazado 204475" d="M167.353,359.8a2.284,2.284,0,0,0,1.484-.515,1.81,1.81,0,0,0,.7-1.287h1.5a2.874,2.874,0,0,1-.549,1.518,3.612,3.612,0,0,1-1.351,1.15,3.9,3.9,0,0,1-1.788.429,3.823,3.823,0,0,1-3.015-1.265,5.037,5.037,0,0,1-1.119-3.46v-.266a5.589,5.589,0,0,1,.5-2.41,3.789,3.789,0,0,1,1.428-1.638,4.059,4.059,0,0,1,2.2-.583,3.723,3.723,0,0,1,2.595.935,3.339,3.339,0,0,1,1.1,2.428h-1.5a2.189,2.189,0,0,0-.681-1.48,2.123,2.123,0,0,0-1.514-.579,2.22,2.22,0,0,0-1.874.871,4.085,4.085,0,0,0-.665,2.517v.3a4,4,0,0,0,.66,2.47,2.231,2.231,0,0,0,1.887.867" transform="translate(-43.761 -94.235)"/>
        <path id="Trazado_204476" data-name="Trazado 204476" d="M181.976,360.928a3.327,3.327,0,0,1-.223-.978,3.541,3.541,0,0,1-2.641,1.15,3.278,3.278,0,0,1-2.252-.777,2.512,2.512,0,0,1-.879-1.968,2.622,2.622,0,0,1,1.1-2.251,5.193,5.193,0,0,1,3.1-.8h1.544v-.729a1.783,1.783,0,0,0-.5-1.325,2,2,0,0,0-1.467-.493,2.316,2.316,0,0,0-1.424.429,1.263,1.263,0,0,0-.575,1.038h-1.6a2.191,2.191,0,0,1,.493-1.342A3.362,3.362,0,0,1,178,351.854a4.5,4.5,0,0,1,1.857-.378,3.671,3.671,0,0,1,2.513.8,2.892,2.892,0,0,1,.943,2.209v4.271a5.221,5.221,0,0,0,.326,2.032v.137Zm-2.633-1.209a2.794,2.794,0,0,0,1.415-.386,2.342,2.342,0,0,0,.969-1v-1.9h-1.243q-2.917,0-2.917,1.707a1.445,1.445,0,0,0,.5,1.167,1.911,1.911,0,0,0,1.278.42" transform="translate(-47.182 -94.235)"/>
        <rect id="Rectángulo_44314" data-name="Rectángulo 44314" width="1.587" height="13.174" transform="translate(138.756 253.519)"/>
        <path id="Trazado_204477" data-name="Trazado 204477" d="M195.234,348.011a.949.949,0,0,1,.236-.651.885.885,0,0,1,.7-.266.9.9,0,0,1,.7.266.936.936,0,0,1,.241.651.982.982,0,0,1-1.643.643.918.918,0,0,1-.236-.643m1.716,11.742h-1.587v-9.28h1.587Z" transform="translate(-52.344 -93.06)"/>
        <path id="Trazado_204478" data-name="Trazado 204478" d="M200.519,354.847a5.434,5.434,0,0,1,1.012-3.435,3.442,3.442,0,0,1,5.232-.184V346.39h1.587v13.174h-1.458l-.077-.995a3.234,3.234,0,0,1-2.65,1.167,3.169,3.169,0,0,1-2.629-1.321,5.5,5.5,0,0,1-1.017-3.448Zm1.587.18a4.115,4.115,0,0,0,.652,2.47,2.108,2.108,0,0,0,1.8.892,2.314,2.314,0,0,0,2.2-1.355v-4.263a2.332,2.332,0,0,0-2.187-1.312,2.117,2.117,0,0,0-1.818.9,4.533,4.533,0,0,0-.652,2.668" transform="translate(-53.761 -92.871)"/>
        <path id="Trazado_204479" data-name="Trazado 204479" d="M220.214,360.928a3.326,3.326,0,0,1-.223-.978,3.541,3.541,0,0,1-2.641,1.15,3.278,3.278,0,0,1-2.252-.777,2.512,2.512,0,0,1-.879-1.968,2.622,2.622,0,0,1,1.1-2.251,5.193,5.193,0,0,1,3.1-.8h1.544v-.729a1.783,1.783,0,0,0-.5-1.325,2,2,0,0,0-1.467-.493,2.316,2.316,0,0,0-1.424.429,1.263,1.263,0,0,0-.575,1.038h-1.6a2.191,2.191,0,0,1,.493-1.342,3.362,3.362,0,0,1,1.338-1.025,4.5,4.5,0,0,1,1.857-.378,3.671,3.671,0,0,1,2.513.8,2.892,2.892,0,0,1,.943,2.209v4.271a5.221,5.221,0,0,0,.326,2.032v.137Zm-2.633-1.209a2.794,2.794,0,0,0,1.415-.386,2.342,2.342,0,0,0,.969-1v-1.9h-1.243q-2.917,0-2.917,1.707a1.445,1.445,0,0,0,.5,1.167,1.911,1.911,0,0,0,1.278.42" transform="translate(-57.434 -94.235)"/>
        <path id="Trazado_204480" data-name="Trazado 204480" d="M227.109,354.847a5.435,5.435,0,0,1,1.012-3.435,3.442,3.442,0,0,1,5.232-.184V346.39h1.587v13.174h-1.458l-.077-.995a3.234,3.234,0,0,1-2.65,1.167,3.169,3.169,0,0,1-2.629-1.321,5.5,5.5,0,0,1-1.017-3.448Zm1.587.18a4.115,4.115,0,0,0,.652,2.47,2.108,2.108,0,0,0,1.8.892,2.314,2.314,0,0,0,2.2-1.355v-4.263a2.332,2.332,0,0,0-2.187-1.312,2.117,2.117,0,0,0-1.818.9,4.533,4.533,0,0,0-.652,2.668" transform="translate(-60.89 -92.871)"/>
        <path id="Trazado_204481" data-name="Trazado 204481" d="M412.483,143.592a7.741,7.741,0,0,1-3.083-1.5,2.86,2.86,0,0,1-.965-2.191,3.021,3.021,0,0,1,1.179-2.44,4.687,4.687,0,0,1,3.067-.965,5.116,5.116,0,0,1,2.294.5,3.772,3.772,0,0,1,1.561,1.372,3.51,3.51,0,0,1,.553,1.913h-1.656a2.284,2.284,0,0,0-.72-1.787,2.929,2.929,0,0,0-2.032-.65,3,3,0,0,0-1.9.537,1.793,1.793,0,0,0-.682,1.491,1.611,1.611,0,0,0,.648,1.293,6.37,6.37,0,0,0,2.2.967,10.24,10.24,0,0,1,2.436.965,3.7,3.7,0,0,1,1.3,1.231,3.137,3.137,0,0,1,.424,1.656,2.918,2.918,0,0,1-1.183,2.431,5.047,5.047,0,0,1-3.165.913,5.876,5.876,0,0,1-2.4-.493,4.039,4.039,0,0,1-1.719-1.351,3.3,3.3,0,0,1-.6-1.947h1.655a2.152,2.152,0,0,0,.837,1.789,3.524,3.524,0,0,0,2.234.656,3.234,3.234,0,0,0,2-.532,1.726,1.726,0,0,0,.695-1.449,1.7,1.7,0,0,0-.643-1.419,7.4,7.4,0,0,0-2.333-.991" transform="translate(-109.4 -36.597)"/>
        <path id="Trazado_204482" data-name="Trazado 204482" d="M426.685,150.5a4.055,4.055,0,0,1-3.071-1.239,4.6,4.6,0,0,1-1.183-3.315v-.292a5.561,5.561,0,0,1,.528-2.466,4.11,4.11,0,0,1,1.475-1.7,3.708,3.708,0,0,1,2.054-.613,3.476,3.476,0,0,1,2.813,1.192,5.161,5.161,0,0,1,1,3.414v.66h-6.287a3.294,3.294,0,0,0,.8,2.217,2.52,2.52,0,0,0,1.951.845,2.767,2.767,0,0,0,1.424-.343,3.6,3.6,0,0,0,1.021-.909l.969.755a3.9,3.9,0,0,1-3.5,1.792m-.2-8.319a2.116,2.116,0,0,0-1.612.7,3.4,3.4,0,0,0-.807,1.96h4.649v-.12a3.022,3.022,0,0,0-.652-1.874,1.993,1.993,0,0,0-1.578-.665" transform="translate(-113.258 -37.772)"/>
        <path id="Trazado_204483" data-name="Trazado 204483" d="M440.182,142.477a4.731,4.731,0,0,0-.78-.06,2.091,2.091,0,0,0-2.119,1.329v6.587H435.7v-9.28h1.543l.026,1.072a2.47,2.47,0,0,1,2.212-1.244,1.626,1.626,0,0,1,.7.12Z" transform="translate(-116.815 -37.772)"/>
        <path id="Trazado_204484" data-name="Trazado 204484" d="M446.754,148.243l2.3-7.127h1.62l-3.327,9.28h-1.21l-3.362-9.28h1.62Z" transform="translate(-118.713 -37.835)"/>
        <path id="Trazado_204485" data-name="Trazado 204485" d="M455.665,137.417a.946.946,0,0,1,.236-.652.886.886,0,0,1,.7-.266.9.9,0,0,1,.7.266.936.936,0,0,1,.24.652.9.9,0,0,1-.24.643.914.914,0,0,1-.7.258.9.9,0,0,1-.7-.258.914.914,0,0,1-.236-.643m1.715,11.741h-1.587v-9.28h1.587Z" transform="translate(-122.169 -36.597)"/>
        <path id="Trazado_204486" data-name="Trazado 204486" d="M465.049,149.209a2.284,2.284,0,0,0,1.484-.514,1.81,1.81,0,0,0,.7-1.287h1.5a2.874,2.874,0,0,1-.549,1.518,3.612,3.612,0,0,1-1.351,1.15,3.9,3.9,0,0,1-1.788.429,3.823,3.823,0,0,1-3.015-1.265,5.036,5.036,0,0,1-1.119-3.46v-.266a5.589,5.589,0,0,1,.5-2.41,3.789,3.789,0,0,1,1.428-1.638,4.06,4.06,0,0,1,2.2-.583,3.723,3.723,0,0,1,2.595.935,3.339,3.339,0,0,1,1.1,2.428h-1.5a2.189,2.189,0,0,0-.681-1.48,2.123,2.123,0,0,0-1.514-.579,2.22,2.22,0,0,0-1.874.871,4.085,4.085,0,0,0-.665,2.517v.3a4,4,0,0,0,.66,2.47,2.231,2.231,0,0,0,1.887.867" transform="translate(-123.576 -37.772)"/>
        <path id="Trazado_204487" data-name="Trazado 204487" d="M474.051,137.417a.947.947,0,0,1,.236-.652.886.886,0,0,1,.7-.266.9.9,0,0,1,.7.266.936.936,0,0,1,.24.652.9.9,0,0,1-.24.643.914.914,0,0,1-.7.258.9.9,0,0,1-.7-.258.914.914,0,0,1-.236-.643m1.716,11.741H474.18v-9.28h1.587Z" transform="translate(-127.098 -36.597)"/>
        <path id="Trazado_204488" data-name="Trazado 204488" d="M479.289,145.607a5.482,5.482,0,0,1,.536-2.453,3.994,3.994,0,0,1,1.492-1.681,4.062,4.062,0,0,1,2.182-.592,3.913,3.913,0,0,1,3.067,1.312,5.05,5.05,0,0,1,1.17,3.491v.111a5.534,5.534,0,0,1-.518,2.431,3.94,3.94,0,0,1-1.484,1.677,4.109,4.109,0,0,1-2.216.6,3.907,3.907,0,0,1-3.059-1.312,5.026,5.026,0,0,1-1.171-3.474Zm1.6.189a3.973,3.973,0,0,0,.716,2.479,2.428,2.428,0,0,0,3.839-.013,4.348,4.348,0,0,0,.711-2.655,3.962,3.962,0,0,0-.725-2.475,2.409,2.409,0,0,0-3.821-.012,4.309,4.309,0,0,0-.719,2.676" transform="translate(-128.503 -37.772)"/>
        <path id="Trazado_204489" data-name="Trazado 204489" d="M443.746,174.6a5.556,5.556,0,0,1-.969,3.414,3.106,3.106,0,0,1-2.625,1.3,3.405,3.405,0,0,1-2.659-1.072V182.7h-1.587V169.853h1.45l.077,1.029a3.268,3.268,0,0,1,2.693-1.2,3.164,3.164,0,0,1,2.646,1.261,5.615,5.615,0,0,1,.973,3.508Zm-1.587-.18a4.1,4.1,0,0,0-.669-2.479,2.155,2.155,0,0,0-1.836-.909,2.332,2.332,0,0,0-2.161,1.278v4.435a2.337,2.337,0,0,0,2.179,1.269,2.144,2.144,0,0,0,1.814-.9,4.477,4.477,0,0,0,.673-2.689" transform="translate(-116.872 -45.493)"/>
        <path id="Trazado_204490" data-name="Trazado 204490" d="M448.8,174.407a5.472,5.472,0,0,1,.536-2.453,4,4,0,0,1,1.492-1.681,4.062,4.062,0,0,1,2.182-.592,3.915,3.915,0,0,1,3.067,1.312,5.049,5.049,0,0,1,1.17,3.491v.111a5.524,5.524,0,0,1-.519,2.431,3.934,3.934,0,0,1-1.484,1.677,4.109,4.109,0,0,1-2.217.6,3.9,3.9,0,0,1-3.058-1.312,5.026,5.026,0,0,1-1.171-3.474Zm1.6.189a3.969,3.969,0,0,0,.716,2.479,2.427,2.427,0,0,0,3.838-.013,4.343,4.343,0,0,0,.711-2.655,3.966,3.966,0,0,0-.725-2.474,2.3,2.3,0,0,0-1.926-.948,2.279,2.279,0,0,0-1.9.935,4.309,4.309,0,0,0-.72,2.676" transform="translate(-120.327 -45.493)"/>
        <path id="Trazado_204491" data-name="Trazado 204491" d="M468.321,176.671a1.168,1.168,0,0,0-.484-1,4.665,4.665,0,0,0-1.69-.613,8.022,8.022,0,0,1-1.912-.618,2.722,2.722,0,0,1-1.047-.858,2.054,2.054,0,0,1-.339-1.183,2.408,2.408,0,0,1,.965-1.93,3.771,3.771,0,0,1,2.466-.789,3.879,3.879,0,0,1,2.56.815,2.589,2.589,0,0,1,.982,2.084h-1.6a1.432,1.432,0,0,0-.553-1.123,2.071,2.071,0,0,0-1.393-.472,2.171,2.171,0,0,0-1.356.378,1.189,1.189,0,0,0-.489.987.961.961,0,0,0,.455.866,5.578,5.578,0,0,0,1.642.558,8.533,8.533,0,0,1,1.925.635,2.813,2.813,0,0,1,1.094.888,2.185,2.185,0,0,1,.356,1.265,2.375,2.375,0,0,1-.995,1.994,4.173,4.173,0,0,1-2.582.751,4.678,4.678,0,0,1-1.972-.394,3.215,3.215,0,0,1-1.342-1.1,2.66,2.66,0,0,1-.484-1.531h1.587a1.642,1.642,0,0,0,.639,1.265,2.478,2.478,0,0,0,1.574.468,2.559,2.559,0,0,0,1.445-.364,1.12,1.12,0,0,0,.544-.973" transform="translate(-124.01 -45.493)"/>
        <path id="Trazado_204492" data-name="Trazado 204492" d="M477.176,166.845v2.247h1.732v1.227h-1.732v5.762a1.287,1.287,0,0,0,.231.837.974.974,0,0,0,.79.28,3.833,3.833,0,0,0,.755-.1v1.279a4.609,4.609,0,0,1-1.218.171,1.977,1.977,0,0,1-1.6-.643,2.761,2.761,0,0,1-.54-1.827v-5.755H473.9v-1.227h1.69v-2.247Z" transform="translate(-127.058 -44.733)"/>
        <path id="Trazado_204493" data-name="Trazado 204493" d="M486.977,179.3a4.055,4.055,0,0,1-3.071-1.239,4.6,4.6,0,0,1-1.183-3.315v-.292a5.562,5.562,0,0,1,.528-2.466,4.111,4.111,0,0,1,1.475-1.7,3.709,3.709,0,0,1,2.054-.613,3.476,3.476,0,0,1,2.813,1.192,5.161,5.161,0,0,1,1,3.414v.66H484.31a3.294,3.294,0,0,0,.8,2.217,2.52,2.52,0,0,0,1.951.845,2.767,2.767,0,0,0,1.424-.343,3.6,3.6,0,0,0,1.021-.909l.969.755a3.9,3.9,0,0,1-3.5,1.792m-.2-8.319a2.116,2.116,0,0,0-1.612.7,3.4,3.4,0,0,0-.807,1.96h4.649v-.12a3.022,3.022,0,0,0-.652-1.874,1.993,1.993,0,0,0-1.578-.665" transform="translate(-129.423 -45.494)"/>
        <path id="Trazado_204494" data-name="Trazado 204494" d="M500.475,171.277a4.731,4.731,0,0,0-.78-.06,2.091,2.091,0,0,0-2.119,1.329v6.587h-1.587v-9.28h1.544l.026,1.072a2.47,2.47,0,0,1,2.213-1.244,1.626,1.626,0,0,1,.7.12Z" transform="translate(-132.98 -45.493)"/>
        <path id="Trazado_204495" data-name="Trazado 204495" d="M504.122,166.216a.946.946,0,0,1,.236-.651.886.886,0,0,1,.7-.266.9.9,0,0,1,.7.266.935.935,0,0,1,.24.651.9.9,0,0,1-.24.643.914.914,0,0,1-.7.258.9.9,0,0,1-.7-.258.914.914,0,0,1-.236-.643m1.716,11.742h-1.587v-9.28h1.587Z" transform="translate(-135.161 -44.318)"/>
        <path id="Trazado_204496" data-name="Trazado 204496" d="M509.36,174.407a5.472,5.472,0,0,1,.536-2.453,3.994,3.994,0,0,1,1.492-1.681,4.062,4.062,0,0,1,2.182-.592,3.915,3.915,0,0,1,3.067,1.312,5.05,5.05,0,0,1,1.17,3.491v.111a5.524,5.524,0,0,1-.519,2.431,3.934,3.934,0,0,1-1.484,1.677,4.109,4.109,0,0,1-2.217.6,3.9,3.9,0,0,1-3.058-1.312,5.026,5.026,0,0,1-1.171-3.474Zm1.6.189a3.973,3.973,0,0,0,.716,2.479,2.428,2.428,0,0,0,3.839-.013,4.342,4.342,0,0,0,.711-2.655,3.966,3.966,0,0,0-.725-2.474,2.3,2.3,0,0,0-1.926-.948,2.279,2.279,0,0,0-1.9.935,4.309,4.309,0,0,0-.72,2.676" transform="translate(-136.565 -45.493)"/>
        <path id="Trazado_204497" data-name="Trazado 204497" d="M528.108,171.277a4.731,4.731,0,0,0-.78-.06,2.091,2.091,0,0,0-2.119,1.329v6.587h-1.587v-9.28h1.543l.026,1.072a2.47,2.47,0,0,1,2.212-1.244,1.626,1.626,0,0,1,.7.12Z" transform="translate(-140.389 -45.493)"/>
        <path id="Trazado_204498" data-name="Trazado 204498" d="M456.211,207.933a3.326,3.326,0,0,1-.223-.978,3.541,3.541,0,0,1-2.641,1.15,3.278,3.278,0,0,1-2.252-.777,2.512,2.512,0,0,1-.879-1.968,2.622,2.622,0,0,1,1.1-2.251,5.193,5.193,0,0,1,3.1-.8h1.544v-.729a1.783,1.783,0,0,0-.5-1.325,2,2,0,0,0-1.467-.493,2.316,2.316,0,0,0-1.424.429,1.263,1.263,0,0,0-.575,1.038h-1.6a2.191,2.191,0,0,1,.493-1.342,3.362,3.362,0,0,1,1.338-1.025,4.5,4.5,0,0,1,1.857-.378,3.671,3.671,0,0,1,2.513.8,2.892,2.892,0,0,1,.943,2.209v4.271a5.221,5.221,0,0,0,.326,2.032v.137Zm-2.633-1.209a2.794,2.794,0,0,0,1.415-.386,2.342,2.342,0,0,0,.969-1v-1.9h-1.243q-2.917,0-2.917,1.707a1.445,1.445,0,0,0,.5,1.167,1.911,1.911,0,0,0,1.278.42" transform="translate(-120.708 -53.215)"/>
        <rect id="Rectángulo_44315" data-name="Rectángulo 44315" width="1.587" height="13.174" transform="translate(343.814 141.544)"/>
        <path id="Trazado_204499" data-name="Trazado 204499" d="M481.032,207.933a3.33,3.33,0,0,1-.223-.978,3.541,3.541,0,0,1-2.641,1.15,3.278,3.278,0,0,1-2.252-.777,2.512,2.512,0,0,1-.879-1.968,2.622,2.622,0,0,1,1.1-2.251,5.193,5.193,0,0,1,3.1-.8h1.544v-.729a1.783,1.783,0,0,0-.5-1.325,2,2,0,0,0-1.467-.493,2.316,2.316,0,0,0-1.424.429,1.263,1.263,0,0,0-.575,1.038h-1.6a2.191,2.191,0,0,1,.493-1.342,3.362,3.362,0,0,1,1.338-1.025,4.5,4.5,0,0,1,1.857-.378,3.671,3.671,0,0,1,2.513.8,2.892,2.892,0,0,1,.943,2.209v4.271a5.22,5.22,0,0,0,.326,2.032v.137Zm-2.633-1.209a2.794,2.794,0,0,0,1.415-.386,2.342,2.342,0,0,0,.969-1v-1.9h-1.243q-2.917,0-2.917,1.707a1.445,1.445,0,0,0,.5,1.167,1.911,1.911,0,0,0,1.278.42" transform="translate(-127.362 -53.215)"/>
        <path id="Trazado_204500" data-name="Trazado 204500" d="M497.121,205.843l2.3-7.127h1.62L497.713,208H496.5l-3.362-9.28h1.62Z" transform="translate(-132.217 -53.278)"/>
        <path id="Trazado_204501" data-name="Trazado 204501" d="M509.572,208.1a4.055,4.055,0,0,1-3.071-1.239,4.6,4.6,0,0,1-1.183-3.315v-.292a5.562,5.562,0,0,1,.528-2.466,4.111,4.111,0,0,1,1.475-1.7,3.708,3.708,0,0,1,2.054-.613,3.476,3.476,0,0,1,2.813,1.192,5.161,5.161,0,0,1,1,3.414v.66H506.9a3.294,3.294,0,0,0,.8,2.217,2.52,2.52,0,0,0,1.951.845,2.767,2.767,0,0,0,1.424-.343,3.6,3.6,0,0,0,1.021-.909l.969.755a3.9,3.9,0,0,1-3.5,1.792m-.2-8.319a2.116,2.116,0,0,0-1.612.7,3.4,3.4,0,0,0-.807,1.96H511.6v-.12a3.027,3.027,0,0,0-.652-1.874,1.993,1.993,0,0,0-1.578-.665" transform="translate(-135.481 -53.215)"/>
        <path id="Trazado_204502" data-name="Trazado 204502" d="M520.083,198.653l.051,1.167a3.382,3.382,0,0,1,2.779-1.338q2.942,0,2.968,3.319v6.133h-1.587v-6.141a2.137,2.137,0,0,0-.459-1.484,1.838,1.838,0,0,0-1.4-.481,2.293,2.293,0,0,0-1.355.412,2.8,2.8,0,0,0-.909,1.081v6.613h-1.587v-9.28Z" transform="translate(-139.038 -53.215)"/>
        <path id="Trazado_204503" data-name="Trazado 204503" d="M533.566,195.646v2.247H535.3v1.227h-1.732v5.762a1.287,1.287,0,0,0,.231.837.974.974,0,0,0,.79.28,3.832,3.832,0,0,0,.755-.1v1.279a4.608,4.608,0,0,1-1.218.171,1.977,1.977,0,0,1-1.6-.643,2.762,2.762,0,0,1-.54-1.827V199.12h-1.69v-1.227h1.69v-2.247Z" transform="translate(-142.176 -52.455)"/>
        <path id="Trazado_204504" data-name="Trazado 204504" d="M545.3,207.933a3.326,3.326,0,0,1-.223-.978,3.541,3.541,0,0,1-2.641,1.15,3.278,3.278,0,0,1-2.252-.777,2.513,2.513,0,0,1-.879-1.968,2.622,2.622,0,0,1,1.1-2.251,5.193,5.193,0,0,1,3.1-.8h1.544v-.729a1.783,1.783,0,0,0-.5-1.325,2,2,0,0,0-1.467-.493,2.316,2.316,0,0,0-1.423.429,1.264,1.264,0,0,0-.575,1.038h-1.6a2.192,2.192,0,0,1,.493-1.342,3.364,3.364,0,0,1,1.338-1.025,4.5,4.5,0,0,1,1.857-.378,3.671,3.671,0,0,1,2.513.8,2.892,2.892,0,0,1,.943,2.209v4.271a5.222,5.222,0,0,0,.326,2.032v.137Zm-2.633-1.209a2.8,2.8,0,0,0,1.416-.386,2.342,2.342,0,0,0,.969-1v-1.9H543.8q-2.917,0-2.917,1.707a1.445,1.445,0,0,0,.5,1.167,1.911,1.911,0,0,0,1.278.42" transform="translate(-144.593 -53.215)"/>
        <rect id="Rectángulo_44316" data-name="Rectángulo 44316" width="1.647" height="12.487" transform="translate(74.998 335.454)"/>
        <path id="Trazado_204505" data-name="Trazado 204505" d="M110,462.659l.051,1.167a3.382,3.382,0,0,1,2.779-1.338q2.942,0,2.968,3.319v6.133h-1.587V465.8a2.137,2.137,0,0,0-.459-1.484,1.838,1.838,0,0,0-1.4-.481,2.293,2.293,0,0,0-1.355.412,2.8,2.8,0,0,0-.909,1.081v6.613H108.5v-9.28Z" transform="translate(-29.089 -123.998)"/>
        <path id="Trazado_204506" data-name="Trazado 204506" d="M127,469.478a1.168,1.168,0,0,0-.485-1,4.667,4.667,0,0,0-1.69-.613,8.024,8.024,0,0,1-1.912-.618,2.722,2.722,0,0,1-1.047-.858,2.054,2.054,0,0,1-.339-1.183,2.408,2.408,0,0,1,.965-1.93,3.771,3.771,0,0,1,2.466-.789,3.879,3.879,0,0,1,2.56.815,2.589,2.589,0,0,1,.982,2.084h-1.6a1.432,1.432,0,0,0-.553-1.123,2.071,2.071,0,0,0-1.393-.472,2.17,2.17,0,0,0-1.355.378,1.189,1.189,0,0,0-.489.987.961.961,0,0,0,.455.866,5.576,5.576,0,0,0,1.642.558,8.536,8.536,0,0,1,1.925.635,2.813,2.813,0,0,1,1.094.888,2.185,2.185,0,0,1,.356,1.265,2.375,2.375,0,0,1-.995,1.994,4.173,4.173,0,0,1-2.582.751,4.676,4.676,0,0,1-1.972-.395,3.214,3.214,0,0,1-1.342-1.1,2.66,2.66,0,0,1-.485-1.531H122.8a1.641,1.641,0,0,0,.639,1.265,2.478,2.478,0,0,0,1.574.468,2.559,2.559,0,0,0,1.445-.364,1.12,1.12,0,0,0,.545-.973" transform="translate(-32.498 -123.998)"/>
        <path id="Trazado_204507" data-name="Trazado 204507" d="M135.854,459.652V461.9h1.732v1.227h-1.732v5.762a1.287,1.287,0,0,0,.231.837.974.974,0,0,0,.79.28,3.835,3.835,0,0,0,.755-.1v1.279a4.637,4.637,0,0,1-1.218.17,1.977,1.977,0,0,1-1.6-.643,2.761,2.761,0,0,1-.54-1.827v-5.755h-1.69V461.9h1.69v-2.247Z" transform="translate(-35.545 -123.238)"/>
        <path id="Trazado_204508" data-name="Trazado 204508" d="M147.585,471.94a3.327,3.327,0,0,1-.223-.978,3.54,3.54,0,0,1-2.641,1.15,3.278,3.278,0,0,1-2.252-.777,2.512,2.512,0,0,1-.879-1.968,2.622,2.622,0,0,1,1.1-2.251,5.193,5.193,0,0,1,3.1-.8h1.544v-.729a1.783,1.783,0,0,0-.5-1.326,2,2,0,0,0-1.467-.493,2.316,2.316,0,0,0-1.424.429,1.264,1.264,0,0,0-.575,1.038h-1.6a2.191,2.191,0,0,1,.493-1.342,3.362,3.362,0,0,1,1.338-1.025,4.5,4.5,0,0,1,1.857-.378,3.671,3.671,0,0,1,2.513.8,2.892,2.892,0,0,1,.943,2.209v4.271a5.22,5.22,0,0,0,.326,2.032v.137Zm-2.633-1.209a2.8,2.8,0,0,0,1.415-.386,2.342,2.342,0,0,0,.969-1v-1.9h-1.243q-2.917,0-2.917,1.707a1.445,1.445,0,0,0,.5,1.167,1.911,1.911,0,0,0,1.278.42" transform="translate(-37.962 -123.998)"/>
        <rect id="Rectángulo_44317" data-name="Rectángulo 44317" width="1.587" height="13.174" transform="translate(113.585 334.767)"/>
        <path id="Trazado_204509" data-name="Trazado 204509" d="M166.464,471.94a3.326,3.326,0,0,1-.223-.978,3.54,3.54,0,0,1-2.641,1.15,3.278,3.278,0,0,1-2.252-.777,2.512,2.512,0,0,1-.879-1.968,2.622,2.622,0,0,1,1.1-2.251,5.193,5.193,0,0,1,3.1-.8h1.544v-.729a1.783,1.783,0,0,0-.5-1.326,2,2,0,0,0-1.467-.493,2.316,2.316,0,0,0-1.424.429,1.264,1.264,0,0,0-.575,1.038h-1.6a2.191,2.191,0,0,1,.493-1.342,3.362,3.362,0,0,1,1.338-1.025,4.5,4.5,0,0,1,1.857-.378,3.671,3.671,0,0,1,2.513.8,2.892,2.892,0,0,1,.943,2.209v4.271a5.22,5.22,0,0,0,.326,2.032v.137Zm-2.633-1.209a2.8,2.8,0,0,0,1.415-.386,2.342,2.342,0,0,0,.969-1v-1.9h-1.243q-2.917,0-2.917,1.707a1.445,1.445,0,0,0,.5,1.167,1.911,1.911,0,0,0,1.278.42" transform="translate(-43.023 -123.998)"/>
        <path id="Trazado_204510" data-name="Trazado 204510" d="M177.458,470.816a2.284,2.284,0,0,0,1.484-.515,1.81,1.81,0,0,0,.7-1.287h1.5a2.875,2.875,0,0,1-.549,1.518,3.613,3.613,0,0,1-1.351,1.15,3.9,3.9,0,0,1-1.788.429,3.823,3.823,0,0,1-3.015-1.265,5.037,5.037,0,0,1-1.119-3.46v-.266a5.589,5.589,0,0,1,.5-2.41,3.789,3.789,0,0,1,1.428-1.638,4.06,4.06,0,0,1,2.2-.583,3.723,3.723,0,0,1,2.595.935,3.339,3.339,0,0,1,1.1,2.428h-1.5a2.189,2.189,0,0,0-.681-1.48,2.123,2.123,0,0,0-1.514-.579,2.22,2.22,0,0,0-1.874.871,4.085,4.085,0,0,0-.665,2.517v.3a4,4,0,0,0,.66,2.47,2.231,2.231,0,0,0,1.887.867" transform="translate(-46.47 -123.998)"/>
        <path id="Trazado_204511" data-name="Trazado 204511" d="M186.461,459.023a.948.948,0,0,1,.236-.652.886.886,0,0,1,.7-.266.9.9,0,0,1,.7.266.937.937,0,0,1,.24.652.906.906,0,0,1-.24.643.917.917,0,0,1-.7.257.9.9,0,0,1-.7-.257.916.916,0,0,1-.236-.643m1.715,11.742h-1.587v-9.28h1.587Z" transform="translate(-49.992 -122.823)"/>
        <path id="Trazado_204512" data-name="Trazado 204512" d="M191.7,465.85a5.487,5.487,0,0,1,.536-2.453,4,4,0,0,1,1.492-1.68,4.057,4.057,0,0,1,2.183-.592,3.914,3.914,0,0,1,3.066,1.312,5.049,5.049,0,0,1,1.171,3.49v.112a5.535,5.535,0,0,1-.519,2.431,3.941,3.941,0,0,1-1.484,1.677,4.108,4.108,0,0,1-2.217.6,3.9,3.9,0,0,1-3.058-1.312,5.023,5.023,0,0,1-1.17-3.474Zm1.595.189a3.973,3.973,0,0,0,.717,2.479,2.427,2.427,0,0,0,3.838-.013,4.338,4.338,0,0,0,.712-2.655,3.959,3.959,0,0,0-.725-2.475,2.3,2.3,0,0,0-1.925-.948,2.278,2.278,0,0,0-1.9.935,4.309,4.309,0,0,0-.721,2.676m3.337-8.637h1.921l-2.3,2.521-1.278,0Z" transform="translate(-51.397 -122.635)"/>
        <path id="Trazado_204513" data-name="Trazado 204513" d="M207.461,462.659l.051,1.167a3.382,3.382,0,0,1,2.779-1.338q2.942,0,2.968,3.319v6.133h-1.587V465.8a2.137,2.137,0,0,0-.459-1.484,1.838,1.838,0,0,0-1.4-.481,2.293,2.293,0,0,0-1.355.412,2.8,2.8,0,0,0-.909,1.081v6.613H205.96v-9.28Z" transform="translate(-55.22 -123.998)"/>
        <path id="Trazado_204514" data-name="Trazado 204514" d="M409.408,469.126a3.8,3.8,0,0,1-1.771,1.359,7.139,7.139,0,0,1-2.646.451,5.132,5.132,0,0,1-2.71-.716,4.771,4.771,0,0,1-1.831-2.037,7.028,7.028,0,0,1-.665-3.062v-1.089a6.57,6.57,0,0,1,1.316-4.374,4.588,4.588,0,0,1,3.7-1.552,4.736,4.736,0,0,1,3.148,1,4.352,4.352,0,0,1,1.458,2.835h-1.647a2.723,2.723,0,0,0-2.95-2.488,2.916,2.916,0,0,0-2.509,1.164,5.683,5.683,0,0,0-.862,3.37v1.021a5.321,5.321,0,0,0,.961,3.343,3.113,3.113,0,0,0,2.6,1.241,5.736,5.736,0,0,0,1.62-.2,2.509,2.509,0,0,0,1.15-.694v-2.8h-2.89v-1.347h4.528Z" transform="translate(-120.187 -122.823)"/>
        <path id="Trazado_204515" data-name="Trazado 204515" d="M421.976,471.94a3.329,3.329,0,0,1-.223-.978,3.54,3.54,0,0,1-2.641,1.15,3.278,3.278,0,0,1-2.252-.777,2.512,2.512,0,0,1-.879-1.968,2.622,2.622,0,0,1,1.1-2.251,5.193,5.193,0,0,1,3.1-.8h1.544v-.729a1.783,1.783,0,0,0-.5-1.326,2,2,0,0,0-1.467-.493,2.316,2.316,0,0,0-1.424.429,1.264,1.264,0,0,0-.575,1.038h-1.6a2.191,2.191,0,0,1,.493-1.342A3.362,3.362,0,0,1,418,462.866a4.5,4.5,0,0,1,1.857-.378,3.671,3.671,0,0,1,2.513.8,2.892,2.892,0,0,1,.943,2.209v4.271a5.22,5.22,0,0,0,.326,2.032v.137Zm-2.633-1.209a2.8,2.8,0,0,0,1.415-.386,2.342,2.342,0,0,0,.969-1v-1.9h-1.243q-2.917,0-2.917,1.707a1.445,1.445,0,0,0,.5,1.167,1.911,1.911,0,0,0,1.278.42" transform="translate(-124.529 -123.998)"/>
        <path id="Trazado_204516" data-name="Trazado 204516" d="M433.884,464.083a4.735,4.735,0,0,0-.78-.06,2.091,2.091,0,0,0-2.119,1.329v6.587H429.4v-9.28h1.544l.026,1.072a2.47,2.47,0,0,1,2.212-1.244,1.626,1.626,0,0,1,.7.12Z" transform="translate(-128.126 -123.998)"/>
        <path id="Trazado_204517" data-name="Trazado 204517" d="M442.683,471.94a3.327,3.327,0,0,1-.223-.978,3.54,3.54,0,0,1-2.641,1.15,3.277,3.277,0,0,1-2.252-.777,2.512,2.512,0,0,1-.879-1.968,2.622,2.622,0,0,1,1.1-2.251,5.193,5.193,0,0,1,3.1-.8h1.544v-.729a1.783,1.783,0,0,0-.5-1.326,2,2,0,0,0-1.467-.493,2.316,2.316,0,0,0-1.424.429,1.264,1.264,0,0,0-.575,1.038h-1.6a2.191,2.191,0,0,1,.493-1.342,3.362,3.362,0,0,1,1.338-1.025,4.5,4.5,0,0,1,1.857-.378,3.671,3.671,0,0,1,2.513.8,2.892,2.892,0,0,1,.943,2.209v4.271a5.221,5.221,0,0,0,.326,2.032v.137Zm-2.633-1.209a2.8,2.8,0,0,0,1.415-.386,2.342,2.342,0,0,0,.969-1v-1.9H441.19q-2.917,0-2.917,1.707a1.445,1.445,0,0,0,.5,1.167,1.911,1.911,0,0,0,1.278.42" transform="translate(-130.081 -123.998)"/>
        <path id="Trazado_204518" data-name="Trazado 204518" d="M451.606,462.659l.051,1.167a3.382,3.382,0,0,1,2.779-1.338q2.942,0,2.968,3.319v6.133h-1.587V465.8a2.137,2.137,0,0,0-.459-1.484,1.838,1.838,0,0,0-1.4-.481,2.292,2.292,0,0,0-1.355.412,2.794,2.794,0,0,0-.909,1.081v6.613h-1.587v-9.28Z" transform="translate(-133.678 -123.998)"/>
        <path id="Trazado_204519" data-name="Trazado 204519" d="M465.089,459.652V461.9h1.732v1.227h-1.732v5.762a1.289,1.289,0,0,0,.231.838.976.976,0,0,0,.79.279,3.836,3.836,0,0,0,.755-.1v1.279a4.638,4.638,0,0,1-1.218.17,1.977,1.977,0,0,1-1.6-.643,2.761,2.761,0,0,1-.54-1.827v-5.755h-1.69V461.9h1.69v-2.247Z" transform="translate(-136.817 -123.238)"/>
        <path id="Trazado_204520" data-name="Trazado 204520" d="M472.96,457.414h1.921l-2.3,2.521-1.279,0Zm-.017,13.165h-1.6V461.3h1.6Z" transform="translate(-139.362 -122.638)"/>
        <path id="Trazado_204521" data-name="Trazado 204521" d="M482.749,471.94a3.327,3.327,0,0,1-.223-.978,3.54,3.54,0,0,1-2.641,1.15,3.278,3.278,0,0,1-2.252-.777,2.512,2.512,0,0,1-.879-1.968,2.622,2.622,0,0,1,1.1-2.251,5.193,5.193,0,0,1,3.1-.8H482.5v-.729a1.783,1.783,0,0,0-.5-1.326,2,2,0,0,0-1.467-.493,2.316,2.316,0,0,0-1.424.429,1.264,1.264,0,0,0-.575,1.038h-1.6a2.191,2.191,0,0,1,.493-1.342,3.362,3.362,0,0,1,1.338-1.025,4.5,4.5,0,0,1,1.857-.378,3.671,3.671,0,0,1,2.513.8,2.892,2.892,0,0,1,.943,2.209v4.271a5.221,5.221,0,0,0,.326,2.032v.137Zm-2.633-1.209a2.8,2.8,0,0,0,1.416-.386,2.342,2.342,0,0,0,.969-1v-1.9h-1.243q-2.917,0-2.917,1.707a1.445,1.445,0,0,0,.5,1.167,1.91,1.91,0,0,0,1.278.42" transform="translate(-140.823 -123.998)"/>
      </g>
    </g>
  </g>
</svg>
