<svg id="Grupo_1019221" data-name="Grupo 1019221" xmlns="http://www.w3.org/2000/svg" xmlns:xlink="http://www.w3.org/1999/xlink" width="295" height="213.847" viewBox="0 0 295 213.847">
  <defs>
    <clipPath id="clip-path">
      <rect id="Rectángulo_355978" data-name="Rectángulo 355978" width="295" height="213.846" fill="none"/>
    </clipPath>
    <clipPath id="clip-path-3">
      <rect id="Rectángulo_355962" data-name="Rectángulo 355962" width="3.899" height="1.854" fill="none"/>
    </clipPath>
    <clipPath id="clip-path-4">
      <rect id="Rectángulo_355968" data-name="Rectángulo 355968" width="6.713" height="16.553" fill="none"/>
    </clipPath>
    <clipPath id="clip-path-5">
      <rect id="Rectángulo_355969" data-name="Rectángulo 355969" width="2.459" height="1.509" fill="none"/>
    </clipPath>
    <clipPath id="clip-path-6">
      <rect id="Rectángulo_355970" data-name="Rectángulo 355970" width="4.621" height="2.176" fill="none"/>
    </clipPath>
    <clipPath id="clip-path-7">
      <rect id="Rectángulo_355971" data-name="Rectángulo 355971" width="3.052" height="2.257" fill="none"/>
    </clipPath>
    <clipPath id="clip-path-8">
      <rect id="Rectángulo_355972" data-name="Rectángulo 355972" width="6.603" height="2.829" fill="none"/>
    </clipPath>
    <clipPath id="clip-path-12">
      <rect id="Rectángulo_355976" data-name="Rectángulo 355976" width="4.666" height="3.855" fill="none"/>
    </clipPath>
  </defs>
  <g id="Grupo_1019220" data-name="Grupo 1019220" clip-path="url(#clip-path)">
    <g id="Grupo_1019219" data-name="Grupo 1019219">
      <g id="Grupo_1019218" data-name="Grupo 1019218" clip-path="url(#clip-path)">
        <path id="Trazado_748481" data-name="Trazado 748481" d="M245.593,15.455a83.2,83.2,0,0,0-16.057-8.024,60.348,60.348,0,0,0-17.861-3.746c-76.439-3.53-57.08,37.3-74.164,17.649C108.315-12.258,52.8-5.821,38.683,38.1c-16.566,51.543,13.585,79.63-12.523,87.542-37.288,11.3-34.59,81.954,7.307,81.532l239.557,1.119s16.8-20.405,3.656-42.362,1.754-8.575,14.941-46.839c12.9-37.43-12.99-82.617-46.026-103.638" transform="translate(0 0)" fill="#dcdbef"/>
        <path id="Trazado_748482" data-name="Trazado 748482" d="M51.635,1945.419c-.568-.549-1.118-1.113-1.639-1.692a18.152,18.152,0,0,1-3.935-6.372,15.388,15.388,0,0,0-4.5-6.735q-.339-.3-.694-.592a26.078,26.078,0,0,0-5.746-3.456,46.267,46.267,0,0,0-6.407-2.286c-6.939-1.967-8.933-10.69-15.756-12.519a3.176,3.176,0,0,0-1.846-.042A2.936,2.936,0,0,0,9.72,1912.9a6.793,6.793,0,0,0-.441,6.317,14.448,14.448,0,0,0,5.58,6.7c2.794,1.88,4.938,1.889,7.949,2.683a20.565,20.565,0,0,1,9,5.766c2.6,2.731,4.483,6.084,7.148,8.747.212.211.428.418.647.618a24.718,24.718,0,0,0,5.662,3.839h8.744c-.812-.692-1.611-1.405-2.377-2.146h0" transform="translate(-7.935 -1741.275)" fill="#5e8584"/>
        <path id="Trazado_748483" data-name="Trazado 748483" d="M93.124,1994.764a25.843,25.843,0,0,1-2.731-2.163,45.1,45.1,0,0,1-4.628-5.224c-.842-1.057-1.7-2.129-2.609-3.154h0a24.1,24.1,0,0,0-3.6-3.387,35.288,35.288,0,0,0-7.549-3.906,34.361,34.361,0,0,1-7.515-3.9,22.1,22.1,0,0,1-4.869-5.27.283.283,0,0,0-.393-.073.28.28,0,0,0-.074.393,22.649,22.649,0,0,0,5,5.4,34.783,34.783,0,0,0,7.636,3.972,34.881,34.881,0,0,1,7.43,3.837,27.84,27.84,0,0,1,4.752,4.763c.458.558.907,1.12,1.352,1.678a45.434,45.434,0,0,0,4.688,5.289,25.26,25.26,0,0,0,2.139,1.746,48.891,48.891,0,0,0,6.411,3.839h1.229q-.611-.315-1.225-.635a50.883,50.883,0,0,1-5.443-3.2" transform="translate(-53.84 -1792.313)" fill="#477e82"/>
        <path id="Trazado_748484" data-name="Trazado 748484" d="M210.586,1706.491q-.837-1.086-1.615-2.208-.117-.168-.231-.338a43.1,43.1,0,0,1-3.661-6.448v0a32.122,32.122,0,0,1-2.693-9.331c-.505-4.061-.146-8.19-.6-12.258a41.614,41.614,0,0,0-6.105-16.618c-1.575-2.625-3.523-6.168-6.18-8.406a8.185,8.185,0,0,0-5.473-2.142c-2.514.039-4.629,2.244-5.184,4.7a10.843,10.843,0,0,0,1.336,7.264c1.162,2.23,2.743,4.21,4.064,6.349,3.5,5.669,4.137,11.761,5.279,18.145.112.622.245,1.269.4,1.933a42.979,42.979,0,0,0,2.13,6.614h0c.255.615.527,1.225.815,1.828a23.333,23.333,0,0,0,6.6,8.713q.473.351.966.654c1.682,1.029,3.32,2.1,4.96,3.185h6.495q-.664-.8-1.3-1.63h0" transform="translate(-162.736 -1501.832)" fill="#57dbd8"/>
        <path id="Trazado_748485" data-name="Trazado 748485" d="M448.955,1777.08a3.718,3.718,0,0,0-2.881.055,3.292,3.292,0,0,0-1.474,3.028,11.77,11.77,0,0,0,.867,3.423,36.589,36.589,0,0,1,1.88,14.85c-.246,3.041-.873,6.052-.942,9.1a21.7,21.7,0,0,0,.92,6.622v0a29.641,29.641,0,0,0,3.032,6.785,39.1,39.1,0,0,0,2.624,3.839h2.37c-.388-1.187-.714-2.325-1-3.205q-.1-.323-.208-.634c-.937-2.809-1.769-4.942-1.138-8.051.71-3.5,2.2-6.788,3.136-10.235a32.769,32.769,0,0,0,.538-14.7c-.886-4.59-3.272-9.464-7.724-10.889" transform="translate(-404.982 -1618.498)" fill="#348381"/>
        <path id="Trazado_748486" data-name="Trazado 748486" d="M262.017,1733.393h0c-.682-.539-1.358-1.1-1.992-1.692l-.056-.052c-4.23-3.989-7-8.5-8.026-13.056,0-.008,0-.016-.005-.023a27.746,27.746,0,0,1-.468-5.7,32.536,32.536,0,0,0-.317-4.949,27.721,27.721,0,0,0-3.479-9.315c-.5-.844-1.024-1.686-1.536-2.5a46.376,46.376,0,0,1-2.959-5.191c-1.673-3.637-3.184-7.581-2.908-11.772a.283.283,0,1,0-.564-.037c-.284,4.317,1.254,8.341,2.959,12.045a46.76,46.76,0,0,0,2.993,5.255c.51.811,1.037,1.649,1.527,2.486a27.145,27.145,0,0,1,3.41,9.121,32.239,32.239,0,0,1,.309,4.864,31.913,31.913,0,0,0,.344,5.129c.041.231.086.462.137.692a26.617,26.617,0,0,0,7.82,13.007q.186.181.375.359a42.811,42.811,0,0,0,3.322,2.736l.141.108c.272.209.547.421.821.635h.912c-.508-.407-1.023-.8-1.528-1.191-.407-.313-.82-.63-1.23-.955" transform="translate(-218.317 -1529.248)" fill="#477e82"/>
        <path id="Trazado_748487" data-name="Trazado 748487" d="M496.941,1855.93a20.448,20.448,0,0,1-1.1-2.208,17.93,17.93,0,0,1-1.237-4.307c-.619-4.072.262-8.224,1.114-12.238a61.124,61.124,0,0,0,1.249-7.345,31.28,31.28,0,0,0-3.414-16.885.283.283,0,0,0-.5.26,30.707,30.707,0,0,1,3.354,16.576,60.842,60.842,0,0,1-1.239,7.276c-.863,4.065-1.755,8.267-1.12,12.441a18.315,18.315,0,0,0,1.048,3.884q.066.169.136.338a21.591,21.591,0,0,0,2.061,3.839h.684q-.557-.8-1.033-1.63h0" transform="translate(-449.091 -1651.27)" fill="#477e82"/>
        <path id="Trazado_748488" data-name="Trazado 748488" d="M2750.277,1857.73a3.359,3.359,0,0,0-1.952.044c-7.214,1.935-9.323,11.158-16.66,13.238a48.9,48.9,0,0,0-6.775,2.417,27.564,27.564,0,0,0-6.075,3.655q-.375.3-.734.626a16.276,16.276,0,0,0-4.758,7.122,19.187,19.187,0,0,1-4.161,6.738c-.551.612-1.132,1.209-1.733,1.789h0c-.81.783-1.655,1.538-2.513,2.269h9.246a26.142,26.142,0,0,0,5.987-4.059c.232-.211.46-.43.684-.654,2.819-2.816,4.812-6.362,7.559-9.25a21.745,21.745,0,0,1,9.519-6.1c3.184-.84,5.451-.849,8.406-2.837a15.278,15.278,0,0,0,5.9-7.083,7.184,7.184,0,0,0-.466-6.679,3.105,3.105,0,0,0-1.472-1.24" transform="translate(-2463.899 -1692.086)" fill="#5e8584"/>
        <path id="Trazado_748489" data-name="Trazado 748489" d="M2749.3,1916.9a.3.3,0,0,0-.416.078,23.374,23.374,0,0,1-5.149,5.573,36.331,36.331,0,0,1-7.947,4.126,37.321,37.321,0,0,0-7.982,4.13,25.5,25.5,0,0,0-3.807,3.581h0c-.963,1.084-1.868,2.218-2.759,3.335a47.682,47.682,0,0,1-4.894,5.524,27.357,27.357,0,0,1-2.887,2.287,53.859,53.859,0,0,1-5.755,3.388q-.648.339-1.3.671h1.3a51.675,51.675,0,0,0,6.78-4.059,26.721,26.721,0,0,0,2.261-1.847,48.047,48.047,0,0,0,4.958-5.593c.471-.59.945-1.185,1.43-1.774a29.436,29.436,0,0,1,5.025-5.036,36.883,36.883,0,0,1,7.856-4.058,36.767,36.767,0,0,0,8.074-4.2,23.933,23.933,0,0,0,5.283-5.713.3.3,0,0,0-.077-.415" transform="translate(-2465.257 -1746.054)" fill="#477e82"/>
        <path id="Trazado_748490" data-name="Trazado 748490" d="M2697.9,1579.647a8.657,8.657,0,0,0-5.788,2.265c-2.81,2.367-4.869,6.113-6.535,8.889a44,44,0,0,0-6.456,17.572c-.479,4.3-.1,8.667-.633,12.962a33.964,33.964,0,0,1-2.848,9.867.03.03,0,0,1,0,0,45.586,45.586,0,0,1-3.871,6.818q-.12.179-.245.357-.822,1.185-1.708,2.335h0q-.669.872-1.374,1.723h6.867c1.734-1.146,3.466-2.279,5.245-3.368q.522-.319,1.022-.691a24.674,24.674,0,0,0,6.977-9.213c.3-.637.592-1.283.862-1.933h0a45.446,45.446,0,0,0,2.253-6.993c.164-.7.3-1.387.423-2.044,1.207-6.751,1.879-13.193,5.582-19.187,1.4-2.262,3.069-4.356,4.3-6.714a11.466,11.466,0,0,0,1.412-7.681c-.587-2.593-2.823-4.924-5.482-4.966" transform="translate(-2430.674 -1438.895)" fill="#57dbd8"/>
        <path id="Trazado_748491" data-name="Trazado 748491" d="M2643.086,1715.415a3.93,3.93,0,0,0-3.047-.058c-4.708,1.507-7.231,6.66-8.167,11.514a34.66,34.66,0,0,0,.569,15.539c.985,3.644,2.566,7.122,3.316,10.822.667,3.288-.213,5.544-1.2,8.514-.073.219-.146.442-.22.67-.3.931-.646,2.134-1.056,3.389h2.505a41.314,41.314,0,0,0,2.774-4.059,31.347,31.347,0,0,0,3.206-7.175.03.03,0,0,1,0,0,22.937,22.937,0,0,0,.973-7c-.072-3.226-.736-6.409-1-9.625a38.687,38.687,0,0,1,1.988-15.7,12.435,12.435,0,0,0,.917-3.62,3.481,3.481,0,0,0-1.559-3.2" transform="translate(-2396.799 -1562.26)" fill="#348381"/>
        <path id="Trazado_748492" data-name="Trazado 748492" d="M2726.575,1611.475a.3.3,0,0,0-.278.318c.292,4.433-1.305,8.6-3.075,12.449a49.031,49.031,0,0,1-3.129,5.488c-.541.86-1.1,1.75-1.624,2.643a29.31,29.31,0,0,0-3.679,9.85,34.436,34.436,0,0,0-.335,5.233,29.343,29.343,0,0,1-.495,6.032c0,.008,0,.016-.006.024-1.08,4.814-4.014,9.587-8.487,13.8l-.06.055c-.671.628-1.385,1.219-2.106,1.789h0c-.434.343-.87.678-1.3,1.01-.534.41-1.079.829-1.616,1.259h.964c.29-.226.58-.45.868-.671l.149-.114a45.245,45.245,0,0,0,3.513-2.894c.134-.126.266-.252.4-.38,4.344-4.214,7.2-8.96,8.269-13.754.054-.243.1-.488.145-.732a33.738,33.738,0,0,0,.364-5.423,34.1,34.1,0,0,1,.327-5.143,28.707,28.707,0,0,1,3.606-9.645c.519-.885,1.076-1.771,1.615-2.628a49.415,49.415,0,0,0,3.165-5.557c1.8-3.917,3.429-8.172,3.129-12.737a.3.3,0,0,0-.318-.279" transform="translate(-2459.774 -1467.888)" fill="#477e82"/>
        <path id="Trazado_748493" data-name="Trazado 748493" d="M2676.676,1753.156a.3.3,0,0,0-.4.128,33.072,33.072,0,0,0-3.611,17.854,64.6,64.6,0,0,0,1.32,7.766c.9,4.245,1.833,8.635,1.178,12.941a18.954,18.954,0,0,1-1.308,4.554,21.621,21.621,0,0,1-1.161,2.335h0q-.5.875-1.092,1.723h.723a22.836,22.836,0,0,0,2.179-4.059q.074-.178.143-.357a19.365,19.365,0,0,0,1.109-4.107c.671-4.413-.272-8.856-1.184-13.155a64.319,64.319,0,0,1-1.31-7.693,32.471,32.471,0,0,1,3.547-17.528.3.3,0,0,0-.128-.4" transform="translate(-2433.552 -1596.914)" fill="#477e82"/>
        <rect id="Rectángulo_355937" data-name="Rectángulo 355937" width="35.564" height="39.383" transform="translate(142.773 75.072) rotate(-0.276)" fill="#cb895f"/>
        <rect id="Rectángulo_355938" data-name="Rectángulo 355938" width="18.364" height="39.385" transform="matrix(1, -0.005, 0.005, 1, 178.336, 74.901)" fill="#af6e52"/>
        <path id="Trazado_748494" data-name="Trazado 748494" d="M1760.114,841.444l.041,8.511.494,0,.254-.9.279.9.76,0,1.665-.008.575-1.352.621,1.346.449-.658.326.654.566,0,.753,0-.041-8.511Z" transform="translate(-1603.284 -766.44)" fill="#ecc3a8"/>
        <path id="Trazado_748495" data-name="Trazado 748495" d="M2023.925,887.857,2019.9,879.4q-2.022-4.219-4.084-8.409,1.939,4.28,3.914,8.532l3.974,8.489,4.025,8.452q2.021,4.219,4.083,8.409-1.939-4.279-3.915-8.532Z" transform="translate(-1836.202 -793.388)" fill="#9d5539"/>
        <path id="Trazado_748496" data-name="Trazado 748496" d="M2025.375,887.079l-3.892,8.527q-1.936,4.27-3.832,8.569,2.02-4.21,4-8.448l3.943-8.49,3.892-8.527q1.937-4.27,3.833-8.569-2.02,4.211-4,8.448Z" transform="translate(-1837.872 -792.609)" fill="#9d5539"/>
        <path id="Trazado_748497" data-name="Trazado 748497" d="M1699.207,1007.481h2.427v8.548h3.145v-8.548h2.427l-4-5.336Z" transform="translate(-1547.803 -912.851)" fill="#fff"/>
        <path id="Trazado_748498" data-name="Trazado 748498" d="M1835.605,1007.481h2.427v8.548h3.145v-8.548h2.427l-4-5.336Z" transform="translate(-1672.048 -912.851)" fill="#fff"/>
        <rect id="Rectángulo_355939" data-name="Rectángulo 355939" width="21.508" height="0.44" transform="translate(150.726 104.83)" fill="#fff"/>
        <rect id="Rectángulo_355940" data-name="Rectángulo 355940" width="21.508" height="0.44" transform="translate(150.726 106.139)" fill="#fff"/>
        <rect id="Rectángulo_355941" data-name="Rectángulo 355941" width="21.508" height="0.44" transform="translate(150.726 107.449)" fill="#fff"/>
        <rect id="Rectángulo_355942" data-name="Rectángulo 355942" width="35.564" height="39.383" transform="translate(49.231 75.072) rotate(-0.276)" fill="#cb895f"/>
        <rect id="Rectángulo_355943" data-name="Rectángulo 355943" width="18.364" height="39.385" transform="matrix(1, -0.005, 0.005, 1, 84.795, 74.901)" fill="#d7b22a"/>
        <path id="Trazado_748499" data-name="Trazado 748499" d="M710.3,841.444l.041,8.511.494,0,.254-.9.279.9.76,0,1.665-.008.575-1.352.621,1.346.449-.658.326.654.566,0,.753,0-.041-8.511Z" transform="translate(-647.008 -766.44)" fill="#ecc3a8"/>
        <path id="Trazado_748500" data-name="Trazado 748500" d="M974.107,887.857l-4.025-8.452Q968.061,875.186,966,871q1.939,4.28,3.915,8.532l3.974,8.489,4.025,8.452q2.021,4.219,4.083,8.409-1.939-4.279-3.915-8.532Z" transform="translate(-879.926 -793.388)" fill="#f0c62f"/>
        <path id="Trazado_748501" data-name="Trazado 748501" d="M975.557,887.079l-3.892,8.527q-1.936,4.27-3.832,8.569,2.02-4.21,4-8.448l3.943-8.49,3.892-8.527q1.937-4.27,3.833-8.569-2.02,4.211-4,8.448Z" transform="translate(-881.597 -792.609)" fill="#f0c62f"/>
        <path id="Trazado_748502" data-name="Trazado 748502" d="M649.391,1007.481h2.427v8.548h3.145v-8.548h2.427l-4-5.336Z" transform="translate(-591.528 -912.851)" fill="#fff"/>
        <path id="Trazado_748503" data-name="Trazado 748503" d="M785.789,1007.481h2.427v8.548h3.145v-8.548h2.427l-4-5.336Z" transform="translate(-715.773 -912.851)" fill="#fff"/>
        <rect id="Rectángulo_355944" data-name="Rectángulo 355944" width="21.508" height="0.44" transform="translate(57.185 104.83)" fill="#fff"/>
        <rect id="Rectángulo_355945" data-name="Rectángulo 355945" width="21.508" height="0.44" transform="translate(57.185 106.139)" fill="#fff"/>
        <rect id="Rectángulo_355946" data-name="Rectángulo 355946" width="21.508" height="0.44" transform="translate(57.185 107.449)" fill="#fff"/>
        <path id="Trazado_748504" data-name="Trazado 748504" d="M427.468,2223.085c-67.8,0-122.766,3.529-122.766,7.882s54.964,7.882,122.766,7.882,122.766-3.529,122.766-7.882-54.964-7.882-122.766-7.882" transform="translate(-277.552 -2025.002)" fill="#fe7062"/>
        <rect id="Rectángulo_355947" data-name="Rectángulo 355947" width="13.813" height="71.949" transform="translate(225.966 130.138)" fill="#1a0f91"/>
        <rect id="Rectángulo_355948" data-name="Rectángulo 355948" width="9.621" height="71.949" transform="translate(225.966 130.138)" fill="#afabd8"/>
        <rect id="Rectángulo_355949" data-name="Rectángulo 355949" width="13.813" height="71.949" transform="translate(65.752 130.138)" fill="#1a0f91"/>
        <rect id="Rectángulo_355950" data-name="Rectángulo 355950" width="9.621" height="71.949" transform="translate(65.752 130.138)" fill="#afabd8"/>
        <path id="Trazado_748505" data-name="Trazado 748505" d="M473.988,1274.394H230.851c-7.192,0-13.019,5.441-13.019,12.147s5.827,12.139,13.019,12.139H473.988c7.19,0,13.016-5.434,13.016-12.139s-5.826-12.147-13.016-12.147" transform="translate(-198.423 -1160.842)" fill="#0f0957"/>
        <path id="Trazado_748506" data-name="Trazado 748506" d="M512.262,1308.367H269.467c-5.4,0-9.781,4.08-9.781,9.12s4.379,9.121,9.781,9.121H512.262c5.4,0,9.779-4.083,9.779-9.121s-4.376-9.12-9.779-9.12" transform="translate(-236.547 -1191.788)" fill="#1a0f91"/>
        <path id="Trazado_748507" data-name="Trazado 748507" d="M2995.694,1308.293c-5.365,0-9.716,4.081-9.716,9.124s4.351,9.124,9.716,9.124,9.719-4.089,9.719-9.124-4.351-9.124-9.719-9.124" transform="translate(-2719.92 -1191.721)" fill="#afabd8"/>
        <path id="Trazado_748508" data-name="Trazado 748508" d="M3056.707,1371.176a3.528,3.528,0,1,0,3.75,3.521,3.642,3.642,0,0,0-3.75-3.521" transform="translate(-2780.933 -1249.001)" fill="#0f0957"/>
        <path id="Trazado_748509" data-name="Trazado 748509" d="M2651.635,1308.293c-5.365,0-9.714,4.081-9.714,9.124s4.35,9.124,9.714,9.124,9.719-4.089,9.719-9.124-4.35-9.124-9.719-9.124" transform="translate(-2406.519 -1191.721)" fill="#afabd8"/>
        <path id="Trazado_748510" data-name="Trazado 748510" d="M2712.643,1371.176a3.528,3.528,0,1,0,3.751,3.521,3.642,3.642,0,0,0-3.751-3.521" transform="translate(-2467.526 -1249.001)" fill="#0f0957"/>
        <path id="Trazado_748511" data-name="Trazado 748511" d="M2307.564,1308.293c-5.365,0-9.715,4.081-9.715,9.124s4.35,9.124,9.715,9.124,9.72-4.089,9.72-9.124-4.35-9.124-9.72-9.124" transform="translate(-2093.105 -1191.721)" fill="#afabd8"/>
        <path id="Trazado_748512" data-name="Trazado 748512" d="M2368.579,1371.176a3.528,3.528,0,1,0,3.751,3.521,3.641,3.641,0,0,0-3.751-3.521" transform="translate(-2154.119 -1249.001)" fill="#0f0957"/>
        <path id="Trazado_748513" data-name="Trazado 748513" d="M1963.5,1308.293c-5.365,0-9.715,4.081-9.715,9.124s4.35,9.124,9.715,9.124,9.72-4.089,9.72-9.124-4.351-9.124-9.72-9.124" transform="translate(-1779.698 -1191.721)" fill="#afabd8"/>
        <path id="Trazado_748514" data-name="Trazado 748514" d="M2024.521,1371.176a3.528,3.528,0,1,0,3.75,3.521,3.641,3.641,0,0,0-3.75-3.521" transform="translate(-1840.719 -1249.001)" fill="#0f0957"/>
        <path id="Trazado_748515" data-name="Trazado 748515" d="M1619.429,1308.293c-5.366,0-9.716,4.081-9.716,9.124s4.351,9.124,9.716,9.124,9.719-4.089,9.719-9.124-4.35-9.124-9.719-9.124" transform="translate(-1466.283 -1191.721)" fill="#afabd8"/>
        <path id="Trazado_748516" data-name="Trazado 748516" d="M1680.45,1371.176a3.528,3.528,0,1,0,3.75,3.521,3.642,3.642,0,0,0-3.75-3.521" transform="translate(-1527.304 -1249.001)" fill="#0f0957"/>
        <path id="Trazado_748517" data-name="Trazado 748517" d="M1275.371,1308.293c-5.366,0-9.716,4.081-9.716,9.124s4.35,9.124,9.716,9.124,9.72-4.089,9.72-9.124-4.35-9.124-9.72-9.124" transform="translate(-1152.882 -1191.721)" fill="#afabd8"/>
        <path id="Trazado_748518" data-name="Trazado 748518" d="M1336.385,1371.176a3.528,3.528,0,1,0,3.75,3.521,3.642,3.642,0,0,0-3.75-3.521" transform="translate(-1213.896 -1249.001)" fill="#0f0957"/>
        <path id="Trazado_748519" data-name="Trazado 748519" d="M931.291,1308.293c-5.365,0-9.716,4.081-9.716,9.124s4.351,9.124,9.716,9.124,9.72-4.089,9.72-9.124-4.349-9.124-9.72-9.124" transform="translate(-839.46 -1191.721)" fill="#5e6672"/>
        <path id="Trazado_748520" data-name="Trazado 748520" d="M992.319,1371.176a3.528,3.528,0,1,0,3.752,3.521,3.641,3.641,0,0,0-3.752-3.521" transform="translate(-900.489 -1249.001)" fill="#0f0957"/>
        <path id="Trazado_748521" data-name="Trazado 748521" d="M596.4,1308.293c-5.365,0-9.716,4.081-9.716,9.124s4.351,9.124,9.716,9.124,9.72-4.089,9.72-9.124-4.349-9.124-9.72-9.124" transform="translate(-534.411 -1191.721)" fill="#afabd8"/>
        <path id="Trazado_748522" data-name="Trazado 748522" d="M657.429,1371.176a3.528,3.528,0,1,0,3.752,3.521,3.641,3.641,0,0,0-3.752-3.521" transform="translate(-595.438 -1249.001)" fill="#0f0957"/>
        <path id="Trazado_748523" data-name="Trazado 748523" d="M270.152,1308.293c-5.366,0-9.714,4.081-9.714,9.124s4.348,9.124,9.714,9.124,9.718-4.089,9.718-9.124-4.349-9.124-9.718-9.124" transform="translate(-237.232 -1191.721)" fill="#afabd8"/>
        <path id="Trazado_748524" data-name="Trazado 748524" d="M331.153,1371.176a3.528,3.528,0,1,0,3.751,3.521,3.642,3.642,0,0,0-3.751-3.521" transform="translate(-298.233 -1249.001)" fill="#0f0957"/>
        <path id="Trazado_748525" data-name="Trazado 748525" d="M1763.456,1774.062a26.936,26.936,0,0,0-1.621-5.955l-5.335.387-2.9-4.427,2.48-4.735a28.7,28.7,0,0,0-2.178-1.982,26.894,26.894,0,0,0-2.62-1.864l-4.088,3.442-4.952-1.872-.782-5.281a26.447,26.447,0,0,0-6.146-.291l-1.28,5.187-5.11,1.405-3.742-3.821a26.488,26.488,0,0,0-5.147,3.384l2.026,4.954-3.3,4.143-5.276-.89a26.319,26.319,0,0,0-2.122,5.585l4.529,2.845-.277,5.289-4.8,2.354a26.559,26.559,0,0,0,1.6,5.942l5.328-.362,2.89,4.437-2.491,4.724a25.137,25.137,0,0,0,2.242,2.048,27.018,27.018,0,0,0,2.543,1.827l4.1-3.44,4.952,1.9.757,5.289a26.486,26.486,0,0,0,6.149.306l1.294-5.183,5.116-1.383,3.73,3.831a26.779,26.779,0,0,0,5.162-3.366l-2.015-4.957,3.319-4.129,5.277.908a26.7,26.7,0,0,0,2.185-5.757l-4.543-2.828.261-5.29Zm-23.941,15.655a11.924,11.924,0,1,1,9.317-14.07,11.919,11.919,0,0,1-9.317,14.07" transform="translate(-1558.371 -1595.364)" fill="#98433a"/>
        <path id="Trazado_748526" data-name="Trazado 748526" d="M1824.328,1854.281a17.468,17.468,0,1,0,20.585,13.651,17.479,17.479,0,0,0-20.585-13.651m6.614,32.558a15.756,15.756,0,1,1,12.295-18.567,15.747,15.747,0,0,1-12.295,18.567" transform="translate(-1649.036 -1688.741)" fill="#e17336"/>
        <path id="Trazado_748527" data-name="Trazado 748527" d="M1949.35,2142.9a15.707,15.707,0,0,1-5.237.176q-1.845.477-3.779.835a17.459,17.459,0,0,0,21.608-8.872q-1.552,1.026-3.233,2a15.679,15.679,0,0,1-9.358,5.858" transform="translate(-1767.445 -1944.805)" fill="#e17336"/>
        <path id="Trazado_748528" data-name="Trazado 748528" d="M1786.278,1765.9a26.936,26.936,0,0,0-1.621-5.955l-5.335.387-2.9-4.427,2.48-4.735a28.675,28.675,0,0,0-2.179-1.982,26.879,26.879,0,0,0-2.62-1.864l-4.088,3.442-4.952-1.872-.782-5.281a26.446,26.446,0,0,0-6.146-.291l-1.28,5.187-5.11,1.405L1748,1746.1a26.5,26.5,0,0,0-5.147,3.384l2.026,4.954-3.3,4.143-5.276-.89a26.322,26.322,0,0,0-2.122,5.585l4.529,2.845-.277,5.289-4.8,2.354a26.557,26.557,0,0,0,1.6,5.942l5.328-.362,2.89,4.437-2.491,4.724a25.1,25.1,0,0,0,2.242,2.048,27.032,27.032,0,0,0,2.542,1.827l4.1-3.44,4.952,1.9.757,5.289a26.485,26.485,0,0,0,6.149.306l1.294-5.183,5.116-1.383,3.73,3.831a26.775,26.775,0,0,0,5.162-3.366l-2.015-4.957,3.319-4.129,5.277.908a26.7,26.7,0,0,0,2.185-5.757l-4.543-2.828.261-5.29Zm-23.941,15.655a11.924,11.924,0,1,1,9.317-14.07,11.919,11.919,0,0,1-9.317,14.07" transform="translate(-1579.16 -1587.933)" fill="#e9a627"/>
        <path id="Trazado_748529" data-name="Trazado 748529" d="M1847.15,1846.124a17.467,17.467,0,1,0,20.585,13.651,17.479,17.479,0,0,0-20.585-13.651m6.614,32.558a15.756,15.756,0,1,1,12.295-18.567,15.747,15.747,0,0,1-12.295,18.567" transform="translate(-1669.824 -1681.31)" fill="#98433a"/>
        <rect id="Rectángulo_355951" data-name="Rectángulo 355951" width="1.247" height="13.452" transform="translate(32.778 65.382)"/>
        <path id="Trazado_748530" data-name="Trazado 748530" d="M223.9,516.52H203.671a9.759,9.759,0,0,0,0,19.518H223.9a9.759,9.759,0,0,0,0-19.518" transform="translate(-176.634 -470.497)" fill="#57dbd8"/>
        <path id="Trazado_748531" data-name="Trazado 748531" d="M262.066,884.756H248.095a3.993,3.993,0,0,0-3.993,3.993v2.8a3.993,3.993,0,0,0,3.993,3.993h13.972a3.993,3.993,0,0,0,3.993-3.993v-2.8a3.993,3.993,0,0,0-3.993-3.993" transform="translate(-222.352 -805.922)" fill="#fe7062"/>
        <rect id="Rectángulo_355952" data-name="Rectángulo 355952" width="12.746" height="1.461" transform="translate(26.449 81.683)" fill="#fbffff"/>
        <rect id="Rectángulo_355953" data-name="Rectángulo 355953" width="12.746" height="1.46" transform="translate(26.449 84.737)" fill="#fbffff"/>
        <rect id="Rectángulo_355954" data-name="Rectángulo 355954" width="16.075" height="5.476" transform="translate(25.888 52.917)" fill="#fff"/>
        <rect id="Rectángulo_355955" data-name="Rectángulo 355955" width="1.679" height="5.476" transform="translate(42.951 52.917)" fill="#fff"/>
        <rect id="Rectángulo_355956" data-name="Rectángulo 355956" width="1.679" height="5.476" transform="translate(45.472 52.917)" fill="#fff"/>
        <rect id="Rectángulo_355957" data-name="Rectángulo 355957" width="1.679" height="5.476" transform="translate(47.994 52.917)" fill="#fff"/>
        <rect id="Rectángulo_355958" data-name="Rectángulo 355958" width="1.679" height="5.476" transform="translate(50.515 52.917)" fill="#fff"/>
        <path id="Trazado_748532" data-name="Trazado 748532" d="M249.971,562.493V549.021l-6.736,6.736Z" transform="translate(-221.562 -500.102)" fill="#fff"/>
        <path id="Trazado_748533" data-name="Trazado 748533" d="M1554.325,404.1l-1.392-.264-3.818-.724a9.765,9.765,0,0,0,4.189,4.63c.477-.417.847-.757,1.09-1q0-.276,0-.529c-.018-1.324-.065-2.116-.065-2.116" transform="translate(-1411.085 -367.195)" fill="#e19f89"/>
        <path id="Trazado_748534" data-name="Trazado 748534" d="M1555.607,274.807c1.368-1.459-.5-2.8-1.337-1.447l-.072-.013c.787-.961-.692-2.027-2.132-.6l-5.891,5.583c.114-.425.492-4.563-1.962-4.53,0,0-.7,4.734-.83,6.472a7.781,7.781,0,0,0,0,2.386,7.138,7.138,0,0,0,5.54,4.583,5.211,5.211,0,0,0,2.988-1.719,40.678,40.678,0,0,0,4.732-5.983c1.057-1.643.041-2.475-.641-1.994,2.245-1.909.761-3.7-.4-2.735" transform="translate(-1405.781 -247.812)" fill="#ecc3a8"/>
        <path id="Trazado_748535" data-name="Trazado 748535" d="M1598.387,328.217l-.012.355c.02,0,1.87.172,4.506,5.485l.318-.158c-2.76-5.565-4.728-5.679-4.812-5.683" transform="translate(-1455.956 -298.972)" fill="#e19f89"/>
        <rect id="Rectángulo_355959" data-name="Rectángulo 355959" width="6.626" height="0.355" transform="translate(145.28 31.819) rotate(-48.227)" fill="#e19f89"/>
        <rect id="Rectángulo_355960" data-name="Rectángulo 355960" width="6.216" height="0.355" transform="translate(146.412 33.85) rotate(-48.622)" fill="#e19f89"/>
        <rect id="Rectángulo_355961" data-name="Rectángulo 355961" width="6.68" height="0.355" transform="matrix(0.675, -0.738, 0.738, 0.675, 143.816, 30.219)" fill="#e19f89"/>
        <path id="Trazado_748536" data-name="Trazado 748536" d="M1575.667,341.01l0,.005-.091.145Z" transform="translate(-1435.185 -310.625)" fill="#e19f89"/>
        <path id="Trazado_748537" data-name="Trazado 748537" d="M1575.754,339.327l-.1.155,0-.005-.095.15.092-.145-.092.145c.07.045,1.7,1.132.49,4.073l.329.135c1.324-3.229-.609-4.495-.628-4.507" transform="translate(-1435.177 -309.092)" fill="#e19f89"/>
        <path id="Trazado_748538" data-name="Trazado 748538" d="M1210.2,2284.478a17.209,17.209,0,0,0-5.1.185,18.3,18.3,0,0,0-.024,2.083c3.943.592,7.887-.789,11.633.394a23.746,23.746,0,0,0,11.732.887c1.183-.2,2.07-.394,2.168-1.577a2.277,2.277,0,0,0-.106-.8c-6.485,1.748-13.806-.448-20.3-1.17" transform="translate(-1097.685 -2080.829)" fill="#7f261f"/>
        <path id="Trazado_748539" data-name="Trazado 748539" d="M1223.269,2182.426c-2.366-.887-6.507-3.647-6.9-6.408l-9.957,1.774c-.592,1.085-.395,3.155-.494,4.536-.126,1.2-.292,2.405-.37,3.635a17.2,17.2,0,0,1,5.1-.185c6.5.722,13.817,2.918,20.3,1.17a7.923,7.923,0,0,0-1.373-2.747c-1.38-1.479-4.437-.986-6.309-1.775" transform="translate(-1098.13 -1982.128)" fill="#98433a"/>
        <path id="Trazado_748540" data-name="Trazado 748540" d="M1048.779,2305.154c-.014.232-.03.464-.046.7a6.344,6.344,0,0,0,.046-.7" transform="translate(-955.288 -2099.759)" fill="#7f261f"/>
        <path id="Trazado_748541" data-name="Trazado 748541" d="M1049.252,2304.437c0-.023,0-.047,0-.07h0c0,.024,0,.047,0,.07" transform="translate(-955.761 -2099.042)" fill="#7f261f"/>
        <path id="Trazado_748542" data-name="Trazado 748542" d="M1049.267,2283.723c1.575-.1,2.659,0,3.152-1.479.046-.169.083-.352.116-.541a9.277,9.277,0,0,1-3.271.541,10.587,10.587,0,0,1,0,1.479" transform="translate(-955.772 -2078.398)" fill="#7f261f"/>
        <path id="Trazado_748543" data-name="Trazado 748543" d="M907.8,2163.068l-5.62-3.648c-.788.3-1.775.1-2.464.493-.887.493-1.479,1.873-1.873,2.76-1.084,2.07-1.578,4.832-3.845,5.521-2.39.669-3.387,1.438-3.715,4,4.364,1.833,9.467,2.589,14.076,1.161.015-.083.031-.164.042-.254a14.57,14.57,0,0,0,.047-2.246,9.277,9.277,0,0,0,3.271-.541c.18-1.027.2-2.3.278-3.3.1-1.085.69-3.155-.2-3.943" transform="translate(-810.954 -1967.01)" fill="#98433a"/>
        <path id="Trazado_748544" data-name="Trazado 748544" d="M889.763,2302.8c-.01.08-.022.155-.031.238-.2,2.662,1.084,2.465,3.45,2.859a30.556,30.556,0,0,0,6.7.3c2.137-.171,3.6-.28,3.953-2.232-4.609,1.428-9.713.672-14.076-1.161" transform="translate(-810.437 -2097.615)" fill="#7f261f"/>
        <path id="Trazado_748545" data-name="Trazado 748545" d="M955.406,964.277c-.26-3.754.815-5.169-2.438-5.464-3.4-.3-8.193-10.6-11.594-10.6-6.318,0-18.2,8.336-24.758,8.788-.2.014-1.3,11.179-1.484,11.157a138.4,138.4,0,0,0-.11,15.666c.148,3.4,3.109,47.615,3.109,55.01,0,3.549-.574,7.935-.13,11.484.148,1.332,1.035,3.106,1.035,4.437,0,1.626-.886,2.514-.591,4.436a6.025,6.025,0,0,0,.74,2.661c1.922-3.845,9.089-3.665,11.455-.264,0-1.479.129-3.137.129-4.468,0-2.07,1.134-2.514,1.578-4.584.444-1.331-.3-3.106-.148-4.584a27.211,27.211,0,0,1,.443-4.88c1.036-6.95,2.229-56.651,3.772-55.925.638,5.924.665,21.469.96,28.714.444,6.951.592,13.9.888,20.851a112.537,112.537,0,0,0,1.331,14.2,21.783,21.783,0,0,1,0,3.106c0,.444-.3,1.036-.3,1.626,0,.444.887.887.887,1.479,0,1.036-.887,1.922-.74,3.254a5.878,5.878,0,0,0,1.626,2.957c.2.087,1.373-.7,1.545-.789a62.036,62.036,0,0,1,5.962-2.691c.365-.138.738-.256,1.111-.369a5.273,5.273,0,0,1,1.28-.283c.253-.009,1.283.386,1.341.286,1.429-2.464.591-3.55-.3-5.028,2.957-2.071.147-5.176.147-8.282,0-3.7.3-7.394.592-11.091.739-7.838.443-15.823.887-23.661.443-6.358,2.342-31.882,2.259-37.99-.022-1.593-.28-7.845-.494-9.16" transform="translate(-833.333 -863.726)" fill="#5d5d5d"/>
        <path id="Trazado_748546" data-name="Trazado 748546" d="M1223.385,2147.031a.765.765,0,0,0-.136-.175,1.176,1.176,0,0,0-.149-.124c-.05-.031-.1-.065-.151-.091a2.879,2.879,0,0,0-.606-.225,4.764,4.764,0,0,0-.606-.115,8.016,8.016,0,0,0-1.206-.055q-.591.01-1.183.062a11.139,11.139,0,0,0-2.337.426,5.679,5.679,0,0,0-1.1.468,3.02,3.02,0,0,0-.9.759,2.893,2.893,0,0,1,.46-.356,3.507,3.507,0,0,1,.511-.269,5.9,5.9,0,0,1,1.1-.346,9.836,9.836,0,0,1,1.14-.182c.383-.039.768-.068,1.154-.08s.773-.013,1.16-.01a7.543,7.543,0,0,1,1.132.088,5,5,0,0,1,.543.115,2.369,2.369,0,0,1,.488.189c.036.019.067.041.1.061a.635.635,0,0,1,.076.064c.044.043.055.076.052.077s0,0,0,.006,0,.007,0,.013a.083.083,0,0,0-.013.023l-.026.03a.184.184,0,0,1-.033.033c-.013.011-.024.022-.038.033-.033.021-.06.045-.1.065a2.44,2.44,0,0,1-.48.216c-.173.062-.355.11-.537.156s-.369.085-.556.119l-.571.093c-.766.123-1.545.206-2.322.355a8.9,8.9,0,0,0-2.275.7,5.482,5.482,0,0,0-1.846,1.467,6.174,6.174,0,0,1,1.952-1.227c.087-.039.181-.064.27-.1s.18-.065.272-.09c.186-.049.368-.106.557-.142.373-.087.754-.146,1.136-.2.767-.1,1.544-.17,2.326-.265.2-.022.392-.054.588-.082s.4-.073.592-.117a6.065,6.065,0,0,0,.589-.167,2.932,2.932,0,0,0,.587-.263c.049-.027.1-.066.146-.1.024-.019.048-.042.072-.062a.551.551,0,0,0,.07-.071c.023-.027.046-.053.067-.083s.041-.069.059-.1a.893.893,0,0,0,.041-.125.556.556,0,0,0-.013-.277.766.766,0,0,0-.051-.118" transform="translate(-1105.942 -1955.008)" fill="#272f35"/>
        <path id="Trazado_748547" data-name="Trazado 748547" d="M974.663,2155.72a12.478,12.478,0,0,0-2.506-.492,7.878,7.878,0,0,0-1.3-.009,4.417,4.417,0,0,0-1.289.282,2.6,2.6,0,0,0-.591.329,1.832,1.832,0,0,0-.462.5,1.764,1.764,0,0,0-.236.622,2.1,2.1,0,0,0-.008.642,2.718,2.718,0,0,1,.15-.6,1.691,1.691,0,0,1,.305-.507,2.024,2.024,0,0,1,.981-.586,4.819,4.819,0,0,1,1.179-.172,10,10,0,0,1,1.219.037,22.644,22.644,0,0,1,2.449.367q.611.122,1.222.265c.408.093.813.2,1.22.312a7.928,7.928,0,0,0-1.139-.563c-.392-.161-.793-.3-1.2-.423" transform="translate(-881.982 -1963.162)" fill="#272f35"/>
        <path id="Trazado_748548" data-name="Trazado 748548" d="M1265.281,1860.858c-.087-.572-.185-1.142-.284-1.708s-.2-1.134-.247-1.69c-.014-.14-.018-.272-.019-.406l.005-.431c0-.287,0-.574.014-.861l.023-.861.033-.861c.041-1.149.1-2.3.167-3.447s.131-2.3.178-3.453c.109-2.3.17-4.616.062-6.922-.116,2.3-.293,4.6-.481,6.9-.1,1.148-.182,2.3-.268,3.448s-.145,2.3-.2,3.458l-.027.866-.017.867c-.007.289-.006.578-.008.868l0,.434a4.218,4.218,0,0,0,.029.456c.068.591.182,1.157.291,1.725l.334,1.694c.107.563.2,1.128.273,1.693.034.282.06.565.067.846a3.136,3.136,0,0,1-.07.818,1.161,1.161,0,0,1-.459.615,2.824,2.824,0,0,1-.748.368,7.04,7.04,0,0,1-.829.219c-.281.061-.565.112-.849.166a10.829,10.829,0,0,0,1.72-.243,2.832,2.832,0,0,0,.822-.338,1.583,1.583,0,0,0,.186-.136l.088-.076c.029-.026.053-.058.079-.087a1.158,1.158,0,0,0,.076-.091l.065-.1.032-.051a.6.6,0,0,0,.024-.055c.015-.037.032-.076.044-.113a3.3,3.3,0,0,0,.126-.894c.008-.3-.005-.589-.025-.88-.041-.583-.124-1.157-.21-1.73" transform="translate(-1149.784 -1676.249)" fill="#272f35"/>
        <path id="Trazado_748549" data-name="Trazado 748549" d="M1293.336,1377.479l-.187,4.3-.177,4.3-.148,4.307c-.037,1.436-.079,2.872-.1,4.31-.044,2.874-.041,5.749.071,8.622l.347-8.61.187-4.3.178-4.3.149-4.307c.037-1.436.08-2.872.1-4.309.044-2.874.04-5.75-.072-8.622Z" transform="translate(-1177.518 -1246.899)" fill="#272f35"/>
        <path id="Trazado_748550" data-name="Trazado 748550" d="M1017.163,2135.961l-.126-.013c0,.04,0,.08,0,.12Z" transform="translate(-926.416 -1945.63)" fill="#272f35"/>
        <path id="Trazado_748551" data-name="Trazado 748551" d="M988.449,1840.391l-.127,1.7c-.038.567-.08,1.134-.114,1.7l-.094,1.7-.082,1.7-.062,1.7-.05,1.7-.029,1.7q-.049,3.349.045,6.7l.126.013-.123.107c0-.04,0-.08,0-.12a8.216,8.216,0,0,0-1.38-.033,5.037,5.037,0,0,0-1.467.3,5.319,5.319,0,0,1,1.471-.181,9.208,9.208,0,0,1,1.472.141l.12.02,0-.127q.1-3.405.213-6.807l.127-3.4.147-3.4.166-3.4.183-3.4.387-6.8c-.323,2.25-.572,4.51-.781,6.774Z" transform="translate(-897.315 -1668.69)" fill="#272f35"/>
        <path id="Trazado_748552" data-name="Trazado 748552" d="M1030.286,1375.007q-.034.975-.059,1.949l-.057,1.949-.1,3.9-.067,3.9c-.011,1.3-.03,2.6-.026,3.9,0,2.6.029,5.2.14,7.8.111-2.6.2-5.2.278-7.8.022-.65.044-1.3.059-1.949l.056-1.949.1-3.9.068-3.9c.011-1.3.03-2.6.026-3.9,0-2.6-.029-5.2-.141-7.8-.112,2.6-.2,5.2-.279,7.8" transform="translate(-938.207 -1245.387)" fill="#272f35"/>
        <path id="Trazado_748553" data-name="Trazado 748553" d="M1159.941,1085.858l-.016-1.226c-.008-.409-.012-.818-.016-1.226,0-.2-.007-.409,0-.613l0-.307.021-.306c-.021.1-.044.2-.063.3l-.042.3c-.029.2-.044.408-.066.612s-.036.408-.052.613l-.046.613q-.079,1.226-.128,2.453c-.066,1.636-.106,3.271-.133,4.905l-.04,2.45c0,.2-.007.407-.012.61l-.008.3-.014.3c-.023.411-.041.812-.081,1.213a10.8,10.8,0,0,1-.182,1.19,6.313,6.313,0,0,1-.346,1.145,4.231,4.231,0,0,1-.264.534,3.379,3.379,0,0,1-.353.478,2.415,2.415,0,0,1-.457.384,2.329,2.329,0,0,1-.554.247,2.213,2.213,0,0,0,.593-.176,2.511,2.511,0,0,0,.522-.348,3.136,3.136,0,0,0,.423-.469,4.49,4.49,0,0,0,.33-.538,7.9,7.9,0,0,0,.7-2.395q.047-.308.079-.618c.011-.1.02-.206.029-.308l.014-.15.012-.156.025-.311.018-.308c.012-.205.024-.411.032-.615.036-.82.052-1.638.068-2.456.028-1.636.026-3.272.013-4.907Z" transform="translate(-1053.989 -985.755)" fill="#272f35"/>
        <path id="Trazado_748554" data-name="Trazado 748554" d="M1152.121,1086.021c-.013-2.25-.033-4.5-.081-6.751-.174,2.246-.271,4.5-.337,6.746-.037,1.125-.054,2.25-.077,3.375l-.038,3.375-.01,3.374,0,1.687c0,.562,0,1.125.007,1.687.011,2.25.028,4.5.073,6.751.178-2.246.279-4.5.347-6.745.039-1.125.055-2.25.079-3.375l.038-3.375.009-3.375,0-1.687c0-.562,0-1.125-.008-1.687" transform="translate(-1048.969 -983.104)" fill="#272f35"/>
        <path id="Trazado_748555" data-name="Trazado 748555" d="M1124.656,1354.8c-.824.33-1.638.687-2.437,1.078-.2.1-.4.2-.6.3s-.394.208-.587.318a11.846,11.846,0,0,0-1.132.713l2.484-.944q1.238-.474,2.468-.966t2.453-1c.816-.342,1.626-.692,2.445-1.045a18.273,18.273,0,0,0-2.59.649c-.847.269-1.682.572-2.507.9" transform="translate(-1020.118 -1232.677)" fill="#272f35"/>
        <path id="Trazado_748556" data-name="Trazado 748556" d="M1037.538,326.45a5.442,5.442,0,0,0,.69,4.621l2.276,3.173c1.242,1.035,4.69.759,6.277.759,2.69,0,7.311-.9,6-4.552-1.448-4.069-13.864-10.208-15.243-4" transform="translate(-944.903 -294.954)" fill="#ecc3a8"/>
        <path id="Trazado_748557" data-name="Trazado 748557" d="M1163.431,1000.057c-.1,2.483-1.242,12.312.31,13.554l13.553-1.449c.621-1.138,1.034-10.76,0-12.312-1.242-1.862-10.967.517-13.864.207" transform="translate(-1059.312 -910.106)" fill="#353535"/>
        <path id="Trazado_748558" data-name="Trazado 748558" d="M1095.174,459.584c-.31-12,.1-21.313-2.38-33-.931-4.656-3-8.484-4.656-12.726-3.828,2.483-9.311,2.38-13.657,2.069l4.035,51.007c3.725,2.9,9.829,2.07,13.967.828,3.518-1.035,3.518-1.035,3.1-4.656-.31-3.1-.414-.413-.414-3.517" transform="translate(-978.743 -376.979)" fill="#e9e9fd"/>
        <path id="Trazado_748559" data-name="Trazado 748559" d="M885.686,383.524c-1.345-10.76-2.173-21.313-7.346-31.246-1.241-2.173-2.348-4.65-4.138-6.517-4.853-5.063-18,9.069-18,9.069s3.309,12.762,4.551,17.728q.078.351.151.761c1.248,6.843,1.91,25.318,1.312,26.811-.5,1.441-1.44,7.574-1.962,11.163-.227,1.563-.375,2.643-.375,2.643,7.138,4.656,16.806,3.834,25.394,4.352.605-5.255.323-10.806.6-16.171l.021-.383a115.851,115.851,0,0,0-.025-16.486q-.079-.864-.182-1.723" transform="translate(-779.911 -313.954)" fill="#fe7062"/>
        <path id="Trazado_748560" data-name="Trazado 748560" d="M917.772,537.462c-.346-.461-6.34-21.556-6.34-21.556s-6.109,7.839-8.184,11.758c-.246.465-.555,1.016-.911,1.636,1.248,6.843,1.91,25.318,1.312,26.811-.5,1.441-1.44,7.574-1.962,11.163,3.859-3.37,10.07-8.6,11.7-8.833,1.907-.273,10.4-.331,13.914-.344l0-16.869c-3.233-1.184-9.277-3.431-9.53-3.768" transform="translate(-821.345 -469.937)" fill="#98433a"/>
        <path id="Trazado_748561" data-name="Trazado 748561" d="M1182,362.739c-1.406-1.15-9.287-3.485-11.253-3.382l-2.21.3a48.084,48.084,0,0,1,4.448,9.622c1.966,6,3.932,12.415,4.656,18.726,1.242,11.278,1.345,20.9,1.552,32.177.1,3.207.1,7.345.208,10.553,7.966-1.138,9.354-3.122,9.458-5.3.31-6.524-4.077-40.538-4.077-40.538s-.452-14.649-2.781-22.163" transform="translate(-1064.416 -327.334)" fill="#fe7062"/>
        <path id="Trazado_748562" data-name="Trazado 748562" d="M1161.567,336.792s4.6,10.294,5.069,11.329l.828-4.242,5.432,3.311-6.621-9.208s-2.069-3.207-4.708-1.19" transform="translate(-1058.068 -306.176)" fill="#ffcdc8"/>
        <path id="Trazado_748563" data-name="Trazado 748563" d="M1056.676,254.839l10.168,5.405.7-4.376-9.112-10.3Z" transform="translate(-962.523 -223.688)" fill="#ecc3a8"/>
        <path id="Trazado_748564" data-name="Trazado 748564" d="M1015.124,317.091a13.2,13.2,0,0,0-4,2.414c-1.31,1.173,1.311,15.589,1.311,15.657,0,0,2.9-4.9,4.414-6.966l4.69,4.552c-.414-2.207-4.828-15.243-6.415-15.657" transform="translate(-920.695 -288.837)" fill="#ffcdc8"/>
        <path id="Trazado_748565" data-name="Trazado 748565" d="M1319.626,397.349c.529,3.08,1.409,10.3,2.038,15.669.431,3.683.743,6.493.743,6.493l7.211,4.345,1.088.655.031.018v0l.366-4.881.741-9.872-.5-.6c-8.755-10.557-11.721-11.821-11.721-11.821" transform="translate(-1202.044 -361.944)" fill="#fe7062"/>
        <path id="Trazado_748566" data-name="Trazado 748566" d="M1418.376,399.4a132.233,132.233,0,0,0-7.916,11.639,33.607,33.607,0,0,0-3.759,8.141,5.994,5.994,0,0,0-.192,2.128,6.47,6.47,0,0,0,2.222,4.417,5.045,5.045,0,0,0,1.088.655l.031.014a7.8,7.8,0,0,0,6.553-.638c4.473-2.282,10.28-22.248,10.28-22.248l-.8-.4Z" transform="translate(-1281.157 -363.81)" fill="#fe7062"/>
        <path id="Trazado_748567" data-name="Trazado 748567" d="M1023.259,39.835c-2.182-.762-3.32.08-3.9.979a2.853,2.853,0,0,1-2.673,1.22c-2.494-.224-6.617-.338-9.023.982a4.161,4.161,0,0,0-2.225,5.278s-2.682.824-2.713,3.23c-.064,4.939,6.522,9.038,6.522,9.038l12.408-8.126c6.858-.832,6.047-11.049,1.606-12.6" transform="translate(-913.378 -36.015)" fill="#50231a"/>
        <path id="Trazado_748568" data-name="Trazado 748568" d="M1055.764,133.818a7.29,7.29,0,0,1,1.025,2.873,3.26,3.26,0,0,1-1.628,3.106l-.016.009a2.349,2.349,0,0,0-2.319-1.7,2.576,2.576,0,0,0,.143,5.1l-1.233,7.06c2.081,2.656,4.44,4.048,6.1,4.234a10.753,10.753,0,0,0,4.2-.057l.6-4.24s3.062,1.326,3.98-1.092-1.078-11.852-1.337-13.3a14.04,14.04,0,0,1-9.513-1.992" transform="translate(-957.065 -121.894)" fill="#ecc3a8"/>
        <path id="Trazado_748569" data-name="Trazado 748569" d="M1107.693,133.811a7.419,7.419,0,0,1,1,2.67c2.477.436,5.948.756,8.615-.138-.044-.23-.08-.416-.1-.539a14.042,14.042,0,0,1-9.514-1.992" transform="translate(-1008.995 -121.888)" fill="#e19f89"/>
        <path id="Trazado_748570" data-name="Trazado 748570" d="M1130.986,284.431s.789,5.6,4.251,6.837l.545-3.875s-3.64-1.572-4.8-2.961" transform="translate(-1030.212 -259.087)" fill="#e19f89"/>
        <path id="Trazado_748571" data-name="Trazado 748571" d="M1073.934,101.656a.153.153,0,0,1-.131-.073,5.158,5.158,0,0,0-1.308-1.188.153.153,0,1,1,.165-.258,5.365,5.365,0,0,1,1.4,1.285.153.153,0,0,1-.05.211.151.151,0,0,1-.08.023" transform="translate(-976.869 -91.192)" fill="#6c3020"/>
        <path id="Trazado_748572" data-name="Trazado 748572" d="M1212.9,137.981a.153.153,0,0,1-.032-.3,4.745,4.745,0,0,0,2.546-1.581.153.153,0,0,1,.248.18,4.971,4.971,0,0,1-2.731,1.7.154.154,0,0,1-.032,0" transform="translate(-1104.692 -123.913)" fill="#6c3020"/>
        <path id="Trazado_748573" data-name="Trazado 748573" d="M1063.581,194.028a.222.222,0,0,1-.044-.44l1.134-.228-.712-1.46a.222.222,0,0,1,.4-.195l.964,1.977-1.7.342a.228.228,0,0,1-.044,0" transform="translate(-968.611 -174.509)" fill="#d97876"/>
        <path id="Trazado_748574" data-name="Trazado 748574" d="M1187.334,189.249a.222.222,0,0,1-.012-.444,6.262,6.262,0,0,0,1.571-.417c.171-.064.21-.144.225-.2.106-.387-.557-1.208-.952-1.7a5.977,5.977,0,0,1-.425-.564,2.978,2.978,0,0,1-.282-1.634.222.222,0,0,1,.441.051,2.57,2.57,0,0,0,.222,1.354,5.885,5.885,0,0,0,.39.514c.535.663,1.2,1.489,1.035,2.1a.742.742,0,0,1-.5.5,6.478,6.478,0,0,1-1.7.444h-.013" transform="translate(-1081.337 -167.692)" fill="#d97876"/>
        <g id="Grupo_1019190" data-name="Grupo 1019190" transform="translate(98.812 18.391)" opacity="0.5">
          <g id="Grupo_1019189" data-name="Grupo 1019189">
            <g id="Grupo_1019188" data-name="Grupo 1019188" clip-path="url(#clip-path-3)">
              <path id="Trazado_748575" data-name="Trazado 748575" d="M1111.012,206.419c-1.076-.11-1.989.206-2.04.707s.779.995,1.855,1.1,1.989-.206,2.04-.707-.779-.995-1.855-1.1" transform="translate(-1108.97 -206.398)" fill="#d3506d"/>
            </g>
          </g>
        </g>
        <path id="Trazado_748576" data-name="Trazado 748576" d="M1159.116,187a.508.508,0,1,0,.409.466.446.446,0,0,0-.409-.466" transform="translate(-1055.518 -170.341)" fill="#50231a"/>
        <path id="Trazado_748577" data-name="Trazado 748577" d="M1201.886,187.415c-.208-.018-.4.187-.419.457a.446.446,0,0,0,.336.521c.208.018.4-.187.419-.457a.446.446,0,0,0-.336-.521" transform="translate(-1094.411 -170.715)" fill="#50231a"/>
        <path id="Trazado_748578" data-name="Trazado 748578" d="M1150.072,165.435a.306.306,0,0,1-.181-.553,2.076,2.076,0,0,1,2.158-.133.306.306,0,1,1-.3.533,1.461,1.461,0,0,0-1.5.1.306.306,0,0,1-.178.057" transform="translate(-1047.318 -149.84)" fill="#50231a"/>
        <path id="Trazado_748579" data-name="Trazado 748579" d="M1196.329,168.54a.306.306,0,0,1-.216-.089,1,1,0,0,0-1.273-.144.306.306,0,0,1-.344-.507,1.611,1.611,0,0,1,2.049.217.306.306,0,0,1-.216.523" transform="translate(-1087.941 -152.601)" fill="#50231a"/>
        <path id="Trazado_748580" data-name="Trazado 748580" d="M1171.058,254.576a3.8,3.8,0,0,0,.168.88c.175.535.523,1.074,1.215.868a1.591,1.591,0,0,0,.794-.553,3.536,3.536,0,0,0,.64-1.672,4.576,4.576,0,0,1-2.818.476" transform="translate(-1066.714 -231.459)" fill="#3a281a"/>
        <path id="Trazado_748581" data-name="Trazado 748581" d="M1172.947,267.294c.175.535.523,1.074,1.215.868a1.59,1.59,0,0,0,.794-.553,1.642,1.642,0,0,0-2.009-.316" transform="translate(-1068.434 -243.297)" fill="#ce482a"/>
        <path id="Trazado_748582" data-name="Trazado 748582" d="M1141.67,76.282a1.292,1.292,0,0,1,.4,2.066c-.979,1.414-2.936.217-2.936.217-2.32,3.117-4.93,1.45-4.93,1.45a3.877,3.877,0,0,0,5.51-.145c2.32.652,3.661-.471,3.589-1.921a1.88,1.88,0,0,0-1.631-1.667" transform="translate(-1033.143 -69.485)" fill="#6c3020"/>
        <path id="Trazado_748583" data-name="Trazado 748583" d="M1296.047,726.214c-3.341,2.05-8.458,3.89-10.508,7.307a40.862,40.862,0,0,0-3.269,6.591l1.476,2.805c1.822,3.493,4.48.3,5.695-1.822,1.822,1.367,3.113.228,4.1-1.442.456-.683,1.952-1.991,1.67-2.7-.3-.76,0-.038.607-.949.21-.35.987-1.822.3-2.127,0,0,.48-1.645.151-1.973-.683-.683-3.645-.152-4.556-.076,1.291-1.444,3.189-2.431,4.632-3.721,1.519-1.291,2.354-3.492-.3-1.9" transform="translate(-1168.016 -660.998)" fill="#ecc3a8"/>
        <path id="Trazado_748584" data-name="Trazado 748584" d="M1361.013,862.462c-.213.316-.426.632-.635.952s-.419.639-.617.973a7.359,7.359,0,0,0,.8-.833,10.919,10.919,0,0,0,.7-.923,11.186,11.186,0,0,0,.6-.988,7.861,7.861,0,0,0,.483-1.052c-.242.3-.464.616-.682.929s-.435.627-.648.943" transform="translate(-1238.604 -783.909)" fill="#d9a28d"/>
        <path id="Trazado_748585" data-name="Trazado 748585" d="M1374.833,876.588a1.67,1.67,0,0,1-.469.22,1.039,1.039,0,0,1-.541-.011.715.715,0,0,0,.569.246,1.188,1.188,0,0,0,.6-.2,1.96,1.96,0,0,0,.452-.407,2.078,2.078,0,0,0,.312-.511,5.743,5.743,0,0,0-.477.341c-.151.115-.3.227-.449.323" transform="translate(-1251.412 -797.876)" fill="#d9a28d"/>
        <path id="Trazado_748586" data-name="Trazado 748586" d="M1376.834,838.645a1.619,1.619,0,0,0-.312-.238,4.139,4.139,0,0,0-1.44-.457c-.247-.035-.495-.062-.743-.078s-.5-.023-.743-.017a9.37,9.37,0,0,0-1.477.126c.493.041.982.07,1.469.108.243.022.486.039.727.067s.482.052.72.092a6.918,6.918,0,0,1,.706.138,3.525,3.525,0,0,1,.668.228,1.161,1.161,0,0,1,.516.426.9.9,0,0,1,.066.684,1,1,0,0,0,.117-.358.8.8,0,0,0-.05-.39,1.014,1.014,0,0,0-.225-.331" transform="translate(-1249.86 -763.198)" fill="#d9a28d"/>
        <path id="Trazado_748587" data-name="Trazado 748587" d="M1381.425,815.212a1.411,1.411,0,0,0-.452-.2,3.461,3.461,0,0,0-.465-.086c-.31-.036-.616-.041-.919-.051-.151,0-.3,0-.449-.012s-.3-.017-.457-.019c-.306,0-.612,0-.917.021a15.916,15.916,0,0,0-1.813.22c.609.02,1.216.007,1.818.015.3.007.6.01.9.029.15.009.3.017.451.028s.307.014.459.019c.3,0,.6.009.9.034a2.018,2.018,0,0,1,.818.2.559.559,0,0,1,.248.28.834.834,0,0,1,.033.406,3.259,3.259,0,0,1-.273.851,2.571,2.571,0,0,0,.418-.823.987.987,0,0,0,.009-.494.751.751,0,0,0-.308-.416" transform="translate(-1253.351 -742.239)" fill="#d9a28d"/>
        <path id="Trazado_748588" data-name="Trazado 748588" d="M1219.9,836.075l-.836,8.828s8.838,1.182,9.252-.335-.913-8.108-.913-8.108Z" transform="translate(-1110.441 -761.579)" fill="#ecc3a8"/>
        <path id="Trazado_748589" data-name="Trazado 748589" d="M839.042,450.334c-6.11,5.742,3.958,40.392,3.958,40.392l12.466-10.87s-1.3-16.17-3.791-23.25c-3.652-10.39-12.632-6.272-12.632-6.272" transform="translate(-762.488 -409.474)" fill="#fe7062"/>
        <path id="Trazado_748590" data-name="Trazado 748590" d="M906.708,793.723c-6.722,2.641-5.041,7.042-5.041,7.042,12.418,7.3,33.981,4.273,33.981,4.273l.41-11.252-21.925-3.891a70.078,70.078,0,0,1-7.425,3.828" transform="translate(-821.156 -719.513)" fill="#fe7062"/>
        <path id="Trazado_748591" data-name="Trazado 748591" d="M1355.121,460.994a10.054,10.054,0,0,1-3.186-1.552c-1.062-.658-2.277-1.472-3.515-2.333-2.133-1.483-4.332-3.1-5.924-4.293.431,3.683.743,6.493.743,6.493l7.211,4.345a5.038,5.038,0,0,0,1.088.655l.031.019v0a7.8,7.8,0,0,0,6.553-.638c4.473-2.282,10.28-22.249,10.28-22.249l-.8-.4c-1.562,3-10.5,20.032-12.476,19.954" transform="translate(-1222.876 -401.742)" fill="#98433a"/>
        <rect id="Rectángulo_355963" data-name="Rectángulo 355963" width="37.816" height="41.876" transform="translate(213.563 59.67) rotate(-0.276)" fill="#cb895f"/>
        <rect id="Rectángulo_355964" data-name="Rectángulo 355964" width="19.526" height="41.878" transform="translate(251.378 59.488) rotate(-0.275)" fill="#af6e52"/>
        <path id="Trazado_748592" data-name="Trazado 748592" d="M2564.581,668.52l.043,9.05.525,0,.27-.958.3.956.808,0,1.77-.009.612-1.437.66,1.431.478-.7.347.7.6,0,.8,0-.043-9.05Z" transform="translate(-2336.07 -608.922)" fill="#ecc3a8"/>
        <path id="Trazado_748593" data-name="Trazado 748593" d="M2845.094,717.87l-4.28-8.987q-2.149-4.486-4.342-8.941,2.061,4.551,4.163,9.072l4.226,9.026,4.28,8.987q2.15,4.486,4.342,8.941-2.062-4.55-4.163-9.072Z" transform="translate(-2583.735 -637.575)" fill="#9d5539"/>
        <path id="Trazado_748594" data-name="Trazado 748594" d="M2846.636,717.044l-4.139,9.067q-2.059,4.541-4.075,9.112,2.149-4.477,4.256-8.983l4.193-9.028,4.138-9.067q2.059-4.54,4.075-9.112-2.147,4.477-4.256,8.983Z" transform="translate(-2585.511 -636.748)" fill="#9d5539"/>
        <path id="Trazado_748595" data-name="Trazado 748595" d="M2499.817,845.069h2.581v9.09h3.344v-9.09h2.581l-4.253-5.674Z" transform="translate(-2277.077 -764.603)" fill="#fff"/>
        <path id="Trazado_748596" data-name="Trazado 748596" d="M2644.852,845.069h2.581v9.09h3.344v-9.09h2.581L2649.1,839.4Z" transform="translate(-2409.188 -764.603)" fill="#fff"/>
        <rect id="Rectángulo_355965" data-name="Rectángulo 355965" width="22.87" height="0.467" transform="translate(222.019 91.312)" fill="#fff"/>
        <rect id="Rectángulo_355966" data-name="Rectángulo 355966" width="22.87" height="0.467" transform="translate(222.019 92.705)" fill="#fff"/>
        <rect id="Rectángulo_355967" data-name="Rectángulo 355967" width="22.87" height="0.467" transform="translate(222.019 94.097)" fill="#fff"/>
        <path id="Trazado_748597" data-name="Trazado 748597" d="M2785.661,488.486l-23.556-18.316a.658.658,0,0,0-.935.17.708.708,0,0,0,.166.966l23.269,18.109,1.343,1.388v-1.749a.7.7,0,0,0-.287-.568" transform="translate(-2515.032 -428.163)" fill="#292949"/>
        <path id="Trazado_748598" data-name="Trazado 748598" d="M2628.123,170.288c-1.666-.475-2.757-.9-2.763-2.361,0-.1-.018-4.259-.018-4.259a.383.383,0,0,0-.377-.388h-4.434a.383.383,0,0,0-.377.39v3.338c0,.283-.006.571-.012.861a9.237,9.237,0,0,0,.6,4.326,5.1,5.1,0,0,0,2.531,2.4,7.528,7.528,0,0,0,2.1.5,9.361,9.361,0,0,1,1.44.272,6.757,6.757,0,0,1,4.731,6.475,6.661,6.661,0,0,1-6.557,6.746,8.124,8.124,0,0,1-7.337-3.553.794.794,0,0,0-.981-.31.84.84,0,0,0-.522.91,9.275,9.275,0,0,0,6.6,7.482,9.876,9.876,0,0,0,2.868.421,10.84,10.84,0,0,0,8.269-3.914,12.257,12.257,0,0,0,.338-15.144,11.773,11.773,0,0,0-6.106-4.192" transform="translate(-2383.039 -148.731)" fill="#afabd8"/>
        <path id="Trazado_748599" data-name="Trazado 748599" d="M2630.657,399.767a6.542,6.542,0,0,1-1.8,1.165l-.016.009.016-.009A8.319,8.319,0,0,1,2619,397.9h0a.794.794,0,0,0-.98-.311.834.834,0,0,0-.4.336,7.955,7.955,0,0,0,7.32,5,7.854,7.854,0,0,0,7.574-5.96,6.472,6.472,0,0,1-1.858,2.8" transform="translate(-2384.384 -361.595)" fill="#1f008b"/>
        <g id="Grupo_1019193" data-name="Grupo 1019193" transform="translate(245.976 23.576)" opacity="0.2">
          <g id="Grupo_1019192" data-name="Grupo 1019192">
            <g id="Grupo_1019191" data-name="Grupo 1019191" clip-path="url(#clip-path-4)">
              <path id="Trazado_748600" data-name="Trazado 748600" d="M2760.821,264.648c-.078-.023-.156-.036-.234-.057a11.651,11.651,0,0,1,2.9,16.552,9.233,9.233,0,0,0,3.45-4.992,9.333,9.333,0,0,0-6.121-11.5" transform="translate(-2760.587 -264.591)" fill="#fff"/>
            </g>
          </g>
        </g>
        <path id="Trazado_748601" data-name="Trazado 748601" d="M2466.636,434.735,2442.1,453.81a.7.7,0,0,0-.257.544l-.092,42.359a.707.707,0,0,0,.2.491.66.66,0,0,0,.476.2h1.679l-1.007-1.041.09-41.674,24.68-19.222.458-.148-.854-.587a.652.652,0,0,0-.832,0" transform="translate(-2224.184 -395.863)" fill="#292949"/>
        <path id="Trazado_748602" data-name="Trazado 748602" d="M2650.133,113.049h-5.3a1.54,1.54,0,0,0-1.54,1.54V120.2a1.54,1.54,0,0,0,1.54,1.54h5.3a1.54,1.54,0,0,0,1.54-1.54v-5.614a1.54,1.54,0,0,0-1.54-1.54" transform="translate(-2407.766 -102.976)" fill="#1f008b"/>
        <path id="Trazado_748603" data-name="Trazado 748603" d="M625.306,94.774h0c-.032-.09-.064-.179-.1-.268a8.308,8.308,0,0,0-15.435,6.155c.036.089.075.176.113.263l-.007,0a11.711,11.711,0,0,0,6.781,6.173s1.607.4,2.727,3.211l1.7-.679,2.074-.827,1.7-.679c-1.119-2.807-.231-4.206-.231-4.206a11.711,11.711,0,0,0,.672-9.145" transform="translate(-554.898 -81.319)" fill="#f4d733"/>
        <path id="Trazado_748604" data-name="Trazado 748604" d="M692.466,207.335a1.658,1.658,0,0,0,.44-1.822c-.126-.483-.411-1.007-.831-1.032-.2-.012-.489.092-.707.653a4.044,4.044,0,0,0,.092,2.124l-1.739.693a4.048,4.048,0,0,0-1.395-1.6c-.544-.257-.824-.135-.963.013-.288.307-.134.884.107,1.321.3.551.9,1.149,1.573,1.02l.041-.012.443-.177a41.492,41.492,0,0,1,2.46,5.824l.424-.143c-.006-.017-.6-1.766-1.38-3.586q-.574-1.334-1.086-2.262l1.622-.647q.267,1.024.769,2.388c.684,1.859,1.459,3.535,1.466,3.551l.406-.188a41.491,41.491,0,0,1-2.222-5.918Zm-3.528.929c-.405.063-.831-.353-1.077-.8-.219-.4-.241-.725-.172-.8.028-.03.157-.05.445.085a3.6,3.6,0,0,1,1.167,1.367Zm2.846-2.967c.115-.3.224-.371.264-.369.1.006.309.258.424.7.129.493.106,1.087-.231,1.321l-.363.145a3.6,3.6,0,0,1-.094-1.795" transform="translate(-625.974 -186.261)" fill="#fff"/>
        <path id="Trazado_748605" data-name="Trazado 748605" d="M761.345,354.619l-.016-.041-.347.162-.363.121.016.041-.8.376s.491.626.685.548l.421-.168.71-.283.421-.168c.195-.078.12-.869.12-.869Z" transform="translate(-692.128 -322.766)" fill="#272425"/>
        <path id="Trazado_748606" data-name="Trazado 748606" d="M746.9,337.122l-4.621,1.843s.189.135.411.333a3.719,3.719,0,0,1,.5.531.32.32,0,0,0,.374.1l3.067-1.223a.318.318,0,0,0,.2-.333,3.721,3.721,0,0,1,0-.731c.026-.3.069-.524.069-.524" transform="translate(-676.144 -307.084)" fill="#a2a4a7"/>
        <g id="Grupo_1019196" data-name="Grupo 1019196" transform="translate(66.139 31.362)" opacity="0.5" style="mix-blend-mode: multiply;isolation: isolate">
          <g id="Grupo_1019195" data-name="Grupo 1019195">
            <g id="Grupo_1019194" data-name="Grupo 1019194" clip-path="url(#clip-path-5)">
              <path id="Trazado_748607" data-name="Trazado 748607" d="M743.582,351.981l-1.3.518s.189.135.411.333a3.732,3.732,0,0,1,.5.531.32.32,0,0,0,.374.1l1.172-.467a10.744,10.744,0,0,0-.722-.959Z" transform="translate(-742.282 -351.981)" fill="#a2a4a7"/>
            </g>
          </g>
        </g>
        <g id="Grupo_1019199" data-name="Grupo 1019199" transform="translate(66.139 30.038)" opacity="0.5" style="mix-blend-mode: multiply;isolation: isolate">
          <g id="Grupo_1019198" data-name="Grupo 1019198">
            <g id="Grupo_1019197" data-name="Grupo 1019197" clip-path="url(#clip-path-6)">
              <path id="Trazado_748608" data-name="Trazado 748608" d="M742.693,339.3l4.141-1.651c.026-.3.069-.524.069-.524l-4.621,1.843s.189.135.411.333" transform="translate(-742.282 -337.121)" fill="#a2a4a7"/>
            </g>
          </g>
        </g>
        <path id="Trazado_748609" data-name="Trazado 748609" d="M618.791,127.711a12.675,12.675,0,0,1-7.339-6.682l.007,0c-.041-.094-.083-.188-.122-.285a8.976,8.976,0,0,1,.636-7.945,8.311,8.311,0,0,0-2.2,9.292c.035.089.074.176.113.263l-.007,0a11.71,11.71,0,0,0,6.781,6.173s1.607.4,2.727,3.211l1.7-.679.514-.2c-1.2-2.738-2.811-3.143-2.811-3.143" transform="translate(-554.9 -102.746)" fill="#dc9d53"/>
        <path id="Trazado_748610" data-name="Trazado 748610" d="M733.357,321.532l-5.349,2.133a.752.752,0,0,0,.557,1.4l5.349-2.133a.752.752,0,1,0-.557-1.4" transform="translate(-662.71 -292.834)" fill="#e5e6e7"/>
        <g id="Grupo_1019202" data-name="Grupo 1019202" transform="translate(64.825 30.025)" opacity="0.5" style="mix-blend-mode: multiply;isolation: isolate">
          <g id="Grupo_1019201" data-name="Grupo 1019201">
            <g id="Grupo_1019200" data-name="Grupo 1019200" clip-path="url(#clip-path-7)">
              <path id="Trazado_748611" data-name="Trazado 748611" d="M729.914,337.828a.884.884,0,0,1,.115-.856l-2.021.806a.752.752,0,0,0,.557,1.4l2.021-.806a.884.884,0,0,1-.673-.542" transform="translate(-727.535 -336.972)" fill="#a2a4a7"/>
            </g>
          </g>
        </g>
        <g id="Grupo_1019205" data-name="Grupo 1019205" transform="translate(64.828 28.645)" opacity="0.5" style="mix-blend-mode: multiply;isolation: isolate">
          <g id="Grupo_1019204" data-name="Grupo 1019204">
            <g id="Grupo_1019203" data-name="Grupo 1019203" clip-path="url(#clip-path-8)">
              <path id="Trazado_748612" data-name="Trazado 748612" d="M733.385,321.535l-5.35,2.133a.753.753,0,0,0-.47.642l6.6-2.633a.737.737,0,0,0-.208-.134.756.756,0,0,0-.575-.008" transform="translate(-727.565 -321.482)" fill="#a2a4a7"/>
            </g>
          </g>
        </g>
        <path id="Trazado_748613" data-name="Trazado 748613" d="M728.458,307.42a.741.741,0,0,0-.208-.134.756.756,0,0,0-.575-.008l-5.35,2.133a.753.753,0,0,0-.47.642.744.744,0,0,0,.05.335.754.754,0,0,0,.977.42l5.35-2.133a.755.755,0,0,0,.42-.977.745.745,0,0,0-.194-.278" transform="translate(-657.533 -279.85)" fill="#e5e6e7"/>
        <g id="Grupo_1019208" data-name="Grupo 1019208" transform="translate(64.318 28.754)" opacity="0.5" style="mix-blend-mode: multiply;isolation: isolate">
          <g id="Grupo_1019207" data-name="Grupo 1019207">
            <g id="Grupo_1019206" data-name="Grupo 1019206" clip-path="url(#clip-path-7)">
              <path id="Trazado_748614" data-name="Trazado 748614" d="M724.226,323.564a.884.884,0,0,1,.115-.856l-2.021.806a.752.752,0,0,0,.557,1.4l2.021-.806a.883.883,0,0,1-.673-.542" transform="translate(-721.847 -322.708)" fill="#a2a4a7"/>
            </g>
          </g>
        </g>
        <g id="Grupo_1019211" data-name="Grupo 1019211" transform="translate(64.321 27.374)" opacity="0.5" style="mix-blend-mode: multiply;isolation: isolate">
          <g id="Grupo_1019210" data-name="Grupo 1019210">
            <g id="Grupo_1019209" data-name="Grupo 1019209" clip-path="url(#clip-path-8)">
              <path id="Trazado_748615" data-name="Trazado 748615" d="M727.7,307.277l-5.35,2.133a.753.753,0,0,0-.47.642l6.6-2.633a.742.742,0,0,0-.208-.134.756.756,0,0,0-.575-.008" transform="translate(-721.879 -307.224)" fill="#a2a4a7"/>
            </g>
          </g>
        </g>
        <path id="Trazado_748616" data-name="Trazado 748616" d="M721.982,293.006l-5.349,2.133a.752.752,0,0,0,.557,1.4l5.349-2.133a.752.752,0,1,0-.557-1.4" transform="translate(-652.348 -266.85)" fill="#e5e6e7"/>
        <g id="Grupo_1019214" data-name="Grupo 1019214" transform="translate(63.812 27.484)" opacity="0.5" style="mix-blend-mode: multiply;isolation: isolate">
          <g id="Grupo_1019213" data-name="Grupo 1019213">
            <g id="Grupo_1019212" data-name="Grupo 1019212" clip-path="url(#clip-path-7)">
              <path id="Trazado_748617" data-name="Trazado 748617" d="M718.538,309.3h0a.884.884,0,0,1,.115-.856l-2.021.806a.752.752,0,0,0,.557,1.4l2.021-.806a.884.884,0,0,1-.673-.542" transform="translate(-716.16 -308.447)" fill="#a2a4a7"/>
            </g>
          </g>
        </g>
        <g id="Grupo_1019217" data-name="Grupo 1019217" transform="translate(63.01 10.711)" style="mix-blend-mode: screen;isolation: isolate">
          <g id="Grupo_1019216" data-name="Grupo 1019216">
            <g id="Grupo_1019215" data-name="Grupo 1019215" clip-path="url(#clip-path-12)">
              <path id="Trazado_748618" data-name="Trazado 748618" d="M710.34,120.687c-1.2-.7-2.552-.613-3.02.19s.127,2.02,1.327,2.719,2.552.613,3.019-.19-.127-2.02-1.327-2.719" transform="translate(-707.161 -120.214)" fill="#fff"/>
            </g>
          </g>
        </g>
        <path id="Trazado_748619" data-name="Trazado 748619" d="M570.218,81.42l-2.982-2a.468.468,0,1,0-.522.776l2.982,2a.468.468,0,1,0,.522-.776" transform="translate(-516.03 -72.267)" fill="#395469"/>
        <path id="Trazado_748620" data-name="Trazado 748620" d="M544.119,159.295l-3.566-.128a.468.468,0,0,0-.034.935l3.566.128a.468.468,0,0,0,.034-.935" transform="translate(-491.947 -144.984)" fill="#395469"/>
        <path id="Trazado_748621" data-name="Trazado 748621" d="M567.577,234.833l-2.886,1.259a.468.468,0,0,0,.374.857l2.886-1.259a.468.468,0,0,0-.374-.857" transform="translate(-514.119 -213.873)" fill="#395469"/>
        <path id="Trazado_748622" data-name="Trazado 748622" d="M715.285,17.049a.468.468,0,0,0-.558.354l-.784,3.507a.468.468,0,1,0,.913.2l.784-3.507a.467.467,0,0,0-.354-.558" transform="translate(-650.318 -15.519)" fill="#395469"/>
        <path id="Trazado_748623" data-name="Trazado 748623" d="M771.437,56.909h0l-2.5,2.546a.468.468,0,0,0,.666.656h0l2.5-2.546a.468.468,0,0,0-.666-.656" transform="translate(-700.3 -51.712)" fill="#395469"/>
        <path id="Trazado_748624" data-name="Trazado 748624" d="M810.991,138.673l-2.96,1.073a.468.468,0,1,0,.319.879l2.961-1.073a.468.468,0,0,0-.319-.879" transform="translate(-735.752 -126.291)" fill="#395469"/>
        <path id="Trazado_748625" data-name="Trazado 748625" d="M641.178,31.532a.468.468,0,1,0-.869.347l1.275,3.2a.468.468,0,1,0,.869-.346Z" transform="translate(-583.226 -28.454)" fill="#395469"/>
        <path id="Trazado_748626" data-name="Trazado 748626" d="M1867.914,175.447h-50.7a4.919,4.919,0,0,0-4.919,4.919v17.928a4.919,4.919,0,0,0,4.919,4.919h50.7a4.919,4.919,0,0,0,4.919-4.919V180.366a4.919,4.919,0,0,0-4.919-4.919" transform="translate(-1650.814 -159.814)" fill="#6ebee4"/>
        <path id="Trazado_748627" data-name="Trazado 748627" d="M2159.428,295.15h-22.592a.77.77,0,1,0,0,1.54h22.592a.77.77,0,0,0,0-1.54" transform="translate(-1945.737 -268.851)" fill="#fff"/>
        <path id="Trazado_748628" data-name="Trazado 748628" d="M2159.428,259.366h-22.592a.77.77,0,1,0,0,1.54h22.592a.77.77,0,0,0,0-1.54" transform="translate(-1945.737 -236.256)" fill="#fff"/>
        <path id="Trazado_748629" data-name="Trazado 748629" d="M2149.641,330.754h-12.805a.77.77,0,1,0,0,1.54h12.805a.77.77,0,1,0,0-1.54" transform="translate(-1945.737 -301.283)" fill="#fff"/>
        <path id="Trazado_748630" data-name="Trazado 748630" d="M1903.5,212.7a9.841,9.841,0,0,0-7.553,3.56l7.553,6.754,7.553-6.754a9.841,9.841,0,0,0-7.553-3.56" transform="translate(-1727.01 -193.75)" fill="#fe7062"/>
        <path id="Trazado_748631" data-name="Trazado 748631" d="M1988.793,312.966V323.28a10.153,10.153,0,0,0,9.994-10.315,10.771,10.771,0,0,0-.1-1.468Z" transform="translate(-1811.586 -283.743)" fill="#ffcdc8"/>
        <path id="Trazado_748632" data-name="Trazado 748632" d="M1873.185,267.575a10.118,10.118,0,0,0,1.153.865l5.288-8.752-7.642-6.648a10.538,10.538,0,0,0,1.2,14.534" transform="translate(-1703.04 -230.494)" fill="#cb594e"/>
        <path id="Trazado_748633" data-name="Trazado 748633" d="M1926.438,338.125V327.811l-5.4,8.676a9.725,9.725,0,0,0,5.4,1.638" transform="translate(-1749.866 -298.602)" fill="#98433a"/>
        <path id="Trazado_748634" data-name="Trazado 748634" d="M1994.5,252.545l9.892-1.468a10.421,10.421,0,0,0-2.339-5.287Z" transform="translate(-1816.782 -223.89)" fill="#fff"/>
      </g>
    </g>
  </g>
</svg>
