<svg xmlns="http://www.w3.org/2000/svg" width="713.768" height="714.639" viewBox="0 0 713.768 714.639">
  <g id="Grupo_1019294" data-name="Grupo 1019294" transform="translate(-391.232 -3833.755)">
    <path id="Trazado_204353" data-name="Trazado 204353" d="M660.014,120.53l-98.627,98.627a32.067,32.067,0,0,1-39.22,4.954,155.938,155.938,0,0,0-161.324,0,32.067,32.067,0,0,1-39.22-4.954L223,120.531a32.265,32.265,0,0,1,3.377-48.554c126.944-95.96,303.325-95.966,430.264,0a32.266,32.266,0,0,1,3.376,48.554" transform="translate(306.445 3833.751)" fill="#57dbd8"/>
    <path id="Trazado_204354" data-name="Trazado 204354" d="M960.86,227.191c95.4,126.645,95.4,303.48,0,430.125a32.26,32.26,0,0,1-48.578,3.408l-98.64-98.64a32.069,32.069,0,0,1-4.98-39.175,156.633,156.633,0,0,0,0-161.311,32.068,32.068,0,0,1,4.98-39.175l98.64-98.64a32.261,32.261,0,0,1,48.578,3.408" transform="translate(72.59 3748.82)" fill="#91b3fa"/>
    <path id="Trazado_204355" data-name="Trazado 204355" d="M120.128,223.783l98.64,98.64a32.069,32.069,0,0,1,4.98,39.175,156.63,156.63,0,0,0,0,161.311,32.07,32.07,0,0,1-4.98,39.175l-98.64,98.64a32.261,32.261,0,0,1-48.578-3.408c-95.4-126.645-95.4-303.48,0-430.125a32.261,32.261,0,0,1,48.578-3.408" transform="translate(391.232 3748.82)" fill="#1a0f91"/>
    <path id="Trazado_204356" data-name="Trazado 204356" d="M561.387,814.452l98.625,98.625a32.265,32.265,0,0,1-3.377,48.554c-126.944,95.96-303.325,95.966-430.264,0A32.265,32.265,0,0,1,223,913.079l98.627-98.627a32.066,32.066,0,0,1,39.22-4.954,155.938,155.938,0,0,0,161.324,0,32.067,32.067,0,0,1,39.22,4.954" transform="translate(306.611 3514.789)" fill="#fe7062"/>
    <path id="Trazado_204357" data-name="Trazado 204357" d="M610.53,332.195a26.12,26.12,0,0,1-13.556-3.778,161.289,161.289,0,0,0-166.872,0,26.122,26.122,0,0,1-13.555,3.778h0a27.224,27.224,0,0,1-19.11-7.942,7.2,7.2,0,0,1,.775-10.837,191.417,191.417,0,0,1,230.653,0,7.2,7.2,0,0,1,.775,10.837h0a27.223,27.223,0,0,1-19.109,7.941" transform="translate(234.579 3724.872)" fill="#45afac"/>
    <path id="Trazado_204358" data-name="Trazado 204358" d="M820.917,630.311a26.624,26.624,0,0,1-4.184-32.628c30.622-50.677,30.622-116.166,0-166.841a26.623,26.623,0,0,1,4.184-32.629l.053-.052a7.2,7.2,0,0,1,10.837.775,191.414,191.414,0,0,1,0,230.654,7.2,7.2,0,0,1-10.837.775Z" transform="translate(69.095 3676.812)" fill="#748fc8"/>
    <path id="Trazado_204359" data-name="Trazado 204359" d="M323.529,630.364a7.2,7.2,0,0,1-10.838-.775,191.42,191.42,0,0,1,0-230.654,7.2,7.2,0,0,1,10.838-.775l.052.052a26.624,26.624,0,0,1,4.185,32.629c-30.622,50.675-30.622,116.165,0,166.841a26.625,26.625,0,0,1-4.185,32.629Z" transform="translate(282.639 3676.812)" fill="#140c74"/>
    <path id="Trazado_204360" data-name="Trazado 204360" d="M513.537,871.223a191.257,191.257,0,0,1-115.327-38.642,7.2,7.2,0,0,1-.774-10.838,27.225,27.225,0,0,1,19.11-7.942,26.13,26.13,0,0,1,13.556,3.778,161.28,161.28,0,0,0,166.871,0,26.122,26.122,0,0,1,13.555-3.776,27.227,27.227,0,0,1,19.111,7.94,7.2,7.2,0,0,1-.775,10.837,191.253,191.253,0,0,1-115.327,38.643" transform="translate(234.579 3511.279)" fill="#cb594e"/>
    <path id="Trazado_750984" data-name="Trazado 750984" d="M0,0H713.767V714.638H0Z" transform="translate(391.232 3833.755)" fill="none"/>
    <path id="Trazado_750985" data-name="Trazado 750985" d="M-28.441-5.761V0H-31.81V-16.352h6.379a7.38,7.38,0,0,1,3.24.674,4.965,4.965,0,0,1,2.151,1.915,5.339,5.339,0,0,1,.752,2.824,4.7,4.7,0,0,1-1.645,3.79,6.853,6.853,0,0,1-4.554,1.387Zm0-2.729h3.01a2.959,2.959,0,0,0,2.038-.629,2.287,2.287,0,0,0,.7-1.8,2.7,2.7,0,0,0-.708-1.943,2.643,2.643,0,0,0-1.954-.764h-3.088Zm18.081-.618a8.818,8.818,0,0,0-1.168-.09,2.377,2.377,0,0,0-2.415,1.247V0h-3.246V-12.151h3.066l.09,1.449a3.007,3.007,0,0,1,2.707-1.673,3.4,3.4,0,0,1,1.011.146ZM-3.42.225a5.965,5.965,0,0,1-4.352-1.64A5.828,5.828,0,0,1-9.45-5.784V-6.1a7.341,7.341,0,0,1,.708-3.274,5.192,5.192,0,0,1,2-2.224,5.627,5.627,0,0,1,2.959-.781A5.043,5.043,0,0,1,.146-10.8,6.389,6.389,0,0,1,1.578-6.345V-5.02H-6.16a3.015,3.015,0,0,0,.949,1.909,2.869,2.869,0,0,0,2,.719A3.5,3.5,0,0,0-.275-3.751L1.32-1.965A4.872,4.872,0,0,1-.657-.354,6.485,6.485,0,0,1-3.42.225ZM-3.79-9.759a2.028,2.028,0,0,0-1.567.654,3.388,3.388,0,0,0-.769,1.873h4.515v-.26A2.416,2.416,0,0,0-2.2-9.167,2.092,2.092,0,0,0-3.79-9.759ZM8.473-2.392a2.129,2.129,0,0,0,1.46-.494A1.731,1.731,0,0,0,10.517-4.2h3.043a4.163,4.163,0,0,1-.674,2.263A4.446,4.446,0,0,1,11.073-.343,5.676,5.676,0,0,1,8.53.225a5.275,5.275,0,0,1-4.11-1.656,6.555,6.555,0,0,1-1.5-4.576v-.213A6.48,6.48,0,0,1,4.408-10.7a5.214,5.214,0,0,1,4.1-1.673,5.111,5.111,0,0,1,3.656,1.3,4.593,4.593,0,0,1,1.4,3.453H10.517a2.23,2.23,0,0,0-.584-1.541,1.947,1.947,0,0,0-1.482-.593,1.955,1.955,0,0,0-1.713.827A4.791,4.791,0,0,0,6.16-6.25v.337a4.852,4.852,0,0,0,.573,2.7A1.979,1.979,0,0,0,8.473-2.392ZM18.839,0H15.582V-12.151h3.257ZM15.391-15.3a1.6,1.6,0,0,1,.489-1.2,1.835,1.835,0,0,1,1.331-.472,1.839,1.839,0,0,1,1.325.472,1.589,1.589,0,0,1,.494,1.2,1.593,1.593,0,0,1-.5,1.213,1.844,1.844,0,0,1-1.32.472,1.844,1.844,0,0,1-1.32-.472A1.593,1.593,0,0,1,15.391-15.3Zm5.615,9.108a7.206,7.206,0,0,1,.7-3.223,5.1,5.1,0,0,1,2-2.19,5.849,5.849,0,0,1,3.038-.775,5.533,5.533,0,0,1,4.015,1.5A6.04,6.04,0,0,1,32.5-6.783l.022.831a6.351,6.351,0,0,1-1.561,4.487A5.426,5.426,0,0,1,26.768.225,5.453,5.453,0,0,1,22.573-1.46a6.463,6.463,0,0,1-1.567-4.582Zm3.246.23A4.542,4.542,0,0,0,24.9-3.309a2.149,2.149,0,0,0,1.864.917A2.154,2.154,0,0,0,28.61-3.3a4.97,4.97,0,0,0,.663-2.9,4.5,4.5,0,0,0-.663-2.632,2.154,2.154,0,0,0-1.864-.934,2.119,2.119,0,0,0-1.842.928A5.054,5.054,0,0,0,24.252-5.958Z" transform="translate(748 3922.392)" fill="#12263f"/>
    <path id="Trazado_750987" data-name="Trazado 750987" d="M-42.215-5.761V0h-3.369V-16.352h6.379a7.38,7.38,0,0,1,3.24.674,4.965,4.965,0,0,1,2.151,1.915,5.339,5.339,0,0,1,.752,2.824,4.7,4.7,0,0,1-1.645,3.79,6.853,6.853,0,0,1-4.554,1.387Zm0-2.729h3.01a2.959,2.959,0,0,0,2.038-.629,2.287,2.287,0,0,0,.7-1.8,2.7,2.7,0,0,0-.708-1.943,2.643,2.643,0,0,0-1.954-.764h-3.088Zm18.081-.618A8.818,8.818,0,0,0-25.3-9.2a2.377,2.377,0,0,0-2.415,1.247V0h-3.246V-12.151H-27.9l.09,1.449A3.007,3.007,0,0,1-25.1-12.376a3.4,3.4,0,0,1,1.011.146Zm.651,2.92a7.206,7.206,0,0,1,.7-3.223,5.1,5.1,0,0,1,2-2.19,5.849,5.849,0,0,1,3.038-.775,5.533,5.533,0,0,1,4.015,1.5,6.04,6.04,0,0,1,1.735,4.088l.022.831a6.351,6.351,0,0,1-1.561,4.487A5.426,5.426,0,0,1-17.722.225,5.453,5.453,0,0,1-21.916-1.46a6.463,6.463,0,0,1-1.567-4.582Zm3.246.23a4.542,4.542,0,0,0,.651,2.649,2.149,2.149,0,0,0,1.864.917A2.154,2.154,0,0,0-15.88-3.3a4.97,4.97,0,0,0,.663-2.9,4.5,4.5,0,0,0-.663-2.632,2.154,2.154,0,0,0-1.864-.934,2.119,2.119,0,0,0-1.842.928A5.054,5.054,0,0,0-20.237-5.958Zm9.759-.208A7.323,7.323,0,0,1-9.2-10.691a4.136,4.136,0,0,1,3.487-1.685,3.722,3.722,0,0,1,2.931,1.325v-6.2H.472V0H-2.459l-.157-1.292A3.819,3.819,0,0,1-5.739.225a4.125,4.125,0,0,1-3.442-1.69A7.559,7.559,0,0,1-10.478-6.166Zm3.246.231a4.823,4.823,0,0,0,.6,2.629,1.937,1.937,0,0,0,1.729.914A2.171,2.171,0,0,0-2.785-3.667V-8.484a2.14,2.14,0,0,0-2.1-1.275Q-7.232-9.759-7.232-5.935Zm17.5,4.7A4.07,4.07,0,0,1,6.94.225,3.839,3.839,0,0,1,3.959-.9a4.794,4.794,0,0,1-1.05-3.291v-7.962H6.154v7.859q0,1.9,1.729,1.9a2.343,2.343,0,0,0,2.269-1.147v-8.612h3.257V0H10.354ZM20.911-2.392a2.129,2.129,0,0,0,1.46-.494A1.731,1.731,0,0,0,22.955-4.2H26a4.163,4.163,0,0,1-.674,2.263A4.446,4.446,0,0,1,23.511-.343a5.676,5.676,0,0,1-2.544.567,5.275,5.275,0,0,1-4.11-1.656,6.555,6.555,0,0,1-1.5-4.576v-.213A6.48,6.48,0,0,1,16.846-10.7a5.214,5.214,0,0,1,4.1-1.673,5.111,5.111,0,0,1,3.656,1.3A4.593,4.593,0,0,1,26-7.625H22.955a2.23,2.23,0,0,0-.584-1.541,1.947,1.947,0,0,0-1.482-.593,1.955,1.955,0,0,0-1.713.827A4.791,4.791,0,0,0,18.6-6.25v.337a4.852,4.852,0,0,0,.573,2.7A1.979,1.979,0,0,0,20.911-2.392ZM31.737-15.139v2.987h2.078v2.381H31.737v6.064A1.448,1.448,0,0,0,32-2.74a1.3,1.3,0,0,0,.988.292,5.176,5.176,0,0,0,.955-.079V-.067a6.682,6.682,0,0,1-1.965.292q-3.414,0-3.481-3.448V-9.771H26.717v-2.381h1.774v-2.987Zm3.043,8.951a7.206,7.206,0,0,1,.7-3.223,5.1,5.1,0,0,1,2-2.19,5.849,5.849,0,0,1,3.038-.775,5.533,5.533,0,0,1,4.015,1.5A6.04,6.04,0,0,1,46.27-6.783l.022.831a6.351,6.351,0,0,1-1.561,4.487A5.426,5.426,0,0,1,40.542.225,5.453,5.453,0,0,1,36.347-1.46a6.463,6.463,0,0,1-1.567-4.582Zm3.246.23a4.542,4.542,0,0,0,.651,2.649,2.149,2.149,0,0,0,1.864.917A2.154,2.154,0,0,0,42.384-3.3a4.97,4.97,0,0,0,.663-2.9,4.5,4.5,0,0,0-.663-2.632,2.154,2.154,0,0,0-1.864-.934,2.119,2.119,0,0,0-1.842.928A5.054,5.054,0,0,0,38.026-5.958Z" transform="translate(473 4198.593)" fill="#fff"/>
    <path id="Trazado_750988" data-name="Trazado 750988" d="M-51.531-5.761V0H-54.9V-16.352h6.379a7.38,7.38,0,0,1,3.24.674,4.965,4.965,0,0,1,2.151,1.915,5.339,5.339,0,0,1,.752,2.824,4.7,4.7,0,0,1-1.645,3.79,6.853,6.853,0,0,1-4.554,1.387Zm0-2.729h3.01a2.959,2.959,0,0,0,2.038-.629,2.287,2.287,0,0,0,.7-1.8,2.7,2.7,0,0,0-.708-1.943,2.643,2.643,0,0,0-1.954-.764h-3.088Zm18.081-.618a8.818,8.818,0,0,0-1.168-.09,2.377,2.377,0,0,0-2.415,1.247V0h-3.246V-12.151h3.066l.09,1.449a3.007,3.007,0,0,1,2.707-1.673,3.4,3.4,0,0,1,1.011.146Zm.651,2.92a7.206,7.206,0,0,1,.7-3.223,5.1,5.1,0,0,1,2-2.19,5.849,5.849,0,0,1,3.038-.775,5.533,5.533,0,0,1,4.015,1.5A6.04,6.04,0,0,1-21.31-6.783l.022.831a6.351,6.351,0,0,1-1.561,4.487A5.426,5.426,0,0,1-27.037.225,5.453,5.453,0,0,1-31.232-1.46,6.463,6.463,0,0,1-32.8-6.042Zm3.246.23A4.542,4.542,0,0,0-28.9-3.309a2.149,2.149,0,0,0,1.864.917A2.154,2.154,0,0,0-25.2-3.3a4.97,4.97,0,0,0,.663-2.9A4.5,4.5,0,0,0-25.2-8.826a2.154,2.154,0,0,0-1.864-.934,2.119,2.119,0,0,0-1.842.928A5.054,5.054,0,0,0-29.553-5.958Zm13.308-6.194.1,1.359a4.27,4.27,0,0,1,3.493-1.583,3.241,3.241,0,0,1,3.223,1.853,4.172,4.172,0,0,1,3.65-1.853,3.624,3.624,0,0,1,2.942,1.151A5.291,5.291,0,0,1-1.87-7.76V0H-5.127V-7.767a2.323,2.323,0,0,0-.4-1.514,1.789,1.789,0,0,0-1.426-.478,2.026,2.026,0,0,0-2.021,1.4L-8.968,0h-3.246V-7.756a2.3,2.3,0,0,0-.416-1.531,1.807,1.807,0,0,0-1.415-.473,2.1,2.1,0,0,0-2,1.148V0h-3.246V-12.151ZM.118-6.188a7.206,7.206,0,0,1,.7-3.223,5.1,5.1,0,0,1,2-2.19,5.849,5.849,0,0,1,3.038-.775,5.533,5.533,0,0,1,4.015,1.5,6.04,6.04,0,0,1,1.735,4.088l.022.831a6.351,6.351,0,0,1-1.561,4.487A5.426,5.426,0,0,1,5.879.225,5.453,5.453,0,0,1,1.685-1.46,6.463,6.463,0,0,1,.118-6.042Zm3.246.23a4.542,4.542,0,0,0,.651,2.649,2.149,2.149,0,0,0,1.864.917A2.154,2.154,0,0,0,7.721-3.3a4.97,4.97,0,0,0,.663-2.9,4.5,4.5,0,0,0-.663-2.632,2.154,2.154,0,0,0-1.864-.934,2.119,2.119,0,0,0-1.842.928A5.054,5.054,0,0,0,3.364-5.958ZM18.682-2.392a2.129,2.129,0,0,0,1.46-.494A1.731,1.731,0,0,0,20.726-4.2h3.043A4.163,4.163,0,0,1,23.1-1.937,4.446,4.446,0,0,1,21.282-.343a5.676,5.676,0,0,1-2.544.567,5.275,5.275,0,0,1-4.11-1.656,6.555,6.555,0,0,1-1.5-4.576v-.213A6.48,6.48,0,0,1,14.616-10.7a5.214,5.214,0,0,1,4.1-1.673,5.111,5.111,0,0,1,3.656,1.3,4.593,4.593,0,0,1,1.4,3.453H20.726a2.23,2.23,0,0,0-.584-1.541,1.947,1.947,0,0,0-1.482-.593,1.955,1.955,0,0,0-1.713.827,4.791,4.791,0,0,0-.578,2.683v.337a4.852,4.852,0,0,0,.573,2.7A1.979,1.979,0,0,0,18.682-2.392ZM29.048,0H25.791V-12.151h3.257ZM25.6-15.3a1.6,1.6,0,0,1,.489-1.2,1.835,1.835,0,0,1,1.331-.472,1.839,1.839,0,0,1,1.325.472,1.589,1.589,0,0,1,.494,1.2,1.593,1.593,0,0,1-.5,1.213,1.844,1.844,0,0,1-1.32.472,1.844,1.844,0,0,1-1.32-.472A1.593,1.593,0,0,1,25.6-15.3Zm5.615,9.108a7.206,7.206,0,0,1,.7-3.223,5.1,5.1,0,0,1,2-2.19,5.849,5.849,0,0,1,3.038-.775,5.533,5.533,0,0,1,4.015,1.5A6.04,6.04,0,0,1,42.7-6.783l.022.831a6.351,6.351,0,0,1-1.561,4.487A5.426,5.426,0,0,1,36.976.225,5.453,5.453,0,0,1,32.782-1.46a6.463,6.463,0,0,1-1.567-4.582Zm3.246.23a4.542,4.542,0,0,0,.651,2.649,2.149,2.149,0,0,0,1.864.917A2.154,2.154,0,0,0,38.818-3.3a4.97,4.97,0,0,0,.663-2.9,4.5,4.5,0,0,0-.663-2.632,2.154,2.154,0,0,0-1.864-.934,2.119,2.119,0,0,0-1.842.928A5.054,5.054,0,0,0,34.461-5.958ZM37.594-17.25h3.538l-3.111,3.481H35.382Zm10.119,5.1.1,1.4a4.242,4.242,0,0,1,3.493-1.628,3.526,3.526,0,0,1,2.875,1.134,5.292,5.292,0,0,1,.966,3.392V0H51.9V-7.789a2.114,2.114,0,0,0-.449-1.5,2.008,2.008,0,0,0-1.494-.467A2.232,2.232,0,0,0,47.9-8.589V0H44.658V-12.151Z" transform="translate(1032.232 4198.593)" fill="#12263f"/>
    <path id="Trazado_750989" data-name="Trazado 750989" d="M-61,0V-16.352h5.031a7.641,7.641,0,0,1,3.858.971,6.774,6.774,0,0,1,2.656,2.763A8.521,8.521,0,0,1-48.5-8.546v.752a8.545,8.545,0,0,1-.938,4.054A6.716,6.716,0,0,1-52.087-.988,7.7,7.7,0,0,1-55.939,0Zm3.369-13.623V-2.707h1.628A3.659,3.659,0,0,0-52.985-4a5.836,5.836,0,0,0,1.067-3.695v-.865a5.929,5.929,0,0,0-1.033-3.779,3.646,3.646,0,0,0-3.021-1.286ZM-42.844,0H-46.1V-12.151h3.257Zm-3.448-15.3a1.6,1.6,0,0,1,.489-1.2,1.835,1.835,0,0,1,1.331-.472,1.839,1.839,0,0,1,1.325.472,1.589,1.589,0,0,1,.494,1.2,1.593,1.593,0,0,1-.5,1.213,1.844,1.844,0,0,1-1.32.472,1.844,1.844,0,0,1-1.32-.472A1.593,1.593,0,0,1-46.292-15.3Zm12.7,11.938a1.046,1.046,0,0,0-.59-.938,6.7,6.7,0,0,0-1.892-.612q-4.335-.91-4.335-3.684a3.339,3.339,0,0,1,1.342-2.7,5.414,5.414,0,0,1,3.51-1.084,5.827,5.827,0,0,1,3.7,1.089,3.433,3.433,0,0,1,1.387,2.83h-3.246a1.57,1.57,0,0,0-.449-1.151,1.9,1.9,0,0,0-1.4-.455,1.943,1.943,0,0,0-1.269.371,1.17,1.17,0,0,0-.449.943,1,1,0,0,0,.511.87,5.257,5.257,0,0,0,1.724.573,14.08,14.08,0,0,1,2.044.545,3.358,3.358,0,0,1,2.572,3.268A3.17,3.17,0,0,1-31.861-.8,6.153,6.153,0,0,1-35.544.225,6.426,6.426,0,0,1-38.257-.32a4.551,4.551,0,0,1-1.859-1.494,3.471,3.471,0,0,1-.674-2.05h3.077a1.694,1.694,0,0,0,.64,1.325,2.539,2.539,0,0,0,1.595.46,2.35,2.35,0,0,0,1.409-.354A1.1,1.1,0,0,0-33.59-3.358Zm9.13-11.781v2.987h2.078v2.381H-24.46v6.064a1.448,1.448,0,0,0,.258.966,1.3,1.3,0,0,0,.988.292,5.176,5.176,0,0,0,.955-.079V-.067a6.682,6.682,0,0,1-1.965.292q-3.414,0-3.481-3.448V-9.771H-29.48v-2.381h1.774v-2.987Zm10.714,6.031a8.818,8.818,0,0,0-1.168-.09,2.377,2.377,0,0,0-2.415,1.247V0h-3.246V-12.151h3.066l.09,1.449a3.007,3.007,0,0,1,2.707-1.673,3.4,3.4,0,0,1,1.011.146ZM-8.76,0h-3.257V-12.151H-8.76Zm-3.448-15.3a1.6,1.6,0,0,1,.489-1.2,1.835,1.835,0,0,1,1.331-.472,1.839,1.839,0,0,1,1.325.472,1.589,1.589,0,0,1,.494,1.2,1.593,1.593,0,0,1-.5,1.213,1.844,1.844,0,0,1-1.32.472,1.844,1.844,0,0,1-1.32-.472A1.593,1.593,0,0,1-12.208-15.3ZM4.863-5.963A7.358,7.358,0,0,1,3.616-1.409,4.129,4.129,0,0,1,.135.225,3.794,3.794,0,0,1-3.021-1.292L-3.167,0h-2.92V-17.25h3.246v6.188A3.7,3.7,0,0,1,.112-12.376,4.163,4.163,0,0,1,3.6-10.742a7.369,7.369,0,0,1,1.263,4.6ZM1.617-6.211a4.861,4.861,0,0,0-.584-2.7A1.973,1.973,0,0,0-.708-9.759,2.14,2.14,0,0,0-2.841-8.486v4.81A2.169,2.169,0,0,0-.685-2.392,2,2,0,0,0,1.381-3.947,8.042,8.042,0,0,0,1.617-6.211ZM14.139-1.235A4.07,4.07,0,0,1,10.815.225,3.839,3.839,0,0,1,7.833-.9a4.794,4.794,0,0,1-1.05-3.291v-7.962h3.246v7.859q0,1.9,1.729,1.9a2.343,2.343,0,0,0,2.269-1.147v-8.612h3.257V0H14.229ZM24.786-2.392a2.129,2.129,0,0,0,1.46-.494A1.731,1.731,0,0,0,26.83-4.2h3.043A4.163,4.163,0,0,1,29.2-1.937,4.446,4.446,0,0,1,27.385-.343a5.676,5.676,0,0,1-2.544.567,5.275,5.275,0,0,1-4.11-1.656,6.555,6.555,0,0,1-1.5-4.576v-.213A6.48,6.48,0,0,1,20.72-10.7a5.214,5.214,0,0,1,4.1-1.673,5.111,5.111,0,0,1,3.656,1.3,4.593,4.593,0,0,1,1.4,3.453H26.83a2.23,2.23,0,0,0-.584-1.541,1.947,1.947,0,0,0-1.482-.593,1.955,1.955,0,0,0-1.713.827,4.791,4.791,0,0,0-.578,2.683v.337a4.852,4.852,0,0,0,.573,2.7A1.979,1.979,0,0,0,24.786-2.392ZM35.151,0H31.895V-12.151h3.257ZM31.7-15.3a1.6,1.6,0,0,1,.489-1.2,1.835,1.835,0,0,1,1.331-.472,1.839,1.839,0,0,1,1.325.472,1.589,1.589,0,0,1,.494,1.2,1.593,1.593,0,0,1-.5,1.213,1.844,1.844,0,0,1-1.32.472,1.844,1.844,0,0,1-1.32-.472A1.593,1.593,0,0,1,31.7-15.3Zm5.615,9.108a7.206,7.206,0,0,1,.7-3.223,5.1,5.1,0,0,1,2-2.19,5.849,5.849,0,0,1,3.038-.775,5.533,5.533,0,0,1,4.015,1.5,6.04,6.04,0,0,1,1.735,4.088l.022.831a6.351,6.351,0,0,1-1.561,4.487A5.426,5.426,0,0,1,43.08.225,5.453,5.453,0,0,1,38.885-1.46a6.463,6.463,0,0,1-1.567-4.582Zm3.246.23a4.542,4.542,0,0,0,.651,2.649,2.149,2.149,0,0,0,1.864.917A2.154,2.154,0,0,0,44.922-3.3a4.97,4.97,0,0,0,.663-2.9,4.5,4.5,0,0,0-.663-2.632,2.154,2.154,0,0,0-1.864-.934,2.119,2.119,0,0,0-1.842.928A5.054,5.054,0,0,0,40.564-5.958ZM43.7-17.25h3.538l-3.111,3.481H41.485Zm10.119,5.1.1,1.4a4.242,4.242,0,0,1,3.493-1.628,3.526,3.526,0,0,1,2.875,1.134,5.292,5.292,0,0,1,.966,3.392V0H58.005V-7.789a2.114,2.114,0,0,0-.449-1.5,2.008,2.008,0,0,0-1.494-.467,2.232,2.232,0,0,0-2.055,1.171V0H50.762V-12.151Z" transform="translate(748 4459.796)" fill="#12263f"/>
    <path id="Trazado_750986" data-name="Trazado 750986" d="M-46.558-19.2l4.931,13.922,4.9-13.922h5.194V0H-35.5V-5.247l.4-9.057L-40.282,0H-43l-5.168-14.291.4,9.044V0h-3.955V-19.2ZM-21.76.264a7,7,0,0,1-5.109-1.925A6.842,6.842,0,0,1-28.839-6.79v-.369A8.617,8.617,0,0,1-28.009-11a6.1,6.1,0,0,1,2.353-2.61,6.605,6.605,0,0,1,3.474-.916,5.92,5.92,0,0,1,4.608,1.846,7.5,7.5,0,0,1,1.681,5.234v1.556h-9.083a3.539,3.539,0,0,0,1.114,2.241,3.368,3.368,0,0,0,2.353.844,4.113,4.113,0,0,0,3.441-1.6l1.872,2.1a5.72,5.72,0,0,1-2.32,1.892A7.613,7.613,0,0,1-21.76.264Zm-.435-11.72a2.381,2.381,0,0,0-1.839.768,3.977,3.977,0,0,0-.9,2.2h5.3v-.3a2.837,2.837,0,0,0-.686-1.966A2.456,2.456,0,0,0-22.195-11.457Zm16.479.765A10.351,10.351,0,0,0-7.086-10.8,2.791,2.791,0,0,0-9.921-9.334V0h-3.81V-14.265h3.6l.105,1.7a3.53,3.53,0,0,1,3.177-1.964,3.992,3.992,0,0,1,1.187.171ZM1.8-2.808a2.5,2.5,0,0,0,1.714-.58A2.032,2.032,0,0,0,4.2-4.931H7.772a4.887,4.887,0,0,1-.791,2.656A5.219,5.219,0,0,1,4.852-.4,6.664,6.664,0,0,1,1.865.264,6.193,6.193,0,0,1-2.96-1.681,7.7,7.7,0,0,1-4.726-7.053V-7.3a7.607,7.607,0,0,1,1.753-5.26,6.121,6.121,0,0,1,4.812-1.964A6,6,0,0,1,6.13-13.006,5.391,5.391,0,0,1,7.772-8.952H4.2a2.618,2.618,0,0,0-.686-1.809,2.286,2.286,0,0,0-1.74-.7,2.3,2.3,0,0,0-2.01.97A5.624,5.624,0,0,0-.916-7.337v.4A5.7,5.7,0,0,0-.244-3.772,2.324,2.324,0,0,0,1.8-2.808ZM18.213,0a4.231,4.231,0,0,1-.382-1.279,4.61,4.61,0,0,1-3.6,1.542A5.065,5.065,0,0,1,10.758-.949,3.9,3.9,0,0,1,9.38-4.008a4.031,4.031,0,0,1,1.681-3.48,8.294,8.294,0,0,1,4.858-1.226h1.753v-.817a2.351,2.351,0,0,0-.508-1.582,2,2,0,0,0-1.6-.593,2.27,2.27,0,0,0-1.51.461,1.568,1.568,0,0,0-.547,1.266H9.7a3.827,3.827,0,0,1,.765-2.294,5.054,5.054,0,0,1,2.162-1.655,7.88,7.88,0,0,1,3.138-.6A6.225,6.225,0,0,1,19.947-13.2,4.635,4.635,0,0,1,21.5-9.479V-3.3a6.82,6.82,0,0,0,.567,3.072V0ZM15.062-2.65a3.281,3.281,0,0,0,1.556-.376,2.468,2.468,0,0,0,1.055-1.009V-6.486H16.249q-2.861,0-3.045,1.978l-.013.224a1.525,1.525,0,0,0,.5,1.173A1.946,1.946,0,0,0,15.062-2.65Zm8.767-4.588a8.6,8.6,0,0,1,1.5-5.313,4.855,4.855,0,0,1,4.094-1.978,4.369,4.369,0,0,1,3.441,1.556V-20.25h3.823V0H33.242l-.185-1.516A4.484,4.484,0,0,1,29.393.264,4.842,4.842,0,0,1,25.352-1.72,8.873,8.873,0,0,1,23.829-7.238Zm3.81.271a5.662,5.662,0,0,0,.7,3.086,2.274,2.274,0,0,0,2.03,1.073A2.549,2.549,0,0,0,32.86-4.3V-9.96a2.512,2.512,0,0,0-2.465-1.5Q27.639-11.457,27.639-6.967Zm11.4-.3a8.46,8.46,0,0,1,.817-3.784,5.984,5.984,0,0,1,2.353-2.571,6.866,6.866,0,0,1,3.566-.91,6.5,6.5,0,0,1,4.713,1.767,7.09,7.09,0,0,1,2.037,4.8l.026.976A7.456,7.456,0,0,1,50.724-1.72,6.37,6.37,0,0,1,45.806.264a6.4,6.4,0,0,1-4.924-1.978,7.587,7.587,0,0,1-1.839-5.379Zm3.81.27a5.332,5.332,0,0,0,.765,3.109,2.522,2.522,0,0,0,2.188,1.076,2.528,2.528,0,0,0,2.162-1.063,5.834,5.834,0,0,0,.778-3.4,5.279,5.279,0,0,0-.778-3.09,2.528,2.528,0,0,0-2.188-1.1,2.487,2.487,0,0,0-2.162,1.089A5.933,5.933,0,0,0,42.853-6.994Z" transform="translate(748 4197.771)"/>
  </g>
</svg>
