<svg xmlns="http://www.w3.org/2000/svg" xmlns:xlink="http://www.w3.org/1999/xlink" width="295" height="219.815" viewBox="0 0 295 219.815">
  <defs>
    <clipPath id="clip-path">
      <rect id="Rectángulo_356044" data-name="Rectángulo 356044" width="295" height="219.816" fill="none"/>
    </clipPath>
  </defs>
  <g id="Grupo_1019263" data-name="Grupo 1019263" transform="translate(0 0.004)">
    <rect id="Rectángulo_356006" data-name="Rectángulo 356006" width="81.811" height="217.268" transform="translate(20.018 2.544)" fill="#d8e4fd"/>
    <rect id="Rectángulo_356007" data-name="Rectángulo 356007" width="14.586" height="217.268" transform="translate(19.943 2.544)" fill="#91b3fa"/>
    <rect id="Rectángulo_356008" data-name="Rectángulo 356008" width="81.81" height="217.268" transform="translate(38.097 2.544)" fill="#eff4ff"/>
    <rect id="Rectángulo_356009" data-name="Rectángulo 356009" width="15.179" height="217.268" transform="translate(112.725 2.544)" fill="#d8e4fd"/>
    <g id="Grupo_1019262" data-name="Grupo 1019262" transform="translate(0 -0.004)">
      <g id="Grupo_1019261" data-name="Grupo 1019261" transform="translate(0 0)" clip-path="url(#clip-path)">
        <path id="Trazado_750544" data-name="Trazado 750544" d="M1355.6,1144.835c-.151,1.864-17.757.551-17.955-.048-.177-.531,1.84-.963,4-1.471.271-.063.544-.13.816-.2a10.975,10.975,0,0,0,6.146-3.978c1.813-2.324,3.472-12.907,3.472-12.907l6.535,1.219s-3.8,9.071-4.194,12.046c-.175,1.335.774,2.226,1,3.394a7.315,7.315,0,0,1,.184,1.942" transform="translate(-1101.037 -927.026)" fill="#b77446"/>
        <path id="Trazado_750545" data-name="Trazado 750545" d="M1355.6,1222.359a1.622,1.622,0,0,1-1.28,1.454h-4.861a6.982,6.982,0,0,0-1.81,0H1339.8c-1.431-.455-2.029-1.13-2.151-1.5-.177-.531,1.841-.962,4-1.471l.025.041a11.724,11.724,0,0,0,6.129,1.144c2.807-.262,5.679-1.411,7.618-1.606a7.358,7.358,0,0,1,.184,1.941" transform="translate(-1101.037 -1004.551)" fill="#365da4"/>
        <path id="Trazado_750546" data-name="Trazado 750546" d="M1406.173,771.034a10.692,10.692,0,0,0,3.321,1.425,6.674,6.674,0,0,0,3.535-.048s11.61-29.152,10.948-39q-.024-.355-.028-.755a41.39,41.39,0,0,1,.651-6.609c.156-.961.336-1.968.537-3.009.465-2.429,1.042-5.049,1.675-7.72.278-1.176.569-2.363.864-3.548,2.919-11.656,6.486-23.142,6.486-23.142s-20.952-6.844-22.137-.448c-.455,2.455-1.969,12.278-1.288,27.3a216.631,216.631,0,0,1-.85,32.466,179.009,179.009,0,0,1-3.715,23.094" transform="translate(-1157.45 -564.205)" fill="#afabd8"/>
        <path id="Trazado_750547" data-name="Trazado 750547" d="M1497.608,827.233a41.389,41.389,0,0,1,.651-6.608c.156-.961.336-1.968.537-3.01.465-2.428,1.042-5.049,1.675-7.72.278-1.176.569-2.363.865-3.548-.414-3.557-.747-6-.747-6a29.815,29.815,0,0,0-2.98,26.883" transform="translate(-1231.109 -658.784)" fill="#8584c1"/>
        <path id="Trazado_750548" data-name="Trazado 750548" d="M1505.036,1154.14c-.151,1.864-17.757.551-17.954-.048-.177-.531,1.841-.963,4-1.471.271-.063.544-.13.816-.2,2.434-.6,4.056-2.406,6.146-3.978,1.98-1.489.595-8.713.595-8.713l6.145-2.195s-.927,7.266-.927,11.265c0,1.347.774,2.226,1,3.394a7.3,7.3,0,0,1,.184,1.942" transform="translate(-1224.039 -936.331)" fill="#b77446"/>
        <path id="Trazado_750549" data-name="Trazado 750549" d="M1505.034,1222.359a1.622,1.622,0,0,1-1.281,1.454h-4.861a6.982,6.982,0,0,0-1.809,0h-7.852c-1.433-.455-2.031-1.13-2.153-1.5-.177-.531,1.841-.962,4-1.471l.026.041a11.721,11.721,0,0,0,6.127,1.144c2.809-.262,5.682-1.411,7.618-1.606a7.292,7.292,0,0,1,.184,1.941" transform="translate(-1224.036 -1004.551)" fill="#365da4"/>
        <path id="Trazado_750550" data-name="Trazado 750550" d="M1493.057,652.828s6.817,33.973,7.968,52.463,2.589,33.8,2.589,33.8a9.013,9.013,0,0,0,3.194.439,11.756,11.756,0,0,0,3.231-.659s6.756-27.819,4.518-38.955-.374-21.407.7-30.643c1.54-13.244-4.386-19.4-8.523-23.6-4.188-4.247-13.678,7.152-13.678,7.152" transform="translate(-1228.966 -530.688)" fill="#afabd8"/>
        <path id="Trazado_750551" data-name="Trazado 750551" d="M1456.036,277.687c-.677-5.531,1.05-14.382,12.09-12.967s14.518,12.263,12.292,17.087,3.2,5.987,4.91,11.175c1.465,4.456,1.975,9.99,4.346,12.473,7.642,8.006-7.337,20.318-16.367,17.722-16.448-4.729-18.567-5.434-17.983-18.358.3-6.621,5.45-9.187,2.18-11.1-7.9-4.628.065-3.513-1.467-16.029" transform="translate(-1196.776 -217.771)" fill="#163560"/>
        <path id="Trazado_750552" data-name="Trazado 750552" d="M1487.935,366.727s1.256,7.3-3.29,10.75l3.272,4.9,6.572-.322,3.036-7.856s-.932-.183-1.375-9.975Z" transform="translate(-1222.042 -299.801)" fill="#a86337"/>
        <path id="Trazado_750553" data-name="Trazado 750553" d="M1483.183,305.985s9.833,1.975,10.969-4.168,3.169-10.024-3.061-11.545-7.887.6-8.764,2.555-1.672,12.485.857,13.157" transform="translate(-1219.435 -238.502)" fill="#b77446"/>
        <path id="Trazado_750554" data-name="Trazado 750554" d="M1451.44,416.169c.422,0,8.158-2.588,19.2,1.911,0,0-5.244,30-2.991,35.727a60.479,60.479,0,0,1,3.109,10.807l-24.436.3s.342-19.653-.785-26.608,5.9-22.14,5.9-22.14" transform="translate(-1189.753 -341.947)" fill="#a86337"/>
        <path id="Trazado_750555" data-name="Trazado 750555" d="M1308.158,454.021a10.212,10.212,0,0,1-.281-1.517,23.392,23.392,0,0,1,1.134-9.47.021.021,0,0,0,0-.009l.044-.137c.025-.076.056-.193.092-.344,0,0,0-.007,0-.011.035-.138.073-.3.117-.492.013-.062.028-.127.042-.2.629-2.816,2.009-9.891,2.373-10.856a9.47,9.47,0,0,0,.375-1.545c.369-2.13.531-5.518-.711-6.935-1.73-1.971-7.84-3.432-7.84-3.432-1.207,1.892-5.119,6.564-10.249,5.719-2.965-.49-3.423-6.26-3.423-6.26a12.915,12.915,0,0,0-4,.923s-7.638,4.766-18.431,19.942c-.342.483-1.157.427-3.15.041-2.537-.494-7.715-.43-15.528-1.577,0,0-.269.195-.342,1.049a12.65,12.65,0,0,1-.35,2.444,97.4,97.4,0,0,0,10.616,4.157c1.936.614,3.959,1.188,5.89,1.62a30.2,30.2,0,0,0,5.009.752,36.026,36.026,0,0,0,12.277-9.053c.352,5.588,1.132,12.805.653,18.075-.273,3-2.326,13.1-1.811,14.777,1.074,3.5,9.316,3.681,16.678,3.315.161-.007.32-.016.481-.027,1.141-.066,2.262-.165,3.308-.282a45.441,45.441,0,0,0,4.794-.764,23.234,23.234,0,0,0,4.708-1.51,5.005,5.005,0,0,0,2.458-2.083c-.708-3.808-4.118-12.1-4.939-16.311" transform="translate(-1027.283 -344.502)" fill="#57dbd8"/>
        <path id="Trazado_750556" data-name="Trazado 750556" d="M1518.281,282.771s-.173,2.083,3.062,5.619,2.463,9.838,2.463,9.838,5.45-10.245,2.542-13.516-8.067-1.941-8.067-1.941" transform="translate(-1249.727 -232.534)" fill="#163560"/>
        <path id="Trazado_750557" data-name="Trazado 750557" d="M1488.18,267.434s-4.889-1.636-9.739,3.144c-2.089,2.059-1.774,6.108-.655,8.457,0,0,1.719-5.034,4.848-6.132s5.546-5.469,5.546-5.469" transform="translate(-1215.672 -219.908)" fill="#163560"/>
        <path id="Trazado_750558" data-name="Trazado 750558" d="M1491.993,360.839s-.263.729-2.114.4c0,0-1.554-.278-1.411-1.1a5.07,5.07,0,0,1,3.525.7" transform="translate(-1225.181 -296.378)" fill="#fff"/>
        <path id="Trazado_750559" data-name="Trazado 750559" d="M1474.624,494.775c1.394,4.73,2.2,8.623,5.707,11.255,1.141-.066,2.262-.165,3.308-.283a45.475,45.475,0,0,0,4.794-.764,23.252,23.252,0,0,0,4.708-1.51,5.005,5.005,0,0,0,2.458-2.083c-.708-3.808-4.118-12.1-4.939-16.311a10.215,10.215,0,0,1-.162-1.1,27.462,27.462,0,0,1,1.015-9.884.02.02,0,0,0,0-.009c.045-.161.09-.321.136-.482,0,0,0-.007,0-.012.029-.1.069-.272.117-.492.013-.061.028-.127.043-.2.562-2.669,2.032-11.043,2.406-12.136.119-.345-.16-1.9-.045-2.625l-2.53-1.873s-16.88,7.208-20.6,17.151,1.574,14.573,3.577,21.358" transform="translate(-1209.785 -375.561)" fill="#5f9aa8"/>
        <path id="Trazado_750560" data-name="Trazado 750560" d="M1308.052,527.174a47.279,47.279,0,0,0,10.9,2.372,36.07,36.07,0,0,0,12.4-9.185c.256-1.148.5-3.075-.888-2.519-1.952.78-9.168,10.047-11.9,10.241a84.831,84.831,0,0,1-10.509-.909" transform="translate(-1076.685 -426.164)" fill="#5f9aa8"/>
        <path id="Trazado_750561" data-name="Trazado 750561" d="M1383.423,455.679a86.6,86.6,0,0,0,15.535,5.909,32.359,32.359,0,0,0,5.782.931,25.878,25.878,0,0,0,13.679-10.68c9.949-15.314,2.607-17.748,2.607-17.748s-7.64,4.766-18.431,19.942c-.377.531-1.326.411-3.781-.085-2.622-.53-7.84-.467-15.044-1.524a4.022,4.022,0,0,0-.195,1.122c-.162,1.886-.153,2.133-.153,2.133" transform="translate(-1138.724 -357.309)" fill="#57dbd8"/>
        <path id="Trazado_750562" data-name="Trazado 750562" d="M1225.036,521.2c-2.511-.489-7.851-.528-15.537-1.641a13.4,13.4,0,0,1-1.907-.755c-1.647-.823-6.038-1.372-6.971-.494s.988,4.446,4.995,4.556a25.662,25.662,0,0,1,3.233.266,97.335,97.335,0,0,0,10.583,4.142c1.936.614,3.959,1.188,5.89,1.619a14.212,14.212,0,0,0-.287-7.693" transform="translate(-988.065 -426.259)" fill="#a86337"/>
        <path id="Trazado_750563" data-name="Trazado 750563" d="M1350.876,535.93a8.492,8.492,0,0,1-.143-7.64c-2.621-.53-7.877-.759-15.081-1.817l0,.012a16.048,16.048,0,0,1-2.951-1.073c-1.758-.879-6.446-1.465-7.442-.527s1.055,4.747,5.333,4.864a21.6,21.6,0,0,1,4.611.515,99.876,99.876,0,0,0,15.676,5.666" transform="translate(-1090.642 -431.65)" fill="#b77446"/>
        <path id="Trazado_750564" data-name="Trazado 750564" d="M957.191,465.915a100.735,100.735,0,0,1-10.614,4.119c-1.952.605-3.944,1.17-5.9,1.615a26.591,26.591,0,0,1-5,.727,3,3,0,0,1-.366-.162,36.956,36.956,0,0,1-12.037-8.925c-.406-.484-.854-.969-1.261-1.494-.325-.364-.651-3.958-.895-7.713l-.04-.041c-.285-4.4-.488-9.087-.488-9.087s7.076,1.9,17.242,19.023c.285.484,1.139.4,3.131.041,2.562-.485,7.726-.445,15.534-1.576,0,0,.285.2.366,1.05a10.715,10.715,0,0,0,.325,2.424" transform="translate(-757.759 -366.25)" fill="#f4be61"/>
        <path id="Trazado_750565" data-name="Trazado 750565" d="M937.774,514.694a36.959,36.959,0,0,1-12.037-8.925c-.406-.484-.854-.969-1.261-1.494-.325-.364-.651-3.958-.895-7.714.976.968,12.362,11.954,14.192,18.133" transform="translate(-760.219 -408.729)" fill="#f2a83d"/>
        <path id="Trazado_750566" data-name="Trazado 750566" d="M777.654,271.428s-.648-1.317-3.885-.956-8.836.956-8.884,18.584c-.005,1.931-11.648,19.535,1.483,36.11l9.373-23.709Z" transform="translate(-625.671 -222.578)" fill="#163560"/>
        <path id="Trazado_750567" data-name="Trazado 750567" d="M834.991,275.7s-3.453-1.157-5.271.558a3.608,3.608,0,0,0-.788,3.983Z" transform="translate(-682.073 -226.618)" fill="#c65447"/>
        <path id="Trazado_750568" data-name="Trazado 750568" d="M841.264,284.2s-.064-7.561-12.317-6.69a5.992,5.992,0,0,0-4.923,3.178c-1.378,2.675-1.979,7.384,2.474,14.935Z" transform="translate(-677.441 -228.369)" fill="#163560"/>
        <path id="Trazado_750569" data-name="Trazado 750569" d="M838.488,391.021l2.761,10.718,7.977.387,3.97-5.909c-3.712-2.794-4.237-7.693-4.182-10.6,0-.028,0-.057,0-.085a17.064,17.064,0,0,1,.189-2.275l-5.66-1.712-4.311-1.3a32.388,32.388,0,0,1,.19,7.285,7.908,7.908,0,0,1-.936,3.494" transform="translate(-690.177 -312.985)" fill="#e49963"/>
        <path id="Trazado_750570" data-name="Trazado 750570" d="M788.457,493.156l28.946-.038s-3.6-19.274-1.6-25.592-.1-15.547-.1-15.547c-2.908-6.859-3.649-13.28-4.943-13.616-.71-.186-1.283-.566-1.98-.7a37.479,37.479,0,0,0-20.615,1.852c-2.552,6.366,2.913,11.148,3.178,25.521a135.259,135.259,0,0,1-2.887,28.124" transform="translate(-648.199 -359.688)" fill="#e49963"/>
        <path id="Trazado_750571" data-name="Trazado 750571" d="M804.59,496.352s-22.04,4.524-34.646-.162c-.691-.282,1.952-9.733,3.782-16.2a58.543,58.543,0,0,0,1.545-5.977c-.447-8.8-2.2-16.316-3.009-22.132a33.6,33.6,0,0,1-.447-4.2v-.646a10.679,10.679,0,0,1,.976-5.21c1.382-2.544,8.824-2.585,8.824-2.585a14.82,14.82,0,0,0,9.556,3.595c4.839-.04,2.447-3.437,2.447-3.437.2.04.522.085.685.125a12.349,12.349,0,0,1,4.026,1.656c3.863,4.2,5.124,25.121,5.043,25.807-.163,2.544,1.22,29.361,1.22,29.361" transform="translate(-633.664 -361.551)" fill="#f4be61"/>
        <path id="Trazado_750572" data-name="Trazado 750572" d="M842.893,387.527c3.427-1.821,8.733-1.908,9.59-1.909h.118l-.116-.085c-.567-.415-3.112-2.276-5.471-3.987l-4.311-1.3a32.386,32.386,0,0,1,.19,7.284" transform="translate(-693.646 -312.985)" fill="#d68d5d"/>
        <path id="Trazado_750573" data-name="Trazado 750573" d="M850.879,317.192s-12.161.552-12.391-6.975-1.954-12.525,5.8-13.2,9.352,2.156,10.044,4.65-.3,15.183-3.454,15.52" transform="translate(-689.912 -244.402)" fill="#e49963"/>
        <path id="Trazado_750574" data-name="Trazado 750574" d="M872.98,293.266s5.208,3.558,4.374,7.683c0,0,2.58-1.347,2.337-5.281s-4.021-6.638-7.347-6.843a38.543,38.543,0,0,0-5.831.063Z" transform="translate(-713.245 -237.675)" fill="#163560"/>
        <path id="Trazado_750575" data-name="Trazado 750575" d="M848.259,295.589c2.158,1.135-6.762,2.091-7.307,5.7s-4.8,4.992-4.8,4.992-5.394-19.9,12.106-10.692" transform="translate(-687.609 -241.303)" fill="#163560"/>
        <path id="Trazado_750576" data-name="Trazado 750576" d="M810.607,501.491a41.975,41.975,0,0,1-27.652,14.781,58.539,58.539,0,0,0,1.545-5.977c-.447-8.8-2.2-16.316-3.009-22.132a33.592,33.592,0,0,1-.447-4.2v-.646c2.074.4,5.286,2.544,6.669,2.867,10.695,2.5,22.894,15.307,22.894,15.307" transform="translate(-642.893 -397.827)" fill="#f2a83d"/>
        <path id="Trazado_750577" data-name="Trazado 750577" d="M901.564,387.21s-.088.765-1.965.869c0,0-1.576.088-1.626-.736a5.1,5.1,0,0,1,3.591-.133" transform="translate(-739.14 -318.516)" fill="#fff"/>
        <path id="Trazado_750578" data-name="Trazado 750578" d="M819.391,469.092a86.955,86.955,0,0,1-15.535,5.869,32.57,32.57,0,0,1-5.782.924,29.276,29.276,0,0,1-13.679-10.607c-11.436-15.91-2.607-17.627-2.607-17.627s7.64,4.734,18.431,19.806c.377.527,1.326.408,3.78-.084,2.622-.526,7.84-.463,15.044-1.514a3.977,3.977,0,0,1,.195,1.114c.162,1.873.153,2.118.153,2.118" transform="translate(-640.829 -368.471)" fill="#f4be61"/>
        <path id="Trazado_750579" data-name="Trazado 750579" d="M1048.91,546.832a97.77,97.77,0,0,1-10.616,4.129c-1.935.61-3.959,1.18-5.89,1.608a14.022,14.022,0,0,1,.287-7.64c2.537-.491,7.959-.524,15.771-1.663Z" transform="translate(-849.473 -447.173)" fill="#a86337"/>
        <path id="Trazado_750580" data-name="Trazado 750580" d="M1113.972,536.06a16.413,16.413,0,0,0,3.623-1.2c1.647-.818,6.038-1.363,6.971-.491s-.988,4.416-5,4.525-5.16.763-5.16.763Z" transform="translate(-916.933 -439.485)" fill="#a86337"/>
        <path id="Trazado_750581" data-name="Trazado 750581" d="M937.413,552.688a100.91,100.91,0,0,1-15.727,5.651,8.382,8.382,0,0,0,.143-7.588c2.622-.526,7.877-.754,15.081-1.8,0,0,.085.556.158,1.4a10.664,10.664,0,0,0,.345,2.336" transform="translate(-758.659 -451.849)" fill="#b77446"/>
        <path id="Trazado_750582" data-name="Trazado 750582" d="M333.766,754.85v-.282H303.552a6.653,6.653,0,0,0-6.751,6.543,6.582,6.582,0,0,0,5.66,6.457V840.88H416.074V754.85Z" transform="translate(-244.303 -621.1)" fill="#aa443e"/>
        <rect id="Rectángulo_356010" data-name="Rectángulo 356010" width="18.149" height="18.025" transform="translate(181.457 88.558)" fill="#fe7062"/>
        <rect id="Rectángulo_356011" data-name="Rectángulo 356011" width="18.149" height="18.025" transform="translate(187.053 88.558)" fill="#ffcdc8"/>
        <path id="Trazado_750583" data-name="Trazado 750583" d="M1031.478,500.662l-5.6,3.369v-3.369Z" transform="translate(-844.424 -412.104)" fill="#cb594e"/>
        <path id="Trazado_750584" data-name="Trazado 750584" d="M1046.384,515.855h-6.1l.256-.708-.256-.765h6.046l-.371.793Z" transform="translate(-856.277 -423.398)" fill="#ffd5ab"/>
        <path id="Trazado_750585" data-name="Trazado 750585" d="M1043.333,514.383v1.473h-3.052l.256-.708-.256-.765Z" transform="translate(-856.277 -423.398)" fill="#cb594e"/>
        <path id="Trazado_750586" data-name="Trazado 750586" d="M1046.384,577.394h-6.1l.256-.708-.256-.765h6.046l-.371.793Z" transform="translate(-856.277 -474.052)" fill="#ffd5ab"/>
        <path id="Trazado_750587" data-name="Trazado 750587" d="M1043.333,575.922v1.473h-3.052l.256-.708-.256-.765Z" transform="translate(-856.277 -474.052)" fill="#cb594e"/>
        <path id="Trazado_750588" data-name="Trazado 750588" d="M1002.587,539.628a17.534,17.534,0,0,0,3.867-1.28c1.758-.873,6.446-1.455,7.442-.524s-1.055,4.714-5.333,4.831-5.508.815-5.508.815Z" transform="translate(-825.25 -442.303)" fill="#b77446"/>
        <rect id="Rectángulo_356012" data-name="Rectángulo 356012" width="113.612" height="86.03" transform="translate(89.673 133.75)" fill="#c65447"/>
        <path id="Trazado_750589" data-name="Trazado 750589" d="M464.341,754.568H303.552a6.546,6.546,0,1,0,0,13.085H464.341c4.148,0,7.523-2.948,7.523-6.542s-3.375-6.543-7.523-6.543" transform="translate(-244.304 -621.1)" fill="#e57970"/>
        <rect id="Rectángulo_356013" data-name="Rectángulo 356013" width="20.393" height="18.121" transform="translate(44.842 95.172)" fill="#8cb3ed"/>
        <rect id="Rectángulo_356014" data-name="Rectángulo 356014" width="20.393" height="18.121" transform="translate(48.568 95.172)" fill="#d8e4fd"/>
        <rect id="Rectángulo_356015" data-name="Rectángulo 356015" width="25.694" height="20.845" transform="translate(71.02 92.448)" fill="#8cb3ed"/>
        <rect id="Rectángulo_356016" data-name="Rectángulo 356016" width="25.693" height="20.845" transform="translate(75.715 92.448)" fill="#d8e4fd"/>
        <path id="Trazado_750590" data-name="Trazado 750590" d="M288.048,954.011s-8.459,6.29-10.109,5.909,6.182-6.79,6.182-6.79c-2.947-1.417-12.108-.529-12.108-.529s-3.052,9.841-4.556,9.065,3.146-8.575,3.146-8.575c-3.283-.2-7.308,2.239-7.308,2.239-5.511,4.353.362,11.2.362,11.2a16.749,16.749,0,0,1-4.611,6.472,14.543,14.543,0,0,0-5.316,10.244l.9.081s1.446-6.179,4.07-9.054c.1-.1.23-.236.388-.4.421-.39.715-.682.915-.9,1.294-1.244,3.085-2.83,3.947-2.984a1.665,1.665,0,0,1-.037-.433c.012.139.024.281.037.433.295,3.464,7.014,6.488,11.147,7.11s2.856-1.077,1.431-3.6-5.931-3.647-6.96-4.807,1.1-1.163,3.588-.025,2.832,4.17,6.827,6.083,10.006-4.716,10.006-4.716c-3.184-.162-7.731-3.62-7.566-4.677s7.718,1.825,9.009,1.964,4.229-1.467,4.684-6.669-8.072-6.652-8.072-6.652" transform="translate(-208.85 -783.878)" fill="#82b378"/>
        <path id="Trazado_750591" data-name="Trazado 750591" d="M34.271,871.34s9.343-5.232,4.983-12.333c0,0-3.488-4.36-7.226-5.481,0,0,1.993,10.589,0,10.838s-1.37-11.959-1.37-11.959-9.841-4.734-13.7-4.36c0,0,6.1,10.34,4.111,10.091s-8.845-10.714-8.845-10.714S2.131,845.552.511,851.532s1,8.969,2.492,9.343,11.087.249,10.838,1.495-6.727,3.239-10.34,2.118c0,0,3.986,9.842,9.219,9.343s6.852-3.737,10.091-3.987,5.606.623,3.987,1.495-7.1.286-9.717,2.51-4.734,3.595.125,4.591,13.579.374,15.323-3.364Z" transform="translate(0 -697.301)" fill="#a8d29f"/>
        <path id="Trazado_750592" data-name="Trazado 750592" d="M60.59,909.547a19.875,19.875,0,0,1-2.492-9.094c-2.99-9.468-29.151-17.939-29.151-17.939C62.21,895.969,56.355,904.19,56.355,904.19c.9.523,2.241,3.017,3.174,4.93.133.325.343.775.654,1.384.127.278.229.505.3.664,1.712,4.285.805,11.684.805,11.684l1.038.279a17.255,17.255,0,0,0-1.735-13.584" transform="translate(-23.828 -726.415)" fill="#82b378"/>
        <path id="Trazado_750593" data-name="Trazado 750593" d="M240.113,794.718s-12.316-6.9-6.569-16.257c0,0,4.6-5.747,9.525-7.226,0,0-2.628,13.958,0,14.287s1.806-15.765,1.806-15.765,12.973-6.24,18.064-5.748c0,0-8.047,13.63-5.419,13.3s11.659-14.123,11.659-14.123,13.3-2.463,15.436,5.419-1.314,11.823-3.284,12.316-14.615.328-14.287,1.971,8.867,4.27,13.63,2.792c0,0-5.255,12.973-12.152,12.316s-9.032-4.927-13.3-5.255-7.39.821-5.255,1.971,9.36.377,12.809,3.308,6.24,4.738-.164,6.052-17.9.493-20.2-4.433Z" transform="translate(-190.977 -627.896)" fill="#a8d29f"/>
        <path id="Trazado_750594" data-name="Trazado 750594" d="M285.948,809.448s-34.485,11.167-38.427,23.647a26.2,26.2,0,0,1-3.284,11.988,22.744,22.744,0,0,0-2.286,17.907l1.368-.367s-1.2-9.754,1.061-15.4c.092-.208.226-.506.393-.871.412-.806.689-1.4.864-1.829,1.229-2.522,3-5.808,4.183-6.5,0,0-7.718-10.838,36.127-28.573" transform="translate(-198.386 -666.273)" fill="#82b378"/>
        <path id="Trazado_750595" data-name="Trazado 750595" d="M139.052,1096.278a24.125,24.125,0,0,0,48.251,0Z" transform="translate(-114.457 -902.368)" fill="#ffcdc8"/>
        <path id="Trazado_750596" data-name="Trazado 750596" d="M182.8,1120.218a24.14,24.14,0,0,1-27.122-23.941h5.994a24.129,24.129,0,0,0,21.128,23.941" transform="translate(-128.139 -902.368)" fill="#ffb973"/>
        <path id="Trazado_750597" data-name="Trazado 750597" d="M183.11,1222.786H140.145a2.976,2.976,0,0,0-2.976,2.976h48.917a2.976,2.976,0,0,0-2.976-2.976" transform="translate(-112.907 -1006.5)" fill="#ffcdc8"/>
        <rect id="Rectángulo_356017" data-name="Rectángulo 356017" width="49.593" height="0.74" transform="translate(23.802 193.91)" fill="#fe7062"/>
        <rect id="Rectángulo_356018" data-name="Rectángulo 356018" width="84.607" height="2.976" transform="translate(41.829 25.002)" fill="#91b6ed"/>
        <rect id="Rectángulo_356019" data-name="Rectángulo 356019" width="109.92" height="2.976" transform="translate(21.871)" fill="#91b3fa"/>
        <rect id="Rectángulo_356020" data-name="Rectángulo 356020" width="84.607" height="2.976" transform="translate(41.829 54.434)" fill="#91b6ed"/>
        <rect id="Rectángulo_356021" data-name="Rectángulo 356021" width="84.607" height="2.976" transform="translate(41.829 83.866)" fill="#91b6ed"/>
        <rect id="Rectángulo_356022" data-name="Rectángulo 356022" width="84.607" height="2.976" transform="translate(41.829 113.299)" fill="#91b6ed"/>
        <rect id="Rectángulo_356023" data-name="Rectángulo 356023" width="24.017" height="24.017" transform="translate(44.749 30.417)" fill="#fe7062"/>
        <rect id="Rectángulo_356024" data-name="Rectángulo 356024" width="24.017" height="24.017" transform="translate(52.155 30.417)" fill="#ffcdc8"/>
        <path id="Trazado_750598" data-name="Trazado 750598" d="M260.4,171.961l-7.405,4.489v-4.489Z" transform="translate(-208.244 -141.544)" fill="#cb594e"/>
        <rect id="Rectángulo_356025" data-name="Rectángulo 356025" width="18.914" height="18.914" transform="translate(61.667 35.52)" fill="#748fc8"/>
        <rect id="Rectángulo_356026" data-name="Rectángulo 356026" width="18.914" height="18.914" transform="translate(67.499 35.52)" fill="#91b3fa"/>
        <rect id="Rectángulo_356027" data-name="Rectángulo 356027" width="7.157" height="3.637" transform="translate(69.019 49.989) rotate(-11.294)" fill="#ebf2f9"/>
        <path id="Trazado_750599" data-name="Trazado 750599" d="M369.049,220.865h-6.834l.287-.8-.287-.862h6.77l-.415.894Z" transform="translate(-298.146 -180.431)" fill="#ebf2f9"/>
        <path id="Trazado_750600" data-name="Trazado 750600" d="M365.632,219.2v1.661h-3.417l.287-.8-.287-.862Z" transform="translate(-298.147 -180.431)" fill="#d8e4fd"/>
        <path id="Trazado_750601" data-name="Trazado 750601" d="M280.126,191.951H272.05l.339-.943-.339-1.019h8l-.491,1.057Z" transform="translate(-223.93 -156.383)" fill="#ffd5ab"/>
        <path id="Trazado_750602" data-name="Trazado 750602" d="M276.088,189.989v1.963H272.05l.339-.943-.339-1.019Z" transform="translate(-223.93 -156.383)" fill="#cb594e"/>
        <path id="Trazado_750603" data-name="Trazado 750603" d="M280.126,273.948H272.05l.339-.943-.339-1.019h8l-.491,1.057Z" transform="translate(-223.93 -223.876)" fill="#ffd5ab"/>
        <path id="Trazado_750604" data-name="Trazado 750604" d="M276.088,271.986v1.963H272.05l.339-.944-.339-1.019Z" transform="translate(-223.93 -223.876)" fill="#cb594e"/>
        <rect id="Rectángulo_356028" data-name="Rectángulo 356028" width="18.914" height="18.914" transform="translate(56.414 6.131)" fill="#748fc8"/>
        <rect id="Rectángulo_356029" data-name="Rectángulo 356029" width="18.914" height="18.914" transform="translate(62.246 6.131)" fill="#91b3fa"/>
        <rect id="Rectángulo_356030" data-name="Rectángulo 356030" width="7.157" height="3.637" transform="translate(63.767 20.507) rotate(-11.294)" fill="#ebf2f9"/>
        <path id="Trazado_750605" data-name="Trazado 750605" d="M339.353,54.187h-6.834l.287-.8-.287-.862h6.77l-.415.894Z" transform="translate(-273.703 -43.235)" fill="#ebf2f9"/>
        <path id="Trazado_750606" data-name="Trazado 750606" d="M335.936,52.526v1.661h-3.417l.287-.8-.287-.862Z" transform="translate(-273.703 -43.235)" fill="#d8e4fd"/>
        <rect id="Rectángulo_356031" data-name="Rectángulo 356031" width="13.365" height="13.365" transform="translate(83.672 11.633)" fill="#fe7062"/>
        <rect id="Rectángulo_356032" data-name="Rectángulo 356032" width="13.365" height="13.365" transform="translate(87.792 11.633)" fill="#ffcdc8"/>
        <path id="Trazado_750607" data-name="Trazado 750607" d="M477.164,65.765l-4.121,2.5v-2.5Z" transform="translate(-389.371 -54.132)" fill="#cb594e"/>
        <path id="Trazado_750608" data-name="Trazado 750608" d="M488.141,77.031h-4.494l.189-.525-.189-.567H488.1l-.273.588Z" transform="translate(-398.1 -62.506)" fill="#ffd5ab"/>
        <path id="Trazado_750609" data-name="Trazado 750609" d="M485.894,75.938V77.03h-2.247l.189-.525-.189-.567Z" transform="translate(-398.1 -62.506)" fill="#cb594e"/>
        <path id="Trazado_750610" data-name="Trazado 750610" d="M488.141,122.661h-4.494l.189-.525-.189-.567H488.1l-.273.588Z" transform="translate(-398.1 -100.065)" fill="#ffd5ab"/>
        <path id="Trazado_750611" data-name="Trazado 750611" d="M485.894,121.568v1.092h-2.247l.189-.525-.189-.567Z" transform="translate(-398.1 -100.065)" fill="#cb594e"/>
        <rect id="Rectángulo_356033" data-name="Rectángulo 356033" width="15.713" height="15.714" transform="translate(44.976 68.164)" fill="#748fc8"/>
        <rect id="Rectángulo_356034" data-name="Rectángulo 356034" width="15.714" height="15.714" transform="translate(49.821 68.164)" fill="#91b3fa"/>
        <rect id="Rectángulo_356035" data-name="Rectángulo 356035" width="5.946" height="3.022" transform="matrix(0.981, -0.196, 0.196, 0.981, 51.084, 80.107)" fill="#ebf2f9"/>
        <path id="Trazado_750612" data-name="Trazado 750612" d="M271.231,401.59h-5.678l.239-.663-.239-.716h5.624l-.345.743Z" transform="translate(-218.583 -329.42)" fill="#ebf2f9"/>
        <path id="Trazado_750613" data-name="Trazado 750613" d="M268.393,400.21v1.38h-2.839l.239-.663-.239-.716Z" transform="translate(-218.583 -329.42)" fill="#d8e4fd"/>
        <rect id="Rectángulo_356036" data-name="Rectángulo 356036" width="15.713" height="15.714" transform="translate(67.44 68.164)" fill="#748fc8"/>
        <rect id="Rectángulo_356037" data-name="Rectángulo 356037" width="15.714" height="15.714" transform="translate(72.284 68.164)" fill="#91b3fa"/>
        <rect id="Rectángulo_356038" data-name="Rectángulo 356038" width="5.946" height="3.022" transform="matrix(0.981, -0.196, 0.196, 0.981, 73.548, 80.107)" fill="#ebf2f9"/>
        <path id="Trazado_750614" data-name="Trazado 750614" d="M398.231,401.59h-5.678l.239-.663-.239-.716h5.624l-.345.743Z" transform="translate(-323.119 -329.42)" fill="#ebf2f9"/>
        <path id="Trazado_750615" data-name="Trazado 750615" d="M395.393,400.21v1.38h-2.839l.239-.663-.239-.716Z" transform="translate(-323.119 -329.42)" fill="#d8e4fd"/>
        <rect id="Rectángulo_356039" data-name="Rectángulo 356039" width="11.46" height="11.46" transform="translate(88.729 42.974)" fill="#fe7062"/>
        <rect id="Rectángulo_356040" data-name="Rectángulo 356040" width="11.46" height="11.46" transform="translate(92.263 42.974)" fill="#ffcdc8"/>
        <path id="Trazado_750616" data-name="Trazado 750616" d="M505.169,242.954l-3.534,2.142v-2.142Z" transform="translate(-412.907 -199.98)" fill="#cb594e"/>
        <rect id="Rectángulo_356041" data-name="Rectángulo 356041" width="9.025" height="9.025" transform="translate(96.801 45.409)" fill="#748fc8"/>
        <rect id="Rectángulo_356042" data-name="Rectángulo 356042" width="9.025" height="9.025" transform="translate(99.584 45.409)" fill="#91b3fa"/>
        <rect id="Rectángulo_356043" data-name="Rectángulo 356043" width="3.415" height="1.736" transform="translate(100.309 52.361) rotate(-11.292)" fill="#ebf2f9"/>
        <path id="Trazado_750617" data-name="Trazado 750617" d="M557.012,266.562h-3.261l.137-.381-.137-.412h3.231l-.2.427Z" transform="translate(-455.804 -218.76)" fill="#ebf2f9"/>
        <path id="Trazado_750618" data-name="Trazado 750618" d="M555.382,265.77v.793h-1.631l.137-.381-.137-.412Z" transform="translate(-455.804 -218.76)" fill="#d8e4fd"/>
        <path id="Trazado_750619" data-name="Trazado 750619" d="M514.582,252.766h-3.854l.162-.45-.162-.486h3.818l-.234.5Z" transform="translate(-420.391 -207.286)" fill="#ffd5ab"/>
        <path id="Trazado_750620" data-name="Trazado 750620" d="M512.654,251.83v.936h-1.927l.162-.45-.162-.486Z" transform="translate(-420.39 -207.286)" fill="#cb594e"/>
        <path id="Trazado_750621" data-name="Trazado 750621" d="M514.582,291.892h-3.854l.162-.45-.162-.486h3.818l-.234.5Z" transform="translate(-420.391 -239.491)" fill="#ffd5ab"/>
        <path id="Trazado_750622" data-name="Trazado 750622" d="M512.654,290.955v.936h-1.927l.162-.45-.162-.486Z" transform="translate(-420.39 -239.491)" fill="#cb594e"/>
        <path id="Trazado_750623" data-name="Trazado 750623" d="M624.125,355.98,619.3,376.948h13.343l4.829-20.968Z" transform="translate(-509.755 -293.014)" fill="#91b3fa"/>
        <path id="Trazado_750624" data-name="Trazado 750624" d="M575.271,355.98l-4.829,20.968h13.343l4.829-20.968Z" transform="translate(-469.543 -293.014)" fill="#fff"/>
        <path id="Trazado_750625" data-name="Trazado 750625" d="M542.218,416.508l.006,9.11a.629.629,0,0,1-.626.627l-15.154.01a.629.629,0,0,1-.627-.626l-.006-9.109a.627.627,0,0,1,.626-.627l15.154-.011a.627.627,0,0,1,.626.626" transform="translate(-432.807 -342.32)" fill="#ffcdc8"/>
        <path id="Trazado_750626" data-name="Trazado 750626" d="M542.218,416.508v.263l-8.2,4.3-8.206-4.549a.627.627,0,0,1,.626-.627l15.154-.011a.627.627,0,0,1,.626.626" transform="translate(-432.807 -342.32)" fill="#fe7062"/>
        <path id="Trazado_750627" data-name="Trazado 750627" d="M597.487,465.712l-2.842,0a.252.252,0,1,0,0,.5l2.842,0a.252.252,0,1,0,0-.5" transform="translate(-489.257 -383.336)" fill="#fe7062"/>
        <path id="Trazado_750628" data-name="Trazado 750628" d="M526.413,416.127a.626.626,0,0,0-.626-.626l-15.154.01a.626.626,0,0,0-.625.626l.006,9.11a.629.629,0,0,0,.626.625l15.154-.01a.629.629,0,0,0,.625-.626Z" transform="translate(-419.797 -342.007)" fill="#ffcdc8"/>
        <path id="Trazado_750629" data-name="Trazado 750629" d="M526.413,416.127v.263l-8.2,4.3-8.206-4.549a.626.626,0,0,1,.626-.626l15.154-.01a.626.626,0,0,1,.626.626" transform="translate(-419.797 -342.007)" fill="#fe7062"/>
        <path id="Trazado_750630" data-name="Trazado 750630" d="M581.681,465.329l-2.842,0a.252.252,0,0,0,0,.5l2.842,0a.252.252,0,1,0,0-.5" transform="translate(-476.247 -383.021)" fill="#fe7062"/>
      </g>
    </g>
  </g>
</svg>
