<svg xmlns="http://www.w3.org/2000/svg" width="79.229" height="77.478" viewBox="0 0 79.229 77.478">
  <g id="open-book" transform="translate(0 -5.64)">
    <g id="Grupo_138312" data-name="Grupo 138312" transform="translate(1.151 14.173)">
      <path id="Trazado_204564" data-name="Trazado 204564" d="M78.989,125.689H12.741a7.137,7.137,0,0,0-5.326,6.577v39.766a6.844,6.844,0,0,0,6.824,6.824h25.22a2.013,2.013,0,0,1,1.882,1.351,4.806,4.806,0,0,0,9.03,0,2.013,2.013,0,0,1,1.882-1.351H77.49a6.844,6.844,0,0,0,6.824-6.824V132.267A7.138,7.138,0,0,0,78.989,125.689Z" transform="translate(-7.415 -115.579)" fill="#ff656f"/>
      <path id="Trazado_204565" data-name="Trazado 204565" d="M13.338,172.034V132.267a7.137,7.137,0,0,1,5.326-6.577H12.741a7.137,7.137,0,0,0-5.326,6.577v39.766a6.844,6.844,0,0,0,6.824,6.824h5.923A6.844,6.844,0,0,1,13.338,172.034Z" transform="translate(-7.415 -115.58)" fill="#ff4756"/>
      <path id="Trazado_204566" data-name="Trazado 204566" d="M221.565,469.414a2.013,2.013,0,0,0-1.882-1.351H213.76a2.013,2.013,0,0,1,1.882,1.351,4.8,4.8,0,0,0,7.477,2.135A4.813,4.813,0,0,1,221.565,469.414Z" transform="translate(-181.716 -404.785)" fill="#ff4756"/>
      <path id="Trazado_204567" data-name="Trazado 204567" d="M284.606,94.877H262.13a10.2,10.2,0,0,1-2.556,12.814,4.055,4.055,0,0,0-1.5,3.156v2.128h.5a.965.965,0,0,1,.965.964v2.294a.965.965,0,0,1-.965.965H257.7V118.9a2.422,2.422,0,0,1-2.422,2.422h-1.325v23.46a3.082,3.082,0,0,0,3.1,2.945h27.552a2.945,2.945,0,0,0,2.945-2.945V97.823A2.946,2.946,0,0,0,284.606,94.877Z" transform="translate(-215.667 -89.552)" fill="#dfebfa"/>
      <g id="Grupo_138311" data-name="Grupo 138311" transform="translate(38.285 17.881)">
        <path id="Trazado_204568" data-name="Trazado 204568" d="M259.876,213.082V175.729c-.1.087-.2.175-.3.258a4.055,4.055,0,0,0-1.5,3.156v2.128h.5a.965.965,0,0,1,.965.964v2.294a.965.965,0,0,1-.965.965H257.7V187.2a2.422,2.422,0,0,1-2.422,2.422h-1.325v23.46a3.082,3.082,0,0,0,3.1,2.945h5.768A2.945,2.945,0,0,1,259.876,213.082Z" transform="translate(-253.952 -175.729)" fill="#b4dbff"/>
      </g>
      <path id="Trazado_204569" data-name="Trazado 204569" d="M71.956,121.328a2.422,2.422,0,0,1-2.422-2.422V117.2h-.866a.965.965,0,0,1-.965-.965v-2.294a.964.964,0,0,1,.965-.964h.5V110.85a4.128,4.128,0,0,0-1.544-3.192,10.173,10.173,0,0,1-2.506-12.78H42.656a2.946,2.946,0,0,0-2.945,2.946v46.963a2.945,2.945,0,0,0,2.945,2.945H70.191a2.946,2.946,0,0,0,2.946-2.945v-23.46Z" transform="translate(-34.696 -89.554)" fill="#dfebfa"/>
      <path id="Trazado_204570" data-name="Trazado 204570" d="M45.634,144.786V97.823a2.946,2.946,0,0,1,2.945-2.946H42.656a2.946,2.946,0,0,0-2.945,2.946v46.963a2.945,2.945,0,0,0,2.945,2.945H48.58A2.945,2.945,0,0,1,45.634,144.786Z" transform="translate(-34.696 -89.552)" fill="#b4dbff"/>
      <path id="Trazado_204571" data-name="Trazado 204571" d="M198.955,60.6a10.2,10.2,0,0,0-5.963,18.093,4.128,4.128,0,0,1,1.544,3.192v2.748h9.8V81.883a4.055,4.055,0,0,1,1.5-3.156A10.2,10.2,0,0,0,198.955,60.6Z" transform="translate(-161.002 -60.587)" fill="#fee55a"/>
      <path id="Trazado_204572" data-name="Trazado 204572" d="M198.664,78.693a10.2,10.2,0,0,1,3.609-17.7,10.2,10.2,0,0,0-9.28,17.7,4.128,4.128,0,0,1,1.544,3.192v2.748h5.67V81.885A4.129,4.129,0,0,0,198.664,78.693Z" transform="translate(-161.003 -60.588)" fill="#ffd301"/>
      <path id="Trazado_204573" data-name="Trazado 204573" d="M225.75,235.611v2.638a2.422,2.422,0,0,0,2.422,2.422h4.214a2.422,2.422,0,0,0,2.422-2.422v-2.638Z" transform="translate(-191.844 -208.431)" fill="#23a8fe"/>
      <path id="Trazado_204574" data-name="Trazado 204574" d="M230.945,238.249v-2.638h-5.2v2.638a2.422,2.422,0,0,0,2.422,2.422h4.214a2.429,2.429,0,0,0,.491-.05A2.423,2.423,0,0,1,230.945,238.249Z" transform="translate(-191.844 -208.431)" fill="#0193fa"/>
      <path id="Trazado_204575" data-name="Trazado 204575" d="M225.717,211.419H214.926a.965.965,0,0,0-.965.965v2.294a.965.965,0,0,0,.965.965h10.791a.965.965,0,0,0,.965-.965v-2.294A.965.965,0,0,0,225.717,211.419Z" transform="translate(-181.886 -187.996)" fill="#60b8fe"/>
      <path id="Trazado_204576" data-name="Trazado 204576" d="M219.157,214.677v-2.294a.965.965,0,0,1,.965-.965h-5.2a.965.965,0,0,0-.965.965v2.294a.965.965,0,0,0,.965.965h5.2A.965.965,0,0,1,219.157,214.677Z" transform="translate(-181.887 -187.996)" fill="#23a8fe"/>
    </g>
    <g id="Grupo_138313" data-name="Grupo 138313" transform="translate(0 5.64)">
      <path id="Trazado_204577" data-name="Trazado 204577" d="M313.836,366.237H294.4a1.165,1.165,0,1,0,0,2.329h19.433a1.165,1.165,0,0,0,0-2.329Z" transform="translate(-247.7 -310.239)"/>
      <path id="Trazado_204578" data-name="Trazado 204578" d="M77.976,147.852h9.8a1.165,1.165,0,1,0,0-2.329h-9.8a1.165,1.165,0,1,0,0,2.329Z" transform="translate(-64.883 -123.8)"/>
      <path id="Trazado_204579" data-name="Trazado 204579" d="M77.976,179.382h9.8a1.165,1.165,0,1,0,0-2.329h-9.8a1.165,1.165,0,1,0,0,2.329Z" transform="translate(-64.883 -150.434)"/>
      <path id="Trazado_204580" data-name="Trazado 204580" d="M77.976,210.914h9.8a1.165,1.165,0,1,0,0-2.329h-9.8a1.165,1.165,0,1,0,0,2.329Z" transform="translate(-64.883 -177.069)"/>
      <path id="Trazado_204581" data-name="Trazado 204581" d="M77.976,242.444H92.4a1.165,1.165,0,1,0,0-2.329H77.976a1.165,1.165,0,1,0,0,2.329Z" transform="translate(-64.883 -203.703)"/>
      <path id="Trazado_204582" data-name="Trazado 204582" d="M77.976,273.974h16.7a1.165,1.165,0,1,0,0-2.329h-16.7a1.165,1.165,0,1,0,0,2.329Z" transform="translate(-64.883 -230.336)"/>
      <path id="Trazado_204583" data-name="Trazado 204583" d="M77.976,305.505H97.409a1.165,1.165,0,0,0,0-2.329H77.976a1.165,1.165,0,0,0,0,2.329Z" transform="translate(-64.883 -256.971)"/>
      <path id="Trazado_204584" data-name="Trazado 204584" d="M77.976,337.036H97.409a1.165,1.165,0,1,0,0-2.329H77.976a1.165,1.165,0,1,0,0,2.329Z" transform="translate(-64.883 -283.605)"/>
      <path id="Trazado_204585" data-name="Trazado 204585" d="M77.976,368.566H97.409a1.165,1.165,0,0,0,0-2.329H77.976a1.165,1.165,0,0,0,0,2.329Z" transform="translate(-64.883 -310.239)"/>
      <path id="Trazado_204586" data-name="Trazado 204586" d="M366.237,145.523h-9.8a1.165,1.165,0,0,0,0,2.329h9.8a1.165,1.165,0,0,0,0-2.329Z" transform="translate(-300.102 -123.8)"/>
      <path id="Trazado_204587" data-name="Trazado 204587" d="M366.237,177.053h-9.8a1.165,1.165,0,0,0,0,2.329h9.8a1.165,1.165,0,0,0,0-2.329Z" transform="translate(-300.102 -150.434)"/>
      <path id="Trazado_204588" data-name="Trazado 204588" d="M366.237,208.585h-9.8a1.165,1.165,0,0,0,0,2.329h9.8a1.165,1.165,0,0,0,0-2.329Z" transform="translate(-300.102 -177.069)"/>
      <path id="Trazado_204589" data-name="Trazado 204589" d="M340.994,240.115H326.554a1.165,1.165,0,1,0,0,2.329h14.441a1.165,1.165,0,0,0,0-2.329Z" transform="translate(-274.858 -203.703)"/>
      <path id="Trazado_204590" data-name="Trazado 204590" d="M328.62,271.645H311.9a1.165,1.165,0,0,0,0,2.329H328.62a1.165,1.165,0,1,0,0-2.329Z" transform="translate(-262.484 -230.336)"/>
      <path id="Trazado_204591" data-name="Trazado 204591" d="M313.836,303.176H294.4a1.165,1.165,0,1,0,0,2.329h19.433a1.165,1.165,0,1,0,0-2.329Z" transform="translate(-247.7 -256.971)"/>
      <path id="Trazado_204592" data-name="Trazado 204592" d="M313.836,334.707H294.4a1.165,1.165,0,1,0,0,2.329h19.433a1.165,1.165,0,1,0,0-2.329Z" transform="translate(-247.7 -283.605)"/>
      <path id="Trazado_204593" data-name="Trazado 204593" d="M138.6,118.067h3.217a1.165,1.165,0,0,0,0-2.329H138.6a1.165,1.165,0,1,0,0,2.329Z" transform="translate(-116.096 -98.641)"/>
      <path id="Trazado_204594" data-name="Trazado 204594" d="M342.466,116.9a1.165,1.165,0,0,0-1.165-1.165h-3.217a1.165,1.165,0,1,0,0,2.329H341.3A1.165,1.165,0,0,0,342.466,116.9Z" transform="translate(-284.599 -98.641)"/>
      <path id="Trazado_204595" data-name="Trazado 204595" d="M170.026,183.2a1.165,1.165,0,0,0,1.647,0l2.275-2.275a1.165,1.165,0,0,0-1.647-1.647l-2.275,2.275A1.165,1.165,0,0,0,170.026,183.2Z" transform="translate(-143.334 -152.029)"/>
      <path id="Trazado_204596" data-name="Trazado 204596" d="M312.729,42.151,315,39.876a1.165,1.165,0,0,0-1.647-1.647L311.081,40.5a1.165,1.165,0,0,0,1.647,1.647Z" transform="translate(-262.485 -32.88)"/>
      <path id="Trazado_204597" data-name="Trazado 204597" d="M248.7,11.186a1.165,1.165,0,0,0,1.165-1.165V6.8a1.165,1.165,0,0,0-2.329,0v3.217A1.165,1.165,0,0,0,248.7,11.186Z" transform="translate(-209.096 -5.64)"/>
      <path id="Trazado_204598" data-name="Trazado 204598" d="M311.082,179.282a1.164,1.164,0,0,0,0,1.647l2.275,2.275A1.165,1.165,0,1,0,315,181.557l-2.275-2.275A1.165,1.165,0,0,0,311.082,179.282Z" transform="translate(-262.485 -152.029)"/>
      <path id="Trazado_204599" data-name="Trazado 204599" d="M172.3,42.151a1.165,1.165,0,1,0,1.647-1.647l-2.275-2.275a1.165,1.165,0,0,0-1.647,1.647Z" transform="translate(-143.334 -32.88)"/>
      <path id="Trazado_204600" data-name="Trazado 204600" d="M74.214,63.554V62.546a4.115,4.115,0,0,0-4.11-4.11H65.039a1.165,1.165,0,1,0,0,2.329H70.1a1.783,1.783,0,0,1,1.781,1.781V109.51A1.783,1.783,0,0,1,70.1,111.29H42.551a1.783,1.783,0,0,1-1.781-1.781V87.681h.937a3.591,3.591,0,0,0,3.587-3.587V83.065a2.139,2.139,0,0,0,1.831-2.108V78.663a2.141,2.141,0,0,0-1.46-2.021,9.206,9.206,0,0,1,.04-1.559,2.867,2.867,0,0,1,1.029-1.762,11.316,11.316,0,0,0,4.23-8.845,11.592,11.592,0,0,0-.618-3.71H59.6a1.165,1.165,0,0,0,0-2.329H49.232a11.348,11.348,0,0,0-19.236,0H9.125a4.115,4.115,0,0,0-4.11,4.11v1.008A8.019,8.019,0,0,0,0,70.963v39.766a8,8,0,0,0,7.989,7.989h25.22A.848.848,0,0,1,34,119.3a5.978,5.978,0,0,0,11.219,0,.848.848,0,0,1,.787-.585H71.239a8,8,0,0,0,7.989-7.989v-17.5a1.165,1.165,0,1,0-2.329,0v17.5a5.666,5.666,0,0,1-5.66,5.659H46a3.2,3.2,0,0,0-2.976,2.117,3.646,3.646,0,0,1-6.842,0,3.194,3.194,0,0,0-2.976-2.117H7.989a5.666,5.666,0,0,1-5.66-5.659V70.963a5.678,5.678,0,0,1,2.686-4.809V109.51a4.115,4.115,0,0,0,4.11,4.11H36.66a4.11,4.11,0,0,0,2.946-1.246,4.121,4.121,0,0,0,2.945,1.246H70.1a4.115,4.115,0,0,0,4.11-4.11V66.154A5.678,5.678,0,0,1,76.9,70.963V87.79a1.165,1.165,0,1,0,2.329,0V70.963a8.019,8.019,0,0,0-5.015-7.409ZM42.965,84.093a1.259,1.259,0,0,1-1.258,1.258H37.493a1.257,1.257,0,0,1-1.258-1.258V83.086h6.73v1.007ZM39.6,70.069a1.025,1.025,0,1,1,1.025-1.025A1.026,1.026,0,0,1,39.6,70.069Zm5.2,8.794v1.893H34.4V78.863ZM39.171,55.45a9.035,9.035,0,0,1,6.1,16.058,5.2,5.2,0,0,0-1.935,4.063v.963H40.764V72.19a3.354,3.354,0,1,0-2.329,0v4.344H35.864v-.962a5.279,5.279,0,0,0-1.973-4.094,8.972,8.972,0,0,1-3.317-7.425,9.091,9.091,0,0,1,8.6-8.6Zm-31.827,7.1a1.783,1.783,0,0,1,1.781-1.781H28.859a11.358,11.358,0,0,0,3.56,12.517,2.96,2.96,0,0,1,1.116,2.289v1.07a2.139,2.139,0,0,0-1.46,2.021v2.294a2.14,2.14,0,0,0,1.831,2.108v1.028a3.591,3.591,0,0,0,3.587,3.587h.948V109.51a1.783,1.783,0,0,1-1.781,1.781H9.125a1.783,1.783,0,0,1-1.771-1.6,1.8,1.8,0,0,1-.009-.182c0-5.679,0-45.461,0-46.963Z" transform="translate(0 -45.738)"/>
    </g>
  </g>
</svg>
