<svg id="Grupo_1019285" data-name="Grupo 1019285" xmlns="http://www.w3.org/2000/svg" xmlns:xlink="http://www.w3.org/1999/xlink" width="510.133" height="311.496" viewBox="0 0 510.133 311.496">
  <defs>
    <clipPath id="clip-path">
      <rect id="Rectángulo_356074" data-name="Rectángulo 356074" width="510.133" height="311.496" fill="none"/>
    </clipPath>
  </defs>
  <g id="Grupo_1019284" data-name="Grupo 1019284" clip-path="url(#clip-path)">
    <path id="Trazado_750708" data-name="Trazado 750708" d="M94.91,290.307c2.567-24.44-5.965-20.461-17.545-37.065-4.78-6.849-4.58-12.982-1.252-20.283,2.186-4.793,4.4-10.759,1.756-15.8-2.872-5.471-8.4-5.718-13.7-6.885-13.61-3-17.954-14.066-24.8-24.625-1.77-2.731-4.229-5.216-7.363-6.014-15.1-3.835-20.468,20.754-14.4,30.439,3.789,6.055,9.728,10.087,13.583,16.172,3.441,5.44,3.381,9.736,2.745,15.836-1.011,9.688,3.832,18.77,10.538,25.362,3.806,3.742,8.013,7.236,10.737,11.924a35.129,35.129,0,0,0,12.612,12.128c8.4-.426,17.46-.822,27.092-1.187" fill="#cfcfe2" fill-rule="evenodd"/>
    <path id="Trazado_750709" data-name="Trazado 750709" d="M88.695,290.55a154.872,154.872,0,0,1-13.511-15.389,46.979,46.979,0,0,1,1.621-13.609,46.809,46.809,0,0,0-3.612,10.931c-8.266-11.441-12.857-21.753-16.669-31.567a60.351,60.351,0,0,1,8.9-19.21A50.73,50.73,0,0,0,55.34,237.825c-5.756-15.2-10.357-29.337-24.891-44.817A152.33,152.33,0,0,1,44.3,217.277a49.857,49.857,0,0,0-16.948-5.516A59.459,59.459,0,0,1,45.785,220.6c5.569,12.791,9.258,24.808,15.847,38.052A49.794,49.794,0,0,0,44.618,253.1a59.11,59.11,0,0,1,18.871,9.167A163.27,163.27,0,0,0,82.9,290.793q2.86-.123,5.8-.243" fill="#dcdbef" fill-rule="evenodd"/>
    <path id="Trazado_750710" data-name="Trazado 750710" d="M84.649,290.718c-5.437-15.658-10.245-10.855-22.894-18.47-5.4-3.252-7.135-7.56-7.06-13.655.048-4-.238-8.823-3.61-11.489-3.659-2.891-7.564-1.335-11.594-.492-10.341,2.171-16.724-4.133-24.693-9.306a9.891,9.891,0,0,0-6.935-1.864C-3.763,237.5.027,256.2,7.188,261.014c4.474,3.009,9.818,3.945,14.344,6.957,4.047,2.692,5.317,5.687,6.739,10.108,2.257,7.024,8.386,11.8,15.043,14.272.452.168.908.331,1.364.495,11.491-.783,24.921-1.5,39.971-2.128" fill="#afabd8" fill-rule="evenodd"/>
    <path id="Trazado_750711" data-name="Trazado 750711" d="M73.148,291.232q-3.3-1.539-6.208-3.127a35.471,35.471,0,0,1-3.035-9.93,35.517,35.517,0,0,0,.84,8.7,99.941,99.941,0,0,1-21.186-16.654,45.964,45.964,0,0,1,.3-16.083,38.746,38.746,0,0,0-2.063,14.31c-8.629-8.727-16.133-17.079-30.924-23.261a114.019,114.019,0,0,1,17.005,12.481,37.7,37.7,0,0,0-13.422,1.472,44.818,44.818,0,0,1,15.463.367c7.767,7.119,13.987,14.29,22.6,21.4a37.7,37.7,0,0,0-13.477,1.467,44.561,44.561,0,0,1,15.867.454A114.784,114.784,0,0,0,67.67,291.5q2.694-.137,5.478-.269" fill="#dee7f5" fill-rule="evenodd"/>
    <path id="Trazado_750712" data-name="Trazado 750712" d="M423.6,290.291c-5.605-23.506,2.952-20.5,12.017-37.634,3.7-6.989,2.8-12.716-1.155-19.176-2.6-4.239-5.363-9.575-3.458-14.616,2.065-5.468,7.224-6.35,12.06-8.066,12.423-4.412,15.228-15.3,20.442-26.007,1.35-2.768,3.367-5.391,6.215-6.505,13.722-5.368,21.583,17.067,17,26.866-2.863,6.123-7.971,10.6-10.886,16.762-2.608,5.5-2.058,9.529-.761,15.175,2.06,8.967-1.441,18.057-6.974,25.029-3.142,3.953-6.689,7.725-8.7,12.44-3.016,7.065-9.385,12.915-16.671,16.954q-8.779-.445-18.492-.847Z" fill="#cfcfe2" fill-rule="evenodd"/>
    <path id="Trazado_750713" data-name="Trazado 750713" d="M427.826,290.817a150,150,0,0,0,12.351-17.858,44.225,44.225,0,0,0-3.081-12.574,43.958,43.958,0,0,1,4.642,9.832,126.716,126.716,0,0,0,12.015-31.568A56.8,56.8,0,0,0,443.2,221.672a47.739,47.739,0,0,1,11.313,13.936c3.655-14.932,6.348-28.734,18.206-44.958a144.4,144.4,0,0,0-10.209,24.392,47.211,47.211,0,0,1,15.264-7.164,56.447,56.447,0,0,0-16.275,10.456c-3.756,12.652-5.835,24.357-10.5,37.553a47.284,47.284,0,0,1,15.321-7.2,56.13,56.13,0,0,0-16.649,10.812,157.216,157.216,0,0,1-16.59,31.556q-2.59-.118-5.252-.233" fill="#dcdbef" fill-rule="evenodd"/>
    <path id="Trazado_750714" data-name="Trazado 750714" d="M417.273,290.387c-.831-3.794,1.186-6.727,1.122-13.751-.041-4.532-2.044-7.161-5.786-9.3-2.454-1.407-5.29-3.319-5.7-6.376-.449-3.317,1.9-5.192,3.864-7.4,5.033-5.663,3.487-11.9,3.2-18.724a7.25,7.25,0,0,1,1.352-4.988c5.428-6.5,15.466,2.572,15.824,8.763.228,3.866-1.119,7.531-.91,11.431.187,3.487,1.556,5.353,3.736,7.826,3.47,3.929,4.184,9.46,3.3,14.5-.5,2.855-1.259,5.732-.99,8.658A19.736,19.736,0,0,1,434.2,291.1q-8.119-.373-16.926-.713" fill="#afabd8" fill-rule="evenodd"/>
    <path id="Trazado_750715" data-name="Trazado 750715" d="M425.851,290.733c.18-1.808.291-3.528.346-5.175a25.086,25.086,0,0,0-4.962-5.457,24.953,24.953,0,0,1,5,3.646,72.674,72.674,0,0,0-2.541-19.174,32.023,32.023,0,0,0-9.906-5.59,26.933,26.933,0,0,1,9.459,3.854c-2.219-8.509-4.615-16.182-3.069-27.613a82.9,82.9,0,0,0,1.5,15.072,27.462,27.462,0,0,1,5.713-7.831,32.813,32.813,0,0,0-5.326,9.765c1.551,7.391,3.683,13.842,4.927,21.757a27.45,27.45,0,0,1,5.733-7.867,32.557,32.557,0,0,0-5.418,10.048,86.031,86.031,0,0,1,.624,14.654Z" fill="#dee7f5" fill-rule="evenodd"/>
    <path id="Trazado_750716" data-name="Trazado 750716" d="M476.737,177.472c-4.486-3.45-4.361-6.832-2.966-7.684s4.227,2.685,3.492,7.562c.288.54.572,1.081.848,1.628a71.915,71.915,0,0,1,5.4,14.443,77.6,77.6,0,0,1,2.32,15.254,79.156,79.156,0,0,1-.723,15.43,76.324,76.324,0,0,1-3.754,15.012,71.907,71.907,0,0,1-6.781,13.895c-.181.288-.644.031-.461-.257q.5-.8.972-1.6a72.715,72.715,0,0,0,6.343-13.981,77.065,77.065,0,0,0,3.352-14.9,78.3,78.3,0,0,0,.36-15.374,76.234,76.234,0,0,0-2.658-15.048,72.753,72.753,0,0,0-5.706-14.256.274.274,0,0,1-.034-.118m3.451,4.969a14.491,14.491,0,0,0,2.935-2.192,6,6,0,0,0,1.51-2.27,2.77,2.77,0,0,0-.365-2.584c-1.193-1.71-2.37-.9-3.158.788a11.656,11.656,0,0,0-.864,3,10.967,10.967,0,0,0-.058,3.259m-.211,3.247a7.074,7.074,0,0,0-1.054-1.157,9.449,9.449,0,0,0-1.312-.935,8,8,0,0,0-2.793-1.044c-1.757-.284-3.054.283-2.61,1.9a2.165,2.165,0,0,0,.572.977,2.577,2.577,0,0,0,.979.564,5.5,5.5,0,0,0,1.256.241,10.018,10.018,0,0,0,1.367.024,18.747,18.747,0,0,0,3.6-.572m3.227,5.077a14.355,14.355,0,0,0,3.163-1.82,6.188,6.188,0,0,0,1.792-2.073,2.84,2.84,0,0,0-.046-2.6c-.984-1.833-2.264-1.172-3.232.4a11.446,11.446,0,0,0-1.23,2.867,15.634,15.634,0,0,0-.355,1.628,8.4,8.4,0,0,0-.092,1.6m-.6,3.194a8.117,8.117,0,0,0-2.1-2.361,8.665,8.665,0,0,0-2.647-1.378,3.209,3.209,0,0,0-2.154-.022c-.524.25-.781.754-.677,1.6.24,1.665,2.079,2.167,3.933,2.3a18.622,18.622,0,0,0,3.641-.142m2.6,5.425a14.552,14.552,0,0,0,3.364-1.441,5.984,5.984,0,0,0,2.01-1.844,2.768,2.768,0,0,0,.264-2.58c-.754-1.928-2.089-1.431-3.256.013a11.725,11.725,0,0,0-1.556,2.7,10.844,10.844,0,0,0-.536,1.573,9.749,9.749,0,0,0-.29,1.578m-.961,3.1a7.5,7.5,0,0,0-.759-1.369,8.612,8.612,0,0,0-1.057-1.22,9.305,9.305,0,0,0-1.2-.989,7.7,7.7,0,0,0-1.263-.692c-1.643-.691-3.038-.454-2.981,1.235.017,1.7,1.833,2.4,3.634,2.754a18.514,18.514,0,0,0,3.631.281m1.849,4.342s.454-.067,1.114-.233a13.427,13.427,0,0,0,2.38-.816,6.156,6.156,0,0,0,2.212-1.6,2.77,2.77,0,0,0,.555-2.526c-.24-1-.754-1.415-1.326-1.415a3.008,3.008,0,0,0-1.9,1.057,10.938,10.938,0,0,0-1.861,2.5,10.278,10.278,0,0,0-1.172,3.036" fill="#99a9d4" fill-rule="evenodd"/>
    <path id="Trazado_750717" data-name="Trazado 750717" d="M72.674,218.427c3.574-4.39,2.671-7.653,1.119-8.162s-3.5,3.583-1.661,8.162c-.157.591-.308,1.184-.449,1.78a71.831,71.831,0,0,0-1.931,15.3A77.292,77.292,0,0,0,71,250.884a78.988,78.988,0,0,0,4.248,14.849,76.543,76.543,0,0,0,7.106,13.748,71.849,71.849,0,0,0,9.791,11.965c.243.237.634-.118.392-.356q-.666-.663-1.316-1.335A72.864,72.864,0,0,1,81.834,277.6a76.682,76.682,0,0,1-6.686-13.732,78.064,78.064,0,0,1-3.886-14.882,76.2,76.2,0,0,1-.872-15.254,72.834,72.834,0,0,1,2.277-15.185.308.308,0,0,0,.007-.123m-2.219,5.63A14.477,14.477,0,0,1,67.1,222.6a5.964,5.964,0,0,1-1.993-1.863,2.772,2.772,0,0,1-.24-2.6c.771-1.94,2.1-1.424,3.256.038a11.748,11.748,0,0,1,1.53,2.721,10.947,10.947,0,0,1,.8,3.161m.954,3.107a7.171,7.171,0,0,1,.759-1.366,9.433,9.433,0,0,1,1.063-1.211,8.013,8.013,0,0,1,2.476-1.659c1.645-.677,3.038-.425,2.978,1.251a2.138,2.138,0,0,1-.331,1.083,2.619,2.619,0,0,1-.824.773,5.437,5.437,0,0,1-1.169.526,10.054,10.054,0,0,1-1.324.334,18.564,18.564,0,0,1-3.628.269m-1.977,5.684a14.353,14.353,0,0,1-3.494-1.044,6.134,6.134,0,0,1-2.219-1.6,2.84,2.84,0,0,1-.555-2.541C63.7,225.651,65.1,226,66.4,227.3a11.4,11.4,0,0,1,1.856,2.512,14.867,14.867,0,0,1,.718,1.5,8.106,8.106,0,0,1,.456,1.534m1.321,2.974a8.034,8.034,0,0,1,1.5-2.781,8.653,8.653,0,0,1,2.257-1.95,3.2,3.2,0,0,1,2.089-.514c.567.12.935.552,1.028,1.4.152,1.677-1.525,2.587-3.3,3.146a18.841,18.841,0,0,1-3.576.7M69.468,241.7a14.478,14.478,0,0,1-3.6-.627,5.964,5.964,0,0,1-2.38-1.335,2.765,2.765,0,0,1-.85-2.447c.29-2.051,1.7-1.876,3.172-.738a11.775,11.775,0,0,1,2.137,2.27,11.4,11.4,0,0,1,.882,1.407,9.429,9.429,0,0,1,.643,1.47m1.65,2.8a7.724,7.724,0,0,1,.423-1.506,8.961,8.961,0,0,1,.749-1.429,9.444,9.444,0,0,1,.946-1.241,7.528,7.528,0,0,1,1.071-.961c1.441-1.052,2.853-1.141,3.185.517.374,1.652-1.232,2.756-2.9,3.515a18.349,18.349,0,0,1-3.47,1.1m-.8,4.654s-.456.036-1.138.029a13.464,13.464,0,0,1-2.5-.25,6.089,6.089,0,0,1-2.521-1.052,2.777,2.777,0,0,1-1.122-2.329c.007-1.028.411-1.551.966-1.684a3.028,3.028,0,0,1,2.094.591,10.844,10.844,0,0,1,2.387,2.01,10.17,10.17,0,0,1,1.837,2.685" fill="#99a9d4" fill-rule="evenodd"/>
    <path id="Trazado_750718" data-name="Trazado 750718" d="M432.629,290.961c3.3-18.026,8.3-13.275,19.81-22.31,4.7-3.684,5.829-7.927,5.058-13.638-.505-3.744-.788-8.3,2.07-11.2,3.1-3.144,6.94-2.143,10.814-1.821,9.952.821,15.216-5.84,22.1-11.628a9.377,9.377,0,0,1,6.292-2.562c11.138.564,9.731,18.556,3.566,23.909-3.854,3.348-8.756,4.854-12.658,8.209-3.485,3-4.333,5.958-5.159,10.271-1.314,6.854-6.513,12.055-12.473,15.153-3.382,1.758-6.991,3.262-9.827,5.9a19.445,19.445,0,0,1-1.54,1.288c-8.434-.536-17.807-1.038-28-1.5Z" fill="#afabd8" fill-rule="evenodd"/>
    <path id="Trazado_750719" data-name="Trazado 750719" d="M437.96,291.278a109.531,109.531,0,0,0,11.438-7.142,33.652,33.652,0,0,0,1.706-9.671,33.878,33.878,0,0,1,.213,8.256,94.821,94.821,0,0,0,17.959-18.107,43.415,43.415,0,0,0-2.126-15.053,36.638,36.638,0,0,1,3.579,13.182c7.091-9.2,13.172-17.913,26.337-25.446A108.126,108.126,0,0,0,482.547,251a35.564,35.564,0,0,1,12.756-.192,42.351,42.351,0,0,0-14.461,2.156c-6.468,7.589-11.48,15.043-18.74,22.726a35.541,35.541,0,0,1,12.81-.2,42.124,42.124,0,0,0-14.832,2.286,113.557,113.557,0,0,1-16.707,13.773c-1.772-.091-3.583-.18-5.413-.269" fill="#dee7f5" fill-rule="evenodd"/>
    <path id="Trazado_750720" data-name="Trazado 750720" d="M255.065,287.668c140.87,0,255.067,5.334,255.067,11.914S395.935,311.5,255.065,311.5,0,306.162,0,299.582s114.2-11.914,255.065-11.914" fill="#cfcfe2" fill-rule="evenodd"/>
    <path id="Trazado_750721" data-name="Trazado 750721" d="M176.677,19.59a.642.642,0,0,1,0-1.283l1.3.015a.642.642,0,1,1-.031,1.283Zm-5.747-.955a.643.643,0,1,1,.154,1.276c-.418.049-.841.1-1.259.161a.642.642,0,0,1-.185-1.27c.43-.062.86-.115,1.29-.167m-7.656,1.5a.643.643,0,0,1,.351,1.237l-1.216.356a.641.641,0,1,1-.381-1.225c.413-.131.831-.252,1.246-.368m-7.325,2.693A.643.643,0,0,1,156.494,24c-.384.177-.768.357-1.145.545a.643.643,0,0,1-.574-1.151Zm-6.806,3.813a.642.642,0,0,1,.719,1.063l-1.048.719a.642.642,0,1,1-.742-1.047Zm-6.126,4.832a.641.641,0,1,1,.874.938l-.919.875a.643.643,0,0,1-.9-.919Zm-5.3,5.725a.643.643,0,0,1,1.012.8c-.262.329-.517.666-.769,1a.643.643,0,0,1-1.037-.761c.269-.341.523-.695.794-1.036m-4.337,6.487a.643.643,0,1,1,1.122.627c-.209.366-.406.739-.6,1.112a.643.643,0,1,1-1.139-.6c.2-.384.409-.767.622-1.144m-3.266,7.087a.643.643,0,0,1,1.208.441l-.423,1.192a.642.642,0,0,1-1.219-.4c.153-.4.285-.827.434-1.229m-2.106,7.516a.642.642,0,1,1,1.261.241l-.228,1.248a.643.643,0,0,1-1.268-.211Zm-.9,7.75a.643.643,0,1,1,1.285.041l-.031,1.267a.642.642,0,1,1-1.283-.006c0-.436.015-.867.029-1.3m.317,7.793a.644.644,0,1,1,1.278-.153c.045.416.1.839.165,1.257a.642.642,0,1,1-1.27.185c-.063-.429-.125-.86-.173-1.289m1.534,7.653a.642.642,0,0,1,1.233-.358c.117.406.235.813.364,1.216a.642.642,0,1,1-1.224.388c-.135-.41-.255-.83-.373-1.246m2.719,7.312a.644.644,0,0,1,1.165-.547c.175.384.36.767.547,1.143a.642.642,0,0,1-1.145.579c-.2-.377-.387-.787-.567-1.175m3.84,6.792a.642.642,0,1,1,1.064-.718c.233.349.475.7.72,1.04a.642.642,0,1,1-1.042.749c-.252-.352-.5-.711-.742-1.071m4.856,6.109a.641.641,0,0,1,.934-.879l.877.918a.642.642,0,1,1-.913.9q-.454-.465-.9-.942m5.747,5.278a.643.643,0,0,1,.787-1.017c.334.261.67.518,1.012.768a.648.648,0,0,1,.134.9.642.642,0,0,1-.9.134Zm6.5,4.313a.643.643,0,0,1,.617-1.128l1.119.6a.643.643,0,1,1-.593,1.14Zm7.1,3.237a.643.643,0,1,1,.437-1.209l1.2.418a.643.643,0,1,1-.4,1.22Zm7.521,2.076a.642.642,0,0,1,.24-1.261c.413.08.836.142,1.247.224a.642.642,0,0,1-.2,1.269Zm7.755.87a.643.643,0,0,1,.04-1.285l1.268.026a.643.643,0,1,1-.009,1.285Zm7.795-.345a.643.643,0,0,1-.161-1.276c.418-.053.838-.109,1.256-.17a.641.641,0,1,1,.195,1.267c-.43.065-.86.123-1.29.179m7.644-1.562a.643.643,0,1,1-.358-1.235c.406-.115.81-.24,1.215-.367a.642.642,0,0,1,.387,1.225c-.413.129-.826.258-1.244.377m7.3-2.75a.643.643,0,0,1-.55-1.162c.384-.179.764-.362,1.141-.554a.643.643,0,1,1,.581,1.147q-.58.291-1.172.569m6.78-3.864a.643.643,0,1,1-.726-1.061l1.04-.728a.643.643,0,0,1,.752,1.043Zm6.09-4.877a.644.644,0,0,1-.884-.936c.307-.287.608-.593.913-.877a.642.642,0,1,1,.91.907Zm5.252-5.768a.643.643,0,0,1-1.016-.789l.764-1.008a.642.642,0,1,1,1.037.756c-.254.351-.523.7-.785,1.041m4.291-6.521a.642.642,0,1,1-1.128-.615l.6-1.118a.644.644,0,0,1,1.146.586Zm3.209-7.108a.642.642,0,0,1-1.208-.435l.413-1.2a.642.642,0,0,1,1.222.4Zm2.051-7.532a.643.643,0,1,1-1.264-.235l.217-1.248a.643.643,0,0,1,1.27.2Zm.838-7.759a.645.645,0,0,1-.661.627.638.638,0,0,1-.624-.657l.019-1.269a.643.643,0,0,1,1.287,0Zm-.377-7.787a.642.642,0,0,1-1.273.16c-.041-.4-.106-.858-.178-1.25a.644.644,0,1,1,1.271-.2c.064.42.139.869.18,1.293m-1.59-7.644a.643.643,0,1,1-1.232.366l-.372-1.211a.642.642,0,1,1,1.222-.4Zm-2.776-7.294a.643.643,0,1,1-1.158.557l-.559-1.138a.642.642,0,0,1,1.143-.586c.2.387.386.778.574,1.167M217.62,39.9a.642.642,0,0,1-1.056.732l-.73-1.038a.642.642,0,1,1,1.037-.756Zm-4.9-6.071a.642.642,0,1,1-.93.886l-.883-.91a.642.642,0,0,1,.908-.909ZM206.934,28.6a.642.642,0,0,1-.783,1.018l-1.016-.761a.642.642,0,1,1,.756-1.037ZM200.4,24.335a.643.643,0,1,1-.615,1.129l-1.112-.586a.644.644,0,1,1,.574-1.153c.375.209.771.4,1.153.61m-7.125-3.184a.643.643,0,1,1-.428,1.212l-1.2-.41a.642.642,0,1,1,.4-1.22c.411.134.822.274,1.23.418m-7.541-2.021a.643.643,0,0,1-.223,1.267l-1.252-.215a.642.642,0,1,1,.2-1.269c.427.067.855.14,1.28.217" fill="#cfcfe2" fill-rule="evenodd"/>
    <path id="Trazado_750722" data-name="Trazado 750722" d="M364.99,39.042a.632.632,0,0,1,0-1.263l1.277.017a.63.63,0,1,1-.03,1.26Zm-5.644-.939a.631.631,0,0,1,.151,1.253c-.412.048-.824.1-1.234.159a.631.631,0,0,1-.185-1.249c.422-.062.845-.113,1.268-.163m-7.519,1.477a.63.63,0,0,1,.344,1.213l-1.194.353a.631.631,0,1,1-.374-1.206c.4-.127.815-.247,1.224-.36m-7.194,2.644a.631.631,0,1,1,.535,1.143c-.378.175-.757.353-1.126.538a.632.632,0,0,1-.563-1.131Zm-6.686,3.744a.631.631,0,0,1,.705,1.047l-1.027.706a.63.63,0,0,1-.73-1.028Zm-6.016,4.745a.631.631,0,0,1,.859.925l-.906.857a.63.63,0,1,1-.88-.9Zm-5.2,5.625a.632.632,0,0,1,.993.782c-.259.325-.509.651-.755.983a.631.631,0,0,1-1.018-.747c.264-.336.515-.682.78-1.018m-4.262,6.371a.632.632,0,0,1,1.1.615c-.2.362-.4.727-.594,1.092a.63.63,0,1,1-1.118-.581c.2-.377.4-.754.608-1.126m-3.207,6.962a.631.631,0,1,1,1.186.432l-.414,1.172a.631.631,0,1,1-1.2-.4c.151-.389.281-.809.426-1.205m-2.068,7.382a.631.631,0,0,1,1.24.235l-.224,1.225a.631.631,0,1,1-1.246-.2Zm-.881,7.611a.632.632,0,0,1,1.263.04l-.032,1.244a.63.63,0,1,1-1.26,0c0-.428.014-.853.029-1.28m.312,7.656a.632.632,0,1,1,1.254-.152c.046.411.1.824.163,1.235a.631.631,0,0,1-1.249.182c-.062-.42-.121-.843-.168-1.265m1.505,7.516a.63.63,0,1,1,1.21-.353c.116.4.233.8.358,1.2a.631.631,0,1,1-1.2.38c-.129-.4-.25-.814-.365-1.223m2.671,7.181a.631.631,0,0,1,1.143-.536c.173.375.356.752.54,1.122a.632.632,0,0,1-1.128.569c-.193-.372-.379-.773-.555-1.155m3.771,6.671a.631.631,0,1,1,1.047-.7c.227.341.466.684.705,1.018a.631.631,0,0,1-1.023.74c-.246-.349-.491-.7-.729-1.055m4.768,6a.632.632,0,0,1,.921-.865l.861.9a.631.631,0,0,1-.9.888c-.3-.305-.592-.612-.884-.924m5.647,5.182a.632.632,0,0,1,.774-1c.325.257.657.509.993.757a.631.631,0,1,1-.751,1.015Zm6.385,4.236a.63.63,0,0,1,.609-1.1l1.1.591a.631.631,0,1,1-.584,1.119Zm6.972,3.18a.63.63,0,0,1,.427-1.186l1.177.41a.631.631,0,0,1-.4,1.2Zm7.388,2.041a.631.631,0,1,1,.237-1.239c.4.077.819.139,1.223.219a.631.631,0,0,1-.2,1.246Zm7.616.85a.629.629,0,1,1,.039-1.258l1.246.024a.632.632,0,0,1-.007,1.263Zm7.656-.338a.63.63,0,1,1-.158-1.251c.411-.053.825-.106,1.232-.168a.63.63,0,1,1,.193,1.246c-.421.065-.844.12-1.267.173m7.508-1.535a.63.63,0,1,1-.35-1.21c.4-.113.794-.235,1.191-.36a.63.63,0,1,1,.381,1.2c-.406.13-.813.255-1.222.37m7.173-2.7a.631.631,0,1,1-.54-1.141c.376-.175.75-.358,1.122-.545a.632.632,0,0,1,.569,1.129c-.38.192-.763.379-1.151.557m6.659-3.794a.631.631,0,1,1-.712-1.043l1.02-.715a.632.632,0,0,1,.74,1.025Zm5.98-4.791a.631.631,0,1,1-.864-.92c.3-.281.593-.581.9-.86a.63.63,0,0,1,.89.891Zm5.162-5.666a.631.631,0,1,1-1-.773l.75-.989a.63.63,0,0,1,1.019.742c-.253.343-.515.682-.771,1.02m4.213-6.4a.632.632,0,0,1-1.109-.605l.586-1.1a.632.632,0,0,1,1.125.576Zm3.151-6.984a.63.63,0,1,1-1.186-.427l.4-1.172a.631.631,0,1,1,1.2.389Zm2.013-7.4a.63.63,0,1,1-1.238-.231l.212-1.227a.632.632,0,0,1,1.248.2Zm.825-7.62a.631.631,0,0,1-1.262-.032l.019-1.246a.632.632,0,1,1,1.263,0Zm-.369-7.652a.631.631,0,1,1-1.252.159c-.04-.392-.1-.843-.174-1.23a.632.632,0,0,1,1.249-.2c.063.415.134.855.177,1.27m-1.562-7.507a.636.636,0,0,1-.426.786.629.629,0,0,1-.783-.423l-.367-1.194a.631.631,0,1,1,1.2-.389Zm-2.728-7.161a.63.63,0,1,1-1.137.545l-.549-1.117a.631.631,0,1,1,1.123-.576c.194.379.379.761.563,1.148M405.2,58.989a.632.632,0,1,1-1.038.72l-.717-1.018a.632.632,0,1,1,1.021-.744Zm-4.812-5.961a.631.631,0,0,1-.913.87l-.87-.894a.632.632,0,0,1,.895-.893Zm-5.684-5.139a.632.632,0,0,1-.767,1l-1-.749a.632.632,0,0,1,.745-1.021ZM388.289,43.7a.631.631,0,1,1-.6,1.109l-1.092-.578a.631.631,0,1,1,.565-1.129c.366.2.755.4,1.13.6m-7-3.127a.631.631,0,0,1-.418,1.191l-1.183-.4a.632.632,0,0,1,.392-1.2c.4.135.808.269,1.209.413m-7.4-1.986a.632.632,0,0,1-.224,1.244l-1.226-.209a.632.632,0,0,1,.191-1.249c.418.065.838.139,1.259.214" fill="#cfcfe2" fill-rule="evenodd"/>
    <path id="Trazado_750723" data-name="Trazado 750723" d="M249.1,127.211a.6.6,0,1,1,0-1.2l1.215.014a.6.6,0,1,1-.029,1.2Zm-5.384-.893a.6.6,0,1,1,.144,1.193c-.394.046-.788.1-1.179.152a.6.6,0,1,1-.173-1.191c.4-.058.8-.108,1.208-.154m-7.171,1.407a.6.6,0,1,1,.326,1.158l-1.138.336a.6.6,0,1,1-.358-1.15c.389-.121.778-.236,1.17-.344m-6.864,2.522a.6.6,0,1,1,.512,1.09c-.358.168-.718.336-1.074.514a.6.6,0,0,1-.535-1.081Zm-6.373,3.573a.6.6,0,1,1,.672,1l-.98.672a.6.6,0,1,1-.7-.98Zm-5.74,4.525a.6.6,0,1,1,.821.879l-.862.819a.6.6,0,0,1-.843-.86Zm-4.959,5.365a.6.6,0,1,1,.946.744c-.247.308-.485.62-.72.937a.6.6,0,1,1-.973-.714c.252-.319.492-.65.747-.967m-4.066,6.073a.6.6,0,0,1,1.052.589c-.2.343-.379.691-.567,1.042a.6.6,0,0,1-1.066-.557c.19-.361.382-.721.581-1.074m-3.057,6.64a.6.6,0,0,1,1.131.411l-.4,1.117a.6.6,0,1,1-1.143-.377c.144-.372.269-.774.408-1.151m-1.974,7.039a.6.6,0,0,1,1.184.226l-.216,1.169a.6.6,0,1,1-1.187-.2Zm-.838,7.26a.6.6,0,0,1,1.2.038l-.028,1.187a.6.6,0,1,1-1.2-.005c0-.408.014-.814.029-1.22m.295,7.3a.6.6,0,1,1,1.2-.147c.043.394.1.788.156,1.179a.6.6,0,1,1-1.191.173c-.058-.4-.115-.8-.161-1.205m1.436,7.168a.6.6,0,1,1,1.155-.336q.162.573.341,1.138a.6.6,0,1,1-1.148.365c-.124-.386-.237-.778-.348-1.167m2.548,6.847a.6.6,0,1,1,1.091-.509c.165.357.336.714.513,1.068a.6.6,0,1,1-1.075.541c-.185-.353-.361-.735-.529-1.1m3.6,6.364a.6.6,0,1,1,1-.673c.221.327.444.653.675.972a.6.6,0,1,1-.975.705c-.236-.332-.469-.668-.7-1m4.551,5.723a.6.6,0,1,1,.874-.824l.822.857a.6.6,0,1,1-.855.848c-.286-.291-.565-.586-.841-.881m5.382,4.939a.6.6,0,0,1,.737-.95c.312.245.627.487.947.72a.6.6,0,1,1-.716.97Zm6.09,4.042a.6.6,0,1,1,.579-1.054l1.05.564a.6.6,0,0,1-.558,1.067Zm6.65,3.033a.6.6,0,1,1,.408-1.133l1.119.392a.6.6,0,1,1-.377,1.142Zm7.044,1.946a.6.6,0,0,1,.225-1.182c.387.075.783.132,1.165.209a.6.6,0,1,1-.187,1.189Zm7.264.811a.6.6,0,1,1,.039-1.2l1.186.024a.6.6,0,0,1-.007,1.2Zm7.3-.321a.6.6,0,0,1-.151-1.2c.391-.048.785-.1,1.176-.159a.6.6,0,0,1,.183,1.189c-.4.06-.8.115-1.208.166M262,217.11a.6.6,0,1,1-.336-1.153q.568-.167,1.138-.346a.6.6,0,0,1,.363,1.148c-.387.123-.776.243-1.165.351m6.84-2.575a.6.6,0,1,1-.514-1.085q.537-.252,1.066-.521a.6.6,0,1,1,.545,1.073c-.362.185-.73.363-1.1.533m6.349-3.616a.6.6,0,0,1-.677-1l.973-.68a.6.6,0,1,1,.7.975Zm5.7-4.571a.6.6,0,0,1-.826-.876c.288-.269.569-.557.855-.821a.6.6,0,0,1,.852.85Zm4.921-5.4a.6.6,0,0,1-.951-.74l.715-.946a.6.6,0,0,1,.973.711c-.24.328-.49.648-.737.975m4.02-6.11a.6.6,0,0,1-1.057-.574l.557-1.049a.6.6,0,1,1,1.071.547Zm3.007-6.657a.6.6,0,0,1-1.134-.408l.387-1.119a.6.6,0,1,1,1.145.37Zm1.918-7.056a.6.6,0,0,1-1.184-.221l.207-1.169a.6.6,0,1,1,1.186.19Zm.786-7.267a.6.6,0,0,1-1.2-.028l.02-1.189a.6.6,0,1,1,1.2,0Zm-.351-7.3a.6.6,0,0,1-1.2.152c-.036-.372-.1-.805-.163-1.174a.6.6,0,0,1,1.188-.188c.061.394.13.812.171,1.21M293.7,159.4a.6.6,0,0,1-1.153.343l-.348-1.136a.6.6,0,1,1,1.143-.372Zm-2.6-6.833a.6.6,0,1,1-1.086.524l-.523-1.069a.6.6,0,1,1,1.071-.547c.187.36.363.727.538,1.092m-3.646-6.335a.6.6,0,1,1-.987.687l-.687-.973a.6.6,0,0,1,.973-.708Zm-4.586-5.687a.6.6,0,0,1-.875.831l-.826-.852a.6.6,0,1,1,.85-.85Zm-5.423-4.9a.6.6,0,1,1-.733.956l-.951-.713a.6.6,0,0,1,.709-.973Zm-6.119-3.993a.6.6,0,1,1-.577,1.056l-1.042-.55a.6.6,0,1,1,.538-1.078c.353.194.723.379,1.081.572m-6.674-2.983a.6.6,0,0,1-.4,1.136l-1.124-.385a.6.6,0,0,1,.37-1.145c.389.127.773.257,1.155.394m-7.063-1.895a.6.6,0,1,1-.211,1.186l-1.172-.2a.6.6,0,1,1,.182-1.189c.4.06.8.132,1.2.2" fill="#cfcfe2" fill-rule="evenodd"/>
    <path id="Trazado_750724" data-name="Trazado 750724" d="M358.988,180.217a.648.648,0,0,1,0-1.3l1.312.017a.647.647,0,1,1-.034,1.294Zm-5.792-.965a.648.648,0,0,1,.154,1.287c-.423.048-.845.1-1.268.163a.648.648,0,0,1-.188-1.283c.433-.062.867-.115,1.3-.167m-7.716,1.517a.646.646,0,1,1,.351,1.244l-1.225.36a.647.647,0,1,1-.387-1.234c.421-.13.838-.254,1.261-.37m-7.384,2.714a.647.647,0,0,1,.547,1.172c-.387.18-.773.36-1.155.552a.649.649,0,0,1-.577-1.162Zm-6.864,3.842a.648.648,0,0,1,.725,1.074l-1.054.725a.647.647,0,1,1-.749-1.054Zm-6.174,4.871a.647.647,0,0,1,.881.948l-.927.882a.648.648,0,0,1-.9-.927Zm-5.339,5.773a.648.648,0,0,1,1.018.8c-.264.331-.521.668-.776,1.009a.648.648,0,1,1-1.044-.769c.271-.343.528-.7.8-1.042m-4.373,6.537a.648.648,0,1,1,1.131.634c-.211.37-.408.744-.61,1.119a.647.647,0,1,1-1.148-.6c.2-.387.411-.776.627-1.155m-3.293,7.144a.648.648,0,0,1,1.218.445l-.425,1.2a.648.648,0,0,1-1.23-.409c.154-.4.288-.83.437-1.239m-2.123,7.577a.648.648,0,0,1,1.273.243l-.23,1.258a.648.648,0,0,1-1.278-.211Zm-.9,7.812a.646.646,0,1,1,1.292.041l-.028,1.278a.649.649,0,0,1-1.3-.008c.005-.437.019-.874.033-1.311m.32,7.856a.647.647,0,1,1,1.285-.154c.048.423.105.845.168,1.265a.648.648,0,0,1-1.283.19c-.062-.432-.122-.869-.17-1.3m1.544,7.716a.648.648,0,0,1,1.244-.363c.115.411.238.821.365,1.227a.647.647,0,1,1-1.234.392c-.135-.416-.255-.836-.375-1.256m2.742,7.37a.648.648,0,0,1,1.173-.55c.177.387.364.771.552,1.15a.647.647,0,1,1-1.155.584c-.2-.382-.389-.795-.57-1.184m3.869,6.847a.647.647,0,1,1,1.074-.723c.235.351.478.7.725,1.047a.648.648,0,1,1-1.052.756c-.252-.355-.5-.718-.747-1.08m4.895,6.16a.648.648,0,0,1,.944-.889l.883.925a.647.647,0,0,1-.92.91c-.307-.31-.607-.629-.907-.946m5.794,5.317a.648.648,0,0,1,.795-1.024c.334.265.675.524,1.016.776a.647.647,0,1,1-.768,1.042Zm6.554,4.349a.648.648,0,0,1,.625-1.136l1.128.607a.648.648,0,0,1-.6,1.148Zm7.157,3.263a.648.648,0,1,1,.439-1.22l1.206.423a.648.648,0,1,1-.408,1.23Zm7.579,2.094a.648.648,0,1,1,.245-1.272c.415.081.841.141,1.254.225a.647.647,0,1,1-.205,1.278Zm7.817.875a.648.648,0,1,1,.041-1.295l1.28.027a.647.647,0,1,1-.01,1.294Zm7.858-.351a.647.647,0,0,1-.164-1.283c.425-.052.846-.11,1.268-.172a.646.646,0,1,1,.2,1.277c-.432.068-.867.125-1.3.178m7.706-1.573a.647.647,0,0,1-.363-1.242c.411-.117.819-.244,1.225-.372a.647.647,0,1,1,.392,1.234c-.416.133-.834.262-1.254.38m7.361-2.769a.648.648,0,0,1-.553-1.172c.387-.182.769-.367,1.151-.56a.648.648,0,0,1,.583,1.158q-.583.293-1.181.574m6.835-3.895a.648.648,0,0,1-.731-1.071l1.047-.733a.648.648,0,0,1,.759,1.05Zm6.138-4.918a.648.648,0,0,1-.889-.942c.31-.29.61-.6.92-.886a.647.647,0,0,1,.915.915Zm5.295-5.812a.648.648,0,1,1-1.023-.795l.768-1.018a.648.648,0,0,1,1.048.763c-.257.353-.526.7-.793,1.05m4.325-6.576a.647.647,0,0,1-1.138-.617l.6-1.129a.648.648,0,1,1,1.153.591Zm3.237-7.163a.648.648,0,0,1-1.22-.44l.416-1.205a.648.648,0,1,1,1.232.4Zm2.066-7.594a.648.648,0,0,1-1.275-.235l.221-1.261a.648.648,0,0,1,1.28.2Zm.843-7.819a.648.648,0,1,1-1.3-.034l.022-1.278a.647.647,0,1,1,1.294,0Zm-.377-7.853a.648.648,0,0,1-1.285.163c-.041-.4-.106-.864-.178-1.263a.648.648,0,1,1,1.28-.2c.065.425.139.877.183,1.3m-1.6-7.7a.648.648,0,0,1-1.242.37l-.375-1.223a.648.648,0,0,1,1.232-.4Zm-2.8-7.351a.648.648,0,0,1-1.167.562l-.562-1.148a.648.648,0,0,1,1.153-.591c.2.389.389.783.576,1.177m-3.919-6.818a.648.648,0,0,1-1.066.737l-.737-1.045a.648.648,0,1,1,1.047-.763Zm-4.94-6.119a.648.648,0,1,1-.939.893l-.891-.92a.647.647,0,0,1,.915-.915Zm-5.833-5.274a.648.648,0,0,1-.788,1.028l-1.025-.766a.648.648,0,1,1,.763-1.047ZM382.9,185a.648.648,0,0,1-.62,1.139l-1.122-.594a.648.648,0,1,1,.579-1.16c.379.212.778.409,1.163.615m-7.183-3.211a.648.648,0,0,1-.428,1.223l-1.213-.411a.649.649,0,0,1,.4-1.234c.413.137.829.276,1.24.422m-7.6-2.036a.648.648,0,1,1-.228,1.275l-1.261-.214a.647.647,0,1,1,.2-1.279c.433.064.862.141,1.292.218" fill="#cfcfe2" fill-rule="evenodd"/>
    <path id="Trazado_750725" data-name="Trazado 750725" d="M130.489,184.562a.594.594,0,1,1,0-1.189l1.2.015a.594.594,0,0,1-.029,1.188Zm-5.317-.884a.594.594,0,0,1,.141,1.179c-.389.046-.775.094-1.164.149a.593.593,0,0,1-.173-1.174c.4-.058.8-.108,1.2-.154m-7.085,1.391a.594.594,0,1,1,.322,1.143l-1.124.331a.593.593,0,1,1-.353-1.133c.382-.12.769-.233,1.155-.341m-6.779,2.492a.594.594,0,1,1,.5,1.076c-.353.166-.711.332-1.059.507a.6.6,0,1,1-.529-1.066Zm-6.3,3.528a.6.6,0,0,1,.665.987l-.968.663a.594.594,0,1,1-.689-.968Zm-5.668,4.47a.594.594,0,0,1,.809.871l-.852.81a.595.595,0,0,1-.831-.851Zm-4.9,5.3a.6.6,0,0,1,.937.735c-.243.305-.478.615-.711.924a.6.6,0,1,1-.961-.7c.25-.317.485-.641.735-.956m-4.013,6a.595.595,0,0,1,1.038.581c-.193.341-.375.685-.56,1.03a.594.594,0,1,1-1.054-.549c.187-.356.377-.711.576-1.062M87.4,213.421a.6.6,0,0,1,1.119.406l-.392,1.105A.594.594,0,0,1,87,214.557c.141-.367.264-.761.4-1.136m-1.95,6.955a.6.6,0,1,1,1.169.223l-.211,1.155a.6.6,0,0,1-1.175-.194Zm-.829,7.171a.595.595,0,0,1,1.189.038l-.029,1.172a.595.595,0,1,1-1.189-.005c0-.4.017-.8.029-1.205m.293,7.211a.6.6,0,0,1,1.182-.141c.043.386.1.775.153,1.162a.594.594,0,1,1-1.176.173c-.058-.4-.113-.795-.159-1.194m1.419,7.082a.595.595,0,0,1,1.143-.331c.106.377.217.754.334,1.127a.594.594,0,1,1-1.133.357c-.123-.379-.233-.766-.344-1.153m2.517,6.768a.594.594,0,1,1,1.076-.5c.163.353.334.706.509,1.057a.594.594,0,0,1-1.061.533c-.183-.349-.358-.726-.524-1.086m3.552,6.285a.6.6,0,0,1,.987-.666c.216.325.437.649.665.963a.6.6,0,0,1-.965.7c-.233-.329-.464-.66-.687-.994m4.493,5.655a.6.6,0,0,1,.867-.816l.812.85a.594.594,0,0,1-.845.836c-.281-.286-.558-.577-.834-.87m5.32,4.88a.594.594,0,1,1,.73-.936c.307.24.617.477.934.711a.594.594,0,1,1-.706.955Zm6.018,3.994a.594.594,0,1,1,.571-1.042l1.035.557a.594.594,0,1,1-.547,1.054Zm6.568,2.995a.6.6,0,0,1,.4-1.12l1.107.39a.591.591,0,0,1,.378.749.6.6,0,0,1-.752.379Zm6.96,1.923a.594.594,0,1,1,.223-1.167c.382.075.773.13,1.153.207a.594.594,0,0,1-.188,1.174Zm7.175.8a.594.594,0,1,1,.039-1.188l1.172.024a.6.6,0,0,1-.008,1.191Zm7.214-.319a.594.594,0,1,1-.148-1.179c.386-.051.773-.1,1.162-.161a.6.6,0,0,1,.18,1.177c-.4.06-.795.112-1.194.163m7.073-1.446a.594.594,0,0,1-.332-1.14c.378-.108.752-.224,1.124-.342a.6.6,0,0,1,.361,1.134c-.382.123-.766.24-1.153.348m6.76-2.543a.6.6,0,0,1-.509-1.076c.355-.166.706-.336,1.057-.511a.594.594,0,0,1,.535,1.061c-.357.18-.72.356-1.083.526m6.273-3.576a.594.594,0,1,1-.67-.982l.961-.672a.595.595,0,1,1,.7.965Zm5.634-4.515a.594.594,0,1,1-.814-.864c.283-.264.559-.55.843-.812a.594.594,0,1,1,.84.841Zm4.863-5.336a.594.594,0,0,1-.939-.727l.706-.935a.594.594,0,0,1,.961.7c-.238.327-.485.644-.728.963m3.97-6.035a.594.594,0,1,1-1.045-.566l.552-1.036a.6.6,0,0,1,1.06.541Zm2.97-6.578a.594.594,0,1,1-1.119-.4l.382-1.107a.595.595,0,1,1,1.131.368Zm1.9-6.969a.593.593,0,1,1-1.167-.216l.2-1.157a.594.594,0,1,1,1.174.187Zm.778-7.18a.6.6,0,0,1-1.191-.029l.022-1.172a.594.594,0,1,1,1.188,0Zm-.348-7.207a.594.594,0,1,1-1.179.149c-.039-.368-.1-.795-.163-1.158a.594.594,0,1,1,1.174-.187c.06.391.13.8.168,1.2m-1.472-7.073a.6.6,0,1,1-1.141.339l-.343-1.122a.595.595,0,1,1,1.131-.367Zm-2.57-6.748a.594.594,0,1,1-1.071.514l-.518-1.052a.6.6,0,1,1,1.059-.543c.182.356.357.718.53,1.081m-3.6-6.261a.6.6,0,0,1-.977.68l-.677-.961a.594.594,0,1,1,.96-.7Zm-4.536-5.617a.594.594,0,1,1-.86.821l-.816-.843a.594.594,0,0,1,.84-.84Zm-5.355-4.841a.594.594,0,1,1-.721.943l-.941-.7a.595.595,0,0,1,.7-.961Zm-6.045-3.944a.594.594,0,1,1-.569,1.043l-1.03-.546a.594.594,0,1,1,.53-1.063c.349.194.716.374,1.069.566m-6.592-2.949a.595.595,0,0,1-.4,1.122l-1.112-.377a.6.6,0,0,1,.367-1.134c.382.127.761.255,1.141.389m-6.979-1.868a.594.594,0,0,1-.207,1.169l-1.16-.2a.593.593,0,1,1,.181-1.172c.4.06.792.13,1.186.2" fill="#cfcfe2" fill-rule="evenodd"/>
    <path id="Trazado_750726" data-name="Trazado 750726" d="M273.129,55.475a.563.563,0,0,1,0-1.126c.394,0,.774.017,1.163.043a.563.563,0,0,1-.077,1.124c-.365-.024-.718-.038-1.086-.041m-4.519-.454a.564.564,0,1,1,.336,1.076c-.346.1-.692.226-1.026.356a.563.563,0,1,1-.412-1.047c.357-.142.732-.274,1.1-.385m-6.016,3.485a.563.563,0,1,1,.771.821c-.264.248-.512.5-.762.766a.562.562,0,1,1-.833-.756c.269-.286.538-.565.824-.831m-3.881,5.768a.564.564,0,0,1,1.054.4c-.127.339-.245.678-.348,1.023a.563.563,0,1,1-1.081-.314c.118-.377.236-.737.375-1.11m-.946,6.89a.563.563,0,0,1,1.121-.1,10.137,10.137,0,0,0,.137,1.074.563.563,0,1,1-1.109.189,11.5,11.5,0,0,1-.149-1.16m2.171,6.609a.563.563,0,1,1,.96-.59c.188.307.387.614.6.9a.564.564,0,0,1-.915.658c-.228-.32-.439-.639-.643-.973m4.851,4.979a.564.564,0,1,1,.608-.949c.309.2.617.365.931.552a.563.563,0,1,1-.533.992c-.336-.177-.687-.387-1.006-.6m6.547,2.344a.564.564,0,0,1,.129-1.12c.358.044.718.068,1.078.084a.564.564,0,1,1-.043,1.127c-.386-.017-.78-.046-1.164-.091m6.909-.767a.563.563,0,0,1-.373-1.063c.332-.1.687-.26,1.007-.4a.564.564,0,0,1,.456,1.031,11.1,11.1,0,0,1-1.09.429m5.871-3.729a.563.563,0,0,1-.8-.788c.257-.259.495-.526.735-.8a.562.562,0,1,1,.857.728c-.255.3-.511.581-.788.86m3.643-5.925a.562.562,0,1,1-1.068-.353c.113-.343.216-.689.3-1.042a.563.563,0,0,1,1.092.276c-.1.38-.206.749-.329,1.119m.663-6.921a.562.562,0,1,1-1.114.149c-.048-.358-.108-.711-.183-1.066a.564.564,0,0,1,1.1-.233c.084.377.144.768.194,1.15m-2.437-6.51a.564.564,0,0,1-.939.624c-.2-.3-.411-.593-.632-.877a.563.563,0,1,1,.886-.7c.238.305.471.624.685.949m-5.053-4.777a.562.562,0,1,1-.569.97c-.31-.182-.63-.353-.954-.514a.563.563,0,0,1,.5-1.011c.349.178.687.353,1.026.555" fill="#cfcfe2" fill-rule="evenodd"/>
    <path id="Trazado_750727" data-name="Trazado 750727" d="M92.358,144.149a.563.563,0,1,1,0-1.127c.391,0,.771.015,1.162.041a.564.564,0,0,1-.077,1.126c-.365-.024-.718-.038-1.085-.04m-4.52-.454a.564.564,0,0,1,.337,1.076c-.346.1-.692.225-1.026.355a.563.563,0,0,1-.413-1.047c.358-.142.733-.274,1.1-.384m-6.015,3.484a.563.563,0,0,1,.77.822c-.264.247-.514.5-.761.766A.563.563,0,0,1,81,148.01c.269-.286.538-.564.824-.831m-3.881,5.769a.563.563,0,0,1,.727-.327.57.57,0,0,1,.327.728c-.13.338-.247.677-.348,1.023a.563.563,0,1,1-1.081-.315c.118-.377.235-.739.375-1.109M77,159.838a.563.563,0,0,1,1.122-.106,10.075,10.075,0,0,0,.137,1.076.564.564,0,1,1-1.112.19c-.067-.373-.115-.781-.147-1.16m2.171,6.606a.563.563,0,0,1,.961-.588c.185.307.387.615.6.9a.564.564,0,0,1-.915.658c-.228-.319-.439-.641-.644-.975m4.852,4.981a.563.563,0,1,1,.607-.949c.31.2.617.365.932.553a.562.562,0,1,1-.533.989c-.336-.178-.687-.384-1.006-.593m6.546,2.344a.565.565,0,0,1,.127-1.122c.361.046.721.07,1.081.087a.562.562,0,0,1-.043,1.124c-.387-.015-.781-.043-1.165-.089M97.473,173a.564.564,0,0,1-.372-1.064c.329-.1.687-.259,1.006-.4a.563.563,0,0,1,.457,1.03c-.339.146-.74.319-1.091.43m5.872-3.732a.563.563,0,1,1-.805-.788c.257-.259.5-.523.733-.8a.563.563,0,0,1,.86.728c-.255.3-.512.584-.788.86m3.643-5.922a.564.564,0,0,1-1.071-.353c.115-.344.218-.692.305-1.043a.564.564,0,0,1,1.093.277c-.1.377-.205.749-.327,1.119m.663-6.921a.562.562,0,1,1-1.114.148c-.049-.358-.109-.71-.183-1.066a.563.563,0,0,1,1.1-.235c.084.379.144.771.195,1.153m-2.44-6.511a.563.563,0,1,1-.937.624c-.2-.3-.41-.593-.631-.876a.564.564,0,1,1,.886-.7c.238.3.471.627.682.951m-5.048-4.779a.564.564,0,0,1-.572.973c-.312-.185-.629-.353-.953-.514a.564.564,0,0,1,.5-1.014c.35.178.689.356,1.03.555" fill="#cfcfe2" fill-rule="evenodd"/>
    <path id="Trazado_750728" data-name="Trazado 750728" d="M234.744,245.959a.564.564,0,1,1,0-1.127c.391,0,.77.015,1.162.041a.564.564,0,0,1-.077,1.126c-.365-.026-.718-.038-1.085-.04m-4.52-.454a.563.563,0,1,1,.334,1.076c-.344.1-.69.223-1.023.355a.563.563,0,1,1-.413-1.047c.357-.142.732-.274,1.1-.384m-6.016,3.484a.564.564,0,0,1,.771.822c-.267.247-.514.5-.761.766a.563.563,0,1,1-.834-.757c.267-.286.538-.564.824-.831m-3.881,5.769a.563.563,0,1,1,1.052.4c-.127.339-.245.677-.346,1.023a.564.564,0,0,1-1.083-.315c.118-.377.238-.739.377-1.109m-.946,6.89a.564.564,0,0,1,1.122-.106,9.823,9.823,0,0,0,.136,1.076.564.564,0,0,1-1.112.19c-.067-.372-.115-.781-.146-1.16m2.169,6.606a.563.563,0,1,1,.96-.588c.188.307.389.615.6.905a.565.565,0,0,1-.918.658c-.225-.319-.437-.641-.643-.975m4.851,4.979a.563.563,0,0,1,.61-.946c.307.2.615.364.931.549a.563.563,0,1,1-.533.992c-.338-.177-.687-.386-1.008-.6m6.549,2.346a.565.565,0,1,1,.127-1.122c.36.046.72.07,1.081.087a.562.562,0,0,1-.044,1.124c-.386-.014-.78-.043-1.164-.089m6.909-.766a.564.564,0,1,1-.372-1.064c.329-.1.684-.259,1.006-.4a.563.563,0,0,1,.456,1.03c-.339.147-.74.319-1.09.43m5.872-3.732a.563.563,0,1,1-.805-.788c.255-.259.5-.523.733-.8a.563.563,0,0,1,.859.727c-.257.3-.514.584-.787.86m3.643-5.922a.565.565,0,1,1-1.072-.356c.116-.341.217-.689.306-1.039a.563.563,0,1,1,1.092.276c-.1.377-.2.749-.326,1.119m.662-6.921a.562.562,0,1,1-1.114.149c-.05-.358-.11-.711-.182-1.067a.563.563,0,0,1,1.1-.235c.084.379.142.771.194,1.153m-2.44-6.511a.563.563,0,1,1-.936.625c-.2-.3-.413-.594-.632-.877a.564.564,0,1,1,.886-.7c.236.3.471.627.682.951m-5.05-4.779a.564.564,0,0,1-.569.973c-.312-.185-.629-.356-.956-.514a.565.565,0,0,1,.5-1.014c.351.178.69.356,1.028.555" fill="#cfcfe2" fill-rule="evenodd"/>
    <path id="Trazado_750729" data-name="Trazado 750729" d="M433.935,144.149a.564.564,0,1,1,0-1.127c.393,0,.77.015,1.162.041a.564.564,0,0,1-.077,1.126c-.365-.024-.718-.038-1.085-.04m-4.52-.454a.564.564,0,1,1,.336,1.076c-.346.1-.692.225-1.025.355a.563.563,0,0,1-.413-1.047c.357-.142.732-.274,1.1-.384m-6.016,3.484a.564.564,0,0,1,.771.822c-.264.247-.514.5-.761.766a.563.563,0,0,1-.834-.757c.269-.286.538-.564.824-.831m-3.881,5.769a.564.564,0,1,1,1.054.4c-.127.338-.247.677-.348,1.023a.563.563,0,1,1-1.081-.315c.118-.377.236-.739.375-1.109m-.946,6.89a.563.563,0,0,1,1.121-.106,10.075,10.075,0,0,0,.137,1.076.564.564,0,0,1-.458.651.571.571,0,0,1-.654-.461c-.067-.373-.115-.781-.146-1.16m2.171,6.606a.563.563,0,1,1,.961-.588c.187.307.386.615.6.9a.564.564,0,0,1-.915.658c-.228-.319-.44-.641-.644-.975m4.851,4.981a.564.564,0,1,1,.608-.949c.307.2.617.365.931.553a.562.562,0,1,1-.533.989c-.336-.178-.687-.384-1.006-.593m6.547,2.344a.565.565,0,0,1,.127-1.122c.36.046.72.07,1.081.087a.562.562,0,0,1-.044,1.124c-.386-.015-.78-.043-1.164-.089M439.05,173a.564.564,0,0,1-.373-1.064c.33-.1.685-.259,1.007-.4a.563.563,0,0,1,.456,1.03c-.339.146-.74.319-1.09.43m5.871-3.732a.563.563,0,1,1-.8-.788c.257-.259.495-.523.732-.8a.563.563,0,0,1,.86.728c-.254.3-.511.584-.788.86m3.643-5.922a.564.564,0,0,1-1.071-.353q.174-.516.308-1.043a.562.562,0,1,1,1.09.277c-.1.377-.2.749-.327,1.119m.663-6.921a.562.562,0,1,1-1.114.148c-.048-.358-.108-.71-.182-1.066a.563.563,0,0,1,1.1-.235c.084.379.144.771.194,1.153m-2.439-6.511a.563.563,0,1,1-.937.624c-.2-.3-.413-.593-.632-.876a.564.564,0,1,1,.886-.7c.238.3.471.627.683.951m-5.051-4.779a.564.564,0,1,1-.569.973c-.312-.185-.629-.353-.956-.514a.564.564,0,0,1-.257-.754.57.57,0,0,1,.757-.26c.348.178.686.356,1.025.555" fill="#cfcfe2" fill-rule="evenodd"/>
    <path id="Trazado_750730" data-name="Trazado 750730" d="M440.616,98.51a.693.693,0,0,1,0-1.386c.486,0,.951.02,1.434.053a.694.694,0,1,1-.094,1.384c-.451-.029-.888-.049-1.34-.051m-5.562-.557a.693.693,0,1,1,.411,1.323c-.425.127-.848.279-1.261.44a.693.693,0,0,1-.509-1.29c.442-.175.9-.339,1.359-.473m-7.406,4.289a.693.693,0,0,1,.949,1.011c-.327.305-.632.62-.939.946a.694.694,0,0,1-1.026-.934c.329-.351.661-.694,1.016-1.023m-4.779,7.1a.694.694,0,0,1,1.3.492c-.159.418-.3.836-.428,1.261a.694.694,0,1,1-1.332-.387c.144-.466.29-.91.463-1.366m-1.167,8.482a.694.694,0,0,1,1.383-.127,12.091,12.091,0,0,0,.168,1.32.694.694,0,1,1-1.368.236c-.082-.459-.142-.963-.183-1.429m2.675,8.134a.693.693,0,1,1,1.182-.723c.23.377.475.756.735,1.112a.695.695,0,0,1-1.127.812c-.278-.394-.54-.788-.79-1.2m5.97,6.131a.694.694,0,0,1,.75-1.167c.379.247.759.449,1.148.679a.693.693,0,1,1-.658,1.22c-.413-.216-.845-.475-1.24-.732m8.062,2.886a.694.694,0,1,1,.159-1.378c.44.055.886.084,1.328.106a.693.693,0,1,1-.053,1.385c-.475-.021-.961-.055-1.434-.113m8.507-.943a.694.694,0,0,1-.459-1.309c.406-.127.845-.32,1.239-.488a.693.693,0,0,1,.562,1.268,13.938,13.938,0,0,1-1.342.529m7.231-4.592a.695.695,0,0,1-.995-.97c.317-.32.61-.646.9-.985a.694.694,0,1,1,1.059.9c-.314.365-.631.718-.967,1.059m4.483-7.293a.694.694,0,0,1-1.318-.435c.141-.423.269-.85.377-1.282a.693.693,0,1,1,1.345.338c-.12.466-.252.925-.4,1.379m.817-8.521a.693.693,0,1,1-1.374.185c-.06-.444-.132-.879-.223-1.316a.694.694,0,0,1,1.357-.288c.1.466.177.946.24,1.419m-3-8.016a.694.694,0,0,1-1.155.768c-.243-.37-.507-.73-.778-1.078a.694.694,0,0,1,1.09-.86c.293.375.581.771.843,1.17m-6.22-5.884a.693.693,0,0,1-.7,1.2c-.384-.226-.778-.435-1.177-.632a.694.694,0,0,1,.61-1.246c.433.218.85.437,1.266.682" fill="#cfcfe2" fill-rule="evenodd"/>
    <rect id="Rectángulo_356054" data-name="Rectángulo 356054" width="28.717" height="9.921" transform="translate(421.101 165.782)" fill="#afabd8"/>
    <path id="Trazado_750731" data-name="Trazado 750731" d="M421.363,160.261a4.728,4.728,0,0,1-2.872-4.544v-.7c-.339-19.428-17.414-24.875-18.795-46.369a33,33,0,0,1,.034-4.723c2.675-16.3,18.17-27.25,35.579-27.25,19.838,0,37.192,14.212,35.922,34.37-1.317,20.853-17.585,26.138-17.906,44.988,0,2.041-2.181,4.4-4.04,4.229Z" fill="#f6f6f6" fill-rule="evenodd"/>
    <path id="Trazado_750732" data-name="Trazado 750732" d="M450.851,178a4.339,4.339,0,0,1-4.3,3.9h-3.311L441.948,184c-.739,1.211-1.174,1.29-2.6,1.29h-7.783c-1.422,0-1.851-.074-2.6-1.29l-1.289-2.106h-3.312a4.34,4.34,0,0,1-4.294-3.816v-1.513a1.124,1.124,0,0,1,1.09-.864h28.583a1.126,1.126,0,0,1,1.1.874c.01.043-.019.139.005.158Zm-29.279-9.945h27.776a1.53,1.53,0,0,1,1.527,1.523v2.368a1.531,1.531,0,0,1-1.527,1.525H421.572a1.53,1.53,0,0,1-1.525-1.525v-2.368a1.53,1.53,0,0,1,1.525-1.523m.062-7.79h27.651a1.6,1.6,0,0,1,1.59,1.587v2.464a1.6,1.6,0,0,1-1.59,1.588H421.634a1.594,1.594,0,0,1-1.587-1.588v-2.464a1.593,1.593,0,0,1,1.587-1.587" fill="#aab9de" fill-rule="evenodd"/>
    <rect id="Rectángulo_356055" data-name="Rectángulo 356055" width="30.12" height="66.166" transform="translate(144.908 224.612)" fill="#afabd8"/>
    <rect id="Rectángulo_356056" data-name="Rectángulo 356056" width="30.12" height="93.044" transform="translate(197.799 197.734)" fill="#afabd8"/>
    <rect id="Rectángulo_356057" data-name="Rectángulo 356057" width="30.12" height="119.924" transform="translate(250.69 170.854)" fill="#afabd8"/>
    <rect id="Rectángulo_356058" data-name="Rectángulo 356058" width="30.12" height="146.805" transform="translate(303.581 143.973)" fill="#afabd8"/>
    <rect id="Rectángulo_356059" data-name="Rectángulo 356059" width="30.12" height="173.682" transform="translate(356.472 117.096)" fill="#afabd8"/>
    <path id="Trazado_750733" data-name="Trazado 750733" d="M360.609,46.249a10.083,10.083,0,1,0,10.082,10.084,10.1,10.1,0,0,0-10.082-10.084m0,24.536a14.453,14.453,0,1,1,14.455-14.452,14.471,14.471,0,0,1-14.455,14.452" fill="#aab9de" fill-rule="evenodd"/>
    <path id="Trazado_750734" data-name="Trazado 750734" d="M360.866,57.014l-.514-1.364,4.426-1.671,1.388.2-.872,1.168Z" fill="#99a9d4" fill-rule="evenodd"/>
    <path id="Trazado_750735" data-name="Trazado 750735" d="M361.015,56.313l-.838.029-.036-6.941.377-1.813.459,1.785Z" fill="#99a9d4" fill-rule="evenodd"/>
    <path id="Trazado_750736" data-name="Trazado 750736" d="M358.393,56.332a2.216,2.216,0,1,1,2.217,2.217,2.214,2.214,0,0,1-2.217-2.217" fill="#aab9de" fill-rule="evenodd"/>
    <rect id="Rectángulo_356060" data-name="Rectángulo 356060" width="1.364" height="1.731" transform="translate(359.896 64.241)" fill="#aab9de"/>
    <path id="Trazado_750737" data-name="Trazado 750737" d="M354.512,61.419l.965.965-1.222,1.225-.965-.965Z" fill="#aab9de" fill-rule="evenodd"/>
    <rect id="Rectángulo_356061" data-name="Rectángulo 356061" width="1.731" height="1.362" transform="translate(350.97 55.621)" fill="#aab9de"/>
    <rect id="Rectángulo_356062" data-name="Rectángulo 356062" width="1.363" height="1.731" transform="translate(353.336 49.979) rotate(-45)" fill="#aab9de"/>
    <rect id="Rectángulo_356063" data-name="Rectángulo 356063" width="1.363" height="1.731" transform="translate(359.958 46.696)" fill="#aab9de"/>
    <rect id="Rectángulo_356064" data-name="Rectángulo 356064" width="1.73" height="1.364" transform="matrix(0.706, -0.708, 0.708, 0.706, 365.74, 50.283)" fill="#aab9de"/>
    <path id="Trazado_750738" data-name="Trazado 750738" d="M368.518,57.048l-.005-1.364,1.734,0V57.05Z" fill="#aab9de" fill-rule="evenodd"/>
    <rect id="Rectángulo_356065" data-name="Rectángulo 356065" width="1.365" height="1.731" transform="matrix(0.707, -0.707, 0.707, 0.707, 365.695, 62.429)" fill="#aab9de"/>
    <path id="Trazado_750739" data-name="Trazado 750739" d="M328.6,86.808l11.832-13.485,21.643,16.809,20.619-10.2,7.323-20.074,4.827-6.016s13.808,40.436-27.786,51.32c-20.19,5.982-36.721-13.909-38.458-18.357" fill="#f6f6f6" fill-rule="evenodd"/>
    <path id="Trazado_750740" data-name="Trazado 750740" d="M362.387,91.2,340.382,74.692,329.217,87.3l-1.861.48-.559-.826,13.477-15.331,21.952,17.048,19.4-9.591,10.86-26.715,10.672-6.991,1.347,1.725-10.485,7.427L383.7,80.24Z" fill="#aab9de" fill-rule="evenodd"/>
    <path id="Trazado_750741" data-name="Trazado 750741" d="M395.047,44.781l12.339-1.4-4.95,11.39Z" fill="#aab9de" fill-rule="evenodd"/>
    <path id="Trazado_750742" data-name="Trazado 750742" d="M389.6,53.448a3.724,3.724,0,1,1,3.722,3.725,3.721,3.721,0,0,1-3.722-3.725" fill="#aab9de" fill-rule="evenodd"/>
    <path id="Trazado_750743" data-name="Trazado 750743" d="M378.974,78.974A3.725,3.725,0,1,1,382.7,82.7a3.724,3.724,0,0,1-3.725-3.725" fill="#aab9de" fill-rule="evenodd"/>
    <path id="Trazado_750744" data-name="Trazado 750744" d="M358.354,89.348a3.725,3.725,0,1,1,3.725,3.727,3.721,3.721,0,0,1-3.725-3.727" fill="#aab9de" fill-rule="evenodd"/>
    <path id="Trazado_750745" data-name="Trazado 750745" d="M336.712,74.51a3.725,3.725,0,1,1,3.722,3.725,3.723,3.723,0,0,1-3.722-3.725" fill="#aab9de" fill-rule="evenodd"/>
    <path id="Trazado_750746" data-name="Trazado 750746" d="M327.783,87.543c-.435-.771-.848-1.571-1.23-2.373l.954-.451c.37.78.771,1.556,1.2,2.305Z" fill="#aab9de" fill-rule="evenodd"/>
    <path id="Trazado_750747" data-name="Trazado 750747" d="M356.887,33.124l-.1-1.05a37.6,37.6,0,0,1,5.5-.11l-.056,1.052a37.039,37.039,0,0,0-5.346.108m15.8,2.015a35.831,35.831,0,0,0-5.147-1.448l.212-1.036a37.527,37.527,0,0,1,5.3,1.492Zm-26.15.528-.4-.977a37.024,37.024,0,0,1,5.231-1.7l.249,1.023a36.544,36.544,0,0,0-5.081,1.657m35.528,4.558a36.614,36.614,0,0,0-4.5-2.891l.5-.927a37.543,37.543,0,0,1,4.628,2.975Zm-44.681.9-.67-.819a37.65,37.65,0,0,1,4.506-3.153l.54.906a36.216,36.216,0,0,0-4.376,3.066m52.173,6.688a37.032,37.032,0,0,0-3.467-4.068l.751-.742a38.018,38.018,0,0,1,3.567,4.186ZM330.2,49l-.876-.591a37.83,37.83,0,0,1,3.4-4.325l.78.708A36.527,36.527,0,0,0,330.2,49m-4.589,9.63-1.009-.308a37.405,37.405,0,0,1,1.993-5.132l.952.452a36.667,36.667,0,0,0-1.936,4.988M324.04,69.178l-1.055,0a37.556,37.556,0,0,1,.406-5.482l1.045.153a36.466,36.466,0,0,0-.4,5.332m.535,10.857a36.978,36.978,0,0,1-1.2-5.37l1.042-.153a36.646,36.646,0,0,0,1.163,5.218Z" fill="#99a9d4" fill-rule="evenodd"/>
    <path id="Trazado_750748" data-name="Trazado 750748" d="M393.539,54.735c-.344-.788-.721-1.575-1.124-2.344l.934-.49c.413.79.8,1.6,1.158,2.411Z" fill="#aab9de" fill-rule="evenodd"/>
    <path id="Trazado_750749" data-name="Trazado 750749" d="M360.3,107.06A37.926,37.926,0,0,1,327.325,87.8l1.837-1.037a35.737,35.737,0,0,0,63.894-31.818l1.934-.843A37.854,37.854,0,0,1,360.3,107.06" fill="#aab9de" fill-rule="evenodd"/>
    <rect id="Rectángulo_356066" data-name="Rectángulo 356066" width="0.528" height="0.684" transform="translate(340.173 100.398)" fill="#aab9de"/>
    <path id="Trazado_750750" data-name="Trazado 750750" d="M340.7,76.786h-.528V75.4h.528Zm0,2.779h-.528v-1.39h.528Zm0,2.776h-.528V80.953h.528Zm0,2.778h-.528V83.731h.528Zm0,2.779h-.528V86.51h.528Zm0,2.776h-.528V89.286h.528Zm0,2.779h-.528V92.065h.528Zm0,2.778h-.528V94.843h.528Zm0,2.776h-.528V97.619h.528Z" fill="#aab9de" fill-rule="evenodd"/>
    <rect id="Rectángulo_356067" data-name="Rectángulo 356067" width="0.528" height="0.687" transform="translate(340.173 73.323)" fill="#aab9de"/>
    <rect id="Rectángulo_356068" data-name="Rectángulo 356068" width="0.526" height="0.685" transform="translate(361.817 105.592)" fill="#aab9de"/>
    <path id="Trazado_750751" data-name="Trazado 750751" d="M362.343,91.462h-.526V90.177h.526Zm0,2.569h-.526V92.749h.526Zm0,2.57h-.526V95.316h.526Zm0,2.57h-.526V97.886h.526Zm0,2.567h-.526v-1.285h.526Zm0,2.57h-.526v-1.285h.526Z" fill="#aab9de" fill-rule="evenodd"/>
    <rect id="Rectángulo_356069" data-name="Rectángulo 356069" width="0.526" height="0.684" transform="translate(361.817 88.208)" fill="#aab9de"/>
    <rect id="Rectángulo_356070" data-name="Rectángulo 356070" width="0.528" height="0.687" transform="translate(382.435 97.883)" fill="#aab9de"/>
    <path id="Trazado_750752" data-name="Trazado 750752" d="M382.963,82.295h-.528V80.881h.528Zm0,2.836h-.528V83.714h.528Zm0,2.834h-.528V86.548h.528Zm0,2.834h-.528V89.382h.528Zm0,2.834h-.528V92.216h.528Zm0,2.834h-.528V95.05h.528Z" fill="#aab9de" fill-rule="evenodd"/>
    <rect id="Rectángulo_356071" data-name="Rectángulo 356071" width="0.528" height="0.687" transform="translate(382.435 78.777)" fill="#aab9de"/>
    <path id="Trazado_750753" data-name="Trazado 750753" d="M258.751,152.765l-108.726.267V124.987l40.792-27.224,21.025-23.821,12.334,5.152,34.575,48.789Z" fill="#cfcfe2" fill-rule="evenodd"/>
    <path id="Trazado_750754" data-name="Trazado 750754" d="M237.044,45.391l-35.809,40.6h14.094v60.223h43.422V85.986h8.233V79.339Z" fill="#f6f6f6" fill-rule="evenodd"/>
    <path id="Trazado_750755" data-name="Trazado 750755" d="M128.094,16.731,134.148,29.1,121.828,29Z" fill="#99a9d4" fill-rule="evenodd"/>
    <path id="Trazado_750756" data-name="Trazado 750756" d="M275.956,145.035l-12.25,6.3L263.574,139Z" fill="#99a9d4" fill-rule="evenodd"/>
    <path id="Trazado_750757" data-name="Trazado 750757" d="M123.793,124.944a4.193,4.193,0,1,1,4.157,4.234,4.185,4.185,0,0,1-4.157-4.234" fill="#99a9d4" fill-rule="evenodd"/>
    <path id="Trazado_750758" data-name="Trazado 750758" d="M123.793,97.725a4.193,4.193,0,1,1,4.157,4.227,4.185,4.185,0,0,1-4.157-4.227" fill="#99a9d4" fill-rule="evenodd"/>
    <path id="Trazado_750759" data-name="Trazado 750759" d="M145.832,124.985a4.194,4.194,0,1,1,4.193,4.193,4.194,4.194,0,0,1-4.193-4.193" fill="#99a9d4" fill-rule="evenodd"/>
    <path id="Trazado_750760" data-name="Trazado 750760" d="M145.832,144.754a4.194,4.194,0,1,1,4.193,4.193,4.194,4.194,0,0,1-4.193-4.193" fill="#99a9d4" fill-rule="evenodd"/>
    <path id="Trazado_750761" data-name="Trazado 750761" d="M130.412,125.64h-2.425v-1.306h2.425Zm6.806,0h-3.4v-1.306h3.4Zm6.806,0h-3.4v-1.306h3.4Zm6.654.147H149.37v-.147h-1.948v-1.306h3.256Zm0,6.8h-1.309v-3.4h1.309Zm0,6.806h-1.309v-3.4h1.309Zm0,6.8h-1.309v-3.4h1.309Z" fill="#99a9d4" fill-rule="evenodd"/>
    <path id="Trazado_750762" data-name="Trazado 750762" d="M186.627,97.768a4.195,4.195,0,1,1,4.191,4.188,4.193,4.193,0,0,1-4.191-4.188" fill="#99a9d4" fill-rule="evenodd"/>
    <path id="Trazado_750763" data-name="Trazado 750763" d="M186.627,145.174a4.195,4.195,0,1,1,4.191,4.188,4.192,4.192,0,0,1-4.191-4.188" fill="#99a9d4" fill-rule="evenodd"/>
    <path id="Trazado_750764" data-name="Trazado 750764" d="M130.4,98.419h-2.416V97.11H130.4Zm6.8,0h-3.4V97.11h3.4Zm6.8,0h-3.4V97.11h3.4Zm6.8,0h-3.4V97.11h3.4Zm6.8,0h-3.4V97.11h3.4Zm6.8,0h-3.4V97.11h3.4Zm6.8,0h-3.4V97.11h3.4Zm6.8,0h-3.4V97.11h3.4Zm6.8,0h-3.4V97.11h3.4Zm6.647.154h-1.309v-.154h-1.935V97.11h3.244Zm0,6.806h-1.309v-3.4h1.309Zm0,6.8h-1.309v-3.4h1.309Zm0,6.8h-1.309v-3.4h1.309Zm0,6.8h-1.309v-3.4h1.309Zm0,6.8h-1.309v-3.4h1.309Zm0,6.806h-1.309v-3.4h1.309Zm0,6.8h-1.309v-3.4h1.309Z" fill="#99a9d4" fill-rule="evenodd"/>
    <path id="Trazado_750765" data-name="Trazado 750765" d="M123.793,45.353a4.193,4.193,0,1,1,4.157,4.229,4.185,4.185,0,0,1-4.157-4.229" fill="#99a9d4" fill-rule="evenodd"/>
    <path id="Trazado_750766" data-name="Trazado 750766" d="M232.849,45.391a4.195,4.195,0,1,1,4.191,4.193,4.191,4.191,0,0,1-4.191-4.193" fill="#99a9d4" fill-rule="evenodd"/>
    <rect id="Rectángulo_356072" data-name="Rectángulo 356072" width="1.703" height="1.309" transform="translate(235.341 44.735)" fill="#99a9d4"/>
    <path id="Trazado_750767" data-name="Trazado 750767" d="M136.5,46.044h-3.4V44.735h3.4Zm6.818,0h-3.408V44.735h3.408Zm6.813,0h-3.4V44.735h3.4Zm6.821,0h-3.41V44.735h3.41Zm6.815,0h-3.408V44.735h3.408Zm6.816,0H167.18V44.735h3.405Zm6.815,0H174V44.735h3.4Zm6.82,0h-3.41V44.735h3.41Zm6.813,0h-3.408V44.735h3.408Zm6.818,0h-3.41V44.735h3.41Zm6.816,0h-3.408V44.735h3.408Zm6.82,0h-3.41V44.735h3.41Zm6.813,0h-3.41V44.735h3.41Zm6.818,0h-3.41V44.735h3.41Zm6.816,0h-3.41V44.735h3.41Z" fill="#99a9d4" fill-rule="evenodd"/>
    <rect id="Rectángulo_356073" data-name="Rectángulo 356073" width="1.703" height="1.309" transform="translate(127.986 44.735)" fill="#99a9d4"/>
    <path id="Trazado_750768" data-name="Trazado 750768" d="M127.941,161.377a1.308,1.308,0,0,1-1.309-1.309V27.147a1.309,1.309,0,1,1,2.618,0V160.068a1.308,1.308,0,0,1-1.309,1.309" fill="#99a9d4" fill-rule="evenodd"/>
    <path id="Trazado_750769" data-name="Trazado 750769" d="M263.588,146.476H113.039a1.309,1.309,0,0,1,0-2.618H263.588a1.309,1.309,0,0,1,0,2.618" fill="#99a9d4" fill-rule="evenodd"/>
    <path id="Trazado_750770" data-name="Trazado 750770" d="M150.755,126.075,149.3,123.9l40.648-27.13,46.109-52.247,1.965,1.734-46.479,52.6Z" fill="#99a9d4" fill-rule="evenodd"/>
    <path id="Trazado_750771" data-name="Trazado 750771" d="M253.2,63.162a2.616,2.616,0,0,1-1.619-4.671L271.9,42.5h31.573a2.618,2.618,0,0,1,0,5.236H273.711L254.823,62.6a2.618,2.618,0,0,1-1.621.559" fill="#99a9d4" fill-rule="evenodd"/>
    <path id="Trazado_750772" data-name="Trazado 750772" d="M276.684,5.147a3.869,3.869,0,0,0-2.738,6.6,3.961,3.961,0,0,0,5.471,0,3.867,3.867,0,0,0-2.733-6.6m-.005,12.968A9.1,9.1,0,0,1,270.25,2.582a9.31,9.31,0,0,1,12.87,0,9.105,9.105,0,0,1-.005,12.87,9.042,9.042,0,0,1-6.436,2.663" fill="#99a9d4" fill-rule="evenodd"/>
    <path id="Trazado_750773" data-name="Trazado 750773" d="M276.607,29.824a2.614,2.614,0,0,1-1.852-4.464L293.029,7.086a2.617,2.617,0,1,1,3.7,3.7L278.456,29.06a2.6,2.6,0,0,1-1.849.764" fill="#99a9d4" fill-rule="evenodd"/>
    <path id="Trazado_750774" data-name="Trazado 750774" d="M294.8,23.268a3.868,3.868,0,0,0-2.732,6.6,3.967,3.967,0,0,0,5.47,0,3.881,3.881,0,0,0-.005-5.473,3.821,3.821,0,0,0-2.733-1.131m0,12.966A9.1,9.1,0,0,1,288.364,20.7a9.313,9.313,0,0,1,12.868,0A9.1,9.1,0,0,1,294.8,36.234" fill="#99a9d4" fill-rule="evenodd"/>
    <path id="Trazado_750775" data-name="Trazado 750775" d="M121.416,148.676a6.492,6.492,0,1,0,1.912-8.977,6.493,6.493,0,0,0-1.912,8.977" fill="#4b5da8" fill-rule="evenodd"/>
    <path id="Trazado_750776" data-name="Trazado 750776" d="M116.632,218.226s2.036,2.325,2.9,3.273,1.953.759,1.427,1.467-1.84,3.776-1.672,5.125,1.763,9.935-.029,10.738-3.765-2.772-5.91-8.043-3.576-4.916-3.9-8.811c-.1-1.216,7.193-3.749,7.193-3.749" fill="#142d4d" fill-rule="evenodd"/>
    <path id="Trazado_750777" data-name="Trazado 750777" d="M118.486,216.855l-1.854,1.371,3.744,4.4,1.816-1.295Z" fill="#eda583" fill-rule="evenodd"/>
    <path id="Trazado_750778" data-name="Trazado 750778" d="M211.675,185.88s.97-2.884,1.354-4.083-.321-2.027.541-1.93,4.1-.3,5.165-1.105,7.553-6.388,9.117-5.267-.5,4.556-3.9,8.972-2.407,5.454-5.548,7.652c-.977.684-6.724-4.239-6.724-4.239" fill="#142d4d" fill-rule="evenodd"/>
    <path id="Trazado_750779" data-name="Trazado 750779" d="M209.953,185.193l2.058.819,1.7-5.286-1.979-.826Z" fill="#eda583" fill-rule="evenodd"/>
    <path id="Trazado_750780" data-name="Trazado 750780" d="M152.679,165.647c-.159,1.1-.3,3.057-.423,5.286-.05.915-.1,1.873-.144,2.831-.2,4.645-.326,9.344-.326,9.344s-1.7,18.9-4.787,22.19c-6.085,6.482-26.412,18.286-26.412,18.286l-5.648-7.037s11.239-7.032,15.363-11.023c4.786-4.635,8.693-6.3,8.213-11.813-.317-3.672-2.944-15.559-2.966-15.667-1.722-5.764-3.658-13.358-2.913-16.29.624-2.464,20.043,3.893,20.043,3.893" fill="#0f3d86" fill-rule="evenodd"/>
    <path id="Trazado_750781" data-name="Trazado 750781" d="M182.556,163.157c-2.157-1.991-10.584-4.882-16.011-6.268-8.624-2.267-14.933-4.474-14.933-4.474s-17.365,16.933-15.5,18.485c3.535,2.936,15.655-.2,18.335-.21l5.317-.357s5.322-.3,9.52-.166c5.624.185,6.244,2.149,11.777,4.752,4.957,2.33,30.869,12.656,30.869,12.656l2.9-8.2s-28.924-13.124-32.269-16.215" fill="#0f3d86" fill-rule="evenodd"/>
    <path id="Trazado_750782" data-name="Trazado 750782" d="M161.473,116.546a21.777,21.777,0,0,1-2.243,2.193c-.891.67-1.21-3.435-1.21-3.435Z" fill="#f4ae7c" fill-rule="evenodd"/>
    <path id="Trazado_750783" data-name="Trazado 750783" d="M157.146,114.841s-.764-3-.867-3.458a7.469,7.469,0,0,1,1.054-3.05,8.631,8.631,0,0,1,2.459-2.932,1.318,1.318,0,0,1,1.1.125,2.6,2.6,0,0,1,.929.9,1.553,1.553,0,0,1,1.266.8,1.355,1.355,0,0,1,1.121,1.006s.836.1.968.79a10.469,10.469,0,0,0-.526,1.739,30.736,30.736,0,0,1-3.18,5.78s-1.656,1.057-4.327-1.7" fill="#f4ae7c" fill-rule="evenodd"/>
    <path id="Trazado_750784" data-name="Trazado 750784" d="M159.6,105.751s-1.628,3.494-1.1,3.823a.98.98,0,0,0,.927.135l-.016,1.741s.638,1.16,1.714.122c0,0,.485,1.148,1.408.024,0,0,.655.613,1.174.168a12.945,12.945,0,0,0,1.47-2.737s.053-.637-.9-.85a1.371,1.371,0,0,0-1.143-1,1.433,1.433,0,0,0-1.258-.8s-.783-1.462-2.085-.98a3.8,3.8,0,0,0-.192.351" fill="#f4ae7c" fill-rule="evenodd"/>
    <path id="Trazado_750785" data-name="Trazado 750785" d="M156.32,111.27a13.146,13.146,0,0,1,3.614-2.012c.349-.087.7-.109.91.18s.062.96-.807,1.709a9.819,9.819,0,0,0-1.648,2.116s-1.117.509-2.069-1.993" fill="#f4ae7c" fill-rule="evenodd"/>
    <path id="Trazado_750786" data-name="Trazado 750786" d="M126.272,125.475s11.1,3.677,17.735,4.294c2.082.192,12.226-15.24,13.033-15.144s4.174,4.046,4.174,4.046-12.473,19.458-13.782,19.614-22.164-3.571-24.078-4.873-3.357-3.489-2.25-5.706c1.551-3.11,5.168-2.231,5.168-2.231" fill="#0f3d86" fill-rule="evenodd"/>
    <path id="Trazado_750787" data-name="Trazado 750787" d="M126.017,98.056s3.775,2.085,3.242,3.129c-.442.865,3.1,3.012,3.636,3.394s-.711,1.7-.812,2.238,1.576,5.182.437,6.088-7.848,2.524-10.341,1.933-8.225-6.816-9.13-10.416,6.344-9.988,12.968-6.366" fill="#f4ae7c" fill-rule="evenodd"/>
    <path id="Trazado_750788" data-name="Trazado 750788" d="M128.3,114.387s.063.418.168,1.061c.046.269.1.582.159.913.045.257.1.526.144.8a24,24,0,0,0,1.232,4.724c.831,1.672-8.811-3.708-8.811-3.708a90.188,90.188,0,0,0-3.017-12.372c-2.087-6.412,10.125,8.578,10.125,8.578" fill="#f4ae7c" fill-rule="evenodd"/>
    <path id="Trazado_750789" data-name="Trazado 750789" d="M126.807,98.527a5.831,5.831,0,0,0-5.3-5.082c-4.836-.5-7.836,7.772-8.391,8.367s-4.178,3.312,2,8.667c5.435,4.707,5.435,4.323,5.435,4.323s-.668-3.677-.3-4.623c.574-1.474,3.059-2.807,3.059-2.807s-3.05-2.265-1.563-3.821,2.848-4.539,5.055-5.024" fill="#0f3970" fill-rule="evenodd"/>
    <path id="Trazado_750790" data-name="Trazado 750790" d="M120.34,106.865c-.42-.31-2.056-1.751-2.9.259s3.744,3.751,4.035,3.622,2.389-1.271-1.134-3.881" fill="#f4ae7c" fill-rule="evenodd"/>
    <path id="Trazado_750791" data-name="Trazado 750791" d="M121.034,117.242s5.857,3.12,8.893,3.331l1.448,3.487-10.925-5.454Z" fill="#dcdbef" fill-rule="evenodd"/>
    <path id="Trazado_750792" data-name="Trazado 750792" d="M151.613,152.415l-1.811-1.568-17.055,18.34,1.676,2.2Z" fill="#9d7558" fill-rule="evenodd"/>
    <path id="Trazado_750793" data-name="Trazado 750793" d="M135.316,130.254q.483,2.129,1.064,4.243c.85,3.091,1.839,6.134,2.891,9.04.375,1.037.762,2.058,1.148,3.057a61.689,61.689,0,0,1,3.958,23.275s-8.888,4.765-11.755,4.63a179.59,179.59,0,0,1-12.068-25.9q-.558-1.555-1.069-3.119v0c-4.836-11.445-5.009-22.067.966-26.865.221.069,13.182,4.188,14.865,11.647" fill="#0f3970" fill-rule="evenodd"/>
    <path id="Trazado_750794" data-name="Trazado 750794" d="M120.9,149.552s6.3,13.05,6.844,26.873c.075,1.871,10.822-3.758,10.822-3.758Z" fill="#0f3970" fill-rule="evenodd"/>
    <path id="Trazado_750795" data-name="Trazado 750795" d="M128.3,114.387s.063.418.168,1.061c.046.269.1.582.159.913-4.325-.291-6.033-1.422-6.083-1.455a35.99,35.99,0,0,0,5.756-.519" fill="#ed7d5b" fill-rule="evenodd"/>
    <path id="Trazado_750796" data-name="Trazado 750796" d="M130.013,120.78a11.782,11.782,0,0,1,2.411,2.586c.135.334-1.131.5-1.131.5Z" fill="#406fb5" fill-rule="evenodd"/>
    <path id="Trazado_750797" data-name="Trazado 750797" d="M152.256,170.933c-.05.915-.1,1.873-.144,2.831l-11.234-1.621c.081,0,1.38,0,3.033-.086,1.705-.089,8.345-1.124,8.345-1.124" fill="#0f3970" fill-rule="evenodd"/>
    <path id="Trazado_750798" data-name="Trazado 750798" d="M124.526,126.769s-5.946,15.418-7.07,22.617c-.353,2.26.985,21.8.824,22.673s-6.912,2.512-6.912,2.512-2.181-24.154-2.26-25.59,7.421-25.68,8.97-27.683,2.358-1.741,4.7-.384c3.29,1.907,1.746,5.855,1.746,5.855" fill="#0f3d86" fill-rule="evenodd"/>
    <path id="Trazado_750799" data-name="Trazado 750799" d="M132.2,123.308s3.758,8.309-2.438,13.023c-5.552,4.225-12.151,12.62-13.453,16.643l-1.5,5.158-1.712-4.459s-1.556-7.82,16.09-18.069c0,0,5.888-2.4,1.729-12.635,0,0,1.153-.105,1.28.339" fill="#6998d0" fill-rule="evenodd"/>
    <path id="Trazado_750800" data-name="Trazado 750800" d="M102.516,184.235,106.6,213.2l31.4-6.428-6.264-25.382Z" fill="#e3bb9b" fill-rule="evenodd"/>
    <path id="Trazado_750801" data-name="Trazado 750801" d="M100.962,210.13A12.833,12.833,0,0,1,106.6,213.2l-4.085-28.964-1.431.1Z" fill="#9d7558" fill-rule="evenodd"/>
    <path id="Trazado_750802" data-name="Trazado 750802" d="M102.516,184.235l4.827,11.309c.653,1.241,1.311,2.32,3.444,1.933l20.237-3.274c1.8-.293,1.758-1.215,1.653-2.459L131.67,181.4Z" fill="#9d7558" fill-rule="evenodd"/>
    <path id="Trazado_750803" data-name="Trazado 750803" d="M119.447,195.793l.648,3.213,3.761-.754-.776-3.05Z" fill="#9d7558" fill-rule="evenodd"/>
    <path id="Trazado_750804" data-name="Trazado 750804" d="M108.6,183.642a5.338,5.338,0,0,1,1.79-3.007,8.274,8.274,0,0,1,1.349-.97c.229-.824,2-1.671,4.245-1.976,2.37-.324,4.4.081,4.68.9.156.05.311.106.461.163a5.368,5.368,0,0,1,3.326,3.341l-1.1.108a4.431,4.431,0,0,0-2.62-2.466c-.158-.063-.326-.121-.5-.173a7.861,7.861,0,0,1-3.813,1.378,7.528,7.528,0,0,1-4.159-.367,7.262,7.262,0,0,0-1.177.845,4.4,4.4,0,0,0-1.369,2.109Z" fill="#9d7558" fill-rule="evenodd"/>
    <path id="Trazado_750805" data-name="Trazado 750805" d="M113.035,183.07a3.71,3.71,0,0,1-.588-1.03s-.1-.718-.2-1.223c-.033-.16-.067-.3-.1-.389a6.807,6.807,0,0,1-.564-2.1c-.041-.72.036-2.824.074-3.833a46.655,46.655,0,0,0,5.509-1.7c.711,1.033,3.185,4.664,3.317,5.428.014.086.026.173.031.254a8.7,8.7,0,0,1-.24,1.773c-.007.149-.173,1.628-.543,1.873a1.463,1.463,0,0,1-1.4.194,3.472,3.472,0,0,1-1.845.495,2.156,2.156,0,0,1-1.9.166s-1.021.5-1.554.086" fill="#f4ae7c" fill-rule="evenodd"/>
    <path id="Trazado_750806" data-name="Trazado 750806" d="M129.495,104.207c-.307.259-1.554-.756-.809-1.381.4-.334,1.309.961.809,1.381" fill="#0f3970" fill-rule="evenodd"/>
    <path id="Trazado_750807" data-name="Trazado 750807" d="M128.054,101.531c.509-.4.836.026.567.44a14.5,14.5,0,0,1-1.768,2,3.3,3.3,0,0,1,1.2-2.442" fill="#0f3970" fill-rule="evenodd"/>
  </g>
</svg>
