<svg id="iphone" xmlns="http://www.w3.org/2000/svg" width="27.145" height="46.834" viewBox="0 0 27.145 46.834">
  <path id="Trazado_748457" data-name="Trazado 748457" d="M153.048,54.5a.806.806,0,1,0,.806.806A.807.807,0,0,0,153.048,54.5Z" transform="translate(-146.753 -49.011)" fill="#57dbd8"/>
  <path id="Trazado_748458" data-name="Trazado 748458" d="M137.31,33.273A3.277,3.277,0,0,0,134.037,30h-3.022a3.273,3.273,0,1,0,0,6.547h3.022A3.277,3.277,0,0,0,137.31,33.273Zm-8.057,0a1.765,1.765,0,0,1,1.763-1.763h3.022a1.763,1.763,0,1,1,0,3.525h-3.022A1.765,1.765,0,0,1,129.253,33.273Z" transform="translate(-124.72 -26.978)" fill="#57dbd8"/>
  <path id="Trazado_748459" data-name="Trazado 748459" d="M226.519,125.042a.753.753,0,0,0,.534-.221l1.109-1.109a.755.755,0,1,0-1.068-1.068l-1.109,1.109a.755.755,0,0,0,.534,1.289Z" transform="translate(-212.869 -110.092)" fill="#57dbd8"/>
  <path id="Trazado_748460" data-name="Trazado 748460" d="M181.7,150.223a4.2,4.2,0,0,0-2.165.628,4.2,4.2,0,0,0-2.165-.628,3.742,3.742,0,0,0-3,1.508,4.686,4.686,0,0,0-.638,4.142c.779,2.757,2.491,4.539,4.363,4.539a3.044,3.044,0,0,0,1.442-.371,3.045,3.045,0,0,0,1.442.371h0c1.424,0,2.771-1.031,3.7-2.829a.755.755,0,0,0-.42-1.058,1.281,1.281,0,0,1,.405-2.489.755.755,0,0,0,.712-.968A3.847,3.847,0,0,0,181.7,150.223Zm.187,5.094a2.8,2.8,0,0,0,1.075,2.2,2.641,2.641,0,0,1-1.984,1.384,1.712,1.712,0,0,1-1-.361.755.755,0,0,0-.884,0,1.711,1.711,0,0,1-1,.361c-1.141,0-2.337-1.414-2.909-3.439a3.2,3.2,0,0,1,.388-2.82,2.243,2.243,0,0,1,1.8-.908,2.855,2.855,0,0,1,1.709.63.755.755,0,0,0,.912,0,2.855,2.855,0,0,1,1.709-.63,2.238,2.238,0,0,1,1.878,1.02A2.808,2.808,0,0,0,181.888,155.318Z" transform="translate(-165.887 -135.093)" fill="#57dbd8"/>
  <path id="Trazado_748461" data-name="Trazado 748461" d="M121.523,0H101.106a3.368,3.368,0,0,0-3.364,3.364V43.47a3.368,3.368,0,0,0,3.364,3.364h20.417a3.368,3.368,0,0,0,3.364-3.364V3.364A3.368,3.368,0,0,0,121.523,0Zm1.854,43.47a1.856,1.856,0,0,1-1.853,1.853H101.106a1.855,1.855,0,0,1-1.853-1.853V3.364a1.855,1.855,0,0,1,1.853-1.853h20.417a1.855,1.855,0,0,1,1.853,1.853V43.47Z" transform="translate(-97.742 0)" fill="#57dbd8"/>
</svg>
