<svg xmlns="http://www.w3.org/2000/svg" width="50.829" height="50.632" viewBox="0 0 50.829 50.632">
  <g id="finance_1_" data-name="finance (1)" transform="translate(-2.5 -2.684)">
    <path id="Trazado_748421" data-name="Trazado 748421" d="M78.412,44.162l.144-1.049A11.029,11.029,0,0,1,76.73,42.7l-.32,1.01A12.1,12.1,0,0,0,78.412,44.162Z" transform="translate(-34.365 -18.606)" fill="#57dbd8"/>
    <path id="Trazado_748422" data-name="Trazado 748422" d="M91.834,39.1a11,11,0,0,1-4.973,2.273l.186,1.042A12.067,12.067,0,0,0,92.5,39.919Z" transform="translate(-39.225 -16.93)" fill="#57dbd8"/>
    <path id="Trazado_748423" data-name="Trazado 748423" d="M45.7,5.97a7.592,7.592,0,0,0-5.333,2.175V4.862a2.183,2.183,0,0,0-2.184-2.178h-21.7A2.183,2.183,0,0,0,14.3,4.862V8.384a3.206,3.206,0,0,0-2.67,3.157v1.994a3.206,3.206,0,0,0,2.67,3.157v.381a3.206,3.206,0,0,0-2.67,3.157v1.994A3.206,3.206,0,0,0,14.3,25.38V26.7H8.993l-.517.645,1.189,5.314a2.382,2.382,0,0,0-.972,1.92v.206a2.37,2.37,0,0,0,.2.958C5.271,38.061,2.5,42.727,2.5,46.627c0,6,6.583,6.688,11.534,6.688s11.539-.693,11.539-6.688c0-3.9-2.771-8.567-6.4-10.886a2.37,2.37,0,0,0,.2-.957v-.206a2.378,2.378,0,0,0-.09-.649h8.089l.216.539V37.68a6.9,6.9,0,0,0,1.761,4.6l1.117,1.246v2.962h-.487a1.74,1.74,0,0,0-1.738,1.738v2.822a1.736,1.736,0,0,0,1.738,1.738H46.393a1.735,1.735,0,0,0,1.733-1.738V48.227a1.739,1.739,0,0,0-1.733-1.738h-.488V44.677a5.4,5.4,0,0,1,.844-2.9,6.419,6.419,0,0,0,1.017-3.472V32.745a2.713,2.713,0,0,0-2.535-2.731,2.658,2.658,0,0,0-1.06.183,2.629,2.629,0,0,0-3.129-1.423,2.62,2.62,0,0,0-.675-1.5V19.052A7.628,7.628,0,1,0,45.7,5.97ZM12.688,13.535V11.54A2.146,2.146,0,0,1,14.3,9.465V15.61a2.146,2.146,0,0,1-1.611-2.075Zm0,8.688V20.229A2.147,2.147,0,0,1,14.3,18.153V24.3a2.147,2.147,0,0,1-1.611-2.076ZM9.654,27.758h8.765l-1,4.473a2.39,2.39,0,0,0-.424-.038H11.077a2.39,2.39,0,0,0-.423.037Zm8.666,7.026a1.327,1.327,0,0,1-1.325,1.325H11.077a1.327,1.327,0,0,1-1.325-1.325v-.206a1.327,1.327,0,0,1,1.325-1.325h5.917a1.327,1.327,0,0,1,1.325,1.325ZM19.08,26.7h-.163v-.158a.664.664,0,0,1,.661-.666h2.2a.664.664,0,0,1,.661.666v2.2a.662.662,0,0,1-.661.661h-2.2a.661.661,0,0,1-.409-.141l.428-1.913Zm5.434,19.928c0,3.893-3.232,5.629-10.48,5.629S3.559,50.521,3.559,46.627c0-3.6,2.592-7.912,5.969-10.033a2.374,2.374,0,0,0,1.549.574h5.917a2.374,2.374,0,0,0,1.55-.574c3.377,2.121,5.969,6.438,5.969,10.034ZM18.656,32.869a2.4,2.4,0,0,0-.248-.211l.521-2.328a1.722,1.722,0,0,0,.649.127h2.2a1.722,1.722,0,0,0,1.72-1.72v-2.2a1.725,1.725,0,0,0-1.72-1.725h-2.2a1.725,1.725,0,0,0-1.72,1.725V26.7h-2.5V4.862a1.123,1.123,0,0,1,1.125-1.119h21.7a1.123,1.123,0,0,1,1.125,1.119V26.571a2.644,2.644,0,0,0-1.6-.052V20.88a2.634,2.634,0,0,0-5.267,0v9.513l-.685-1.027a3.659,3.659,0,0,0-.609-.7V26.541a1.725,1.725,0,0,0-1.72-1.725h-2.2a1.725,1.725,0,0,0-1.72,1.725v2.2a1.712,1.712,0,0,0,.384,1.081,1.743,1.743,0,0,0,.123.691l.944,2.359h-8.3ZM26.6,28.451l-.039.03v-1.94a.665.665,0,0,1,.661-.666h2.2a.665.665,0,0,1,.661.666v1.469a3.61,3.61,0,0,0-3.485.441ZM44.862,50.2H42.52V49.082h2.342ZM43.354,31.3v4.1h1.059V31.3c0-.016,0-.032,0-.048a1.565,1.565,0,0,1,.781-.176,1.645,1.645,0,0,1,1.514,1.673v5.561a5.367,5.367,0,0,1-.851,2.9,6.463,6.463,0,0,0-1.01,3.469v1.812H31.531V43.324l-.135-.353-1.252-1.4a5.834,5.834,0,0,1-1.491-3.894V34.366l-.038-.2-1.621-4.051a.7.7,0,0,1,.235-.814,2.532,2.532,0,0,1,1.509-.5,2.567,2.567,0,0,1,2.136,1.145l.772,1.159.8,5.382,1.053-.078V20.88a1.575,1.575,0,0,1,3.149,0V34.533h1.059v-6.88A1.572,1.572,0,0,1,40,29.048v5.914h1.059V29.905a1.553,1.553,0,0,1,.727-.18,1.572,1.572,0,0,1,1.57,1.57Zm4.783-16.082a1.9,1.9,0,0,1-.693,1.291,1.927,1.927,0,0,1-1.185.43v1.123H45.141V16.834l-1.587-.168.117-1.107,2.481.252a.8.8,0,0,0,.872-.71.8.8,0,0,0-.71-.872l-1.341-.14a1.914,1.914,0,0,1,.168-3.817V9.139h1.118v1.235l1.587.168-.112,1.107L45.247,11.4a.795.795,0,0,0-.162,1.582l1.347.14a1.909,1.909,0,0,1,1.7,2.1Z" fill="#57dbd8"/>
    <path id="Trazado_748424" data-name="Trazado 748424" d="M33.843,18.278H48.435a1.654,1.654,0,0,0,1.654-1.654V13.242a1.653,1.653,0,0,0-1.654-1.649H33.843a1.648,1.648,0,0,0-1.649,1.649v3.381a1.649,1.649,0,0,0,1.649,1.654Zm10.367-3.9h1.554v1.118H44.21Zm-7.69,0H40.5v1.118H36.52Z" transform="translate(-13.807 -4.142)" fill="#57dbd8"/>
    <path id="Trazado_748425" data-name="Trazado 748425" d="M35.184,29.092H32.86A1.66,1.66,0,0,0,31.2,30.75v2.324a1.66,1.66,0,0,0,1.658,1.658h2.324a1.66,1.66,0,0,0,1.659-1.658V30.75a1.66,1.66,0,0,0-1.659-1.658Zm.6,3.982a.6.6,0,0,1-.6.6H32.86a.6.6,0,0,1-.6-.6V30.75a.6.6,0,0,1,.6-.6h2.324a.6.6,0,0,1,.6.6Z" transform="translate(-13.345 -12.278)" fill="#57dbd8"/>
    <path id="Trazado_748426" data-name="Trazado 748426" d="M49.478,29.092H47.154A1.66,1.66,0,0,0,45.5,30.75v2.324a1.66,1.66,0,0,0,1.659,1.658h2.324a1.66,1.66,0,0,0,1.658-1.658V30.75a1.66,1.66,0,0,0-1.658-1.658Zm.6,3.982a.6.6,0,0,1-.6.6H47.154a.6.6,0,0,1-.6-.6V30.75a.6.6,0,0,1,.6-.6h2.324a.6.6,0,0,1,.6.6Z" transform="translate(-19.991 -12.278)" fill="#57dbd8"/>
    <path id="Trazado_748427" data-name="Trazado 748427" d="M22.658,76.671l-1.382-.142a.863.863,0,0,1,.176-1.717l2.553.262.109-1.053-1.672-.172V72.536H21.384v1.213a1.922,1.922,0,0,0-.215,3.834l1.381.142a.863.863,0,0,1-.176,1.717L19.82,79.18l-.108,1.053,1.672.171v1.3h1.059v-1.2h.021a1.922,1.922,0,0,0,.194-3.834Z" transform="translate(-7.878 -32.478)" fill="#57dbd8"/>
  </g>
</svg>
