<svg id="promotion" xmlns="http://www.w3.org/2000/svg" width="48" height="52.87" viewBox="0 0 48 52.87">
  <path id="Trazado_748465" data-name="Trazado 748465" d="M138.406,196.187a2.254,2.254,0,0,0-1.391.478l1.443-2.282a.69.69,0,1,0-1.167-.738l-1.412,2.233a2.268,2.268,0,1,0-2.222,1.811,2.254,2.254,0,0,0,1.367-.461l-1.506,2.382a.69.69,0,1,0,1.167.738l1.505-2.38a2.268,2.268,0,1,0,2.215-1.782Zm-4.748.119a.888.888,0,1,1,.887-.889A.889.889,0,0,1,133.658,196.306Zm4.748,3.035a.887.887,0,1,1,.887-.887A.888.888,0,0,1,138.406,199.341Z" transform="translate(-120.505 -173.158)" fill="#57dbd8"/>
  <path id="Trazado_748466" data-name="Trazado 748466" d="M140.441,442.85h-7.791a.691.691,0,1,0,0,1.381h7.791a.691.691,0,0,0,0-1.381Z" transform="translate(-121.016 -395.915)" fill="#57dbd8"/>
  <path id="Trazado_748467" data-name="Trazado 748467" d="M73.176,42.758a2.8,2.8,0,0,0,.992-1.045,2.771,2.771,0,0,0,.225-2.14A2.8,2.8,0,0,0,73.026,37.9a2.846,2.846,0,0,0-1.409-.341L69.8,31.506a.758.758,0,0,0-1.418-.085,16.754,16.754,0,0,1-4.94,6.5V14.364A5.4,5.4,0,0,0,58.029,9H37.164a5.4,5.4,0,0,0-5.414,5.364V56.506a5.4,5.4,0,0,0,5.414,5.364H58.029a5.4,5.4,0,0,0,5.414-5.364V47.031c3.584-.732,7.673.828,10.407,2.619a.761.761,0,0,0,.867-.024.746.746,0,0,0,.274-.816ZM72.942,40a1.3,1.3,0,0,1-.237,1.192l-.31-1.034-.31-1.033A1.32,1.32,0,0,1,72.942,40ZM37.164,10.5H58.029a3.887,3.887,0,0,1,3.9,3.865V38.876a8.613,8.613,0,0,1-1.483.6l-.133.039-.015,0-.014.005-3.741,1.1c-.127.037-.245.08-.359.125a2.119,2.119,0,0,0,.1-.634V25.4a2.116,2.116,0,0,0-.927-1.758l-6.524-4.512a2.165,2.165,0,0,0-2.476,0L39.83,23.64h0a2.113,2.113,0,0,0-.923,1.757V40.112a2.156,2.156,0,0,0,2.165,2.142H54.116a2.151,2.151,0,0,0,.495-.059,2.8,2.8,0,0,0-.174.557,5.58,5.58,0,0,0,.273,2.612A5.611,5.611,0,0,0,55.921,47.7a2.77,2.77,0,0,0,2.941.645l3.064-.9v3.049H33.262V14.364a3.888,3.888,0,0,1,3.9-3.865ZM54.771,40.112a.649.649,0,0,1-.652.643H41.075a.649.649,0,0,1-.652-.643V25.4a.605.605,0,0,1,.278-.53l6.524-4.51a.635.635,0,0,1,.745,0l6.521,4.51a.608.608,0,0,1,.281.53Zm5.235,1.053,1.455,4.854-3.026.892a1.27,1.27,0,0,1-1.428-.256,4.393,4.393,0,0,1-.844-1.717c-.608-2.03-.162-2.594.812-2.882ZM58.029,60.37H37.164a3.887,3.887,0,0,1-3.9-3.865V51.991H61.931v4.514a3.889,3.889,0,0,1-3.9,3.865Zm7.287-15.019a10.8,10.8,0,0,0-2.4.261L61.45,40.72a10.432,10.432,0,0,0,1.578-.732l.049-.027a16.483,16.483,0,0,0,5.822-6.2l2.046,6.825,2.048,6.826A17.16,17.16,0,0,0,65.316,45.352Z" transform="translate(-31.75 -9)" fill="#57dbd8"/>
  <path id="Trazado_748468" data-name="Trazado 748468" d="M434.5,278.958a.691.691,0,0,0,.859.466l2.9-.861a.691.691,0,1,0-.394-1.325l-2.9.861A.692.692,0,0,0,434.5,278.958Z" transform="translate(-390.985 -248.396)" fill="#57dbd8"/>
  <path id="Trazado_748469" data-name="Trazado 748469" d="M426.442,254.046a.691.691,0,0,0,.974.076l2.3-1.966a.691.691,0,0,0-.9-1.05l-2.3,1.966A.69.69,0,0,0,426.442,254.046Z" transform="translate(-383.601 -224.898)" fill="#57dbd8"/>
  <path id="Trazado_748470" data-name="Trazado 748470" d="M413.038,236.8a.691.691,0,0,0,.92-.327l1.3-2.732a.691.691,0,1,0-1.247-.594l-1.3,2.732A.689.689,0,0,0,413.038,236.8Z" transform="translate(-371.313 -208.63)" fill="#57dbd8"/>
  <path id="Trazado_748471" data-name="Trazado 748471" d="M433.757,320.9l-2.579-1.581a.691.691,0,0,0-.722,1.178l2.579,1.58a.691.691,0,1,0,.722-1.178Z" transform="translate(-387.071 -285.848)" fill="#57dbd8"/>
  <path id="Trazado_748472" data-name="Trazado 748472" d="M439.612,303.441l-3-.395a.691.691,0,1,0-.18,1.369l3,.395a.715.715,0,0,0,.091.006.691.691,0,0,0,.089-1.375Z" transform="translate(-392.213 -271.478)" fill="#57dbd8"/>
</svg>
