<svg xmlns="http://www.w3.org/2000/svg" width="46.7" height="48" viewBox="0 0 46.7 48">
  <path id="distribution" d="M47.377,43.033,36.226,49.471V62.35l5.256-3.035.035-.019,5.859-3.383Zm-19.572.842-3.372-1.947,5.259-3.036h0l5.9-3.4,3.374,1.948Zm3.675,3.594V51.7h0a.636.636,0,0,1-1.1.434l-1.425-1.525-1.008.323a.639.639,0,0,1-.883-.59V44.917L23.8,43.033V55.912L34.949,62.35V49.471l-3.468-2Zm11.9-7.484,3.366,1.943-11.154,6.44-3.366-1.943Zm-15.037,5.67L30.2,46.73v3.354l-.569-.609a.637.637,0,0,0-.688-.2l-.606.195Zm11.9-7.484,1.214.7.033.02.619.357-11.154,6.44L29.08,44.61ZM25.747,54.94a.637.637,0,1,1,.639-1.1l2,1.156a.637.637,0,1,1-.638,1.1Zm5.813-18.6a16.477,16.477,0,1,1,17.1,17.424v2.512h0a.636.636,0,0,1-.319.552L42.154,60.4l-.033.02-6.176,3.566a.639.639,0,0,1-.715,0l-12.35-7.13a.639.639,0,0,1-.36-.575V41.928h0a.633.633,0,0,1,.058-.266l0-.005,0-.006.006-.012h0a.633.633,0,0,1,.1-.144l0,0,.008-.008.008-.008,0,0,.007-.006,0,0a.636.636,0,0,1,.128-.094l6.206-3.583h0l2.5-1.445Zm15.822,4.483.006-2.889-5.027-.01Zm7.006,4.622a27.771,27.771,0,0,0-5.733-.705v7.7c1.76-.31,3.37-1.87,4.6-4.236A17.965,17.965,0,0,0,54.388,45.448Zm5.03,1.9a17.811,17.811,0,0,0-3.8-1.572,19.281,19.281,0,0,1-1.237,3.021,12.047,12.047,0,0,1-2.27,3.147,15.187,15.187,0,0,0,6.642-3.891q.341-.342.661-.7Zm-3.442-2.8a18.88,18.88,0,0,1,4.253,1.8,15.125,15.125,0,0,0,2.966-8.376l-6.337-.013a28.707,28.707,0,0,1-.881,6.593Zm-7.321-1.078a29.028,29.028,0,0,1,6.089.752,27.447,27.447,0,0,0,.836-6.268l-6.919-.014-.008,3.934q0,.027,0,.055V43.47Zm6.967-14.64a17.8,17.8,0,0,0,3.8-1.573q-.319-.363-.661-.7a15.188,15.188,0,0,0-6.642-3.891,12.071,12.071,0,0,1,2.27,3.147,19.3,19.3,0,0,1,1.237,3.021Zm-6.945,1.027a27.77,27.77,0,0,0,5.712-.7,17.968,17.968,0,0,0-1.136-2.762c-1.218-2.349-2.814-3.9-4.56-4.229l-.015,7.693Zm-7.048-.7a27.8,27.8,0,0,0,5.775.7l.015-7.711C45.636,22.433,44,24,42.765,26.392a17.967,17.967,0,0,0-1.136,2.762Zm-5.032-1.9a17.8,17.8,0,0,0,3.8,1.574,19.3,19.3,0,0,1,1.237-3.021,12.069,12.069,0,0,1,2.27-3.148,15.183,15.183,0,0,0-6.57,3.817q-.381.376-.736.778Zm3.444,2.8a18.885,18.885,0,0,1-4.255-1.8,15.12,15.12,0,0,0-2.884,7.31l2.359-1.362A.636.636,0,0,1,35.9,34.2l3.271,1.889A28.459,28.459,0,0,1,40.041,30.054Zm7.36,1.082a29.041,29.041,0,0,1-6.128-.755,27.45,27.45,0,0,0-.836,6.269l6.953.014Zm7.343-.755a29.019,29.019,0,0,1-6.07.754l-.011,5.531,6.917.014a27.457,27.457,0,0,0-.836-6.3Zm5.485-2.122a18.881,18.881,0,0,1-4.253,1.8,28.718,28.718,0,0,1,.882,6.628l6.339.013A15.125,15.125,0,0,0,60.229,28.259ZM54.591,58.643a.638.638,0,1,1-.6,1.123L51.24,58.283a.638.638,0,0,1-.26-.864l.07-.13a.653.653,0,0,1,.031-.058l1.383-2.559a.638.638,0,1,1,1.123.6l-.743,1.374A19.941,19.941,0,1,0,28.409,33.613a.637.637,0,1,1-1.253-.235,21.215,21.215,0,1,1,26.025,24.5Z" transform="translate(-22.52 -16.093)" fill="#57dbd8" fill-rule="evenodd"/>
</svg>
