<svg xmlns="http://www.w3.org/2000/svg" xmlns:xlink="http://www.w3.org/1999/xlink" width="1030" height="554.541" viewBox="0 0 1030 554.541">
  <defs>
    <clipPath id="clip-path">
      <rect id="Rectángulo_44336" data-name="Rectángulo 44336" width="1030" height="554.541" fill="none"/>
    </clipPath>
    <clipPath id="clip-path-2">
      <rect id="Rectángulo_44335" data-name="Rectángulo 44335" width="1030.001" height="554.542" fill="none"/>
    </clipPath>
    <clipPath id="clip-path-3">
      <rect id="Rectángulo_44329" data-name="Rectángulo 44329" width="49.267" height="114.757" fill="none"/>
    </clipPath>
    <clipPath id="clip-path-4">
      <rect id="Rectángulo_44330" data-name="Rectángulo 44330" width="98.778" height="130.858" fill="none"/>
    </clipPath>
    <clipPath id="clip-path-5">
      <rect id="Rectángulo_44333" data-name="Rectángulo 44333" width="26.103" height="27.375" fill="none"/>
    </clipPath>
    <clipPath id="clip-path-6">
      <rect id="Rectángulo_44334" data-name="Rectángulo 44334" width="26.678" height="26.904" fill="none"/>
    </clipPath>
  </defs>
  <g id="Grupo_1019304" data-name="Grupo 1019304" transform="translate(-288 -623)">
    <g id="Grupo_1019157" data-name="Grupo 1019157" transform="translate(288 623)">
      <g id="Grupo_138330" data-name="Grupo 138330" clip-path="url(#clip-path)">
        <g id="Grupo_138329" data-name="Grupo 138329" transform="translate(0 -0.001)">
          <g id="Grupo_138328" data-name="Grupo 138328" clip-path="url(#clip-path-2)">
            <path id="Trazado_204601" data-name="Trazado 204601" d="M52.367,551.011S-56.267,421.654,39.4,308.473c77.187-91.321,150.789-14.709,190.1-131.339,45.46-134.867,218-228.961,360.839-145.846S705.207,145.45,830.212,140.02,960.091,245.109,962.242,300.87s129.917,85.563,28.988,250.817Z" transform="translate(0 0.002)" fill="#ebf3fa"/>
            <path id="Trazado_204602" data-name="Trazado 204602" d="M176.171,1069.243c-12.35-39.636,51.427-65.364,51.427-65.364s76.38,34.526,88.546,28.765-59.539-42.27-59.539-42.27c20.492-16,93.166-24.634,93.166-24.634s40.389,71.271,50.763,62.693-38.982-61.282-38.982-61.282c25.164-7.1,60.569,5.005,60.569,5.005,50.194,24.468,16.183,87.657,16.183,87.657s14.53,24.4,46.8,42.459h0a96.626,96.626,0,0,1,15.442,9.411l-5.761,3.665q-2.18-1.868-4.408-3.477a.038.038,0,0,0-.027-.019l-.065-.046c-.961-.64-2.334-1.545-4.022-2.639l-.007,0s-.006,0-.008-.005c-3.951-2.326-6.76-4.115-8.681-5.474a.077.077,0,0,1-.017-.014c-12.154-7.461-28.715-16.72-35.663-16.453a13.247,13.247,0,0,0-.448-3.427c.143,1.093.291,2.232.448,3.427,3.58,27.405-43.487,62.292-74.543,74.131s-24.01-3.526-17.217-25.511,39.895-38.385,45.916-49.141-10.5-7.173-27.917,5.885-14.926,37.2-42.718,58.834-85.73-19.673-85.73-19.673c24.46-6.655,53.919-41.224,50.847-49.164s-56.862,27.266-66.659,30.529-35.343-4.232-47.693-43.868" transform="translate(-112.935 -624.185)" fill="#dfebfd"/>
            <path id="Trazado_204603" data-name="Trazado 204603" d="M1980.816,537.91c-16.562-33.378-73.9-10.529-73.9-10.529s-28.157,69.763-39.623,73.569,12.426-64.346,12.426-64.346c-23.221,2.321-75.731,41.782-75.731,41.782s17.983,71.292,5.932,72.158-12.7-63.938-12.7-63.938c-20.733,10.994-36.2,40.8-36.2,40.8-17.4,47,43.85,66.917,43.85,66.917s5.7,24.841-4.04,56.569h0a86.708,86.708,0,0,0-4.186,15.682l6.011-1.194q.256-2.564.7-4.99a.035.035,0,0,1,.006-.029l.014-.07c.227-1.011.556-2.45.974-4.206v-.007s0,0,0-.009c1.122-3.959,1.836-6.862,2.239-8.935a.066.066,0,0,0,0-.019c3.26-12.377,8.266-28.655,12.941-32.79a11.88,11.88,0,0,1-1.835-2.5l1.835,2.5c14.669,20,66.843,13.458,94.337,1.885s13.394-17.175-4.646-27.23-49.689-.172-60.265-3.418,2.365-11.165,21.765-13.491,32.749,14.884,64.2,11.691,43.435-65.923,43.435-65.923c-20,10.848-60.551,6.681-63.48-.376s53.8-17.564,62.186-21.521,20.31-24.661,3.749-58.039" transform="translate(-1137.152 -336.215)" fill="#dfebfd"/>
            <path id="Trazado_204604" data-name="Trazado 204604" d="M2317.916,1188.779c8.444-26.923-34.87-44.489-34.87-44.489s-51.955,23.369-60.216,19.438,40.519-28.653,40.519-28.653c-13.907-10.9-63.289-16.86-63.289-16.86s-27.54,48.388-34.581,42.545,26.572-41.6,26.572-41.6c-17.094-4.859-41.172,3.325-41.172,3.325-34.146,16.566-21.016,76.12-42.969,88.355h0a65.668,65.668,0,0,0-10.507,6.377l3.912,2.5c.989-.845,1.988-1.634,3-2.358a.025.025,0,0,1,.019-.013l.044-.032c.654-.433,1.588-1.047,2.737-1.788l.005,0s0,0,.006,0c2.688-1.576,4.6-2.789,5.906-3.71a.044.044,0,0,0,.011-.01c8.27-5.055,24.367-11.949,24.26-11.137-2.468,18.621,29.477,42.391,50.569,50.478s16.323-2.366,11.733-17.317-27.066-26.139-31.144-33.457,7.145-4.862,18.967,4.036,10.1,25.3,28.959,40.041,58.291-13.262,58.291-13.262c-16.616-4.553-36.594-28.086-34.5-33.479s38.612,18.6,45.266,20.833,24.026-2.832,32.47-29.755" transform="translate(-1356.766 -722.963)" fill="#dfebfd"/>
            <path id="Trazado_204605" data-name="Trazado 204605" d="M788.12,1009.016s9.716,40.2,19.254,48.232c5.733,4.83,22.779,15.914,22.779,15.914l-7.09,2.573s-23.643-7.984-28.937-14.208-19.786-37.409-19.786-37.409Z" transform="translate(-500.905 -652.711)" fill="#ffb27d"/>
            <g id="Grupo_138318" data-name="Grupo 138318" transform="translate(599.715 161.282)" opacity="0.5">
              <g id="Grupo_138317" data-name="Grupo 138317">
                <g id="Grupo_138316" data-name="Grupo 138316" clip-path="url(#clip-path-3)">
                  <path id="Trazado_204606" data-name="Trazado 204606" d="M1698.326,571.488s3.439-68.659,35.534-111.7a7.634,7.634,0,0,1,13.719,4.234q.009.178.014.361c.385,12.179-35.154,66.112-49.267,107.107" transform="translate(-1698.328 -456.731)" fill="#c5ddff"/>
                </g>
              </g>
            </g>
            <g id="Grupo_138321" data-name="Grupo 138321" transform="translate(596.816 164.968)" opacity="0.5">
              <g id="Grupo_138320" data-name="Grupo 138320">
                <g id="Grupo_138319" data-name="Grupo 138319" clip-path="url(#clip-path-4)">
                  <path id="Trazado_204607" data-name="Trazado 204607" d="M1690.12,598.027s28.909-87.513,85.708-129.248a8.1,8.1,0,0,1,11.1,1.316c1.74,2.193,2.7,5.739,1.31,11.475-3.7,15.3-66.469,70.254-98.115,116.456" transform="translate(-1690.12 -467.169)" fill="#c5ddff"/>
                </g>
              </g>
            </g>
            <path id="Trazado_204608" data-name="Trazado 204608" d="M880.361,372.32c11.028-26.589,56.412-11.961,56.412-11.961s25.334,52.306,34.37,54.643-12.927-48.95-12.927-48.95c18.018.581,60.546,28.263,60.546,28.263s-10.15,55.886-.816,55.926,6.463-49.943,6.463-49.943c16.553,7.4,30.026,29.566,30.026,29.566,15.858,35.321-30.316,53.86-30.316,53.86s-3.1,19.444,6.058,43.391h0a66.994,66.994,0,0,1,4.042,11.87l-4.7-.607q-.331-1.963-.8-3.809a.028.028,0,0,0-.006-.023c0-.018-.01-.035-.014-.053-.228-.767-.557-1.859-.97-3.191l0,0s0,0,0-.007c-1.071-2.993-1.772-5.193-2.191-6.77a.054.054,0,0,1,0-.015c-3.158-9.371-7.863-21.657-11.681-24.6a9.183,9.183,0,0,0,1.284-2.023l-1.284,2.023c-10.265,16.182-50.82,13.852-72.614,6.363s-11.218-12.541,2.164-21.23,38.29-2.718,46.273-5.771-2.4-8.482-17.478-9.266-24.468,13.176-48.875,12.353S886.414,433.8,886.414,433.8c15.979,7.321,47.018,2,48.909-3.594s-42.385-10.738-49.051-13.351-16.938-17.951-5.91-44.539" transform="translate(-566.344 -230.511)" fill="#cce1ff"/>
            <path id="Trazado_204609" data-name="Trazado 204609" d="M1230.318,141.682s7.608-16.941,25.8-15.059c0,0,26.413-28.237,54.58-3.765,0,0,29.941-6.063,52.114,5.25,14.784,7.543,19.666,15.456,19.666,15.456Z" transform="translate(-795.867 -73.018)" fill="#f8fcff"/>
            <path id="Trazado_204610" data-name="Trazado 204610" d="M1550.806,293.912s4.419-10.33,14.986-9.182c0,0,15.341-17.217,31.7-2.3,0,0,17.39-3.7,30.268,3.2,8.587,4.6,11.422,9.424,11.422,9.424Z" transform="translate(-1003.184 -178.764)" fill="#f8fcff"/>
            <path id="Trazado_204611" data-name="Trazado 204611" d="M622.744,681.827s5.159-13.85,17.5-12.311c0,0,17.911-23.085,37.011-3.078,0,0,20.3-4.957,35.339,4.292,10.025,6.167,13.336,12.636,13.336,12.636Z" transform="translate(-402.84 -425.826)" fill="#f8fcff"/>
            <path id="Trazado_204612" data-name="Trazado 204612" d="M1355.458,671.988H1102.323a6.918,6.918,0,0,1-5.66-10.895l53.395-75.986a6.917,6.917,0,0,1,5.66-2.94h143.194a6.917,6.917,0,0,1,5.549,2.788l56.546,75.987a6.917,6.917,0,0,1-5.549,11.047" transform="translate(-708.587 -376.591)" fill="#f99746"/>
            <path id="Trazado_204613" data-name="Trazado 204613" d="M1256.174,1149.907H763.885a7.983,7.983,0,0,1-6.532-12.572l50.3-71.589a7.983,7.983,0,0,1,6.531-3.393H1202.9a7.982,7.982,0,0,1,6.4,3.217l53.274,71.589a7.983,7.983,0,0,1-6.4,12.748" transform="translate(-488.968 -687.213)" fill="#b0d0ff"/>
            <path id="Trazado_204614" data-name="Trazado 204614" d="M575.934,1378.71l44.4-63.182A12.309,12.309,0,0,1,630.4,1310.3h510.968a12.309,12.309,0,0,1,9.874,4.96l47.018,63.181a12.309,12.309,0,0,1-9.874,19.657H586a12.309,12.309,0,0,1-10.071-19.385" transform="translate(-371.099 -847.603)" fill="#c7dcfc"/>
            <path id="Trazado_204615" data-name="Trazado 204615" d="M822.179,1343.014l5.121,64.692h34.233l4.852-64.692Z" transform="translate(-531.85 -868.767)" fill="#ebf3fa"/>
            <path id="Trazado_204616" data-name="Trazado 204616" d="M831.847,1371.723l4.672,50.855h28.033l4.673-50.855s-7.368-1.617-20.486,0-11.5-1.617-16.892,0" transform="translate(-538.105 -886.873)" fill="#7c9af2"/>
            <path id="Trazado_204617" data-name="Trazado 204617" d="M859.146,1411.944c0-5,9.049-16.36,9.049-16.36s9.049,11.363,9.049,16.36a9.049,9.049,0,0,1-18.1,0" transform="translate(-555.764 -902.773)" fill="#fff"/>
            <path id="Trazado_204618" data-name="Trazado 204618" d="M1965.984,1390.661a18.211,18.211,0,1,0-21.127,17.975v2.293h-5.928a2.916,2.916,0,0,0,0,5.832h5.928v4.972a2.916,2.916,0,0,0,5.832,0v-4.972h5.781a2.916,2.916,0,0,0,0-5.832h-5.781v-2.293a18.239,18.239,0,0,0,15.3-17.975m-30.591,0a12.379,12.379,0,1,1,12.379,12.38,12.394,12.394,0,0,1-12.379-12.38" transform="translate(-1248.193 -887.808)" fill="#f99746"/>
            <path id="Trazado_204619" data-name="Trazado 204619" d="M2089.852,1352.081l-1.032-8.55A2.917,2.917,0,0,0,2085.5,1341l-10.181,1.5a2.916,2.916,0,0,0,.853,5.77l1.986-.294-4.928,5.8a18.211,18.211,0,1,0-9.44,33.8c.5,0,1.007-.021,1.51-.061a18.211,18.211,0,0,0,12.376-29.967l6.1-7.183.291,2.407a2.915,2.915,0,0,0,2.891,2.567h0a2.916,2.916,0,0,0,2.9-3.265m-13.7,16.282a12.38,12.38,0,1,1-13.347-11.331c.343-.028.69-.042,1.03-.042a12.384,12.384,0,0,1,12.317,11.373" transform="translate(-1323.258 -867.443)" fill="#8fb2ff"/>
            <path id="Trazado_204620" data-name="Trazado 204620" d="M1819.357,1113.007h42.48l-24.381,24.632h-42.48Z" transform="translate(-1161.133 -719.981)" fill="#f78248"/>
            <path id="Trazado_204621" data-name="Trazado 204621" d="M1830.323,1119.8l-21.981,22.232V1168.6h80.936v-32.468Z" transform="translate(-1169.779 -724.377)" fill="#ffdaa4"/>
            <rect id="Rectángulo_44331" data-name="Rectángulo 44331" width="36.95" height="31.732" transform="translate(682.549 412.492)" fill="#f2c78f"/>
            <path id="Trazado_204622" data-name="Trazado 204622" d="M1906.341,1113.007h-42.48l24.381,24.632h42.48Z" transform="translate(-1205.693 -719.981)" fill="#f78248"/>
            <path id="Trazado_204623" data-name="Trazado 204623" d="M1948.214,1109.184l4.742,4.743h5.145v-9.82h-9.664Z" transform="translate(-1260.26 -714.223)" fill="#ffdaa4"/>
            <rect id="Rectángulo_44332" data-name="Rectángulo 44332" width="11.171" height="1.759" transform="translate(687.55 388.921)" fill="#f2c78f"/>
            <path id="Trazado_204624" data-name="Trazado 204624" d="M1853.06,1169.18h-.971a5.974,5.974,0,0,0-5.975,5.974v15.183h12.727v-15.376a5.781,5.781,0,0,0-5.781-5.781" transform="translate(-1194.213 -756.317)" fill="#f2c78f"/>
            <path id="Trazado_204625" data-name="Trazado 204625" d="M1852.381,1168.129h-.971a6.353,6.353,0,0,0-6.346,6.346v15.554h13.468v-15.748a6.159,6.159,0,0,0-6.151-6.152m-.971.742h.971a5.416,5.416,0,0,1,5.41,5.41v.2h-11.985v0a5.61,5.61,0,0,1,5.6-5.6m-5.6,6.542h5.385v13.873h-5.385Zm6.339,0h5.646v13.873h-5.646Z" transform="translate(-1193.534 -755.637)" fill="#f99746"/>
            <path id="Trazado_204626" data-name="Trazado 204626" d="M1251.845,1108.393a3.009,3.009,0,0,0-2.067,2.755v26.583a16.757,16.757,0,0,0,6.909,13.633l15.616,10.008a3.3,3.3,0,0,0,3.491,0l15.616-10.008a16.757,16.757,0,0,0,6.91-13.633v-26.512a3.032,3.032,0,0,0-2.17-2.792c-18.97-6.494-26.574-6.668-44.3-.034" transform="translate(-808.456 -713.821)" fill="#f99746"/>
            <path id="Trazado_204627" data-name="Trazado 204627" d="M1340.611,1108.447c-9.234-3.161-15.774-4.82-22.1-4.93v58.374a3.252,3.252,0,0,0,1.745-.5l15.616-10.008a16.757,16.757,0,0,0,6.91-13.633v-26.513a3.033,3.033,0,0,0-2.17-2.791" transform="translate(-852.917 -713.841)" fill="#f78248"/>
            <path id="Trazado_204628" data-name="Trazado 204628" d="M1305.619,1149.021h-3.552a5.784,5.784,0,0,1-5.777-5.777v-.69a5.784,5.784,0,0,1,5.777-5.777h3.552a5.784,5.784,0,0,1,5.777,5.777v.69a5.784,5.784,0,0,1-5.777,5.777m-3.552-9.935a3.471,3.471,0,0,0-3.467,3.468v.69a3.471,3.471,0,0,0,3.467,3.467h3.552a3.471,3.471,0,0,0,3.468-3.467v-.69a3.471,3.471,0,0,0-3.468-3.468Z" transform="translate(-838.544 -735.356)" fill="#ffdaa4"/>
            <path id="Trazado_204629" data-name="Trazado 204629" d="M1299.278,1178.859h-5.61a9.5,9.5,0,0,1-9.5-9.5v-9.272a2.125,2.125,0,0,1,2.125-2.126h19.192a2.723,2.723,0,0,1,2.723,2.723v9.25a8.928,8.928,0,0,1-8.928,8.928" transform="translate(-830.7 -749.058)" fill="#ffdaa4"/>
            <path id="Trazado_204630" data-name="Trazado 204630" d="M1315.6,1169.977a3.135,3.135,0,1,1-3.135-3.135,3.135,3.135,0,0,1,3.135,3.135" transform="translate(-846.977 -754.805)" fill="#f78248"/>
            <path id="Trazado_204631" data-name="Trazado 204631" d="M1316.961,1179.862h0a.681.681,0,0,1,.679.679v5.224a.679.679,0,0,1-1.359,0v-5.224a.681.681,0,0,1,.68-.679" transform="translate(-851.475 -763.227)" fill="#f78248"/>
            <path id="Trazado_204632" data-name="Trazado 204632" d="M1017.682,908.624l47.493-67.591a10.591,10.591,0,0,1,8.666-4.5h269.4a10.591,10.591,0,0,1,8.5,4.268l47.862,64.315a7.541,7.541,0,0,1-6.049,12.043H1022.115a5.418,5.418,0,0,1-4.433-8.532" transform="translate(-657.675 -541.134)" fill="#8fb2ff"/>
            <path id="Trazado_204633" data-name="Trazado 204633" d="M1509.165,872.931c-13.452-11.661-24.161,8.084-24.161,8.084s-17.49-14.094-25.41,1.851,32.875,35.4,32.875,35.4,30.147-33.675,16.695-45.336" transform="translate(-943.522 -562.297)" fill="#f78248"/>
            <path id="Trazado_204634" data-name="Trazado 204634" d="M1598.775,930.635c-3-13.238-18.5-5.94-18.5-5.94s-4.385-16.556-16.449-10.334,4.22,36.6,4.22,36.6,33.727-7.084,30.725-20.322" transform="translate(-1008.73 -590.576)" fill="#ffdaa4"/>
            <path id="Trazado_204635" data-name="Trazado 204635" d="M1304.338,917.591a10.279,10.279,0,1,0-10.279,10.279,10.279,10.279,0,0,0,10.279-10.279" transform="translate(-830.451 -586.92)" fill="#f78248"/>
            <path id="Trazado_204636" data-name="Trazado 204636" d="M1271.306,981.609h29.368s-.739-16.079-14.685-16.079-14.683,16.079-14.683,16.079" transform="translate(-822.382 -624.58)" fill="#f78248"/>
            <path id="Trazado_204637" data-name="Trazado 204637" d="M1195.5,902.281a11.962,11.962,0,1,0-11.962,11.963,11.962,11.962,0,0,0,11.962-11.963" transform="translate(-757.867 -575.928)" fill="#f99746"/>
            <path id="Trazado_204638" data-name="Trazado 204638" d="M1157.056,976.785h34.178s-.859-18.713-17.09-18.713-17.088,18.713-17.088,18.713" transform="translate(-748.476 -619.756)" fill="#f99746"/>
            <path id="Trazado_204639" data-name="Trazado 204639" d="M1254.007,945.81a7.176,7.176,0,1,0-7.176,7.176,7.176,7.176,0,0,0,7.176-7.176" transform="translate(-801.908 -607.182)" fill="#ffdaa4"/>
            <path id="Trazado_204640" data-name="Trazado 204640" d="M1230.948,990.5h20.5s-.516-11.225-10.252-11.225-10.25,11.225-10.25,11.225" transform="translate(-796.275 -633.472)" fill="#ffdaa4"/>
            <path id="Trazado_204641" data-name="Trazado 204641" d="M1894.62,902.281a11.962,11.962,0,1,0-11.962,11.963,11.962,11.962,0,0,0,11.962-11.963" transform="translate(-1210.114 -575.928)" fill="#f78248"/>
            <path id="Trazado_204642" data-name="Trazado 204642" d="M1856.177,976.785h34.178s-.859-18.713-17.09-18.713-17.088,18.713-17.088,18.713" transform="translate(-1200.723 -619.756)" fill="#f78248"/>
            <path id="Trazado_204643" data-name="Trazado 204643" d="M1812.349,902.281a11.963,11.963,0,1,0-11.963,11.963,11.963,11.963,0,0,0,11.963-11.963" transform="translate(-1156.894 -575.928)" fill="#ffdaa4"/>
            <path id="Trazado_204644" data-name="Trazado 204644" d="M1773.907,976.785h34.178s-.859-18.713-17.09-18.713-17.088,18.713-17.088,18.713" transform="translate(-1147.504 -619.756)" fill="#ffdaa4"/>
            <path id="Trazado_204645" data-name="Trazado 204645" d="M1313.786,390.853l65.837-93.7a3.754,3.754,0,0,1,6.083-.083l69.726,93.7a3.754,3.754,0,0,1-3.012,6H1316.859a3.754,3.754,0,0,1-3.072-5.913" transform="translate(-849.416 -191.19)" fill="#f78248"/>
            <path id="Trazado_204646" data-name="Trazado 204646" d="M1477.342,413.038a12.4,12.4,0,1,1,12.4,12.4,12.4,12.4,0,0,1-12.4-12.4" transform="translate(-955.662 -259.161)" fill="#ffdaa4"/>
            <path id="Trazado_204647" data-name="Trazado 204647" d="M1472.7,470.891a21.708,21.708,0,0,0-21.708,21.708h43.417a21.708,21.708,0,0,0-21.709-21.708" transform="translate(-938.619 -304.609)" fill="#ffdaa4"/>
            <g id="Grupo_138324" data-name="Grupo 138324" transform="translate(544.788 252.439)" opacity="0.7">
              <g id="Grupo_138323" data-name="Grupo 138323">
                <g id="Grupo_138322" data-name="Grupo 138322" clip-path="url(#clip-path-5)">
                  <path id="Trazado_204648" data-name="Trazado 204648" d="M1564.224,714.876s-18.21,5.678-21.446,24.06l7.257-3.288,3.327,6.6s8-17.355,15.519-17.8Z" transform="translate(-1542.779 -714.876)" fill="#ea6c34"/>
                </g>
              </g>
            </g>
            <g id="Grupo_138327" data-name="Grupo 138327" transform="translate(569.785 252.674)" opacity="0.7">
              <g id="Grupo_138326" data-name="Grupo 138326">
                <g id="Grupo_138325" data-name="Grupo 138325" clip-path="url(#clip-path-6)">
                  <path id="Trazado_204649" data-name="Trazado 204649" d="M1617.829,715.543s18.429,4.923,22.418,23.156l-7.386-2.986-3.053,6.735s-8.71-17.011-16.239-17.141Z" transform="translate(-1613.57 -715.543)" fill="#ea6c34"/>
                </g>
              </g>
            </g>
            <path id="Trazado_204650" data-name="Trazado 204650" d="M1553.908,654.907a21.17,21.17,0,1,1,21.17,21.17,21.17,21.17,0,0,1-21.17-21.17" transform="translate(-1005.191 -409.95)" fill="#ffdaa4"/>
            <path id="Trazado_204651" data-name="Trazado 204651" d="M1579.664,678.159a18.666,18.666,0,1,1,18.666-18.666,18.687,18.687,0,0,1-18.666,18.666m0-35.067a16.4,16.4,0,1,0,16.4,16.4,16.42,16.42,0,0,0-16.4-16.4" transform="translate(-1009.777 -414.537)" fill="#f99746"/>
            <path id="Trazado_204652" data-name="Trazado 204652" d="M1595.332,664.807l8.411,1.149-6.028,5.977,1.506,8.354-7.547-3.886-7.481,4.014,1.364-8.379-6.129-5.874,8.391-1.292,3.692-7.644Z" transform="translate(-1021.699 -425.145)" fill="#f99746"/>
            <path id="Trazado_204653" data-name="Trazado 204653" d="M1349.783,764.683h-16.59a4.409,4.409,0,0,1,4.411-4.409,1.944,1.944,0,0,0,1.942-1.944v-7.424h3.884v7.424a1.944,1.944,0,0,0,1.944,1.944,4.409,4.409,0,0,1,4.409,4.409" transform="translate(-862.415 -485.745)" fill="#ffdaa4"/>
            <path id="Trazado_204654" data-name="Trazado 204654" d="M1339.592,628.776l-2.337,18.338a21.224,21.224,0,0,1-9.8,17.653h0a21.607,21.607,0,0,1-5.963,2.768,4.4,4.4,0,0,0-2.9,4.361v.435c0,1.287,0,2.367,0,2.367h-2.828s0-1.091,0-2.387a4.953,4.953,0,0,0-3.149-4.864,21.369,21.369,0,0,1-15-20.333l-2-18.338Z" transform="translate(-838.105 -406.741)" fill="#ffdaa4"/>
            <path id="Trazado_204655" data-name="Trazado 204655" d="M1273.319,660.372c-2-5.129-5.78-6.3-9.777-7.542-3.2-.992-6.5-2.017-8.917-5.058a11.286,11.286,0,0,1-1.38-11.846,7.287,7.287,0,0,1,6.844-4.318c4.176.113,7.555,3.176,9.772,8.858a36.062,36.062,0,0,1,2.056,8.212l-2.417.266c-.016-.147-1.719-14.7-9.477-14.906a4.942,4.942,0,0,0-4.6,2.974,8.934,8.934,0,0,0,1.109,9.247c1.95,2.453,4.759,3.325,7.734,4.248,4.167,1.293,8.89,2.759,11.321,8.978Z" transform="translate(-809.995 -408.571)" fill="#ffdaa4"/>
            <path id="Trazado_204656" data-name="Trazado 204656" d="M1398.579,660.371c2.005-5.129,5.78-6.3,9.777-7.542,3.2-.992,6.5-2.018,8.917-5.058a11.285,11.285,0,0,0,1.38-11.846,7.287,7.287,0,0,0-6.844-4.318c-4.176.113-7.555,3.177-9.772,8.858a36.052,36.052,0,0,0-2.056,8.212l2.417.266c.016-.147,1.718-14.7,9.477-14.906a4.942,4.942,0,0,1,4.6,2.974,8.934,8.934,0,0,1-1.108,9.247c-1.949,2.453-4.759,3.325-7.734,4.248-4.167,1.293-8.89,2.76-11.321,8.978Z" transform="translate(-903.247 -408.571)" fill="#ffdaa4"/>
            <path id="Trazado_204657" data-name="Trazado 204657" d="M1350,753.6h-7.243a1.788,1.788,0,1,1,0-3.575H1350a1.788,1.788,0,0,1,0,3.575" transform="translate(-867.447 -485.176)" fill="#ffdaa4"/>
            <path id="Trazado_204658" data-name="Trazado 204658" d="M1340.619,666.484V665.2c3.579-.174,3.822-.556,3.821-3.057V649.564c0-1.772-.625-1.911-2.05-2.084l-1.043-.174v-1.147a38.292,38.292,0,0,0,7.713-1.737v17.719c0,2.571.209,2.884,3.752,3.057v1.286Z" transform="translate(-867.219 -416.862)" fill="#f99746"/>
            <path id="Trazado_204659" data-name="Trazado 204659" d="M1000.9,1096.767s-4.321,7.306-8.284,7.408-9.989-3.386-9.989-3.386-3.637-9.736-1.17-13.546a4.567,4.567,0,0,1,5.062,1,8.615,8.615,0,0,1,1.34,1.541,4.3,4.3,0,0,0,2.08,1.693c2.827,1.032,6.183-1.4,7.437.948a15.538,15.538,0,0,0,2.185,3.107,10.346,10.346,0,0,0,1.339,1.236" transform="translate(-634.326 -703.076)" fill="#f99746"/>
            <path id="Trazado_204660" data-name="Trazado 204660" d="M909.494,1156.2c7.181-10.292,17.256-19.941,29.926-20.331,0,0,16.373,2.184,23.548,24.761,3.148,9.907-2.978,20.532-11.809,20.532H919.295c-10.74,0-16.7-15.076-9.8-24.962" transform="translate(-586.421 -734.768)" fill="#f99746"/>
            <path id="Trazado_204661" data-name="Trazado 204661" d="M978.227,1129.173s11.02,2.943,14.42,1.213c0,0,.514-5.534-4.127-4.758-3.176.531-5.246-1.3-6.462-2.046-1.722-1.053-4.289,3.275-3.831,5.59" transform="translate(-632.76 -726.717)" fill="#ffdaa4"/>
            <path id="Trazado_204662" data-name="Trazado 204662" d="M979.334,1190.113a20.439,20.439,0,1,1,20.439,20.439,20.439,20.439,0,0,1-20.439-20.439" transform="translate(-633.511 -756.637)" fill="#ffdaa4"/>
            <path id="Trazado_204663" data-name="Trazado 204663" d="M1023.287,1205.245a3.461,3.461,0,0,0-.049-1.217,2.522,2.522,0,0,0-.515-1.01,4.771,4.771,0,0,0-1.028-.907,12.557,12.557,0,0,0-1.594-.893,32.991,32.991,0,0,1-2.944-1.618,10.427,10.427,0,0,1-2.2-1.791,6.136,6.136,0,0,1-1.3-2.183,6.923,6.923,0,0,1,.559-5.236,5.82,5.82,0,0,1,1.623-1.8,7.261,7.261,0,0,1,2.325-1.107,9.7,9.7,0,0,1,2.9-.335l.41-3.453,2.779.33-.416,3.5a8.693,8.693,0,0,1,2.616,1.112,6.573,6.573,0,0,1,2.928,4.2,8.759,8.759,0,0,1,.115,2.967l-5.02-.6a4.259,4.259,0,0,0-.516-3,2.96,2.96,0,0,0-2.188-1.233,3.762,3.762,0,0,0-1.372.058,2.55,2.55,0,0,0-1,.487,2.372,2.372,0,0,0-.645.832,3.481,3.481,0,0,0-.306,1.093,3.2,3.2,0,0,0,.046,1.1,2.361,2.361,0,0,0,.493.967,4.783,4.783,0,0,0,1.037.909,16.235,16.235,0,0,0,1.657.958q1.61.829,2.913,1.654a10.561,10.561,0,0,1,2.191,1.806,5.924,5.924,0,0,1,1.524,4.968,6.324,6.324,0,0,1-.8,2.491,5.758,5.758,0,0,1-1.63,1.787,7.024,7.024,0,0,1-2.337,1.064,10.456,10.456,0,0,1-2.916.308l-.381,3.211-2.762-.327.379-3.195a11.754,11.754,0,0,1-2.713-.96,7.447,7.447,0,0,1-2.223-1.679,6.656,6.656,0,0,1-1.394-2.5,8.108,8.108,0,0,1-.231-3.4l5.021.6a5,5,0,0,0,.094,1.95,3.233,3.233,0,0,0,.714,1.329,3.137,3.137,0,0,0,1.148.791,5.377,5.377,0,0,0,1.377.351,4.48,4.48,0,0,0,1.458-.04,3,3,0,0,0,1.1-.458,2.383,2.383,0,0,0,.73-.805,2.9,2.9,0,0,0,.34-1.081" transform="translate(-654.142 -765.704)" fill="#f99746"/>
            <path id="Trazado_204664" data-name="Trazado 204664" d="M1581.177,1113.608a29.948,29.948,0,0,0-2.384-2.259,28.769,28.769,0,0,0-37.647.4l0,0a29.394,29.394,0,0,0-2.138,2.094,28.7,28.7,0,0,0-7.629,19.511v.036a28.825,28.825,0,0,0,57.649,0v-.036a28.734,28.734,0,0,0-7.847-19.747m-20.98,37.41a17.689,17.689,0,0,1-17.663-17.627v-.036a17.573,17.573,0,0,1,4.633-11.909,16.833,16.833,0,0,1,1.455-1.424,17.671,17.671,0,0,1,29.242,13.333v.036a17.687,17.687,0,0,1-17.668,17.627" transform="translate(-990.615 -714.498)" fill="#f78248"/>
            <path id="Trazado_204665" data-name="Trazado 204665" d="M1539,1205.732a28.7,28.7,0,0,1-7.628-19.475h11.159a17.581,17.581,0,0,0,4.633,11.874Z" transform="translate(-990.615 -767.364)" fill="#ffdaa4"/>
            <path id="Trazado_204666" data-name="Trazado 204666" d="M1657.907,1130.7a28.381,28.381,0,0,1,7.663,19.362H1654.36a17.378,17.378,0,0,0-4.655-11.8Z" transform="translate(-1067.161 -731.425)" fill="#ffdaa4"/>
            <path id="Trazado_204667" data-name="Trazado 204667" d="M1633.006,1231.006a28.414,28.414,0,0,1-19.362,7.7V1227.5a17.305,17.305,0,0,0,11.772-4.662Z" transform="translate(-1043.833 -791.025)" fill="#ffdaa4"/>
            <path id="Trazado_204668" data-name="Trazado 204668" d="M1553.749,1113.7a28.435,28.435,0,0,1,18.829-8.951l.766,11.133a17.55,17.55,0,0,0-11.511,5.5Z" transform="translate(-1005.088 -714.636)" fill="#ffdaa4"/>
            <path id="Trazado_204669" data-name="Trazado 204669" d="M1188.019,1423.373h-98.81a50.461,50.461,0,0,1,47.047-40.148c.78-.035,1.565-.056,2.356-.056a50.464,50.464,0,0,1,49.407,40.2" transform="translate(-704.587 -894.742)" fill="#ed7d2b"/>
            <path id="Trazado_204670" data-name="Trazado 204670" d="M1229.808,1423.373h-76c2.954-17.161,11.967-31.659,24.236-40.148.78-.035,1.565-.056,2.355-.056a50.464,50.464,0,0,1,49.408,40.2" transform="translate(-746.375 -894.742)" fill="#f99746"/>
            <path id="Trazado_204671" data-name="Trazado 204671" d="M1177.362,1500.887H1068.9a1.936,1.936,0,0,1,0-3.871h108.462a1.936,1.936,0,1,1,0,3.871" transform="translate(-690.197 -968.388)" fill="#ed7d2b"/>
            <path id="Trazado_204672" data-name="Trazado 204672" d="M1221.794,1374.922h0a1.956,1.956,0,0,1-1.95-1.95v-3.745a1.95,1.95,0,1,1,3.9,0v3.745a1.956,1.956,0,0,1-1.95,1.95" transform="translate(-789.092 -884.463)" fill="#ed7d2b"/>
            <path id="Trazado_204673" data-name="Trazado 204673" d="M1598.286,1382.593a40.581,40.581,0,0,1-9.2,8.682,53.847,53.847,0,0,1-29.021,9.733,65.99,65.99,0,0,1-6.692-.023s-16.922-24.3-37.675-26.287c0,0,19.993-21.777,52.394-19.606,0,0,27.536,8.232,30.193,27.5" transform="translate(-980.474 -876.482)" fill="#f99746"/>
            <path id="Trazado_204674" data-name="Trazado 204674" d="M1515.7,1410.895s16.6,23.38,37.676,26.287c0,0-16.64-25.365-37.676-26.287" transform="translate(-980.474 -912.678)" fill="#ed7d2b"/>
            <path id="Trazado_204675" data-name="Trazado 204675" d="M1503.508,1405.625s-1.473-2.18-6.655-2.876c0,0,2.975,4.205,2.452,5.354a5.466,5.466,0,0,0,4.2-2.478" transform="translate(-968.283 -907.408)" fill="#f99746"/>
            <path id="Trazado_204676" data-name="Trazado 204676" d="M1495.754,1402.742s2.951,1.338,3.128,3.156-.482,2.977-2.288,1.581-1.7-4.873-.841-4.737" transform="translate(-967.184 -907.401)" fill="#ce631b"/>
            <path id="Trazado_204677" data-name="Trazado 204677" d="M1618.44,1484.276a6.685,6.685,0,0,1,3.393,5.184s-5.384-2.5-6.939-2.18c0,0,.227-1.984,3.546-3" transform="translate(-1044.641 -960.146)" fill="#f99746"/>
            <path id="Trazado_204678" data-name="Trazado 204678" d="M1621.8,1494.163a6.335,6.335,0,0,0-3.986-2.55c-2.4-.248-3.975.176-2.238,1.621s6.349,1.587,6.223.929" transform="translate(-1044.605 -964.85)" fill="#ce631b"/>
            <path id="Trazado_204679" data-name="Trazado 204679" d="M1665.79,1351.772s-.88-2.233.776-2.335a5.158,5.158,0,0,1,4.26,2.367c.482,1.1-1.962,1.145-1.962,1.145Z" transform="translate(-1077.414 -872.919)" fill="#f99746"/>
            <path id="Trazado_204680" data-name="Trazado 204680" d="M1746.6,1429.824s2.4-1.471,3.16-.359-.093,3.113-1.261,3.873-2.61-2.533-2.61-2.533Z" transform="translate(-1129.38 -924.421)" fill="#f99746"/>
            <path id="Trazado_204681" data-name="Trazado 204681" d="M1656.635,1442.643a41,41,0,0,0,9.7,5.514,48.389,48.389,0,0,0,25.764,3.245,51.647,51.647,0,0,0,5.318-1.069s6.79-22.13,22.755-26.985c0,0-21.888-14.315-47.072-7.487,0,0-19.647,10.921-16.47,26.783" transform="translate(-1071.418 -914.696)" fill="#ffdaa4"/>
            <path id="Trazado_204682" data-name="Trazado 204682" d="M1795.527,1440.445s-6.785,21.346-22.756,26.985c0,0,6.272-22.943,22.756-26.985" transform="translate(-1146.769 -931.793)" fill="#f2c78f"/>
            <path id="Trazado_204683" data-name="Trazado 204683" d="M1837.215,1434.307s.573-1.978,4.505-3.35c0,0-1.213,3.837-.481,4.676a5.118,5.118,0,0,1-4.024-1.326" transform="translate(-1188.456 -925.656)" fill="#ffdaa4"/>
            <path id="Trazado_204684" data-name="Trazado 204684" d="M1846.921,1430.929s-1.981,1.536-1.622,3.021,1.2,2.311,2.254.908.017-4.173-.632-3.929" transform="translate(-1193.657 -925.628)" fill="#f2c78f"/>
            <path id="Trazado_204685" data-name="Trazado 204685" d="M1767.9,1516.414s-1.883,1.436-1.276,4.688c0,0,3.6-2.85,4.922-2.837,0,0-.726-1.555-3.646-1.851" transform="translate(-1142.714 -980.936)" fill="#ffdaa4"/>
            <path id="Trazado_204686" data-name="Trazado 204686" d="M1766.843,1524.192a4.273,4.273,0,0,1,2.47-2.67c1.841-.575,3.211-.483,2.226.948s-4.615,2.269-4.7,1.722" transform="translate(-1142.934 -984.027)" fill="#f2c78f"/>
            <path id="Trazado_204687" data-name="Trazado 204687" d="M1695.066,1416.9s.087-1.928-1.259-1.75a3.521,3.521,0,0,0-2.739,2.567c-.08.96,1.875.609,1.875.609Z" transform="translate(-1093.915 -915.425)" fill="#ffdaa4"/>
            <path id="Trazado_204688" data-name="Trazado 204688" d="M1653.181,1492.663s-2.312-.8-2.613.209.929,2.48,2.067,2.906,1.381-2.44,1.381-2.44Z" transform="translate(-1067.689 -965.376)" fill="#ffdaa4"/>
            <path id="Trazado_204689" data-name="Trazado 204689" d="M1703.933,1458.328l3.444-7.532-5.025,1.451-.525-1.819,7.692-2.22.455,1.576-3.444,7.532,5.187-1.5.525,1.818-7.854,2.267Z" transform="translate(-1100.877 -936.815)" fill="#f99746"/>
            <path id="Trazado_204690" data-name="Trazado 204690" d="M1736.47,1437l4.812-4.413-4.094-.488.177-1.481,6.267.748-.153,1.284-4.812,4.413,4.225.5-.177,1.482-6.4-.763Z" transform="translate(-1123.187 -925.436)" fill="#f99746"/>
            <path id="Trazado_204691" data-name="Trazado 204691" d="M1748.681,1392.591l1.131-5.268-2.988,1.627-.588-1.081,4.574-2.489.51.937-1.13,5.268,3.084-1.679.589,1.081-4.671,2.542Z" transform="translate(-1129.604 -896.172)" fill="#f99746"/>
            <path id="Trazado_204692" data-name="Trazado 204692" d="M508.227,1131.7c.082.147.168.3.256.451,2.033,3.534,6.7,12.2,11.836,21.671,2.43,4.5,4.975,9.178,7.388,13.581,4.159,7.6,7.943,14.37,10.151,17.947,2.245,3.637,3.9,6.192,4.567,7.215l.005.005a1.692,1.692,0,0,1,.217,1.055,55.147,55.147,0,0,0,.147,9.531c3.1,30.832,23.889,47.355,23.889,47.355l6.182.914s-8.748-32.409-11.325-50.731a35.244,35.244,0,0,1-.473-7.264c.457-4.773-.391-11.782-2-19.828-2.854-14.3-8.09-31.849-12.641-45.9-.288-.9-8.982-32.344-8.982-32.344-7.3,6.377-33.909,9.009-33.909,9.009s-4.513,10.972,4.687,27.331" transform="translate(-325.014 -708.565)" fill="#f99746"/>
            <path id="Trazado_204693" data-name="Trazado 204693" d="M691.108,1533.168h-25.8a14.169,14.169,0,0,1,.73-6.915c1.291-2.863,3.131-2.953.235-7.441,1.639,1.688,6.909,2.386,10.639,1.885.457.74,2.946,5.711,4.473,6.808,1.686,1.211,9.2.78,9.723,5.663" transform="translate(-430.282 -982.487)" fill="#233862"/>
            <path id="Trazado_204694" data-name="Trazado 204694" d="M518.84,1170.4c.082.147.168.3.256.451,2.033,3.534,13.03,23.846,18.168,33.323-5.953-24.493-1.813-48.986-1.813-48.986Z" transform="translate(-335.627 -747.267)" fill="#ed7d2b"/>
            <path id="Trazado_204695" data-name="Trazado 204695" d="M754.014,850.885c.168-.678-14.735,6.736-15.491,7.574-6.99,7.753-5,17.872-1,17.969,2.565.062,2.068,4.327,2.068,4.327l28.576-12.089s-3.44-20.064-14.156-17.781" transform="translate(-474.741 -550.302)" fill="#2c3a64"/>
            <path id="Trazado_204696" data-name="Trazado 204696" d="M736.128,990.664s4.349,8.687,3.806,15.737c0,0-5.243,8.278-18.843,10.373,0,0,11.692-26.116,15.037-26.11" transform="translate(-466.459 -640.839)" fill="#f9ddbf"/>
            <path id="Trazado_204697" data-name="Trazado 204697" d="M457.167,1096.427l.087-4.825c-9.614,1.213-33.149-11.488-33.149-11.488s-10.058,6.69-11.435,25.794c-.672,9.324-4.924,48.76-5.394,60.535-.171,4.268-.229,7.314-.248,8.531a.024.024,0,0,1,0,.012,1.675,1.675,0,0,1-.409.993,55.117,55.117,0,0,0-5.209,7.985c-14.67,27.295-7,64.383-7,64.383l3.407-.866s12.4-38.447,20.511-55.078a34.8,34.8,0,0,1,3.671-6.285c3.048-3.7,6.263-9.99,9.431-17.556,5.989-14.305,25.733-72.133,25.733-72.133" transform="translate(-253.841 -698.702)" fill="#f99746"/>
            <path id="Trazado_204698" data-name="Trazado 204698" d="M408.664,1532.826h-25.8a14.166,14.166,0,0,1,.729-6.915c1.291-2.863,3.314-4.164,2.83-7.627a9.29,9.29,0,0,0,8.041,3.076c.457.741,2.95,4.706,4.476,5.8,1.686,1.211,9.2.78,9.723,5.662" transform="translate(-247.576 -982.146)" fill="#233862"/>
            <path id="Trazado_204699" data-name="Trazado 204699" d="M562.918,995.528c-3.466.591.566,3.346-4.2,3.864-6.784.741-13.788,1.248-17.457,2.711a3.942,3.942,0,0,0-2.513,2.036c-1.591,4.782-11.663,13-11.663,13-44.924-2.045-47.818-22.067-47.818-22.067,29.157-28.317,53.961-43.752,74.462-45.663,4.989-.465,11.714.16,14.87,1.564,7.17,3.192,11.1,12.906,11.1,12.906s-3.611,29.4-16.779,31.65" transform="translate(-310.027 -614.053)" fill="#f9ddbf"/>
            <path id="Trazado_204700" data-name="Trazado 204700" d="M672.016,1024.283c-6.784.741-13.788,1.247-17.457,2.711a71.542,71.542,0,0,1,9.074-39.259s6.9,28.069,8.383,36.548" transform="translate(-423.327 -638.944)" fill="#f2ccaa"/>
            <path id="Trazado_204701" data-name="Trazado 204701" d="M682.871,976.957s-17.06-.932-20.091,9.779,5.687,53.464,7.566,57.876c3.421,8.033,20.073,30.961,20.073,30.961l6.124-1.865s-11.1-35.027-13.583-38.493c-3.891-5.441,5.017-53.6-.089-58.259" transform="translate(-428.329 -631.959)" fill="#ffb27d"/>
            <path id="Trazado_204702" data-name="Trazado 204702" d="M747.821,1249.619a9.646,9.646,0,0,0,1.463,4.118c1.148,1.4,4.487,4.795,4.545,6.781,0,0-.168.882-.884.721s-3.2-2.623-4.479-2.446c0,0,.681,3.981,1.356,5.1s1.529,4.869,1.124,5.836-6.911-3.266-8.82-6.939c-1.581-3.042-.033-13.917-.033-13.917Z" transform="translate(-479.606 -807.869)" fill="#ffb27d"/>
            <path id="Trazado_204703" data-name="Trazado 204703" d="M654.414,995.264c.045.251,16.144,2.962,26.214-2.149,0,0,8.412-26.354-3.609-25.093s-19.14,5.047-19.443,10.8-3.161,16.44-3.161,16.44" transform="translate(-423.327 -626.164)" fill="#f9ddbf"/>
            <path id="Trazado_204704" data-name="Trazado 204704" d="M730.7,940.119c1.112,3.6,5.475,16,11.6,11.443-.2-.853,1.044-3.338,2.512-5.86,1.875-3.224,4.11-6.519,4.11-6.519l-9.656-8.46-.576-.506A24.747,24.747,0,0,1,731.2,938.6a1.378,1.378,0,0,0-.5,1.517" transform="translate(-472.637 -601.737)" fill="#ffb27d"/>
            <path id="Trazado_204705" data-name="Trazado 204705" d="M764.413,940.112s-2.232,3.288-4.109,6.515c-6-3.7-6.008-11.13-5.545-14.979Z" transform="translate(-488.123 -602.663)" fill="#ed985f"/>
            <path id="Trazado_204706" data-name="Trazado 204706" d="M763.948,912.743s-14.572-8.109-9.383-17.106,6.8-16.1,16.327-11.307,9.335,9.263,8.333,12.688-11.353,17.6-15.277,15.724" transform="translate(-487.39 -571.055)" fill="#ffb27d"/>
            <path id="Trazado_204707" data-name="Trazado 204707" d="M778.881,889.537c-.667-3.995-2.7-4.376-4.112-4.11A11.654,11.654,0,0,0,760.6,880a19.839,19.839,0,0,1-11.486,6.9s1.691,3.146,8.659,5.094a11.9,11.9,0,0,0,6.873-.55,38.894,38.894,0,0,1-9.889,3.728c9.181.84,17.917-7.554,18.823-8.452.424,1.3,1.167,4.024.722,6.015-.6,2.706-3.006,7.607-1.54,8.24,0,0,7.123-5.448,6.122-11.439" transform="translate(-484.584 -568.822)" fill="#2c3a64"/>
            <path id="Trazado_204708" data-name="Trazado 204708" d="M741.49,835.85a7.62,7.62,0,0,0-5.75-7.711c-11.986-3.5-12.611,7.53-16.949,10.7-5.29,3.863-7,11.069,2.892,12.966s10.2-4.8,10.2-4.8Z" transform="translate(-462.217 -535.267)" fill="#2c3a64"/>
            <path id="Trazado_204709" data-name="Trazado 204709" d="M1054.934,1562.982H45.79a1.412,1.412,0,0,1-1.408-1.408v-1.233a1.412,1.412,0,0,1,1.408-1.408H1054.934a1.412,1.412,0,0,1,1.408,1.408v1.233a1.413,1.413,0,0,1-1.408,1.408" transform="translate(-28.71 -1008.44)" fill="#2e3552"/>
            <path id="Trazado_204710" data-name="Trazado 204710" d="M2032.87,961.151a16.619,16.619,0,0,1-1.941-2.388c-.528-.6-4.245-1.4-4.245-1.4a20.323,20.323,0,0,0,1.754,2.509c-2.1-.784-4.5-1.245-9.538-.278a3.776,3.776,0,0,0-2.478,1.631,1.665,1.665,0,0,0,.579,2.6c2.57,1.6,1.825.641,5.4,2.968s7.946,2.921,10.558,1.288l3.506-.584.435-5.768s-2-.238-4.028-.577" transform="translate(-1304.128 -619.298)" fill="#ffb27d"/>
            <path id="Trazado_204711" data-name="Trazado 204711" d="M2284.884,797.281s-8.267,9.807-18.795,5.7c0,0-2.264-5.477-2.3-9.515,0-.5-.01-.979-.017-1.437-.057-4.547-.21-7.1-.21-7.1l.01,0c.479-.2,16.093-6.61,16.08-6.078-.268,12.3,5.228,18.425,5.228,18.425" transform="translate(-1464.254 -503.805)" fill="#ffb27d"/>
            <path id="Trazado_204712" data-name="Trazado 204712" d="M2278.089,787.007c-1.506,2.791-6.672,8.251-14.313,10.246-.057-4.547-.21-7.1-.21-7.1l.01,0c.432-.116,14.961-3.968,14.513-3.146" transform="translate(-1464.254 -509.023)" fill="#ed975d"/>
            <path id="Trazado_204713" data-name="Trazado 204713" d="M2249.3,741.778s17.56,4.129,19.962-6.846,6.287-17.833-4.823-20.933-14.213.609-15.905,4.078-3.74,22.345.766,23.7" transform="translate(-1453.26 -461.119)" fill="#ffb27d"/>
            <path id="Trazado_204714" data-name="Trazado 204714" d="M2257.9,722.159c.24.154,4.018,1.314,11.174-12.94a12.416,12.416,0,0,0-.73-11.356c-2.618-4.277-11.9-7.64-19.616-9.1s-9.565,2.877-11.382,7.239c-1.907,4.579-7.414,8.349-7.414,8.349,6.652,3.716,14.663-1.6,17.439-.725s3.755,5.248,3.964,6.65.528,2.567,4.019,1.315,1.578,4.945,1.019,6.131c0,0-.474,3.157,1.528,4.44" transform="translate(-1442.498 -445.356)" fill="#a9453d"/>
            <path id="Trazado_204715" data-name="Trazado 204715" d="M2436.619,1510.823h10.632c2.229,0,4.706-2.232,5.325-6.318s5.2-6.318,6.194-9.663-4.089-8.054-4.089-8.054l-.85-1.091-.883-1.138-8.422,1.981s-.208,2.006-.338,4.56a58.328,58.328,0,0,0-.034,5.846c.248,4.461-1.249,9.263-5.211,10.131s-2.325,3.745-2.325,3.745" transform="translate(-1575.981 -960.33)" fill="#2c3a64"/>
            <path id="Trazado_204716" data-name="Trazado 204716" d="M2227.619,1530.822H2255.8a2.53,2.53,0,0,0,.6-.174c1.882-.942,1.293-8.147,1.067-10.372-.044-.412-.074-.654-.074-.654s-9.911-7.927-11.274-1.857c-.044.189-.093.375-.146.558v0c-1.72,5.679-9.411,8.258-13.853,8.977-3.4.552-4.274,2.529-4.5,3.519" transform="translate(-1441 -980.33)" fill="#2c3a64"/>
            <path id="Trazado_204717" data-name="Trazado 204717" d="M2243.706,1093.9s1.505,18.779,3.274,41.352c2.4,30.664,5.3,68.329,5.582,75.465.495,12.39,2.479,32.21,2.479,32.21s4.705,4.708,14.122,2.724c0,0,8.392-28.293,10.789-58.228.037-.491.074-.985.112-1.479,2.229-30.474,5.7-94.645,5.7-94.645Z" transform="translate(-1451.407 -705.936)" fill="#f99746"/>
            <path id="Trazado_204718" data-name="Trazado 204718" d="M2243.706,1093.9s1.505,18.779,3.274,41.352l32.972,52.171c.037-.491.074-.985.112-1.479,2.229-30.474,5.7-94.645,5.7-94.645Z" transform="translate(-1451.407 -705.936)" fill="#ed7d2b"/>
            <path id="Trazado_204719" data-name="Trazado 204719" d="M2263.17,1082.513s27.129,68.01,44.968,99.97,23.413,40.88,23.413,40.88,10.22-4.088,11.149-6.875c0,0-6.822-61.7-18.768-76.743-6.75-8.5-14.68-34-15.052-42.924s-2.416-26.572-2.416-26.572Z" transform="translate(-1463.998 -692.321)" fill="#f99746"/>
            <path id="Trazado_204720" data-name="Trazado 204720" d="M2437.986,1067.055l.287,4.374a9.425,9.425,0,0,0,5.2,11.756s3.46,1.4,3.6-1.3-.3-1.681-.021-5.473-1.21-7.377-3.719-8.585l-2.058-2.375Z" transform="translate(-1576.945 -689.22)" fill="#ffb27d"/>
            <path id="Trazado_204721" data-name="Trazado 204721" d="M2354.6,920.626c-3,.964-3.484.746-3.484.746s-14.616-26.609-16.1-29.045-31.031-29.839-31.031-29.839l7.594-28.319s33.61,43.524,37.24,49.77c6,10.32,9.512,34.289,9.512,34.289a8.787,8.787,0,0,1-3.735,2.4" transform="translate(-1490.405 -539.606)" fill="#94b0ed"/>
            <path id="Trazado_204722" data-name="Trazado 204722" d="M2227.422,862.005c.106,5.815.444,12.353.9,18.993q.041.59.083,1.181c.292,4.113.608,8.237.97,12.257.145,1.612.3,3.205.462,4.771l.024.211c.012.586.083,1.221.149,1.8,1.482,15.059,3.035,26.957,3.323,27.139a1.688,1.688,0,0,0,1.156.294c3.949-.5,15.732.4,25.379-1.7,8.14-1.718,15.149-4.972,22.576-9.362.986-.583,3.234-2.126,3.051-3.279-.18-1.268-.511-3.1-.933-5.4a292.594,292.594,0,0,1-4.852-37.915q-.251-4.505-.728-8.887a134.872,134.872,0,0,0-3.934-21.225c-3.308-11.91-8.168-21.03-14.266-24.6-.8-.446-5.084,2.282-9.021,4.808a17.388,17.388,0,0,1-11.188,2.651l-3.277,3.623c-3.968,4.613-8.193,10.754-9.346,19.483q-.13.967-.223,2.058a128.053,128.053,0,0,0-.307,13.1" transform="translate(-1440.851 -528.005)" fill="#aec3ff"/>
            <path id="Trazado_204723" data-name="Trazado 204723" d="M2227.422,909.608c.106,5.815.444,12.353.9,18.993q.041.591.083,1.181c22.558-14.12,26.033-39.958,26.033-39.958-11.1.486-19.914,3.038-26.709,6.686a128.055,128.055,0,0,0-.307,13.1" transform="translate(-1440.851 -575.608)" fill="#94b0ed"/>
            <path id="Trazado_204724" data-name="Trazado 204724" d="M2066.038,892.582c-.233-3.346,1.5-3.9,1.5-3.9s34.012-6.164,36.9-7.073,27.614-26.628,27.614-26.628,9.477-10.688,17.236-8.327c6.743,2.051,9.379,7.31,10.276,12.321a14.76,14.76,0,0,1-6.854,15.151c-11.607,7.119-34.844,21.146-40.316,22.75-12.181,3.571-44.906.286-44.906.286a10.556,10.556,0,0,1-1.454-4.577" transform="translate(-1336.463 -547.459)" fill="#aec3ff"/>
          </g>
        </g>
      </g>
    </g>
  </g>
</svg>
