<svg xmlns="http://www.w3.org/2000/svg" xmlns:xlink="http://www.w3.org/1999/xlink" width="294" height="295.095" viewBox="0 0 294 295.095">
  <defs>
    <clipPath id="clip-path">
      <rect id="Rectángulo_44426" data-name="Rectángulo 44426" width="293.999" height="295.095" fill="none"/>
    </clipPath>
  </defs>
  <g id="Grupo_1019307" data-name="Grupo 1019307" transform="translate(-288 -7956)">
    <path id="Trazado_204786" data-name="Trazado 204786" d="M177.773,0l-23.05,23.05v32.6l23.05,23.05h32.6l23.05-23.05V23.05L210.371,0Z" transform="translate(240.665 7956)" fill="#57dbd8"/>
    <path id="Trazado_751083" data-name="Trazado 751083" d="M3.5-1.37,5.731-7.82H6.859L3.958,0H3.045L.15-7.82H1.273ZM8.83,0H7.836V-5.812H8.83ZM7.756-7.353A.593.593,0,0,1,7.9-7.761a.555.555,0,0,1,.438-.167.563.563,0,0,1,.44.167.587.587,0,0,1,.15.408.568.568,0,0,1-.15.4.573.573,0,0,1-.44.161A.565.565,0,0,1,7.9-6.95.573.573,0,0,1,7.756-7.353ZM13.8-1.542a.731.731,0,0,0-.3-.626,2.921,2.921,0,0,0-1.058-.384,5,5,0,0,1-1.2-.387,1.7,1.7,0,0,1-.655-.537,1.285,1.285,0,0,1-.212-.741,1.508,1.508,0,0,1,.6-1.208,2.36,2.36,0,0,1,1.544-.494,2.428,2.428,0,0,1,1.6.51A1.621,1.621,0,0,1,14.744-4.1h-1a.9.9,0,0,0-.346-.7,1.3,1.3,0,0,0-.873-.3,1.358,1.358,0,0,0-.849.236.744.744,0,0,0-.306.618.6.6,0,0,0,.285.542,3.5,3.5,0,0,0,1.029.349,5.359,5.359,0,0,1,1.206.4,1.759,1.759,0,0,1,.685.556,1.367,1.367,0,0,1,.223.792,1.487,1.487,0,0,1-.623,1.249,2.613,2.613,0,0,1-1.617.47A2.926,2.926,0,0,1,11.322-.14a2.009,2.009,0,0,1-.841-.69,1.664,1.664,0,0,1-.3-.959h.994a1.029,1.029,0,0,0,.4.792,1.552,1.552,0,0,0,.986.293,1.6,1.6,0,0,0,.905-.228A.7.7,0,0,0,13.8-1.542ZM17.171,0h-.994V-5.812h.994ZM16.1-7.353a.593.593,0,0,1,.148-.408.555.555,0,0,1,.438-.167.563.563,0,0,1,.44.167.587.587,0,0,1,.15.408.568.568,0,0,1-.15.4.573.573,0,0,1-.44.161.565.565,0,0,1-.438-.161A.573.573,0,0,1,16.1-7.353Zm2.4,4.394A3.433,3.433,0,0,1,18.834-4.5a2.5,2.5,0,0,1,.935-1.053,2.544,2.544,0,0,1,1.367-.371,2.451,2.451,0,0,1,1.92.822,3.162,3.162,0,0,1,.733,2.186v.07a3.462,3.462,0,0,1-.325,1.523,2.467,2.467,0,0,1-.929,1.05,2.573,2.573,0,0,1-1.388.376,2.445,2.445,0,0,1-1.915-.822A3.146,3.146,0,0,1,18.5-2.89Zm1,.118a2.486,2.486,0,0,0,.448,1.552,1.435,1.435,0,0,0,1.2.585,1.427,1.427,0,0,0,1.2-.594,2.719,2.719,0,0,0,.446-1.662,2.482,2.482,0,0,0-.454-1.55A1.443,1.443,0,0,0,21.135-5.1a1.427,1.427,0,0,0-1.187.585A2.7,2.7,0,0,0,19.5-2.841Zm2.089-5.4h1.2L21.35-6.66l-.8,0Zm4.388,2.428.032.73a2.118,2.118,0,0,1,1.74-.838q1.842,0,1.858,2.079V0h-.994V-3.846a1.338,1.338,0,0,0-.287-.929,1.152,1.152,0,0,0-.878-.3,1.434,1.434,0,0,0-.849.258,1.751,1.751,0,0,0-.569.677V0h-.994V-5.812Z" transform="translate(419.416 7998.183)"/>
    <path id="Trazado_204787" data-name="Trazado 204787" d="M23.05,155.982,0,179.032v32.6l23.05,23.05h32.6l23.05-23.05v-32.6l-23.05-23.05Z" transform="translate(288 7908.28)" fill="#57dbd8"/>
    <path id="Trazado_751084" data-name="Trazado 751084" d="M.825,0V-7.109H2.832a3.231,3.231,0,0,1,1.641.41,2.774,2.774,0,0,1,1.1,1.167,3.8,3.8,0,0,1,.393,1.738v.454a3.812,3.812,0,0,1-.388,1.763A2.731,2.731,0,0,1,4.47-.415,3.436,3.436,0,0,1,2.793,0Zm.938-6.343V-.767h.986a2.146,2.146,0,0,0,1.687-.674,2.786,2.786,0,0,0,.6-1.921v-.415A2.831,2.831,0,0,0,4.47-5.661a2.024,2.024,0,0,0-1.614-.682ZM10.5,0a1.9,1.9,0,0,1-.127-.557A2.015,2.015,0,0,1,8.872.1,1.865,1.865,0,0,1,7.59-.344a1.43,1.43,0,0,1-.5-1.121,1.494,1.494,0,0,1,.627-1.282A2.958,2.958,0,0,1,9.482-3.2h.879v-.415a1.015,1.015,0,0,0-.283-.754,1.138,1.138,0,0,0-.835-.281,1.317,1.317,0,0,0-.811.244.719.719,0,0,0-.327.591H7.2a1.247,1.247,0,0,1,.281-.764,1.916,1.916,0,0,1,.762-.583A2.563,2.563,0,0,1,9.3-5.381a2.089,2.089,0,0,1,1.431.457,1.647,1.647,0,0,1,.537,1.257v2.432A2.973,2.973,0,0,0,11.45-.078V0ZM9-.688a1.588,1.588,0,0,0,.806-.22,1.329,1.329,0,0,0,.552-.571V-2.563H9.653q-1.66,0-1.66.972a.822.822,0,0,0,.283.664A1.089,1.089,0,0,0,9-.688Zm4.9-5.874v1.279h.986v.7h-.986V-1.3a.733.733,0,0,0,.132.477.555.555,0,0,0,.449.159,2.187,2.187,0,0,0,.43-.059V0a2.634,2.634,0,0,1-.693.1,1.125,1.125,0,0,1-.913-.366A1.573,1.573,0,0,1,13-1.309V-4.585h-.962v-.7H13V-6.562Zm1.6,3.872a3.121,3.121,0,0,1,.305-1.4,2.277,2.277,0,0,1,.85-.957,2.313,2.313,0,0,1,1.243-.337,2.228,2.228,0,0,1,1.746.747,2.874,2.874,0,0,1,.667,1.987v.063a3.148,3.148,0,0,1-.3,1.384,2.243,2.243,0,0,1-.845.955A2.339,2.339,0,0,1,17.918.1a2.222,2.222,0,0,1-1.741-.747,2.86,2.86,0,0,1-.667-1.978Zm.908.107a2.26,2.26,0,0,0,.408,1.411,1.3,1.3,0,0,0,1.091.532,1.3,1.3,0,0,0,1.094-.54,2.472,2.472,0,0,0,.405-1.511A2.256,2.256,0,0,0,19-4.1a1.312,1.312,0,0,0-1.1-.54,1.3,1.3,0,0,0-1.079.532A2.453,2.453,0,0,0,16.419-2.583ZM24.529-1.4a.665.665,0,0,0-.276-.569,2.655,2.655,0,0,0-.962-.349A4.548,4.548,0,0,1,22.2-2.671a1.549,1.549,0,0,1-.6-.488,1.168,1.168,0,0,1-.193-.674,1.37,1.37,0,0,1,.549-1.1,2.145,2.145,0,0,1,1.4-.449,2.208,2.208,0,0,1,1.458.464,1.473,1.473,0,0,1,.559,1.187h-.908a.815.815,0,0,0-.315-.64,1.18,1.18,0,0,0-.793-.269,1.235,1.235,0,0,0-.771.215.676.676,0,0,0-.278.562.548.548,0,0,0,.259.493,3.184,3.184,0,0,0,.935.317,4.872,4.872,0,0,1,1.1.361,1.6,1.6,0,0,1,.623.505,1.243,1.243,0,0,1,.2.72A1.352,1.352,0,0,1,24.866-.33,2.376,2.376,0,0,1,23.4.1a2.66,2.66,0,0,1-1.123-.225,1.827,1.827,0,0,1-.764-.627,1.512,1.512,0,0,1-.276-.872h.9a.935.935,0,0,0,.364.72,1.411,1.411,0,0,0,.9.266,1.457,1.457,0,0,0,.823-.208A.638.638,0,0,0,24.529-1.4Z" transform="translate(312.898 8099.781)"/>
    <path id="Trazado_751085" data-name="Trazado 751085" d="M1.241,0V-5.043H.322v-.768h.918v-.6a1.979,1.979,0,0,1,.5-1.445,1.887,1.887,0,0,1,1.413-.51,2.624,2.624,0,0,1,.682.091l-.054.8a2.854,2.854,0,0,0-.537-.048.97.97,0,0,0-.747.283,1.147,1.147,0,0,0-.263.811v.614H3.475v.768H2.234V0ZM8.159-.575a2.111,2.111,0,0,1-1.7.682,1.807,1.807,0,0,1-1.415-.54,2.336,2.336,0,0,1-.491-1.6V-5.812h.994v3.754q0,1.321,1.074,1.321a1.487,1.487,0,0,0,1.515-.849V-5.812h.994V0H8.18Zm3.824-6.644v1.407h1.085v.768H11.983v3.609a.807.807,0,0,0,.145.524.61.61,0,0,0,.494.175A2.406,2.406,0,0,0,13.095-.8V0a2.9,2.9,0,0,1-.763.107,1.237,1.237,0,0,1-1-.4,1.731,1.731,0,0,1-.338-1.144v-3.6H9.931v-.768h1.058V-7.219ZM17.816-.575a2.111,2.111,0,0,1-1.7.682A1.807,1.807,0,0,1,14.7-.432a2.336,2.336,0,0,1-.491-1.6V-5.812H15.2v3.754q0,1.321,1.074,1.321a1.487,1.487,0,0,0,1.515-.849V-5.812h.994V0h-.945ZM23.1-4.92a2.978,2.978,0,0,0-.489-.038,1.309,1.309,0,0,0-1.327.833V0h-.994V-5.812h.967l.016.671a1.547,1.547,0,0,1,1.386-.779,1.015,1.015,0,0,1,.44.075Zm.443,1.96A3.433,3.433,0,0,1,23.88-4.5a2.5,2.5,0,0,1,.935-1.053,2.544,2.544,0,0,1,1.367-.371A2.451,2.451,0,0,1,28.1-5.1a3.162,3.162,0,0,1,.733,2.186v.07a3.462,3.462,0,0,1-.325,1.523,2.467,2.467,0,0,1-.929,1.05,2.573,2.573,0,0,1-1.388.376,2.445,2.445,0,0,1-1.915-.822,3.146,3.146,0,0,1-.733-2.175Zm1,.118a2.486,2.486,0,0,0,.448,1.552,1.435,1.435,0,0,0,1.2.585A1.427,1.427,0,0,0,27.4-1.3a2.719,2.719,0,0,0,.446-1.662,2.482,2.482,0,0,0-.454-1.55A1.443,1.443,0,0,0,26.182-5.1a1.427,1.427,0,0,0-1.187.585A2.7,2.7,0,0,0,24.544-2.841Zm8.921,1.3a.731.731,0,0,0-.3-.626A2.921,2.921,0,0,0,32.1-2.551a5,5,0,0,1-1.2-.387,1.7,1.7,0,0,1-.655-.537,1.285,1.285,0,0,1-.212-.741,1.508,1.508,0,0,1,.6-1.208,2.36,2.36,0,0,1,1.544-.494,2.428,2.428,0,0,1,1.6.51A1.621,1.621,0,0,1,34.4-4.1h-1a.9.9,0,0,0-.346-.7,1.3,1.3,0,0,0-.873-.3,1.358,1.358,0,0,0-.849.236.744.744,0,0,0-.306.618.6.6,0,0,0,.285.542,3.5,3.5,0,0,0,1.029.349,5.359,5.359,0,0,1,1.206.4,1.759,1.759,0,0,1,.685.556,1.367,1.367,0,0,1,.223.792,1.487,1.487,0,0,1-.623,1.249,2.613,2.613,0,0,1-1.617.47A2.926,2.926,0,0,1,30.984-.14a2.009,2.009,0,0,1-.841-.69,1.664,1.664,0,0,1-.3-.959h.994a1.029,1.029,0,0,0,.4.792,1.552,1.552,0,0,0,.986.293,1.6,1.6,0,0,0,.905-.228A.7.7,0,0,0,33.465-1.542Z" transform="translate(309.633 8113.107)"/>
    <path id="Trazado_204788" data-name="Trazado 204788" d="M333.255,155.481l-23.05,23.05v32.6l23.05,23.05h32.6l23.051-23.05v-32.6l-23.051-23.05Z" transform="translate(193.097 7908.433)" fill="#57dbd8"/>
    <path id="Trazado_751086" data-name="Trazado 751086" d="M.825,0V-7.109H2.832a3.231,3.231,0,0,1,1.641.41,2.774,2.774,0,0,1,1.1,1.167,3.8,3.8,0,0,1,.393,1.738v.454a3.812,3.812,0,0,1-.388,1.763A2.731,2.731,0,0,1,4.47-.415,3.436,3.436,0,0,1,2.793,0Zm.938-6.343V-.767h.986a2.146,2.146,0,0,0,1.687-.674,2.786,2.786,0,0,0,.6-1.921v-.415A2.831,2.831,0,0,0,4.47-5.661a2.024,2.024,0,0,0-1.614-.682ZM10.5,0a1.9,1.9,0,0,1-.127-.557A2.015,2.015,0,0,1,8.872.1,1.865,1.865,0,0,1,7.59-.344a1.43,1.43,0,0,1-.5-1.121,1.494,1.494,0,0,1,.627-1.282A2.958,2.958,0,0,1,9.482-3.2h.879v-.415a1.015,1.015,0,0,0-.283-.754,1.138,1.138,0,0,0-.835-.281,1.317,1.317,0,0,0-.811.244.719.719,0,0,0-.327.591H7.2a1.247,1.247,0,0,1,.281-.764,1.916,1.916,0,0,1,.762-.583A2.563,2.563,0,0,1,9.3-5.381a2.089,2.089,0,0,1,1.431.457,1.647,1.647,0,0,1,.537,1.257v2.432A2.973,2.973,0,0,0,11.45-.078V0ZM9-.688a1.588,1.588,0,0,0,.806-.22,1.329,1.329,0,0,0,.552-.571V-2.563H9.653q-1.66,0-1.66.972a.822.822,0,0,0,.283.664A1.089,1.089,0,0,0,9-.688Zm4.9-5.874v1.279h.986v.7h-.986V-1.3a.733.733,0,0,0,.132.477.555.555,0,0,0,.449.159,2.187,2.187,0,0,0,.43-.059V0a2.634,2.634,0,0,1-.693.1,1.125,1.125,0,0,1-.913-.366A1.573,1.573,0,0,1,13-1.309V-4.585h-.962v-.7H13V-6.562Zm1.6,3.872a3.121,3.121,0,0,1,.305-1.4,2.277,2.277,0,0,1,.85-.957,2.313,2.313,0,0,1,1.243-.337,2.228,2.228,0,0,1,1.746.747,2.874,2.874,0,0,1,.667,1.987v.063a3.148,3.148,0,0,1-.3,1.384,2.243,2.243,0,0,1-.845.955A2.339,2.339,0,0,1,17.918.1a2.222,2.222,0,0,1-1.741-.747,2.86,2.86,0,0,1-.667-1.978Zm.908.107a2.26,2.26,0,0,0,.408,1.411,1.3,1.3,0,0,0,1.091.532,1.3,1.3,0,0,0,1.094-.54,2.472,2.472,0,0,0,.405-1.511A2.256,2.256,0,0,0,19-4.1a1.312,1.312,0,0,0-1.1-.54,1.3,1.3,0,0,0-1.079.532A2.453,2.453,0,0,0,16.419-2.583ZM24.529-1.4a.665.665,0,0,0-.276-.569,2.655,2.655,0,0,0-.962-.349A4.548,4.548,0,0,1,22.2-2.671a1.549,1.549,0,0,1-.6-.488,1.168,1.168,0,0,1-.193-.674,1.37,1.37,0,0,1,.549-1.1,2.145,2.145,0,0,1,1.4-.449,2.208,2.208,0,0,1,1.458.464,1.473,1.473,0,0,1,.559,1.187h-.908a.815.815,0,0,0-.315-.64,1.18,1.18,0,0,0-.793-.269,1.235,1.235,0,0,0-.771.215.676.676,0,0,0-.278.562.548.548,0,0,0,.259.493,3.184,3.184,0,0,0,.935.317,4.872,4.872,0,0,1,1.1.361,1.6,1.6,0,0,1,.623.505,1.243,1.243,0,0,1,.2.72A1.352,1.352,0,0,1,24.866-.33,2.376,2.376,0,0,1,23.4.1a2.66,2.66,0,0,1-1.123-.225,1.827,1.827,0,0,1-.764-.627,1.512,1.512,0,0,1-.276-.872h.9a.935.935,0,0,0,.364.72,1.411,1.411,0,0,0,.9.266,1.457,1.457,0,0,0,.823-.208A.638.638,0,0,0,24.529-1.4Z" transform="translate(528.2 8099.434)"/>
    <path id="Trazado_751087" data-name="Trazado 751087" d="M1.746-5.108a2.113,2.113,0,0,1,1.719-.811q1.842,0,1.858,2.079V0H4.329V-3.846a1.338,1.338,0,0,0-.287-.929,1.152,1.152,0,0,0-.878-.3,1.434,1.434,0,0,0-.849.258,1.751,1.751,0,0,0-.569.677V0H.752V-8.25h.994ZM7.89,0H6.9V-5.812H7.89ZM6.816-7.353a.593.593,0,0,1,.148-.408A.555.555,0,0,1,7.4-7.928a.563.563,0,0,1,.44.167.587.587,0,0,1,.15.408.568.568,0,0,1-.15.4.573.573,0,0,1-.44.161.565.565,0,0,1-.438-.161A.573.573,0,0,1,6.816-7.353Zm6.048,5.812a.731.731,0,0,0-.3-.626A2.921,2.921,0,0,0,11.5-2.551a5,5,0,0,1-1.2-.387,1.7,1.7,0,0,1-.655-.537,1.285,1.285,0,0,1-.212-.741,1.508,1.508,0,0,1,.6-1.208,2.36,2.36,0,0,1,1.544-.494,2.428,2.428,0,0,1,1.6.51A1.621,1.621,0,0,1,13.8-4.1h-1a.9.9,0,0,0-.346-.7,1.3,1.3,0,0,0-.873-.3,1.358,1.358,0,0,0-.849.236.744.744,0,0,0-.306.618.6.6,0,0,0,.285.542,3.5,3.5,0,0,0,1.029.349,5.359,5.359,0,0,1,1.206.4,1.759,1.759,0,0,1,.685.556,1.367,1.367,0,0,1,.223.792,1.487,1.487,0,0,1-.623,1.249,2.613,2.613,0,0,1-1.617.47A2.926,2.926,0,0,1,10.382-.14a2.009,2.009,0,0,1-.841-.69,1.664,1.664,0,0,1-.3-.959h.994a1.029,1.029,0,0,0,.4.792,1.552,1.552,0,0,0,.986.293,1.6,1.6,0,0,0,.905-.228A.7.7,0,0,0,12.864-1.542ZM16.5-7.219v1.407h1.085v.768H16.5v3.609a.807.807,0,0,0,.145.524.61.61,0,0,0,.494.175A2.406,2.406,0,0,0,17.612-.8V0a2.9,2.9,0,0,1-.763.107,1.237,1.237,0,0,1-1-.4,1.731,1.731,0,0,1-.338-1.144v-3.6H14.448v-.768h1.058V-7.219Zm1.765,4.259A3.433,3.433,0,0,1,18.6-4.5a2.5,2.5,0,0,1,.935-1.053A2.544,2.544,0,0,1,20.9-5.919a2.451,2.451,0,0,1,1.92.822,3.162,3.162,0,0,1,.733,2.186v.07a3.462,3.462,0,0,1-.325,1.523A2.467,2.467,0,0,1,22.3-.269a2.573,2.573,0,0,1-1.388.376A2.445,2.445,0,0,1,19-.714a3.146,3.146,0,0,1-.733-2.175Zm1,.118a2.486,2.486,0,0,0,.448,1.552,1.435,1.435,0,0,0,1.2.585,1.427,1.427,0,0,0,1.2-.594,2.719,2.719,0,0,0,.446-1.662,2.482,2.482,0,0,0-.454-1.55A1.443,1.443,0,0,0,20.9-5.1a1.427,1.427,0,0,0-1.187.585A2.7,2.7,0,0,0,19.264-2.841Zm2.089-5.4h1.2L21.117-6.66l-.8,0ZM27.61-4.92a2.978,2.978,0,0,0-.489-.038,1.309,1.309,0,0,0-1.327.833V0H24.8V-5.812h.967l.016.671a1.547,1.547,0,0,1,1.386-.779,1.015,1.015,0,0,1,.44.075ZM29.6,0h-.994V-5.812H29.6ZM28.529-7.353a.593.593,0,0,1,.148-.408.555.555,0,0,1,.438-.167.563.563,0,0,1,.44.167.587.587,0,0,1,.15.408.568.568,0,0,1-.15.4.573.573,0,0,1-.44.161.565.565,0,0,1-.438-.161A.573.573,0,0,1,28.529-7.353Zm5,6.649a1.431,1.431,0,0,0,.929-.322,1.134,1.134,0,0,0,.44-.806h.94a1.8,1.8,0,0,1-.344.951,2.264,2.264,0,0,1-.846.72,2.441,2.441,0,0,1-1.12.269,2.394,2.394,0,0,1-1.888-.792,3.155,3.155,0,0,1-.7-2.167v-.167a3.5,3.5,0,0,1,.312-1.509,2.373,2.373,0,0,1,.894-1.026,2.54,2.54,0,0,1,1.378-.365,2.331,2.331,0,0,1,1.625.585,2.092,2.092,0,0,1,.69,1.52h-.94a1.369,1.369,0,0,0-.427-.927,1.328,1.328,0,0,0-.948-.363,1.391,1.391,0,0,0-1.174.545,2.56,2.56,0,0,0-.416,1.576v.188a2.509,2.509,0,0,0,.414,1.547A1.4,1.4,0,0,0,33.524-.7Zm3.164-2.256A3.433,3.433,0,0,1,37.023-4.5a2.5,2.5,0,0,1,.935-1.053,2.544,2.544,0,0,1,1.367-.371,2.451,2.451,0,0,1,1.92.822,3.162,3.162,0,0,1,.733,2.186v.07a3.463,3.463,0,0,1-.325,1.523,2.467,2.467,0,0,1-.929,1.05,2.573,2.573,0,0,1-1.388.376,2.445,2.445,0,0,1-1.915-.822,3.146,3.146,0,0,1-.733-2.175Zm1,.118a2.486,2.486,0,0,0,.448,1.552,1.435,1.435,0,0,0,1.2.585,1.427,1.427,0,0,0,1.2-.594,2.719,2.719,0,0,0,.446-1.662,2.482,2.482,0,0,0-.454-1.55A1.443,1.443,0,0,0,39.325-5.1a1.427,1.427,0,0,0-1.187.585A2.7,2.7,0,0,0,37.686-2.841Zm8.921,1.3a.731.731,0,0,0-.3-.626,2.921,2.921,0,0,0-1.058-.384,5,5,0,0,1-1.2-.387,1.7,1.7,0,0,1-.655-.537,1.285,1.285,0,0,1-.212-.741,1.508,1.508,0,0,1,.6-1.208,2.36,2.36,0,0,1,1.544-.494,2.428,2.428,0,0,1,1.6.51A1.621,1.621,0,0,1,47.548-4.1h-1a.9.9,0,0,0-.346-.7,1.3,1.3,0,0,0-.873-.3,1.359,1.359,0,0,0-.849.236.744.744,0,0,0-.306.618.6.6,0,0,0,.285.542,3.5,3.5,0,0,0,1.029.349,5.359,5.359,0,0,1,1.206.4,1.759,1.759,0,0,1,.685.556,1.367,1.367,0,0,1,.223.792,1.487,1.487,0,0,1-.623,1.249,2.613,2.613,0,0,1-1.617.47A2.926,2.926,0,0,1,44.126-.14a2.009,2.009,0,0,1-.841-.69,1.663,1.663,0,0,1-.3-.959h.994a1.029,1.029,0,0,0,.4.792,1.552,1.552,0,0,0,.986.293,1.6,1.6,0,0,0,.905-.228A.7.7,0,0,0,46.608-1.542Z" transform="translate(518.294 8112.76)"/>
    <path id="Trazado_204789" data-name="Trazado 204789" d="M176.953,311.783l-23.05,23.05v32.6l23.05,23.05h32.6l23.05-23.05v-32.6l-23.05-23.05Z" transform="translate(240.916 7860.614)" fill="#57dbd8"/>
    <path id="Trazado_751088" data-name="Trazado 751088" d="M.825,0V-7.109H2.832a3.231,3.231,0,0,1,1.641.41,2.774,2.774,0,0,1,1.1,1.167,3.8,3.8,0,0,1,.393,1.738v.454a3.812,3.812,0,0,1-.388,1.763A2.731,2.731,0,0,1,4.47-.415,3.436,3.436,0,0,1,2.793,0Zm.938-6.343V-.767h.986a2.146,2.146,0,0,0,1.687-.674,2.786,2.786,0,0,0,.6-1.921v-.415A2.831,2.831,0,0,0,4.47-5.661a2.024,2.024,0,0,0-1.614-.682ZM10.5,0a1.9,1.9,0,0,1-.127-.557A2.015,2.015,0,0,1,8.872.1,1.865,1.865,0,0,1,7.59-.344a1.43,1.43,0,0,1-.5-1.121,1.494,1.494,0,0,1,.627-1.282A2.958,2.958,0,0,1,9.482-3.2h.879v-.415a1.015,1.015,0,0,0-.283-.754,1.138,1.138,0,0,0-.835-.281,1.317,1.317,0,0,0-.811.244.719.719,0,0,0-.327.591H7.2a1.247,1.247,0,0,1,.281-.764,1.916,1.916,0,0,1,.762-.583A2.563,2.563,0,0,1,9.3-5.381a2.089,2.089,0,0,1,1.431.457,1.647,1.647,0,0,1,.537,1.257v2.432A2.973,2.973,0,0,0,11.45-.078V0ZM9-.688a1.588,1.588,0,0,0,.806-.22,1.329,1.329,0,0,0,.552-.571V-2.563H9.653q-1.66,0-1.66.972a.822.822,0,0,0,.283.664A1.089,1.089,0,0,0,9-.688Zm4.9-5.874v1.279h.986v.7h-.986V-1.3a.733.733,0,0,0,.132.477.555.555,0,0,0,.449.159,2.187,2.187,0,0,0,.43-.059V0a2.634,2.634,0,0,1-.693.1,1.125,1.125,0,0,1-.913-.366A1.573,1.573,0,0,1,13-1.309V-4.585h-.962v-.7H13V-6.562Zm1.6,3.872a3.121,3.121,0,0,1,.305-1.4,2.277,2.277,0,0,1,.85-.957,2.313,2.313,0,0,1,1.243-.337,2.228,2.228,0,0,1,1.746.747,2.874,2.874,0,0,1,.667,1.987v.063a3.148,3.148,0,0,1-.3,1.384,2.243,2.243,0,0,1-.845.955A2.339,2.339,0,0,1,17.918.1a2.222,2.222,0,0,1-1.741-.747,2.86,2.86,0,0,1-.667-1.978Zm.908.107a2.26,2.26,0,0,0,.408,1.411,1.3,1.3,0,0,0,1.091.532,1.3,1.3,0,0,0,1.094-.54,2.472,2.472,0,0,0,.405-1.511A2.256,2.256,0,0,0,19-4.1a1.312,1.312,0,0,0-1.1-.54,1.3,1.3,0,0,0-1.079.532A2.453,2.453,0,0,0,16.419-2.583ZM24.529-1.4a.665.665,0,0,0-.276-.569,2.655,2.655,0,0,0-.962-.349A4.548,4.548,0,0,1,22.2-2.671a1.549,1.549,0,0,1-.6-.488,1.168,1.168,0,0,1-.193-.674,1.37,1.37,0,0,1,.549-1.1,2.145,2.145,0,0,1,1.4-.449,2.208,2.208,0,0,1,1.458.464,1.473,1.473,0,0,1,.559,1.187h-.908a.815.815,0,0,0-.315-.64,1.18,1.18,0,0,0-.793-.269,1.235,1.235,0,0,0-.771.215.676.676,0,0,0-.278.562.548.548,0,0,0,.259.493,3.184,3.184,0,0,0,.935.317,4.872,4.872,0,0,1,1.1.361,1.6,1.6,0,0,1,.623.505,1.243,1.243,0,0,1,.2.72A1.352,1.352,0,0,1,24.866-.33,2.376,2.376,0,0,1,23.4.1a2.66,2.66,0,0,1-1.123-.225,1.827,1.827,0,0,1-.764-.627,1.512,1.512,0,0,1-.276-.872h.9a.935.935,0,0,0,.364.72,1.411,1.411,0,0,0,.9.266,1.457,1.457,0,0,0,.823-.208A.638.638,0,0,0,24.529-1.4Z" transform="translate(419.717 8207.917)"/>
    <path id="Trazado_751089" data-name="Trazado 751089" d="M3.945,0a1.9,1.9,0,0,1-.127-.557A2.015,2.015,0,0,1,2.314.1,1.865,1.865,0,0,1,1.033-.344a1.43,1.43,0,0,1-.5-1.121A1.494,1.494,0,0,1,1.16-2.747,2.958,2.958,0,0,1,2.925-3.2H3.8v-.415a1.015,1.015,0,0,0-.283-.754,1.138,1.138,0,0,0-.835-.281,1.317,1.317,0,0,0-.811.244.719.719,0,0,0-.327.591H.64A1.247,1.247,0,0,1,.92-4.583a1.916,1.916,0,0,1,.762-.583,2.563,2.563,0,0,1,1.057-.215,2.089,2.089,0,0,1,1.431.457,1.647,1.647,0,0,1,.537,1.257v2.432A2.973,2.973,0,0,0,4.893-.078V0Zm-1.5-.688a1.588,1.588,0,0,0,.806-.22A1.329,1.329,0,0,0,3.8-1.479V-2.563H3.1q-1.66,0-1.66.972a.822.822,0,0,0,.283.664A1.089,1.089,0,0,0,2.446-.688Zm5.8.049a1.3,1.3,0,0,0,.845-.293,1.031,1.031,0,0,0,.4-.732h.854a1.638,1.638,0,0,1-.312.864,2.058,2.058,0,0,1-.769.654A2.219,2.219,0,0,1,8.242.1a2.176,2.176,0,0,1-1.716-.72,2.869,2.869,0,0,1-.637-1.97v-.151a3.181,3.181,0,0,1,.283-1.372,2.157,2.157,0,0,1,.813-.933,2.309,2.309,0,0,1,1.252-.332,2.119,2.119,0,0,1,1.477.532,1.9,1.9,0,0,1,.627,1.382H9.487A1.245,1.245,0,0,0,9.1-4.309a1.208,1.208,0,0,0-.862-.33,1.264,1.264,0,0,0-1.067.5A2.328,2.328,0,0,0,6.792-2.71v.171a2.281,2.281,0,0,0,.376,1.406A1.27,1.27,0,0,0,8.242-.64Zm4.341-5.923v1.279h.986v.7h-.986V-1.3a.733.733,0,0,0,.132.477.555.555,0,0,0,.449.159,2.187,2.187,0,0,0,.43-.059V0A2.634,2.634,0,0,1,12.9.1a1.125,1.125,0,0,1-.913-.366,1.573,1.573,0,0,1-.308-1.04V-4.585h-.962v-.7h.962V-6.562Zm5.3,6.04A1.919,1.919,0,0,1,16.338.1a1.642,1.642,0,0,1-1.287-.491A2.124,2.124,0,0,1,14.6-1.846V-5.283h.9V-1.87q0,1.2.977,1.2a1.352,1.352,0,0,0,1.377-.771V-5.283h.9V0h-.859ZM23.4,0a1.9,1.9,0,0,1-.127-.557,2.015,2.015,0,0,1-1.5.654,1.865,1.865,0,0,1-1.282-.442,1.43,1.43,0,0,1-.5-1.121,1.494,1.494,0,0,1,.627-1.282A2.958,2.958,0,0,1,22.378-3.2h.879v-.415a1.015,1.015,0,0,0-.283-.754,1.138,1.138,0,0,0-.835-.281,1.317,1.317,0,0,0-.811.244A.719.719,0,0,0,21-3.818h-.908a1.247,1.247,0,0,1,.281-.764,1.916,1.916,0,0,1,.762-.583,2.563,2.563,0,0,1,1.057-.215,2.089,2.089,0,0,1,1.431.457,1.647,1.647,0,0,1,.537,1.257v2.432a2.973,2.973,0,0,0,.186,1.157V0ZM21.9-.688a1.588,1.588,0,0,0,.806-.22,1.329,1.329,0,0,0,.552-.571V-2.563h-.708q-1.66,0-1.66.972a.822.822,0,0,0,.283.664A1.089,1.089,0,0,0,21.9-.688ZM26.558,0h-.9V-7.5h.9ZM30.2.1a2.308,2.308,0,0,1-1.748-.706A2.619,2.619,0,0,1,27.773-2.5v-.166a3.17,3.17,0,0,1,.3-1.4,2.343,2.343,0,0,1,.84-.967,2.112,2.112,0,0,1,1.169-.349,1.979,1.979,0,0,1,1.6.679,2.939,2.939,0,0,1,.571,1.943v.376H28.677a1.878,1.878,0,0,0,.457,1.262,1.435,1.435,0,0,0,1.111.481,1.573,1.573,0,0,0,.811-.2,2.037,2.037,0,0,0,.581-.518l.552.43A2.219,2.219,0,0,1,30.2.1Zm-.112-4.736a1.2,1.2,0,0,0-.918.4,1.934,1.934,0,0,0-.459,1.116h2.646v-.068a1.721,1.721,0,0,0-.371-1.067A1.134,1.134,0,0,0,30.083-4.639ZM36.377-1.4A.665.665,0,0,0,36.1-1.97a2.655,2.655,0,0,0-.962-.349,4.548,4.548,0,0,1-1.089-.352,1.549,1.549,0,0,1-.6-.488,1.168,1.168,0,0,1-.193-.674,1.37,1.37,0,0,1,.549-1.1,2.145,2.145,0,0,1,1.4-.449,2.208,2.208,0,0,1,1.458.464,1.473,1.473,0,0,1,.559,1.187h-.908a.815.815,0,0,0-.315-.64,1.18,1.18,0,0,0-.793-.269,1.235,1.235,0,0,0-.771.215.676.676,0,0,0-.278.562.548.548,0,0,0,.259.493,3.184,3.184,0,0,0,.935.317,4.872,4.872,0,0,1,1.1.361,1.6,1.6,0,0,1,.623.505,1.243,1.243,0,0,1,.2.72A1.352,1.352,0,0,1,36.714-.33,2.376,2.376,0,0,1,35.244.1a2.66,2.66,0,0,1-1.123-.225,1.827,1.827,0,0,1-.764-.627,1.512,1.512,0,0,1-.276-.872h.9a.935.935,0,0,0,.364.72,1.411,1.411,0,0,0,.9.266,1.457,1.457,0,0,0,.823-.208A.638.638,0,0,0,36.377-1.4Z" transform="translate(413.198 8221.243)"/>
    <path id="Trazado_751090" data-name="Trazado 751090" d="M0,0V137.131" transform="translate(434.737 8034.697)" fill="none" stroke="#348381" stroke-width="4"/>
    <path id="Trazado_751091" data-name="Trazado 751091" d="M137.131,0H0" transform="translate(366.171 8103.263)" fill="none" stroke="#348381" stroke-width="4"/>
    <g id="Grupo_138433" data-name="Grupo 138433" transform="translate(288 7956)">
      <g id="Grupo_138432" data-name="Grupo 138432" clip-path="url(#clip-path)">
        <path id="Trazado_204790" data-name="Trazado 204790" d="M232.92,194.831a39.349,39.349,0,1,1-39.349-39.349,39.348,39.348,0,0,1,39.349,39.349" transform="translate(-47.182 -47.567)" fill="#45afac"/>
      </g>
    </g>
    <path id="Trazado_751092" data-name="Trazado 751092" d="M5.719-3.486H2.449L1.84,0H.123L1.605-8.531h5.4L6.756-7.107H3.076L2.689-4.9H5.971ZM9.835-6.457a2.543,2.543,0,0,1,1.444.431,2.425,2.425,0,0,1,.891,1.154,3.571,3.571,0,0,1,.2,1.632A3.858,3.858,0,0,1,11.32-.794,2.97,2.97,0,0,1,9.056.117a2.535,2.535,0,0,1-1.43-.425,2.416,2.416,0,0,1-.891-1.146A3.492,3.492,0,0,1,6.53-3.07,3.971,3.971,0,0,1,7.6-5.566,2.908,2.908,0,0,1,9.835-6.457ZM8.165-2.471a1.463,1.463,0,0,0,.264.886.876.876,0,0,0,.709.336,1.284,1.284,0,0,0,1.2-.7,3.485,3.485,0,0,0,.4-1.9,1.591,1.591,0,0,0-.272-.9.862.862,0,0,0-.712-.348A1.286,1.286,0,0,0,8.572-4.4,3.449,3.449,0,0,0,8.165-2.471Zm9.023-2.281a3.411,3.411,0,0,0-.557-.059,1.6,1.6,0,0,0-1.4.662L14.5,0H12.847l1.1-6.34L15.5-6.346l-.152.773a1.743,1.743,0,0,1,1.477-.9,2.41,2.41,0,0,1,.574.082ZM20.057.117A2.758,2.758,0,0,1,18.584-.29a2.469,2.469,0,0,1-.958-1.1,3.07,3.07,0,0,1-.246-1.544L17.4-3.17a4.1,4.1,0,0,1,.539-1.7A3.256,3.256,0,0,1,19.1-6.062a2.87,2.87,0,0,1,1.57-.4,2.193,2.193,0,0,1,1.854.9A3.088,3.088,0,0,1,23-3.335l-.094.722H19.02a1.36,1.36,0,0,0,.3.984,1.141,1.141,0,0,0,.879.381,2.027,2.027,0,0,0,1.582-.7l.756.938A2.351,2.351,0,0,1,21.5-.173,3.372,3.372,0,0,1,20.057.117Zm.527-5.209a1.174,1.174,0,0,0-.812.287,2.522,2.522,0,0,0-.636,1.037h2.273l.035-.152a1.553,1.553,0,0,0,.006-.445.851.851,0,0,0-.287-.53A.9.9,0,0,0,20.584-5.092Zm5.59,3.85a1.085,1.085,0,0,0,.762-.249,1.224,1.224,0,0,0,.4-.694l1.553-.006a2.277,2.277,0,0,1-.419,1.2,2.545,2.545,0,0,1-1.008.832,2.885,2.885,0,0,1-1.327.281,2.343,2.343,0,0,1-1.828-.8,2.974,2.974,0,0,1-.65-2.074l.018-.322.006-.064a3.963,3.963,0,0,1,1.043-2.452,2.821,2.821,0,0,1,2.186-.87,2.285,2.285,0,0,1,1.7.7,2.473,2.473,0,0,1,.618,1.784H27.686a1.3,1.3,0,0,0-.223-.8.846.846,0,0,0-.668-.316q-1.184-.035-1.436,1.729A5.837,5.837,0,0,0,25.3-2.285Q25.354-1.26,26.174-1.242ZM33.194,0a1.71,1.71,0,0,1-.064-.574,2.147,2.147,0,0,1-1.617.691,1.946,1.946,0,0,1-1.38-.542,1.64,1.64,0,0,1-.513-1.31,1.9,1.9,0,0,1,.87-1.591,3.95,3.95,0,0,1,2.224-.554l.773.012.082-.381a1.323,1.323,0,0,0,.018-.369.635.635,0,0,0-.208-.431.717.717,0,0,0-.472-.161,1.009,1.009,0,0,0-.656.19.923.923,0,0,0-.346.583l-1.658.006A1.843,1.843,0,0,1,31.082-5.9a3.234,3.234,0,0,1,1.96-.554,2.338,2.338,0,0,1,1.688.642,1.877,1.877,0,0,1,.51,1.591l-.486,3.035-.029.375a1.809,1.809,0,0,0,.1.7L34.817,0ZM31.922-1.166a1.513,1.513,0,0,0,1.248-.621l.205-1.1L32.8-2.889a1.6,1.6,0,0,0-1.318.557.969.969,0,0,0-.182.475.562.562,0,0,0,.132.5A.668.668,0,0,0,31.922-1.166ZM39.5-1.787q.094-.469-.65-.68L38.315-2.6q-1.893-.521-1.84-1.84A1.821,1.821,0,0,1,37.269-5.9a2.956,2.956,0,0,1,1.843-.554,2.652,2.652,0,0,1,1.734.568,1.872,1.872,0,0,1,.674,1.482l-1.641-.006a.722.722,0,0,0-.809-.826,1.164,1.164,0,0,0-.671.193.8.8,0,0,0-.349.521q-.088.469.709.662l.234.053a4.714,4.714,0,0,1,1.236.442,1.866,1.866,0,0,1,.659.618,1.53,1.53,0,0,1,.214.885,1.688,1.688,0,0,1-.39,1.055,2.385,2.385,0,0,1-1.02.7,3.552,3.552,0,0,1-1.362.229,2.676,2.676,0,0,1-1.758-.606,1.955,1.955,0,0,1-.715-1.538l1.559.012a.857.857,0,0,0,.973.92,1.384,1.384,0,0,0,.753-.187A.741.741,0,0,0,39.5-1.787ZM45.217-7.9,44.942-6.34H46L45.78-5.1H44.725l-.539,3.176a.807.807,0,0,0,.047.457q.082.158.4.17.094.006.5-.029L45.018-.029a2.779,2.779,0,0,1-.949.135A1.489,1.489,0,0,1,42.856-.4a1.842,1.842,0,0,1-.328-1.348L43.073-5.1h-.9l.217-1.242h.9l.27-1.559Z" transform="translate(410.385 8106.115)"/>
  </g>
</svg>
