<svg xmlns="http://www.w3.org/2000/svg" xmlns:xlink="http://www.w3.org/1999/xlink" width="933.116" height="1091.563" viewBox="0 0 933.116 1091.563">
  <defs>
    <clipPath id="clip-path">
      <rect id="Rectángulo_356087" data-name="Rectángulo 356087" width="933.116" height="1091.563" fill="none"/>
    </clipPath>
    <clipPath id="clip-path-2">
      <path id="Trazado_750976" data-name="Trazado 750976" d="M833.271,518,728.211,699.957H942.2L1047.253,518Z" transform="translate(-728.211 -517.998)" fill="none"/>
    </clipPath>
    <linearGradient id="linear-gradient" x1="-1.406" y1="4.246" x2="-1.404" y2="4.246" gradientUnits="objectBoundingBox">
      <stop offset="0" stop-color="#de3d95"/>
      <stop offset="1" stop-color="#7d1f61"/>
    </linearGradient>
  </defs>
  <g id="Grupo_1019308" data-name="Grupo 1019308" transform="translate(-336 -9068)">
    <g id="Grupo_1019307" data-name="Grupo 1019307" transform="translate(336 9068.003)">
      <rect id="Rectángulo_356084" data-name="Rectángulo 356084" width="487.697" height="3.695" transform="translate(115.354 1087.865)" fill="#5d5e5e"/>
      <rect id="Rectángulo_356085" data-name="Rectángulo 356085" width="3.695" height="318.99" transform="translate(772.654 -0.002)" fill="#5d5e5e"/>
      <rect id="Rectángulo_356086" data-name="Rectángulo 356086" width="238.531" height="165.037" transform="translate(279.913 153.95)" fill="#ff9000"/>
      <g id="Grupo_1019296" data-name="Grupo 1019296" transform="translate(0 -0.003)">
        <g id="Grupo_1019295" data-name="Grupo 1019295" clip-path="url(#clip-path)">
          <path id="Trazado_750974" data-name="Trazado 750974" d="M9.4,250A9.4,9.4,0,0,0,.1,260.783L21.793,406.112a10.469,10.469,0,0,0,10.354,8.923H268.424V250Z" transform="translate(0 -96.045)" fill="#ff5100"/>
          <path id="Trazado_750975" data-name="Trazado 750975" d="M651.476,832.133l-105.73,183.122H759.735L865.462,832.133Z" transform="translate(-209.67 -319.695)" fill="#12b09b"/>
        </g>
      </g>
      <g id="Grupo_1019298" data-name="Grupo 1019298" transform="translate(448.44 318.988)">
        <g id="Grupo_1019297" data-name="Grupo 1019297" clip-path="url(#clip-path-2)">
          <rect id="Rectángulo_356088" data-name="Rectángulo 356088" width="319.042" height="181.959" transform="translate(0)" fill="url(#linear-gradient)"/>
        </g>
      </g>
      <g id="Grupo_1019300" data-name="Grupo 1019300" transform="translate(0 -0.003)">
        <g id="Grupo_1019299" data-name="Grupo 1019299" clip-path="url(#clip-path)">
          <path id="Trazado_750977" data-name="Trazado 750977" d="M1047.252,518H833.271L728.211,699.957H942.2Z" transform="translate(-279.771 -199.007)" fill="#8faf09"/>
          <path id="Trazado_750978" data-name="Trazado 750978" d="M197.625,1628.06a10.469,10.469,0,0,0,9.066,15.7H396.51a10.468,10.468,0,0,0,9.066-5.234l101.238-175.346H292.821Z" transform="translate(-75.387 -562.137)" fill="#1a0f91"/>
          <path id="Trazado_750979" data-name="Trazado 750979" d="M363.859,1330.664H577.851l105.373-182.507H469.234Z" transform="translate(-139.791 -441.108)" fill="#127eb0"/>
          <path id="Trazado_750980" data-name="Trazado 750980" d="M860.545,250V415.035h237.909V250Z" transform="translate(-330.612 -96.045)" fill="#fc0"/>
          <rect id="Rectángulo_356089" data-name="Rectángulo 356089" width="3.695" height="318.99" transform="translate(272.321)" fill="#5d5e5e"/>
          <rect id="Rectángulo_356090" data-name="Rectángulo 356090" width="3.695" height="318.99" transform="translate(522.341)" fill="#5d5e5e"/>
          <rect id="Rectángulo_356091" data-name="Rectángulo 356091" width="487.697" height="3.695" transform="translate(445.418 504.715)" fill="#5d5e5e"/>
          <rect id="Rectángulo_356092" data-name="Rectángulo 356092" width="487.698" height="3.695" transform="translate(332.73 699.302)" fill="#5d5e5e"/>
          <rect id="Rectángulo_356093" data-name="Rectángulo 356093" width="487.697" height="3.695" transform="translate(221.274 893.272)" fill="#5d5e5e"/>
          <path id="Trazado_750981" data-name="Trazado 750981" d="M640.355,261.869v9.822H624.1V296.1H613.155V261.869Z" transform="translate(-235.568 -100.605)" fill="#fff"/>
          <path id="Trazado_750982" data-name="Trazado 750982" d="M664.207,315.7a5.181,5.181,0,1,1-7.214-1.286,5.175,5.175,0,0,1,7.214,1.286" transform="translate(-251.558 -120.434)" fill="#fff"/>
          <path id="Trazado_750983" data-name="Trazado 750983" d="M664.5,282.379V316.6h-2.647l-2.837-4.064a8.187,8.187,0,1,0-2.3,1.611l1.717,2.453H637.3v-34.22Z" transform="translate(-244.844 -108.485)" fill="#fff"/>
          <path id="Trazado_750984" data-name="Trazado 750984" d="M675.037,337.948h-3.423l4.281,6.145,2.3-1.61Z" transform="translate(-258.027 -129.834)" fill="#fff"/>
          <path id="Trazado_750985" data-name="Trazado 750985" d="M1086.585,307.394l.179,14.4a3.15,3.15,0,0,1-3.107,3.187l-16.4.2a3.066,3.066,0,0,0,.4-1.576l-.172-14.4-5.6-2.114,4.732-1.995a10.446,10.446,0,0,0,13.608-.1Z" transform="translate(-407.965 -117.172)" fill="#fff"/>
          <path id="Trazado_750986" data-name="Trazado 750986" d="M1083.673,286.806a8.38,8.38,0,1,1-8.483-8.281,8.379,8.379,0,0,1,8.483,8.281" transform="translate(-409.897 -107.005)" fill="#fff"/>
          <path id="Trazado_750987" data-name="Trazado 750987" d="M991.286,308.505l.181,14.409a3.133,3.133,0,0,0,3.184,3.1l16.394-.2a3.092,3.092,0,0,1-.439-1.56l-.174-14.412,5.539-2.256L1011.2,305.7a10.454,10.454,0,0,1-13.61.239Z" transform="translate(-380.842 -117.446)" fill="#fff"/>
          <path id="Trazado_750988" data-name="Trazado 750988" d="M998.74,287.847a8.385,8.385,0,0,0,4.008,7.049,8.378,8.378,0,1,0,4.274-15.522,8.387,8.387,0,0,0-8.281,8.474" transform="translate(-383.705 -107.33)" fill="#fff"/>
          <path id="Trazado_750989" data-name="Trazado 750989" d="M1049.708,292.326a8.364,8.364,0,0,1-3.832,7.137,8.369,8.369,0,0,1-9.062.032,8.383,8.383,0,1,1,12.894-7.169" transform="translate(-396.845 -109.126)" fill="#fff"/>
          <path id="Trazado_750990" data-name="Trazado 750990" d="M1051.693,312.915l.175,14.4a3.128,3.128,0,0,1-3.1,3.184l-21.088.261a1.966,1.966,0,0,1-1.987-1.939l-.19-15.594,6.218-2.617a10.458,10.458,0,0,0,13.613-.1l.765.292Z" transform="translate(-393.987 -119.293)" fill="#fff"/>
        </g>
      </g>
      <g id="Grupo_1019302" data-name="Grupo 1019302" transform="translate(0 -0.003)">
        <g id="Grupo_1019301" data-name="Grupo 1019301" clip-path="url(#clip-path)">
          <path id="Trazado_750991" data-name="Trazado 750991" d="M645.567,1182.733a7.364,7.364,0,1,0-10.7-.01,11.023,11.023,0,0,0-3.525,1.2,11.057,11.057,0,0,0-7.278-3.72,8.591,8.591,0,1,0-12.146-.28c.087.092.178.182.27.27a11.018,11.018,0,0,0-7.267,3.731,10.987,10.987,0,0,0-3.525-1.2,7.364,7.364,0,1,0-10.7.01,11.053,11.053,0,0,0-9.382,10.906v11.046a3.682,3.682,0,0,0,3.682,3.682h2.455v22.092a1.227,1.227,0,0,0,1.227,1.227h12.274a1.227,1.227,0,1,0,0-2.455h-3.683v-19.637a1.227,1.227,0,1,0-2.455,0v19.637H589.9v-36.82a1.227,1.227,0,0,0-2.455,0v13.5h-2.455a1.227,1.227,0,0,1-1.227-1.227v-11.046a8.6,8.6,0,0,1,8.591-8.591v1.227a2.454,2.454,0,0,0,1.128,2.059l-1.121,10.079a1.23,1.23,0,0,0,.2.816l2.455,3.682a1.228,1.228,0,0,0,2.043,0l2.455-3.682a1.23,1.23,0,0,0,.2-.816l-1.121-10.079a2.455,2.455,0,0,0,1.128-2.059v-1.227a8.558,8.558,0,0,1,3.785.886,10.973,10.973,0,0,0-1.33,5.25v20.865a1.227,1.227,0,0,0,2.455,0v-3.683h4.909a1.227,1.227,0,0,0,1.227-1.227v-17.182a1.227,1.227,0,0,0-2.455,0v15.955h-3.682v-14.728a8.6,8.6,0,0,1,8.591-8.591,3.681,3.681,0,0,0,2.263,3.4l-2.243,12.34a1.227,1.227,0,0,0,.226.956l3.682,4.909a1.227,1.227,0,0,0,1.718.246,1.258,1.258,0,0,0,.246-.246l3.682-4.909a1.228,1.228,0,0,0,.224-.956l-2.243-12.34a3.681,3.681,0,0,0,2.264-3.4,8.6,8.6,0,0,1,8.592,8.591v14.728h-3.683v-15.955a1.227,1.227,0,0,0-2.455,0v17.182a1.227,1.227,0,0,0,1.227,1.227h4.91v3.683a1.227,1.227,0,0,0,2.455,0v-20.865a10.951,10.951,0,0,0-1.35-5.239,8.58,8.58,0,0,1,3.805-.9v1.227a2.453,2.453,0,0,0,1.126,2.058l-1.119,10.08a1.223,1.223,0,0,0,.2.816l2.455,3.682a1.226,1.226,0,0,0,2.042,0l2.455-3.682a1.226,1.226,0,0,0,.2-.816l-1.12-10.08a2.452,2.452,0,0,0,1.127-2.058v-1.227a8.6,8.6,0,0,1,8.591,8.591v11.046a1.227,1.227,0,0,1-1.227,1.227h-2.455v-13.5a1.227,1.227,0,0,0-2.455,0v36.82H643.9a1.227,1.227,0,1,0,0,2.455h3.682a1.227,1.227,0,0,0,1.227-1.227v-22.092h2.455a3.682,3.682,0,0,0,3.682-3.682v-11.046a11.053,11.053,0,0,0-9.382-10.906m-49.53-9.959a4.91,4.91,0,1,1-4.909,4.909,4.91,4.91,0,0,1,4.909-4.909m0,27.247-1.185-1.777,1.063-9.514h.258l1.057,9.51Zm1.227-13.746h-2.455v-1.227h2.455ZM611.992,1174a6.137,6.137,0,1,1,6.136,6.137,6.137,6.137,0,0,1-6.136-6.137m6.136,27.41-2.378-3.17,2.174-11.966h.408l2.175,11.966Zm1.227-17.591H616.9a1.227,1.227,0,0,1-1.227-1.227h4.909a1.228,1.228,0,0,1-1.227,1.227m20.865-11.046a4.91,4.91,0,1,1-4.909,4.909,4.91,4.91,0,0,1,4.909-4.909m0,27.247-1.185-1.777,1.063-9.514h.245l1.058,9.51Zm1.227-13.746h-2.455v-1.227h2.455Z" transform="translate(-223.333 -447.731)" fill="#fff"/>
          <path id="Trazado_750992" data-name="Trazado 750992" d="M677.437,1254.813V1236.4a1.227,1.227,0,0,0-2.455,0v18.41a1.227,1.227,0,0,0,2.455,0" transform="translate(-259.321 -474.539)" fill="#fff"/>
          <path id="Trazado_750993" data-name="Trazado 750993" d="M655.227,1258.749l-8.89-5.13a16.019,16.019,0,1,0-3.693,6.371l8.9,5.141a3.649,3.649,0,0,0,1.828.491,3.5,3.5,0,0,0,.947-.131,3.682,3.682,0,0,0,.907-6.743m-30.913,2a13.5,13.5,0,1,1,6.708,1.8,13.5,13.5,0,0,1-6.708-1.8m30.137,1.809a1.209,1.209,0,0,1-.765.57,1.181,1.181,0,0,1-.913-.123l-8.576-4.948c.231-.338.478-.661.686-1.021s.383-.727.56-1.093l8.557,4.939a1.24,1.24,0,0,1,.451,1.677" transform="translate(-236.269 -473.689)" fill="#fff"/>
          <path id="Trazado_750994" data-name="Trazado 750994" d="M644.027,1248.519H643.1l.655-.654a1.228,1.228,0,0,0,0-1.736l-3.474-3.473a1.227,1.227,0,0,0-1.735,0l-.654.654v-.927a1.227,1.227,0,0,0-1.227-1.227h-4.909a1.227,1.227,0,0,0-1.227,1.227v.927l-.655-.654a1.227,1.227,0,0,0-1.735,0l-3.473,3.473a1.228,1.228,0,0,0,0,1.736l.654.654h-.928a1.227,1.227,0,0,0-1.227,1.227v4.909a1.228,1.228,0,0,0,1.227,1.227h.928l-.654.654a1.228,1.228,0,0,0,0,1.736l3.473,3.473a1.227,1.227,0,0,0,1.735,0l.655-.654v.927a1.227,1.227,0,0,0,1.227,1.227h4.909a1.227,1.227,0,0,0,1.227-1.227v-.927l.654.654a1.227,1.227,0,0,0,1.735,0l3.474-3.473a1.228,1.228,0,0,0,0-1.736l-.655-.654h.928a1.227,1.227,0,0,0,1.227-1.227v-4.909a1.227,1.227,0,0,0-1.227-1.227m-1.227,4.909h-2.663a1.227,1.227,0,0,0-.868,2.1l1.881,1.881-1.738,1.738-1.881-1.882a1.227,1.227,0,0,0-2.095.868v2.663h-2.455v-2.663a1.228,1.228,0,0,0-2.095-.868L629,1259.143l-1.738-1.738,1.881-1.881a1.227,1.227,0,0,0-.868-2.1h-2.663v-2.455h2.663a1.227,1.227,0,0,0,.868-2.095L627.266,1247l1.738-1.738,1.882,1.882a1.228,1.228,0,0,0,2.095-.868v-2.663h2.455v2.663a1.228,1.228,0,0,0,2.095.868l1.881-1.882L641.15,1247l-1.881,1.882a1.227,1.227,0,0,0,.868,2.095H642.8Z" transform="translate(-239.412 -476.837)" fill="#fff"/>
          <path id="Trazado_750995" data-name="Trazado 750995" d="M638.8,1253.113a3.682,3.682,0,1,0,3.682,3.682,3.682,3.682,0,0,0-3.682-3.682m0,4.909a1.227,1.227,0,1,1,1.227-1.227,1.227,1.227,0,0,1-1.227,1.227" transform="translate(-244.007 -481.431)" fill="#fff"/>
        </g>
      </g>
      <g id="Grupo_1019304" data-name="Grupo 1019304" transform="translate(0 -0.003)">
        <g id="Grupo_1019303" data-name="Grupo 1019303" clip-path="url(#clip-path)">
          <path id="Trazado_750996" data-name="Trazado 750996" d="M222.889,293.7a18.943,18.943,0,1,0-29.8-2.645l-4.588,4.452a2.5,2.5,0,0,0-3.1.306l-9.931,9.636a2.506,2.506,0,0,0-.053,3.539L179,312.688a2.505,2.505,0,0,0,3.539.053l9.931-9.636a2.509,2.509,0,0,0,.4-3.088l4.439-4.308a18.829,18.829,0,0,0,5.747,3.088l-.953,1.652a4.653,4.653,0,0,0,4.029,6.979h16.616a4.653,4.653,0,0,0,4.03-6.979Zm-31.611,8.168-9.931,9.636a.786.786,0,0,1-1.11-.017l-3.585-3.695a.786.786,0,0,1,.017-1.11l9.931-9.636a.79.79,0,0,1,1.11.017l3.585,3.695a.791.791,0,0,1-.017,1.11m.447-3.133-1.981-2.041,4.351-4.221a19.064,19.064,0,0,0,1.914,2.106Zm.065-17.929a17.225,17.225,0,1,1,30.2,11.331l-1.362-2.358A14.672,14.672,0,1,0,205.255,295l-1.315,2.277A17.243,17.243,0,0,1,191.79,280.81Zm14.359,12.638a12.959,12.959,0,1,1,13.537-5.292l-1.212-2.1a4.652,4.652,0,0,0-8.058,0ZM225.3,304.243a2.906,2.906,0,0,1-2.542,1.467H206.137a2.935,2.935,0,0,1-2.543-4.4l8.309-14.39a2.936,2.936,0,0,1,5.084,0l8.309,14.39a2.908,2.908,0,0,1,0,2.936m-10.851-4.383a1.846,1.846,0,0,0,1.851-1.785l.251-6.953a1.852,1.852,0,0,0-1.85-1.919h-.5a1.853,1.853,0,0,0-1.85,1.919l.251,6.953a1.845,1.845,0,0,0,1.851,1.785m-.348-8.9a.108.108,0,0,1,.1-.041h.5a.135.135,0,0,1,.134.139l-.251,6.953a.134.134,0,0,1-.268,0l-.251-6.953a.108.108,0,0,1,.038-.1m.348,9.452a2.131,2.131,0,1,0,2.131,2.131,2.134,2.134,0,0,0-2.131-2.131m0,2.545a.414.414,0,1,1,.414-.414.414.414,0,0,1-.414.414" transform="translate(-67.123 -100.605)" fill="#fff"/>
          <path id="Trazado_750997" data-name="Trazado 750997" d="M754.019,871.716a1.264,1.264,0,0,1,1.264-1.264h13.622a1.265,1.265,0,0,1,0,2.529H755.284a1.265,1.265,0,0,1-1.264-1.265m-4.836,9.331h19.723a1.265,1.265,0,0,0,0-2.529H749.183a1.265,1.265,0,1,0,0,2.529m70.9-10.684v40.918a1.264,1.264,0,0,1-1.264,1.264H793.133a17.943,17.943,0,0,1-7.9,4.307l.079,5.281a2.8,2.8,0,0,1,.808.546,2.763,2.763,0,0,1,.846,1.954l.192,12.775a2.785,2.785,0,0,1-2.74,2.824l-4.753.071h-.042a2.786,2.786,0,0,1-2.782-2.741l-.192-12.775a2.791,2.791,0,0,1,1.921-2.688l-.073-4.872a17.908,17.908,0,0,1-9.873-4.684H742.943a1.264,1.264,0,0,1-1.264-1.265V870.364a1.264,1.264,0,0,1,.37-.894l7.034-7.034a1.265,1.265,0,0,1,.894-.371h25.169a1.265,1.265,0,0,1,1.264,1.265v18.7a18.025,18.025,0,0,1,8.938,0v-18.7a1.264,1.264,0,0,1,1.264-1.264h25.169a1.265,1.265,0,0,1,.894.37l7.033,7.034a1.262,1.262,0,0,1,.371.894m-7.034-1.265h2.716l-2.716-2.716Zm-67.05,0h2.716v-2.716Zm-1.788,40.919h22.174a17.935,17.935,0,0,1-2.5-4.771h-14.7a1.265,1.265,0,1,1,0-2.529h14.037a18.032,18.032,0,0,1-.163-5.537H749.183a1.265,1.265,0,1,1,0-2.529h14.38a17.885,17.885,0,0,1,2.618-5.537h-17a1.265,1.265,0,1,1,0-2.529h19.152a18.021,18.021,0,0,1,5.546-3.7v-18.29h-22.64v5.769a1.265,1.265,0,0,1-1.264,1.265h-5.769Zm36.671,4.841a15.424,15.424,0,0,0,11.279-25.954,1.264,1.264,0,0,1-.383-.4,15.429,15.429,0,1,0-10.9,26.352m3.753,22.589-.192-12.775a.247.247,0,0,0-.078-.177.251.251,0,0,0-.175-.073h0l-4.753.072a.258.258,0,0,0-.249.257l.192,12.776a.26.26,0,0,0,.257.249l4.753-.071a.258.258,0,0,0,.25-.257m-1.92-20.152q-.83.085-1.682.091l.068,4.553,1.684-.025Zm34.838-7.278v-38.39h-5.769a1.265,1.265,0,0,1-1.265-1.264v-5.769H787.878v18.29a18.022,18.022,0,0,1,5.546,3.7h19.152a1.265,1.265,0,1,1,0,2.529h-17a17.9,17.9,0,0,1,2.619,5.537h14.38a1.265,1.265,0,1,1,0,2.529H798.7a18.032,18.032,0,0,1-.163,5.537h14.037a1.265,1.265,0,1,1,0,2.529h-14.7a17.935,17.935,0,0,1-2.5,4.771Zm-24.7-37.037h13.622a1.265,1.265,0,0,0,0-2.529H792.853a1.265,1.265,0,0,0,0,2.529m19.723,5.537H792.853a1.265,1.265,0,0,0,0,2.529h19.723a1.265,1.265,0,1,0,0-2.529m-31.7,34.028A13.12,13.12,0,1,1,794,899.427a13.134,13.134,0,0,1-13.12,13.119m10.591-13.119a10.59,10.59,0,1,0-10.591,10.591,10.6,10.6,0,0,0,10.591-10.591" transform="translate(-284.945 -331.194)" fill="#fff"/>
          <path id="Trazado_750998" data-name="Trazado 750998" d="M411.876,1503.275a2.708,2.708,0,1,0,2.291,1.269l2.3-2.676a2.7,2.7,0,0,0,3.771-2.266l2.948-.663a2.7,2.7,0,0,0,4.793-2.494l3.235-2.946a2.708,2.708,0,1,0-1.08-1.186l-3.235,2.946a2.7,2.7,0,0,0-4.065,2.115l-2.949.663a2.7,2.7,0,1,0-4.635,2.784l-2.3,2.676a2.689,2.689,0,0,0-1.075-.224m0,3.806a1.1,1.1,0,1,1,1.1-1.1,1.1,1.1,0,0,1-1.1,1.1m20.708-17.012a1.1,1.1,0,1,1-1.1,1.1,1.1,1.1,0,0,1,1.1-1.1m-7.055,6.422a1.1,1.1,0,1,1-1.1,1.1,1.1,1.1,0,0,1,1.1-1.1m-7.987,1.8a1.1,1.1,0,1,1-1.1,1.1,1.1,1.1,0,0,1,1.1-1.1m32.706,37.787-5-8.662a2.11,2.11,0,0,0-1.728-1.05l-1.139-1.972a10.987,10.987,0,0,0-3.315-18.448v-21.414a.8.8,0,0,0-.8-.8H412.8a.8.8,0,0,0-.567.235l-6.6,6.6a.8.8,0,0,0-.235.567v17.654a6.127,6.127,0,1,0,1.6-.013v-16.839h5.8a.8.8,0,0,0,.8-.8v-5.8h23.861v20.123a10.99,10.99,0,0,0-9.761,18.881h-14.89a12.313,12.313,0,0,0-18.881,10.419c0,1.283.716,3.075,4.123,4.33a24.61,24.61,0,0,0,8.195,1.242c6.132,0,12.319-1.723,12.319-5.573a12.283,12.283,0,0,0-3.724-8.815H430a10.984,10.984,0,0,0,8.524.684l1.136,1.967a2.108,2.108,0,0,0,.046,2.021l5,8.662a2.111,2.111,0,0,0,2.881.772l1.885-1.089a2.112,2.112,0,0,0,.772-2.881m-39.48-21.226a4.521,4.521,0,1,1-4.521-4.52,4.526,4.526,0,0,1,4.521,4.52m-2.638-24.52,3.865-3.864v3.864Zm8.831,44.425c0,2.262-4.606,3.968-10.714,3.968s-10.714-1.706-10.714-3.968a10.714,10.714,0,0,1,21.428,0m8.72-18.568a9.39,9.39,0,1,1,9.39,9.39,9.4,9.4,0,0,1-9.39-9.39m15.415,9.192.865,1.5-1.078.622-.863-1.5a11.012,11.012,0,0,0,1.076-.624m7.576,12.19-1.885,1.089a.512.512,0,0,1-.69-.185l-5-8.662a.512.512,0,0,1,.185-.69l1.885-1.088a.511.511,0,0,1,.69.185l5,8.662a.511.511,0,0,1-.185.69m-7.413-25.227a.8.8,0,0,1-.117,1.128l-8.225,6.679a.8.8,0,0,1-.506.18.779.779,0,0,1-.119-.009.8.8,0,0,1-.547-.346l-2.907-4.329a.8.8,0,1,1,1.331-.894l2.417,3.6,7.544-6.125a.8.8,0,0,1,1.128.117" transform="translate(-151.344 -570.03)" fill="#fff"/>
        </g>
      </g>
      <text id="_1" data-name="1" transform="translate(121.374 46.634)" fill="#12263f" font-size="43" font-family="Roboto-Black, Roboto" font-weight="800"><tspan x="0" y="0">1</tspan></text>
      <text id="_2" data-name="2" transform="translate(386.34 46.634)" fill="#12263f" font-size="43" font-family="Roboto-Black, Roboto" font-weight="800"><tspan x="0" y="0">2</tspan></text>
      <text id="_3" data-name="3" transform="translate(635.965 46.634)" fill="#12263f" font-size="43" font-family="Roboto-Black, Roboto" font-weight="800"><tspan x="0" y="0">3</tspan></text>
      <text id="_4" data-name="4" transform="translate(803.342 376.334)" fill="#12263f" font-size="43" font-family="Roboto-Black, Roboto" font-weight="800"><tspan x="0" y="0">4</tspan></text>
      <text id="_5" data-name="5" transform="translate(697.906 577.807)" fill="#12263f" font-size="43" font-family="Roboto-Black, Roboto" font-weight="800"><tspan x="0" y="0">5</tspan></text>
      <text id="_6" data-name="6" transform="translate(583.868 767)" fill="#12263f" font-size="43" font-family="Roboto-Black, Roboto" font-weight="800"><tspan x="0" y="0">6</tspan></text>
      <text id="_7" data-name="7" transform="translate(480.825 960.935)" fill="#12263f" font-size="43" font-family="Roboto-Black, Roboto" font-weight="800"><tspan x="0" y="0">7</tspan></text>
      <text id="IDENTIFICACIÓN_DE" data-name="IDENTIFICACIÓN DE" transform="translate(75.593 92.047)" fill="#c63e09" font-size="12" font-family="Roboto-Bold, Roboto" font-weight="700"><tspan x="0" y="0">IDE</tspan><tspan y="0" letter-spacing="-0.014em">N</tspan><tspan y="0">TIFIC</tspan><tspan y="0" letter-spacing="-0.009em">A</tspan><tspan y="0">CIÓN DE</tspan></text>
      <text id="LA_PROBLEMÁTICA" data-name="LA PROBLEMÁTICA" transform="translate(76.511 108.566)" fill="#c63e09" font-size="13" font-family="Roboto-Bold, Roboto" font-weight="700"><tspan x="0" y="0" letter-spacing="0.009em">L</tspan><tspan y="0">A PROBLE</tspan><tspan y="0" letter-spacing="0.008em">M</tspan><tspan y="0" letter-spacing="-0.058em">Á</tspan><tspan y="0">TICA</tspan></text>
      <text id="O_EL_TEMA" data-name="O EL TEMA" transform="translate(101.87 123.084)" fill="#c63e09" font-size="12" font-family="Roboto-Bold, Roboto" font-weight="700"><tspan x="0" y="0">O EL</tspan><tspan y="0" letter-spacing="-0.029em"> </tspan><tspan y="0">TE</tspan><tspan y="0" letter-spacing="0.008em">M</tspan><tspan y="0">A</tspan></text>
      <text id="Por_supuesto_también_habrá_que_" data-name="Por supuesto también habrá que " transform="translate(54.206 233.305)" fill="#fff" font-size="11" font-family="Roboto-Regular, Roboto"><tspan x="0" y="0" letter-spacing="-0.006em">P</tspan><tspan y="0">or supues</tspan><tspan y="0" letter-spacing="-0.009em">t</tspan><tspan y="0">o también hab</tspan><tspan y="0" letter-spacing="-0.021em">r</tspan><tspan y="0">á que </tspan></text>
      <text id="identificar_el_objetivo_que_se_" data-name="identificar el objetivo que se " transform="translate(65.335 246.607)" fill="#fff" font-size="11" font-family="Roboto-Regular, Roboto"><tspan x="0" y="0">identificar el objeti</tspan><tspan y="0" letter-spacing="-0.01em">v</tspan><tspan y="0">o que se </tspan></text>
      <text id="persigue_con_la_aplicación_de_" data-name="persigue con la aplicación de " transform="translate(62.764 259.908)" fill="#fff" font-size="11" font-family="Roboto-Regular, Roboto"><tspan x="0" y="0">persigue con la aplicación de </tspan></text>
      <text id="este_método." data-name="este método." transform="translate(101.848 273.209)" fill="#fff" font-size="11" font-family="Roboto-Regular, Roboto"><tspan x="0" y="0">este mé</tspan><tspan y="0" letter-spacing="-0.011em">t</tspan><tspan y="0">odo.</tspan></text>
      <text id="Con_base_en_los_objetivos_que_" data-name="Con base en los objetivos que " transform="translate(325.734 233.305)" fill="#fff" font-size="11" font-family="Roboto-Regular, Roboto"><tspan x="0" y="0">Con base en los objeti</tspan><tspan y="0" letter-spacing="-0.011em">v</tspan><tspan y="0">os que </tspan></text>
      <text id="tengamos_con_el_mismo_teniendo_" data-name="tengamos con el mismo teniendo " transform="translate(316.978 246.606)" fill="#fff" font-size="11" font-family="Roboto-Regular, Roboto"><tspan x="0" y="0">tengamos con el mismo teniendo </tspan></text>
      <text id="en_cuenta_que_las_preguntas_" data-name="en cuenta que las preguntas " transform="translate(329.792 259.908)" fill="#fff" font-size="11" font-family="Roboto-Regular, Roboto"><tspan x="0" y="0">en cuenta que las p</tspan><tspan y="0" letter-spacing="-0.011em">r</tspan><tspan y="0">eguntas </tspan></text>
      <text id="deben_ser_concisas_y_" data-name="deben ser concisas y " transform="translate(347.516 273.209)" fill="#fff" font-size="11" font-family="Roboto-Regular, Roboto"><tspan x="0" y="0">deben ser concisas y </tspan></text>
      <text id="cuantificables_para_facilitar_su_" data-name="cuantificables para facilitar su " transform="translate(325.058 286.511)" fill="#fff" font-size="11" font-family="Roboto-Regular, Roboto"><tspan x="0" y="0">cuantificables pa</tspan><tspan y="0" letter-spacing="-0.02em">r</tspan><tspan y="0">a facilitar su </tspan></text>
      <text id="posterior_análisis." data-name="posterior análisis." transform="translate(355.386 299.813)" fill="#fff" font-size="11" font-family="Roboto-Regular, Roboto"><tspan x="0" y="0">posterior análisis.</tspan></text>
      <text id="Con_base_en_una_serie_de_" data-name="Con base en una serie de " transform="translate(585.214 233.305)" fill="#fff" font-size="11" font-family="Roboto-Regular, Roboto"><tspan x="0" y="0">Con base en una serie de </tspan></text>
      <text id="características_que_hayamos_" data-name="características que hayamos " transform="translate(576.191 246.606)" fill="#fff" font-size="11" font-family="Roboto-Regular, Roboto"><tspan x="0" y="0">ca</tspan><tspan y="0" letter-spacing="-0.019em">r</tspan><tspan y="0">acterísticas que h</tspan><tspan y="0" letter-spacing="-0.008em">a</tspan><tspan y="0" letter-spacing="-0.007em">y</tspan><tspan y="0">amos </tspan></text>
      <text id="identificado_relevantes_para_" data-name="identificado relevantes para " transform="translate(578.884 259.908)" fill="#fff" font-size="11" font-family="Roboto-Regular, Roboto"><tspan x="0" y="0">identificado </tspan><tspan y="0" letter-spacing="-0.01em">r</tspan><tspan y="0">el</tspan><tspan y="0" letter-spacing="-0.006em">e</tspan><tspan y="0" letter-spacing="-0.007em">v</tspan><tspan y="0">antes pa</tspan><tspan y="0" letter-spacing="-0.021em">r</tspan><tspan y="0">a </tspan></text>
      <text id="nuestro_estudio." data-name="nuestro estudio." transform="translate(607.128 273.209)" fill="#fff" font-size="11" font-family="Roboto-Regular, Roboto"><tspan x="0" y="0">nuest</tspan><tspan y="0" letter-spacing="-0.01em">r</tspan><tspan y="0">o estudio.</tspan></text>
      <text id="El_cuestionario_deberá_llenarse_" data-name="El cuestionario deberá llenarse " transform="translate(515.115 400.549)" fill="#fff" font-size="11" font-family="Roboto-Regular, Roboto"><tspan x="0" y="0">El cuestionario debe</tspan><tspan y="0" letter-spacing="-0.02em">r</tspan><tspan y="0">á llenarse </tspan></text>
      <text id="de_forma_anónima_para_que_no_" data-name="de forma anónima para que no " transform="translate(514.97 413.851)" fill="#fff" font-size="11" font-family="Roboto-Regular, Roboto"><tspan x="0" y="0">de forma anónima pa</tspan><tspan y="0" letter-spacing="-0.019em">r</tspan><tspan y="0">a que no </tspan></text>
      <text id="se_puedan_ver_afectados_los_" data-name="se puedan ver afectados los " transform="translate(521.411 427.152)" fill="#fff" font-size="11" font-family="Roboto-Regular, Roboto"><tspan x="0" y="0">se puedan </tspan><tspan y="0" letter-spacing="-0.008em">v</tspan><tspan y="0">er a</tspan><tspan y="0" letter-spacing="-0.012em">f</tspan><tspan y="0">ectados los </tspan></text>
      <text id="resultados_además_antes_de_" data-name="resultados, además antes de " transform="translate(519.759 440.454)" fill="#fff" font-size="11" font-family="Roboto-Regular, Roboto"><tspan x="0" y="0" letter-spacing="-0.009em">r</tspan><tspan y="0">esultados, además antes de </tspan></text>
      <text id="hacerlo_se_recomienda_" data-name="hacerlo se recomienda " transform="translate(534.513 453.755)" fill="#fff" font-size="11" font-family="Roboto-Regular, Roboto"><tspan x="0" y="0">hacerlo se </tspan><tspan y="0" letter-spacing="-0.01em">r</tspan><tspan y="0">ecomienda </tspan></text>
      <text id="informar_a_los_participantes_de_" data-name="informar a los participantes de " transform="translate(515.137 467.057)" fill="#fff" font-size="11" font-family="Roboto-Regular, Roboto"><tspan x="0" y="0">informar a los pa</tspan><tspan y="0" letter-spacing="0.023em">r</tspan><tspan y="0">ticipantes de </tspan></text>
      <text id="los_objetivos_que_se_persiguen_" data-name="los objetivos que se persiguen " transform="translate(516.079 480.358)" fill="#fff" font-size="11" font-family="Roboto-Regular, Roboto"><tspan x="0" y="0">los objeti</tspan><tspan y="0" letter-spacing="-0.008em">v</tspan><tspan y="0">os que se persiguen </tspan></text>
      <text id="con_dicho_cuestionario." data-name="con dicho cuestionario." transform="translate(533.072 493.66)" fill="#fff" font-size="11" font-family="Roboto-Regular, Roboto"><tspan x="0" y="0">con dicho cuestionario.</tspan></text>
      <text id="ELABORACIÓN" transform="translate(349.749 99.807)" fill="#ff9000" font-size="12" font-family="Roboto-Bold, Roboto" font-weight="700"><tspan x="0" y="0">E</tspan><tspan y="0" letter-spacing="0.008em">L</tspan><tspan y="0">ABOR</tspan><tspan y="0" letter-spacing="-0.01em">A</tspan><tspan y="0">CIÓN</tspan></text>
      <text id="DEL_CUESTIONARIO" data-name="DEL CUESTIONARIO" transform="translate(334.593 115.326)" fill="#ff9000" font-size="12" font-family="Roboto-Bold, Roboto" font-weight="700"><tspan x="0" y="0">DEL CUESTIO</tspan><tspan y="0" letter-spacing="0.008em">N</tspan><tspan y="0">ARIO</tspan></text>
      <text id="DEFINIR_EL_PANEL_DE" data-name="DEFINIR EL PANEL DE" transform="translate(587.492 89.151)" fill="#fc0" font-size="12" font-family="Roboto-Bold, Roboto" font-weight="700"><tspan x="0" y="0">DEFINIR EL </tspan><tspan y="0" letter-spacing="-0.086em">P</tspan><tspan y="0">ANEL DE</tspan></text>
      <text id="EXPERTOS_O_PARTICIPANTES" data-name="EXPERTOS O PARTICIPANTES" transform="translate(563.269 104.669)" fill="#fc0" font-size="12" font-family="Roboto-Bold, Roboto" font-weight="700"><tspan x="0" y="0">EXPE</tspan><tspan y="0" letter-spacing="-0.024em">R</tspan><tspan y="0" letter-spacing="-0.013em">T</tspan><tspan y="0">OS O </tspan><tspan y="0" letter-spacing="-0.086em">P</tspan><tspan y="0">A</tspan><tspan y="0" letter-spacing="-0.024em">R</tspan><tspan y="0">TICI</tspan><tspan y="0" letter-spacing="-0.087em">P</tspan><tspan y="0">A</tspan><tspan y="0" letter-spacing="-0.014em">N</tspan><tspan y="0">TES</tspan></text>
      <text id="EN_LA_ENCUESTA" data-name="EN LA ENCUESTA" transform="translate(599.195 120.188)" fill="#fc0" font-size="12" font-family="Roboto-Bold, Roboto" font-weight="700"><tspan x="0" y="0">EN </tspan><tspan y="0" letter-spacing="0.008em">L</tspan><tspan y="0">A ENCUES</tspan><tspan y="0" letter-spacing="-0.058em">T</tspan><tspan y="0">A</tspan></text>
      <text id="DISTRIBUIR_EL" data-name="DISTRIBUIR EL" transform="translate(772.963 434.294)" fill="#9fc914" font-size="12" font-family="Roboto-Bold, Roboto" font-weight="700"><tspan x="0" y="0">DISTRIBUIR EL</tspan></text>
      <text id="CUESTIONARIO" transform="translate(770.285 449.812)" fill="#9fc914" font-size="12" font-family="Roboto-Bold, Roboto" font-weight="700"><tspan x="0" y="0">CUESTIO</tspan><tspan y="0" letter-spacing="0.008em">N</tspan><tspan y="0">ARIO</tspan></text>
      <text id="Tabulación_y_análisis_" data-name="Tabulación y análisis " transform="translate(444.725 627.937)" fill="#fff" font-size="11" font-family="Roboto-Regular, Roboto"><tspan x="0" y="0" letter-spacing="-0.055em">T</tspan><tspan y="0">abulación y análisis </tspan></text>
      <text id="de_los_resultados" data-name="de los resultados" transform="translate(453.781 641.238)" fill="#fff" font-size="11" font-family="Roboto-Regular, Roboto"><tspan x="0" y="0">de los </tspan><tspan y="0" letter-spacing="-0.01em">r</tspan><tspan y="0">esultados</tspan></text>
      <text id="Entrega_del_cuestionario_de_" data-name="Entrega del cuestionario de " transform="translate(316.742 809.07)" fill="#fff" font-size="11" font-family="Roboto-Regular, Roboto"><tspan x="0" y="0">Ent</tspan><tspan y="0" letter-spacing="-0.009em">r</tspan><tspan y="0">ega del cuestionario de </tspan></text>
      <text id="nuevo_junto_con_el_análisis_de_" data-name="nuevo junto con el análisis de " transform="translate(311.421 822.372)" fill="#fff" font-size="11" font-family="Roboto-Regular, Roboto"><tspan x="0" y="0">nu</tspan><tspan y="0" letter-spacing="-0.006em">e</tspan><tspan y="0" letter-spacing="-0.007em">v</tspan><tspan y="0">o jun</tspan><tspan y="0" letter-spacing="-0.01em">t</tspan><tspan y="0">o con el análisis de </tspan></text>
      <text id="las_respuestas_obtenidas_" data-name="las respuestas obtenidas " transform="translate(322.118 835.673)" fill="#fff" font-size="11" font-family="Roboto-Regular, Roboto"><tspan x="0" y="0">las </tspan><tspan y="0" letter-spacing="-0.01em">r</tspan><tspan y="0">espuestas obtenidas </tspan></text>
      <text id="anteriormente." transform="translate(347.624 848.974)" fill="#fff" font-size="11" font-family="Roboto-Regular, Roboto"><tspan x="0" y="0">anteriormente.</tspan></text>
      <text id="Con_la_entrega_de_los_nuevos_" data-name="Con la entrega de los nuevos " transform="translate(184.17 990.115)" fill="#fff" font-size="11" font-family="Roboto-Regular, Roboto"><tspan x="0" y="0">Con la ent</tspan><tspan y="0" letter-spacing="-0.011em">r</tspan><tspan y="0">ega de los nu</tspan><tspan y="0" letter-spacing="-0.008em">e</tspan><tspan y="0" letter-spacing="-0.007em">v</tspan><tspan y="0">os </tspan></text>
      <text id="cuestionarios_se_realiza_un_" data-name="cuestionarios, se realiza un " transform="translate(188.294 1003.416)" fill="#fff" font-size="11" font-family="Roboto-Regular, Roboto"><tspan x="0" y="0">cuestionarios, se </tspan><tspan y="0" letter-spacing="-0.01em">r</tspan><tspan y="0">ealiza un </tspan></text>
      <text id="segundo_análisis_para_" data-name="segundo análisis para " transform="translate(201.219 1016.718)" fill="#fff" font-size="11" font-family="Roboto-Regular, Roboto"><tspan x="0" y="0">segundo análisis pa</tspan><tspan y="0" letter-spacing="-0.022em">r</tspan><tspan y="0">a </tspan></text>
      <text id="identificar_tendencias_patrones_" data-name="identificar tendencias, patrones, " transform="translate(176.6 1030.019)" fill="#fff" font-size="11" font-family="Roboto-Regular, Roboto"><tspan x="0" y="0">identificar tendencias, pat</tspan><tspan y="0" letter-spacing="-0.013em">r</tspan><tspan y="0">ones, </tspan></text>
      <text id="etc._eliminando_los_datos_" data-name="etc., eliminando los datos " transform="translate(193.26 1043.321)" fill="#fff" font-size="11" font-family="Roboto-Regular, Roboto"><tspan x="0" y="0">etc., eliminando los da</tspan><tspan y="0" letter-spacing="-0.012em">t</tspan><tspan y="0">os </tspan></text>
      <text id="estadísticas_más_dispersos." data-name="estadísticas más dispersos." transform="translate(186.044 1056.622)" fill="#fff" font-size="11" font-family="Roboto-Regular, Roboto"><tspan x="0" y="0">estadísticas más dispersos.</tspan></text>
      <text id="ANALIZAR" transform="translate(679.587 629.839)" fill="#12b09b" font-size="12" font-family="Roboto-Bold, Roboto" font-weight="700"><tspan x="0" y="0">A</tspan><tspan y="0" letter-spacing="0.008em">N</tspan><tspan y="0">ALI</tspan><tspan y="0" letter-spacing="0.006em">Z</tspan><tspan y="0">AR</tspan></text>
      <text id="RESULTADOS" transform="translate(671.272 645.357)" fill="#12b09b" font-size="12" font-family="Roboto-Bold, Roboto" font-weight="700"><tspan x="0" y="0">RESU</tspan><tspan y="0" letter-spacing="-0.099em">L</tspan><tspan y="0" letter-spacing="-0.058em">T</tspan><tspan y="0">ADOS</tspan></text>
      <text id="ENTREGA_DE_ANÁLISIS_A" data-name="ENTREGA DE ANÁLISIS A" transform="translate(522.528 811.56)" fill="#127eb0" font-size="12" font-family="Roboto-Bold, Roboto" font-weight="700"><tspan x="0" y="0">E</tspan><tspan y="0" letter-spacing="-0.014em">N</tspan><tspan y="0">TREGA DE A</tspan><tspan y="0" letter-spacing="0.008em">N</tspan><tspan y="0">ÁLISIS A</tspan></text>
      <text id="EXPERTOS_Y_REDISTRIBUCIÓN" data-name="EXPERTOS Y REDISTRIBUCIÓN" transform="translate(506.272 827.078)" fill="#127eb0" font-size="12" font-family="Roboto-Bold, Roboto" font-weight="700"><tspan x="0" y="0">EXPE</tspan><tspan y="0" letter-spacing="-0.024em">R</tspan><tspan y="0" letter-spacing="-0.013em">T</tspan><tspan y="0">OS Y REDISTRIBUCIÓN</tspan></text>
      <text id="DEL_CUESTIONARIO-2" data-name="DEL CUESTIONARIO" transform="translate(537.878 842.597)" fill="#127eb0" font-size="12" font-family="Roboto-Bold, Roboto" font-weight="700"><tspan x="0" y="0">DEL CUESTIO</tspan><tspan y="0" letter-spacing="0.008em">N</tspan><tspan y="0">ARIO</tspan></text>
      <text id="SEGUNDO_ANÁLISIS" data-name="SEGUNDO ANÁLISIS" transform="translate(434.021 1004.234)" fill="#127eb0" font-size="12" font-family="Roboto-Bold, Roboto" font-weight="700"><tspan x="0" y="0">SEGUNDO A</tspan><tspan y="0" letter-spacing="0.008em">N</tspan><tspan y="0">ÁLISIS</tspan></text>
      <g id="Grupo_1019306" data-name="Grupo 1019306" transform="translate(0 -0.003)">
        <g id="Grupo_1019305" data-name="Grupo 1019305" clip-path="url(#clip-path)">
          <path id="Trazado_750999" data-name="Trazado 750999" d="M968.811,540.04v-3.058a1.022,1.022,0,0,0-1.019-1.019H945.368a1.022,1.022,0,0,0-1.019,1.019v3.058a1.022,1.022,0,0,0,1.019,1.019h22.424a1.022,1.022,0,0,0,1.019-1.019m-2.038-1.019H946.387V538h20.385Zm-15.289,5.1a1.022,1.022,0,0,0-1.019-1.019h-5.1a1.022,1.022,0,0,0-1.019,1.019v5.1a1.022,1.022,0,0,0,1.019,1.019h5.1a1.022,1.022,0,0,0,1.019-1.019Zm-2.038,4.077h-3.058v-3.057h3.058Zm26.5-3.057a1.022,1.022,0,0,1-1.019,1.019H954.541a1.019,1.019,0,1,1,0-2.039h20.385a1.022,1.022,0,0,1,1.019,1.02m0,4.077a1.022,1.022,0,0,1-1.019,1.019H954.541a1.019,1.019,0,1,1,0-2.038h20.385a1.022,1.022,0,0,1,1.019,1.019m-24.462,4.077a1.022,1.022,0,0,0-1.019-1.019h-5.1a1.022,1.022,0,0,0-1.019,1.019v5.1a1.022,1.022,0,0,0,1.019,1.019h5.1a1.022,1.022,0,0,0,1.019-1.019Zm-2.038,4.077h-3.058V554.31h3.058Zm24.676-2.039h-19.58a1.019,1.019,0,1,1,0-2.038h19.58a1.019,1.019,0,1,1,0,2.038m-4.077,4.077h-15.5a1.019,1.019,0,1,1,0-2.038h15.5a1.019,1.019,0,0,1,0,2.038m-18.561,3.057a1.022,1.022,0,0,0-1.019-1.019h-5.1a1.022,1.022,0,0,0-1.019,1.019v5.1a1.022,1.022,0,0,0,1.019,1.019h5.1a1.022,1.022,0,0,0,1.019-1.019Zm-2.038,4.077h-3.058v-3.057h3.058Zm15.5-2.038H954.541a1.019,1.019,0,1,1,0-2.039h10.407a1.019,1.019,0,0,1,0,2.039M981.042,547a1.022,1.022,0,0,0,1.019-1.019c0-5.066.092-5.239-.3-5.636l-8.164-8.164a1.1,1.1,0,0,0-.285-.193c-.3-.143,0-.092-33.045-.1a1.022,1.022,0,0,0-1.019,1.019v57.079A1.022,1.022,0,0,0,940.271,591h40.771a1.022,1.022,0,0,0,1.019-1.019V567.346a1.019,1.019,0,0,0-2.038,0v21.619H941.29v-55.04h30.579v7.135a1.022,1.022,0,0,0,1.019,1.019h7.135v3.9A1.022,1.022,0,0,0,981.042,547m-7.135-6.961v-4.679l4.678,4.679Zm-13.037,28.539h-6.329a1.019,1.019,0,1,1,0-2.038h6.329a1.019,1.019,0,0,1,0,2.038m-9.387,3.058a1.022,1.022,0,0,0-1.019-1.019h-5.1a1.022,1.022,0,0,0-1.019,1.019v5.1a1.022,1.022,0,0,0,1.019,1.019h5.1a1.022,1.022,0,0,0,1.019-1.019Zm-2.038,4.077h-3.058v-3.058h3.058Zm7.063-3.8h0a1.023,1.023,0,0,1-.713,1.753h-1.264a1.019,1.019,0,0,1,0-2.039h1.111a1.036,1.036,0,0,1,.857.275Zm19.438,4.821a1.022,1.022,0,0,1-1.019,1.019h-3.272a1.019,1.019,0,0,1,0-2.038h3.272a1.022,1.022,0,0,1,1.019,1.019m-25.482,3.057h-5.1a1.022,1.022,0,0,0-1.019,1.019v5.1a1.022,1.022,0,0,0,1.019,1.019h5.1a1.022,1.022,0,0,0,1.019-1.019v-5.1a1.022,1.022,0,0,0-1.019-1.019m-1.019,5.1h-3.058V581.83h3.058Zm26.5-3.058a1.022,1.022,0,0,1-1.019,1.019h-8.368a1.02,1.02,0,0,1,0-2.039h8.368a1.023,1.023,0,0,1,1.019,1.02m-22.424,4.077a1.022,1.022,0,0,1,1.02-1.019h20.385a1.019,1.019,0,1,1,0,2.038H954.541a1.022,1.022,0,0,1-1.02-1.019m43.034-39.8,1.519-1.509a1.006,1.006,0,0,0,.3-.724,1.051,1.051,0,0,0-.3-.724l-2.813-2.813a1.018,1.018,0,0,0-.642-.275c-.02,0-.051-.01-.071-.01-.041,0-.072.02-.112.02-.509.051-.408.062-2.12,1.784a3.049,3.049,0,0,0-3.4.591c-9.418,9.408-9.235,9.173-9.357,9.469a1,1,0,0,0-.071.387.5.5,0,0,0,.02.123.627.627,0,0,0,.163.438,1.154,1.154,0,0,0,.092.153l-21.772,21.771a3.971,3.971,0,0,0-.622,4.832l-1.488,1.488a1.025,1.025,0,0,0,.724,1.743,1.046,1.046,0,0,0,.724-.3l1.488-1.488a3.939,3.939,0,0,0,4.831-.621l18.378-18.378a3,3,0,0,0,4.821.8l7.736-7.736a3,3,0,0,0,.02-4.23c1.406-1.407,1.7-1.621,2.008-2.3a2.894,2.894,0,0,0,.214-1.722,4.109,4.109,0,0,0-.235-.775Zm-.652-2.232-.673.663-1.366-1.366.663-.672,1.366,1.366Zm-13.984,8.44,2.772-2.772,4.179,4.179-2.772,2.772Zm8.4-.031-4.179-4.179.672-.672,4.179,4.179Zm-9.143,2.181,2.772,2.772L967.812,573.37,965.04,570.6ZM965.712,575.48l-2.772-2.772.663-.663,2.772,2.772Zm-3.537,3.537a1.97,1.97,0,0,1-3.354-1.386,1.942,1.942,0,0,1,.571-1.386l2.089-2.089,2.772,2.772-2.089,2.089ZM993.1,553.708l-7.736,7.736a.969.969,0,0,1-1.376-1.366l1.386-1.386s.1.071.153.1a.644.644,0,0,0,.448.163c.031,0,.061.02.092.02a1.037,1.037,0,0,0,.724-.3l6.31-6.31a.984.984,0,0,1-.02,1.356Zm1.406-5.626-2.089,2.089-4.179-4.179,2.089-2.089a.965.965,0,0,1,1.366,0l2.813,2.813a.966.966,0,0,1,0,1.366" transform="translate(-360.851 -204.343)" fill="#fff"/>
        </g>
      </g>
    </g>
  </g>
</svg>
