<svg xmlns="http://www.w3.org/2000/svg" width="53.063" height="53.141" viewBox="0 0 53.063 53.141">
  <path id="Trazado_750963" data-name="Trazado 750963" d="M107.745,2.881,105,4.477a1.954,1.954,0,0,0-.705,2.664l.607,1.042c.715,1.231.4,1.788.182,1.985-.611.547-1.179,1.142-1.748,1.732-.167.173-.7.768-2.093-.044l-.957-.556a1.953,1.953,0,0,0-2.664.7l-1.6,2.748a1.952,1.952,0,0,0,.705,2.661l.947.552c1.31.762,1.277,1.152,1.112,1.707-.228.762-.474,1.526-.639,2.314-.148.7-.082,1.2-1.864,1.2H95.192a1.951,1.951,0,0,0-1.947,1.947v3.179a1.951,1.951,0,0,0,1.947,1.946h1.092c1.782,0,1.715.5,1.864,1.206.166.788.411,1.551.639,2.313.166.556.2.946-1.112,1.708l-.947.551a1.953,1.953,0,0,0-.705,2.662l1.6,2.747a1.954,1.954,0,0,0,2.664.7l.957-.555c1.4-.815,1.926-.22,2.093-.045.569.591,1.137,1.185,1.748,1.731.221.2.534.757-.182,1.986l-.607,1.042A1.955,1.955,0,0,0,105,48.98l2.746,1.6a1.953,1.953,0,0,0,2.664-.707l.6-1.039c.726-1.249,1.442-1.2,1.744-1.1.876.281,1.686.461,2.589.7.331.086.9.325.9,1.813v1.114a1.951,1.951,0,0,0,1.948,1.947h3.178a1.949,1.949,0,0,0,1.946-1.947V50.237c0-1.488.567-1.728.9-1.813.905-.236,1.715-.416,2.59-.7.3-.094,1.018-.145,1.742,1.1l.606,1.039a1.951,1.951,0,0,0,2.661.707l2.748-1.6a1.956,1.956,0,0,0,.7-2.665l-.606-1.042c-.715-1.229-.4-1.785-.182-1.986.611-.546,1.178-1.14,1.746-1.731.167-.174.7-.769,2.093.045l.959.555a1.951,1.951,0,0,0,2.661-.7l1.6-2.747a1.952,1.952,0,0,0-.7-2.662l-.95-.551c-1.308-.762-1.275-1.152-1.109-1.708.227-.762.472-1.525.639-2.313.148-.7.082-1.206,1.864-1.206h1.09a1.949,1.949,0,0,0,1.947-1.946V25.139a1.95,1.95,0,0,0-1.947-1.947h-1.09c-1.782,0-1.715-.5-1.864-1.2-.167-.788-.412-1.552-.639-2.314-.166-.555-.2-.945,1.109-1.707l.95-.552a1.951,1.951,0,0,0,.7-2.661L141.933,12a1.949,1.949,0,0,0-2.661-.7l-.959.556c-1.4.812-1.926.217-2.093.044-.568-.59-1.135-1.185-1.746-1.732-.223-.2-.534-.755.182-1.985l.606-1.042a1.955,1.955,0,0,0-.7-2.664l-2.748-1.6a1.952,1.952,0,0,0-2.661.7l-.606,1.039c-.724,1.249-1.439,1.2-1.742,1.1-.875-.279-1.685-.459-2.59-.694-.329-.086-.9-.325-.9-1.813V2.1A1.947,1.947,0,0,0,121.367.158h-3.178A1.949,1.949,0,0,0,116.241,2.1V3.219c0,1.488-.564,1.728-.9,1.813-.9.236-1.713.416-2.589.694-.3.1-1.017.145-1.744-1.1l-.6-1.039a1.954,1.954,0,0,0-2.664-.7m12.033,19.652a4.2,4.2,0,1,1-4.2,4.195,4.195,4.195,0,0,1,4.2-4.195m-13.153,4.195a.9.9,0,1,1,1.8,0,11.359,11.359,0,0,0,11.358,11.358.9.9,0,0,1,0,1.8,13.154,13.154,0,0,1-13.153-13.153m26.133-2.119a.9.9,0,0,1-1.768.281,11.376,11.376,0,0,0-9.264-9.354.9.9,0,0,1,.3-1.766,13.163,13.163,0,0,1,10.73,10.839m-12.98-13.465a15.585,15.585,0,1,1-15.585,15.584,15.585,15.585,0,0,1,15.585-15.584" transform="translate(-93.245 -0.158)" fill="#1a0f91" fill-rule="evenodd"/>
</svg>
