<svg xmlns="http://www.w3.org/2000/svg" width="29.754" height="29.797" viewBox="0 0 29.754 29.797">
  <path id="Trazado_750973" data-name="Trazado 750973" d="M147.847,1.528l-1.54.9a1.1,1.1,0,0,0-.4,1.493l.341.583c.4.69.226,1,.1,1.113-.344.307-.661.642-.979.972-.094.1-.393.432-1.174-.023l-.537-.313a1.094,1.094,0,0,0-1.493.4l-.9,1.537a1.1,1.1,0,0,0,.394,1.494l.534.31c.734.425.715.644.622.956-.128.428-.265.855-.358,1.3-.083.394-.047.676-1.044.676h-.613a1.1,1.1,0,0,0-1.092,1.093V15.79a1.093,1.093,0,0,0,1.092,1.091h.613c1,0,.961.282,1.044.676.093.442.231.871.358,1.3.093.31.112.53-.622.957l-.534.308a1.1,1.1,0,0,0-.394,1.494l.9,1.54a1.1,1.1,0,0,0,1.493.4l.537-.312c.782-.455,1.08-.123,1.174-.026.318.333.636.665.979.973.124.112.3.422-.1,1.11l-.341.585a1.1,1.1,0,0,0,.4,1.494l1.54.9a1.1,1.1,0,0,0,1.494-.4l.337-.583c.407-.7.809-.672.978-.617.49.156.945.256,1.45.388.186.049.5.184.5,1.017V28.7A1.093,1.093,0,0,0,153.7,29.8h1.784a1.093,1.093,0,0,0,1.091-1.092v-.626c0-.833.318-.968.5-1.017.506-.131.961-.232,1.45-.388.169-.055.571-.082.978.617l.34.583a1.093,1.093,0,0,0,1.492.4l1.54-.9a1.1,1.1,0,0,0,.4-1.494l-.341-.585c-.4-.688-.226-1-.1-1.11.344-.308.661-.64.979-.973.094-.1.393-.429,1.174.026l.539.312a1.1,1.1,0,0,0,1.492-.4l.9-1.54a1.1,1.1,0,0,0-.394-1.494l-.534-.308c-.734-.427-.715-.647-.621-.957.126-.427.264-.856.357-1.3.083-.394.047-.676,1.044-.676h.613a1.093,1.093,0,0,0,1.092-1.091V14.008a1.1,1.1,0,0,0-1.092-1.093h-.613c-1,0-.961-.282-1.044-.676-.093-.442-.231-.869-.357-1.3-.094-.312-.113-.531.621-.956l.534-.31a1.1,1.1,0,0,0,.394-1.494l-.9-1.537a1.092,1.092,0,0,0-1.492-.4l-.539.313c-.782.455-1.08.121-1.174.023-.318-.33-.636-.665-.979-.972-.124-.109-.3-.423.1-1.113l.341-.583a1.1,1.1,0,0,0-.4-1.493l-1.54-.9a1.093,1.093,0,0,0-1.492.394l-.34.583c-.407.7-.809.672-.978.618-.49-.156-.945-.258-1.45-.388-.185-.048-.5-.184-.5-1.018V1.092A1.094,1.094,0,0,0,155.485,0H153.7a1.094,1.094,0,0,0-1.091,1.092v.625c0,.834-.317.971-.5,1.018-.506.13-.961.232-1.45.388-.169.054-.571.082-.978-.618l-.337-.583a1.1,1.1,0,0,0-1.494-.394m6.746,11.018a2.353,2.353,0,1,1-2.352,2.352,2.353,2.353,0,0,1,2.352-2.352M147.218,14.9a.5.5,0,0,1,1.007,0,6.367,6.367,0,0,0,6.368,6.368.5.5,0,0,1,0,1.007,7.377,7.377,0,0,1-7.375-7.375m14.654-1.188a.5.5,0,1,1-.991.157,6.37,6.37,0,0,0-5.195-5.243.5.5,0,0,1,.169-.993,7.379,7.379,0,0,1,6.017,6.078m-7.278-7.549a8.738,8.738,0,1,1-8.738,8.737,8.738,8.738,0,0,1,8.738-8.737" transform="translate(-139.716)" fill="#fe7062" fill-rule="evenodd"/>
</svg>
