<svg xmlns="http://www.w3.org/2000/svg" width="295" height="295" viewBox="0 0 295 295">
  <g id="Grupo_1019305" data-name="Grupo 1019305" transform="translate(-180 -2892)">
    <path id="Trazado_750707" data-name="Trazado 750707" d="M147.5,0A147.5,147.5,0,1,1,0,147.5,147.5,147.5,0,0,1,147.5,0Z" transform="translate(180 2892)" fill="#ffeae7"/>
    <path id="Trazado_750693" data-name="Trazado 750693" d="M216.728,235.211a41.426,41.426,0,0,1,8.3-24.891c19.821-26.273,42.407-29.039,68.68-26.273h.461A76.306,76.306,0,0,1,339.8,208.015c17.055,18.9,33.648,54.39-7.375,102.789v47.477H253.143V338h-24.43a18.983,18.983,0,0,1-18.9-18.9V284.992H183.08Z" transform="translate(105.702 2817.656)" fill="#fff"/>
    <path id="Trazado_750694" data-name="Trazado 750694" d="M329.117,360.011H249.835a4.355,4.355,0,0,1-4.61-4.61V339.729H225.405A23.607,23.607,0,0,1,201.9,316.221v-29.5H179.772a4.842,4.842,0,0,1-4.149-2.3,4.186,4.186,0,0,1,0-4.61l32.727-48.859a47.43,47.43,0,0,1,9.219-25.812c15.211-19.821,33.188-29.039,57.617-29.039,4.61,0,9.68.461,15.672.922a77.9,77.9,0,0,1,48.859,25.352c16.133,17.977,36.875,55.774-6.453,107.4V355.4C333.726,357.706,331.421,360.011,329.117,360.011Zm-74.672-9.219h70.063V307.925a4.942,4.942,0,0,1,.922-2.766c38.258-44.711,25.352-76.977,7.836-96.8-11.523-12.445-26.734-20.742-42.867-22.586-5.531-.461-10.6-.922-14.75-.922-21.664,0-36.414,7.375-50.243,25.352a37.2,37.2,0,0,0-7.375,21.664,6.551,6.551,0,0,1-.922,2.766L188.531,277.5h17.977a4.355,4.355,0,0,1,4.61,4.61v34.109a14.361,14.361,0,0,0,14.289,14.289h24.43a4.355,4.355,0,0,1,4.61,4.61v15.671Z" transform="translate(109.009 2820.536)" fill="#193651"/>
    <path id="Trazado_750695" data-name="Trazado 750695" d="M126.123,53.913a33.943,33.943,0,0,0-6.453-19.821C103.537,13.351,85.561,10.585,64.357,13.351h0A59.138,59.138,0,0,0,27.943,32.71C14.115,47.921.748,76.038,33.935,114.757v37.8H97.084V136.421H116.9a14.954,14.954,0,0,0,14.75-15.211v-27.2h21.2Z" transform="translate(174.642 2886.945)" fill="#fff"/>
    <path id="Trazado_750696" data-name="Trazado 750696" d="M93.129,154H29.98a4.355,4.355,0,0,1-4.61-4.61V113.436C-9.661,71.49,7.394,40.608,20.3,26.318A64.283,64.283,0,0,1,59.941,5.576c5.07-.461,9.219-.922,12.906-.922,19.821,0,34.109,7.375,46.555,23.508a34.8,34.8,0,0,1,7.375,21.2l25.812,39.18a4.186,4.186,0,0,1,0,4.61,4.842,4.842,0,0,1-4.149,2.3H131.847v22.586a19.578,19.578,0,0,1-19.36,19.821H97.277v11.523A3.985,3.985,0,0,1,93.129,154ZM34.59,144.78H88.52V133.256a4.355,4.355,0,0,1,4.61-4.61H112.95a10.337,10.337,0,0,0,10.141-10.6V90.85a4.355,4.355,0,0,1,4.61-4.61h12.906L118.482,53.052a6.551,6.551,0,0,1-.922-2.766,28.965,28.965,0,0,0-5.531-17.055C101.427,19.4,89.442,13.411,72.388,13.411a105.324,105.324,0,0,0-11.523.922C47.957,15.717,35.972,22.17,26.754,32.311,12.925,47.522,2.785,73.334,32.746,108.365a3.387,3.387,0,0,1,.922,2.766V144.78Z" transform="translate(178.137 2890.111)" fill="#193651"/>
    <path id="Trazado_750697" data-name="Trazado 750697" d="M47.321,181.246v34.57H110.47V199.683H130.29a14.954,14.954,0,0,0,14.75-15.211V168.339" transform="translate(160.796 2823.685)" fill="#91b3fa"/>
    <path id="Trazado_750698" data-name="Trazado 750698" d="M107.321,217.276H44.173a4.355,4.355,0,0,1-4.61-4.61V178.557a4.355,4.355,0,0,1,4.61-4.61,4.355,4.355,0,0,1,4.61,4.61v29.5h53.93V196.534a4.355,4.355,0,0,1,4.61-4.61h19.821a10.337,10.337,0,0,0,10.141-10.6V165.19a4.61,4.61,0,0,1,9.219,0v16.133a19.578,19.578,0,0,1-19.36,19.821H111.932v11.523A4.621,4.621,0,0,1,107.321,217.276Z" transform="translate(163.944 2826.833)" fill="#193651"/>
    <path id="Trazado_750699" data-name="Trazado 750699" d="M228.073,383.224v17.055a18.692,18.692,0,0,0,18.9,18.9H271.4v20.281h79.281V398.9" transform="translate(87.443 2736.479)" fill="#fe7062"/>
    <path id="Trazado_750700" data-name="Trazado 750700" d="M347.534,440.919H268.252a4.355,4.355,0,0,1-4.61-4.61V420.637H243.822a23.607,23.607,0,0,1-23.508-23.508V380.075a4.61,4.61,0,0,1,9.219,0v17.055a14.361,14.361,0,0,0,14.289,14.289h24.43a4.355,4.355,0,0,1,4.61,4.61V431.7h70.063V395.747a4.61,4.61,0,1,1,9.219,0V436.31A4.957,4.957,0,0,1,347.534,440.919Z" transform="translate(90.592 2739.628)" fill="#193651"/>
    <path id="Trazado_750701" data-name="Trazado 750701" d="M367.054,278.574V264.745h-7.375a16.158,16.158,0,0,0-2.766-6.453l5.531-5.531L352.3,243.542l-5.531,5.532a16.166,16.166,0,0,0-6.453-2.766v-7.375H326.491v7.375a16.157,16.157,0,0,0-6.453,2.766l-5.531-5.531-9.68,9.68,5.531,5.531a16.166,16.166,0,0,0-2.766,6.453h-7.375v13.828h7.375a16.158,16.158,0,0,0,2.766,6.453l-5.531,5.531,9.68,9.68,5.531-5.531a16.167,16.167,0,0,0,6.453,2.766v7.375h13.828v-7.376a16.158,16.158,0,0,0,6.453-2.766L352.3,300.7l9.68-9.68-5.07-5.531a16.167,16.167,0,0,0,2.766-6.453h7.375v-.461Z" transform="translate(58.166 2795.036)" fill="#57dbd8"/>
    <circle id="Elipse_8465" data-name="Elipse 8465" cx="18.898" cy="18.898" r="18.898" transform="translate(372.672 3048.258)" fill="#fff"/>
    <circle id="Elipse_8466" data-name="Elipse 8466" cx="9.68" cy="9.68" r="9.68" transform="translate(381.891 3057.477)" fill="#45afac"/>
    <g id="Grupo_1019282" data-name="Grupo 1019282" transform="translate(211.438 2925.333)">
      <path id="Trazado_750702" data-name="Trazado 750702" d="M126.484,102.062V91.349h-6.026c-.67-2.008-1.339-3.348-2.008-5.356l4.018-4.018L115.1,74.611l-4.686,4.018c-1.339-.67-3.348-2.008-5.356-2.008V70.594H94.346V76.62c-2.008.67-3.348,1.339-5.356,2.008l-4.018-4.018-8.034,7.365,4.018,4.018c-.67,1.34-2.008,3.348-2.008,5.356H72.921v10.712h6.026c.67,2.008,1.339,3.348,2.008,5.356L76.938,112.1l7.365,7.365,4.018-4.018c1.339.67,3.348,2.008,5.356,2.008v6.026h10.712V117.46c2.008-.67,3.348-1.339,5.356-2.008l4.018,4.018,7.365-7.365-4.018-4.018c.67-1.339,2.008-3.348,2.008-5.356h7.365v-.668Z" transform="translate(-72.921 -70.594)" fill="#fe7062"/>
      <ellipse id="Elipse_8467" data-name="Elipse 8467" cx="13.39" cy="13.391" rx="13.39" ry="13.391" transform="translate(13.391 12.721)" fill="#fff"/>
      <ellipse id="Elipse_8468" data-name="Elipse 8468" cx="6.696" cy="6.696" rx="6.696" ry="6.696" transform="translate(20.086 19.416)" fill="#fe7062"/>
    </g>
    <path id="Trazado_750703" data-name="Trazado 750703" d="M234.709,257.526V247.86a53.239,53.239,0,0,0,8.7-.967l1.933,9.666A86.636,86.636,0,0,1,234.709,257.526Zm-10.632-.966a40.106,40.106,0,0,1-10.149-2.9l3.383-9.182a58.415,58.415,0,0,0,8.7,2.417Zm30.93-2.9-3.383-9.182a38.553,38.553,0,0,0,7.732-3.866l4.833,8.216C261.774,251.243,258.391,252.693,255.007,253.659Zm-50.262-4.35a97.975,97.975,0,0,1-8.7-6.283l6.283-7.249a69.188,69.188,0,0,0,7.249,5.316Zm68.627-6.282-6.283-7.249c.967-.967,1.933-1.45,2.9-2.417a24.194,24.194,0,0,0,3.383-3.866l7.733,6.283a36.9,36.9,0,0,1-4.35,4.35A21.005,21.005,0,0,0,273.372,243.028ZM188.8,236.261l-7.249-6.766,6.766-6.766,7.249,6.766Zm97.624-9.182-8.7-4.833a41.794,41.794,0,0,0,3.383-8.216l9.182,2.9A36.759,36.759,0,0,1,286.422,227.079Zm-111.639-3.866-7.249-6.766L174.3,209.2l7.249,6.766Zm-14.015-13.049-7.249-6.766,6.766-7.249,7.249,6.766Zm132.42-2.9-9.666-1.45a27.548,27.548,0,0,0,.483-6.283v-2.417l9.666-.483v2.9A44.214,44.214,0,0,1,293.187,207.264ZM146.752,196.632l-7.249-6.766,6.766-7.249,7.249,6.766Zm135.8-8.216a23.787,23.787,0,0,0-2.9-8.216l8.7-3.866a83.251,83.251,0,0,1,3.383,10.149Zm-149.818-4.833-7.249-6.766,6.766-7.249,7.249,6.766Zm142.569-11.115a25.426,25.426,0,0,0-5.8-6.766l6.766-6.766a55.613,55.613,0,0,1,6.766,8.216Zm-157.068-2.417-7.249-6.766,6.766-7.249L125,162.8ZM263.223,159.9a20.478,20.478,0,0,0-3.383-2.417l-4.35-2.9,4.833-8.216,4.833,2.9c1.45.967,2.417,1.933,3.866,2.417Zm-159-2.9-6.766-6.766,6.766-7.249,7.249,6.766Zm143.053-7.25-8.216-4.833,4.833-8.216,8.216,4.833ZM90.207,143.471,82.958,136.7l6.766-7.249,7.249,6.766ZM230.843,139.6l-8.216-4.833,4.833-8.216,8.216,4.833ZM76.192,130.422l-7.249-6.766,6.766-7.249,7.249,6.766Zm137.737-.966-8.216-4.833,4.833-8.216,8.216,4.833ZM197.5,119.789l-8.216-4.833,4.833-8.216,8.216,4.833Zm-135.32-2.9-7.249-6.766,6.766-7.249,7.249,6.766Zm118.888-7.25-8.216-4.833,4.833-8.216,8.216,4.833ZM49.128,104.324a59.806,59.806,0,0,1-6.766-8.7l8.7-4.833a34.3,34.3,0,0,0,4.833,6.766Zm115.505-4.833-8.216-4.833,4.833-8.216,8.216,4.833ZM148.2,89.342l-8.216-4.833,4.833-8.216,8.216,4.833ZM38.5,85.476a44.21,44.21,0,0,1-.483-7.732V74.361l9.666.967v2.417a23.522,23.522,0,0,0,.483,5.8Zm92.791-5.8-8.216-4.833,4.833-8.216,8.216,4.833ZM114.855,69.528l-8.7-5.316,5.316-7.733.483.483,7.249,4.35ZM49.611,67.111l-9.182-3.383a61.89,61.89,0,0,1,5.316-9.666l7.733,5.8A52.835,52.835,0,0,0,49.611,67.111ZM98.423,58.9l-6.283-4.35c-.483-.483-.967-.967-1.45-.967l4.833-8.216c.483.483,1.45.967,1.933,1.45l6.283,4.35ZM59.76,54.546l-5.8-8.216A36.241,36.241,0,0,1,63.626,41.5l2.9,9.182C64.11,51.646,61.693,52.612,59.76,54.546ZM83.441,50.2a37.3,37.3,0,0,0-7.249-.967h-.967l-.483-9.665h.967a31.169,31.169,0,0,1,9.666,1.45Z" transform="translate(158.663 2870.904)" fill="#193651"/>
    <g id="Grupo_1019283" data-name="Grupo 1019283" transform="translate(226.205 2939.766)">
      <ellipse id="Elipse_8461" data-name="Elipse 8461" cx="12.014" cy="12.014" rx="12.014" ry="12.014" transform="translate(0 0)" fill="#fe7062"/>
      <path id="Trazado_750680" data-name="Trazado 750680" d="M48,88.005h2v6.007h-2V88.005Z" transform="translate(-42.999 -77.993)"/>
      <path id="Trazado_750681" data-name="Trazado 750681" d="M80,48.005h2V59.018H80Z" transform="translate(-70.994 -42.999)"/>
      <path id="Trazado_750682" data-name="Trazado 750682" d="M112.005,72h2v8.009h-2Z" transform="translate(-98.99 -63.996)"/>
      <path id="Trazado_750683" data-name="Trazado 750683" d="M144.005,64h2v9.011h-2Z" transform="translate(-126.985 -56.997)"/>
    </g>
  </g>
</svg>
