<svg xmlns="http://www.w3.org/2000/svg" xmlns:xlink="http://www.w3.org/1999/xlink" width="272.23" height="316.713" viewBox="0 0 272.23 316.713">
  <defs>
    <clipPath id="clip-path">
      <rect id="Rectángulo_356053" data-name="Rectángulo 356053" width="272.23" height="316.713" fill="none"/>
    </clipPath>
    <clipPath id="clip-path-3">
      <rect id="Rectángulo_356048" data-name="Rectángulo 356048" width="48.649" height="95.425" fill="none"/>
    </clipPath>
    <clipPath id="clip-path-4">
      <rect id="Rectángulo_356049" data-name="Rectángulo 356049" width="7.994" height="14.77" fill="none"/>
    </clipPath>
    <clipPath id="clip-path-5">
      <rect id="Rectángulo_356050" data-name="Rectángulo 356050" width="77.812" height="78.35" fill="none"/>
    </clipPath>
    <clipPath id="clip-path-6">
      <rect id="Rectángulo_356051" data-name="Rectángulo 356051" width="86.766" height="113.663" fill="none"/>
    </clipPath>
  </defs>
  <g id="Grupo_1019279" data-name="Grupo 1019279" transform="translate(0)">
    <g id="Grupo_1019278" data-name="Grupo 1019278" transform="translate(0)" clip-path="url(#clip-path)">
      <g id="Grupo_1019277" data-name="Grupo 1019277" transform="translate(0 0)">
        <g id="Grupo_1019276" data-name="Grupo 1019276" clip-path="url(#clip-path)">
          <path id="Trazado_750631" data-name="Trazado 750631" d="M231.925,553.588c3.711-.466,7.492-.932,11.17-.253,6.859,1.266,12.421,6.342,16.558,11.957,10.614,14.405,14.028,32.865,15.091,50.726,1.054,17.724-.279,36.678-10.584,51.137-7.82,10.972-20.079,18.145-32.916,22.238s-26.371,5.385-39.785,6.654c-13.843,1.309-25.571,1.493-38.175-4.962-14.381-7.365-28.565-14.827-43.437-21.2-11.345-4.861-23.02-9.375-32.911-16.758s-17.965-18.246-18.814-30.559c-.71-10.295,3.61-20.246,4.645-30.514,1.549-15.382-4.329-30.521-11.286-44.326S36.3,520.515,32.549,505.516s-2.169-32.44,8.551-43.579c8.711-9.052,21.851-12.4,34.4-13.049a103.936,103.936,0,0,1,43.5,7.155,60.04,60.04,0,0,1,15.175,8.331,74.312,74.312,0,0,1,11.879,12.576c15.218,19.222,27.624,40.112,38.227,62.175,3.7,7.7,7.947,16.8,17.332,18.078,9.289,1.263,21.1-2.455,30.312-3.614" transform="translate(-6.011 -402.013)" fill="#ffeae7"/>
          <path id="Trazado_750632" data-name="Trazado 750632" d="M596.334,1602.3s7.933,4.6,6.336,6.156-9.134-3.573-9.134-3.573" transform="translate(-392.47 -1435.414)" fill="#e3a193"/>
          <path id="Trazado_750633" data-name="Trazado 750633" d="M23.06,1775.974l-8.45,2.072L0,1696.592l3.157-.566Z" transform="translate(249.171 -1519.381)" fill="#c4f2f1"/>
          <path id="Trazado_750634" data-name="Trazado 750634" d="M380.75,1577.687c.525-13.589,1.809-23.865,3.817-30.542,1.684-5.6,3.853-8.677,6.445-9.142l.015,0c2.184-.383,4.808,1.058,7.8,4.283a64.238,64.238,0,0,1,8.067,11.6,169.149,169.149,0,0,1,8.564,17.574l1.321-.536a170.683,170.683,0,0,0-8.64-17.733c-6.757-11.844-12.6-17.426-17.358-16.591l-.021,0c-6.674,1.2-10.414,14.619-11.435,41.032Z" transform="translate(-184.056 -1376.483)"/>
          <rect id="Rectángulo_356046" data-name="Rectángulo 356046" width="82.753" height="85.763" transform="matrix(-0.177, -0.984, 0.984, -0.177, 179.365, 273.805)" fill="#e6faf9"/>
          <path id="Trazado_750635" data-name="Trazado 750635" d="M421.191,1584.94c.525-13.589,1.809-23.865,3.817-30.542,1.684-5.6,3.853-8.677,6.445-9.142l.015,0c2.184-.383,4.808,1.058,7.8,4.283a64.229,64.229,0,0,1,8.067,11.6,169.169,169.169,0,0,1,8.564,17.574l1.321-.536a170.684,170.684,0,0,0-8.64-17.733c-6.757-11.844-12.6-17.426-17.358-16.591l-.021,0c-6.674,1.2-10.414,14.619-11.435,41.033Z" transform="translate(-228.709 -1382.981)"/>
          <path id="Trazado_750636" data-name="Trazado 750636" d="M535.17,1589.533l.968.213q.745-3.393,1.509-6.359a84.222,84.222,0,0,1,3.957-12.162q.447-1.029.9-1.916c1.382-2.725,2.777-4.44,4.161-5.125h0a3.085,3.085,0,0,1,1.33-.342h.053a3.443,3.443,0,0,1,1.847.606,10.691,10.691,0,0,1,2.966,3.283,44.644,44.644,0,0,1,4.1,8.93c.829,2.334,1.539,4.679,2.111,6.726,1.011,3.624,1.584,6.314,1.594,6.355l.97-.205c-.008-.041-.559-2.627-1.534-6.15-.588-2.126-1.331-4.593-2.2-7.049-2.306-6.5-4.686-10.669-7.1-12.467a4.6,4.6,0,0,0-2.74-1.021h-.015a3.9,3.9,0,0,0-1.38.255,5.175,5.175,0,0,0-1.312.738h0c-1.953,1.471-3.821,4.585-5.622,9.381a99.119,99.119,0,0,0-3.1,10.162q-.731,2.868-1.451,6.146" transform="translate(-345.14 -1400.076)"/>
          <rect id="Rectángulo_356047" data-name="Rectángulo 356047" width="59.642" height="82.248" transform="translate(170.44 183.311)" fill="#fe7062"/>
          <path id="Trazado_750637" data-name="Trazado 750637" d="M346.7,1760.03v82.248l6.039-.381-.276-5.938-3.532-75.929Z" transform="translate(-116.618 -1576.719)" fill="#c04f39"/>
          <path id="Trazado_750638" data-name="Trazado 750638" d="M561.66,1589.533l.969.213q.745-3.393,1.509-6.359.925-3.59,1.875-6.54a52.492,52.492,0,0,1,2.979-7.539c1.84-3.628,3.7-5.467,5.534-5.467h.01a.492.492,0,0,1,.055,0h0a3.154,3.154,0,0,1,1.319.339h0a6.193,6.193,0,0,1,1.71,1.3,14.449,14.449,0,0,1,1.728,2.243,44.7,44.7,0,0,1,4.1,8.93c.828,2.334,1.539,4.679,2.111,6.726,1.011,3.624,1.585,6.314,1.594,6.355l.97-.205c-.008-.041-.559-2.627-1.534-6.15-.587-2.126-1.331-4.593-2.2-7.049-1.935-5.455-3.923-9.272-5.944-11.419a8.755,8.755,0,0,0-1.2-1.077,5.472,5.472,0,0,0-1.337-.736,3.939,3.939,0,0,0-1.364-.255h-.015c-3.733,0-7.148,5.47-10.364,16.658,0,0,0,0,0,0q-.528,1.836-1.049,3.878-.731,2.868-1.451,6.146" transform="translate(-374.389 -1400.076)"/>
          <g id="Grupo_1019266" data-name="Grupo 1019266" transform="translate(181.434 163.795)" opacity="0.1">
            <g id="Grupo_1019265" data-name="Grupo 1019265">
              <g id="Grupo_1019264" data-name="Grupo 1019264" clip-path="url(#clip-path-3)">
                <path id="Trazado_750639" data-name="Trazado 750639" d="M404.68,1616.453a51.714,51.714,0,0,0,48.649,51.622v-75.909H438.2c-.588-2.126-1.331-4.593-2.2-7.049-2.306-6.5-4.686-10.669-7.1-12.467q-.453.283-.9.577-.353.233-.7.471-.412.28-.819.569a14.448,14.448,0,0,1,1.728,2.243,44.707,44.707,0,0,1,4.1,8.93c.828,2.334,1.539,4.679,2.111,6.726H415.753A84.225,84.225,0,0,1,419.71,1580q-.969.975-1.884,2-1.559,1.742-2.956,3.622-.969,1.3-1.852,2.661s0,0,0,0q-1.226,1.884-2.289,3.878a51.464,51.464,0,0,0-6.048,24.287" transform="translate(-404.68 -1572.65)" fill="#f6f6f6"/>
              </g>
            </g>
          </g>
          <path id="Trazado_750640" data-name="Trazado 750640" d="M498.875,1412.719l-6.407-8.487-10.287-9.442,6.31-6.995,9.433,10.339,14.01,2.142a7.247,7.247,0,0,1,5.912,5.319l1.868,7.1a3.172,3.172,0,0,1-1.425,3.521l-1.035.626a2.8,2.8,0,0,1-3.945-1.124l-3.137-6.157a3.5,3.5,0,0,0-2.892-1.9l-5.855-.377.247,2.857" transform="translate(-297.809 -1243.253)" fill="#e3a193"/>
          <path id="Trazado_750641" data-name="Trazado 750641" d="M367.217,735.017c-.841-1.968.418-4.391,2.345-5.324a7.528,7.528,0,0,1,6.218.233,6.578,6.578,0,0,0,2.284.771c1.806.08,3.158-1.726,3.585-3.482s.287-3.633.876-5.342a6.538,6.538,0,0,1,12.632,1.071,17.37,17.37,0,0,0,.409,2.8,2.155,2.155,0,0,0,2.053,1.621,3.864,3.864,0,0,0,1.8-1.095c2.095-1.671,5.625-1.529,7.119.7a1.414,1.414,0,0,1,.295,1.125c-.208.747-1.2.829-1.946,1.046s-1.353,1.37-.625,1.638c1.245,1.557,3.637,1.168,5.627,1.069,1.878-.093,4.355.827,4.1,2.951-6.4,1.628-14.9.1-21.507.147-2.58.018-24.63,1.572-25.268.08" transform="translate(-179.997 -642.743)" fill="#ffeae7"/>
          <path id="Trazado_750642" data-name="Trazado 750642" d="M2345.109,1423.246a3.08,3.08,0,0,1,1.4-3.573,4.02,4.02,0,0,1,3.7.156,3.622,3.622,0,0,0,1.359.517c1.074.054,1.879-1.158,2.133-2.337s.17-2.438.521-3.585a4.024,4.024,0,0,1,4.006-2.941,4.239,4.239,0,0,1,3.51,3.66,13.073,13.073,0,0,0,.243,1.876c.18.6.664,1.159,1.222,1.088.421-.054.739-.436,1.07-.735a2.789,2.789,0,0,1,4.236.467,1.042,1.042,0,0,1,.175.755c-.124.5-.715.556-1.158.7s-.8.919-.372,1.1c.74,1.045,2.164.784,3.348.718,1.117-.062,2.591.555,2.442,1.981-3.809,1.093-8.863.068-12.8.1-1.535.012-14.654,1.055-15.034.054" transform="translate(-2344.951 -1264.461)" fill="#ffeae7"/>
          <path id="Trazado_750643" data-name="Trazado 750643" d="M1166.047,2577.9l-11.133,16.951-8.689-4.721,8.2-18.543Z" transform="translate(-1013.199 -2303.755)" fill="#ce5247"/>
          <path id="Trazado_750644" data-name="Trazado 750644" d="M1110.341,2748.062l-16.427-23.644-9.889-5.964-7.6,10.321a1.768,1.768,0,0,0,.476,2.54l30.714,19.51" transform="translate(-950.188 -2435.321)" fill="#d98044"/>
          <path id="Trazado_750645" data-name="Trazado 750645" d="M1104.368,2840.57l-32.248-19.427a1.443,1.443,0,0,1-.49-1.981l1.134-1.88,34.284,20.688" transform="translate(-946.409 -2523.857)" fill="#efeff1"/>
          <line id="Línea_3169" data-name="Línea 3169" x1="3.601" y2="0.721" transform="translate(145.394 296.68)" fill="none" stroke="#000" stroke-linecap="round" stroke-miterlimit="10" stroke-width="4.993"/>
          <line id="Línea_3170" data-name="Línea 3170" x1="3.601" y2="0.721" transform="translate(143.72 294.587)" fill="none" stroke="#000" stroke-linecap="round" stroke-miterlimit="10" stroke-width="4.993"/>
          <line id="Línea_3171" data-name="Línea 3171" x1="3.601" y2="0.721" transform="translate(146.902 298.535)" fill="none" stroke="#000" stroke-linecap="round" stroke-miterlimit="10" stroke-width="4.993"/>
          <path id="Trazado_750646" data-name="Trazado 750646" d="M892.583,1350.607l20.64,71.238A29,29,0,0,1,912.167,1441l-22.112,53.462L861.126,1480.4l19.075-53.659-20.638-70.707Z" transform="translate(-731.664 -1209.939)" fill="#91b3fa"/>
          <path id="Trazado_750647" data-name="Trazado 750647" d="M1072.819,1423.18l23.4,71.906-20.207,55.591" transform="translate(-935.721 -1274.953)" fill="none" stroke="#000" stroke-linecap="round" stroke-miterlimit="10" stroke-width="5.553"/>
          <line id="Línea_3172" data-name="Línea 3172" x1="30.272" y1="12.226" transform="translate(133.026 260.436)" fill="none" stroke="#000" stroke-linecap="round" stroke-miterlimit="10" stroke-width="5.553"/>
          <path id="Trazado_750648" data-name="Trazado 750648" d="M2115.369,1978.192l-20.125,2.508-2.036-9.677,19.438-5.771Z" transform="translate(-2061.152 -1760.566)" fill="#ce5247"/>
          <path id="Trazado_750649" data-name="Trazado 750649" d="M2273.692,2006.391l-12.784.9a1.768,1.768,0,0,0-1.626,2.008l5.047,36.035a1.984,1.984,0,0,0,3.869.283l7.36-27.833Z" transform="translate(-2238.636 -1797.421)" fill="#d98044"/>
          <path id="Trazado_750650" data-name="Trazado 750650" d="M2340.325,2015.73l6.464,39.517-1.947.689a1.34,1.34,0,0,1-1.769-1.046l-6.105-37.149a1.443,1.443,0,0,1,1.191-1.657Z" transform="translate(-2317.957 -1805.787)" fill="#efeff1"/>
          <line id="Línea_3173" data-name="Línea 3173" x1="2.883" y1="2.275" transform="translate(31.68 227.018)" fill="none" stroke="#000" stroke-linecap="round" stroke-miterlimit="10" stroke-width="4.993"/>
          <line id="Línea_3174" data-name="Línea 3174" x1="2.883" y1="2.275" transform="translate(32.189 224.387)" fill="none" stroke="#000" stroke-linecap="round" stroke-miterlimit="10" stroke-width="4.993"/>
          <line id="Línea_3175" data-name="Línea 3175" x1="2.883" y1="2.275" transform="translate(31.244 229.368)" fill="none" stroke="#000" stroke-linecap="round" stroke-miterlimit="10" stroke-width="4.993"/>
          <path id="Trazado_750651" data-name="Trazado 750651" d="M1263.687,1276.711l-29,62.636a29.628,29.628,0,0,1-18.272,15.9L1161.93,1371.8l-8.16-32.648,51.123-14.41,11.918-37.685,13.009-22.673Z" transform="translate(-1111.624 -1132.698)" fill="#91b3fa"/>
          <path id="Trazado_750652" data-name="Trazado 750652" d="M1502.577,1388.18l-24.287,60.1-54.04,15.448" transform="translate(-1378.685 -1243.598)" fill="none" stroke="#000" stroke-linecap="round" stroke-miterlimit="10" stroke-width="5.553"/>
          <line id="Línea_3176" data-name="Línea 3176" x2="8.034" y2="32.421" transform="translate(54.218 203.053)" fill="none" stroke="#000" stroke-linecap="round" stroke-miterlimit="10" stroke-width="5.553"/>
          <path id="Trazado_750653" data-name="Trazado 750653" d="M1085.8,114.477c4.63,4.935,7.157,10.748,8.757,17.324l5.792,23.8a16.416,16.416,0,0,1,.688,5.21c-.464,5.522-6.224,9.305-7.286,14.744-.627,3.212.487,6.478.787,9.737s-.66,7.157-3.706,8.354c-2.4.944-5.169-.23-7.061-1.984s-3.2-4.037-4.917-5.965a17.106,17.106,0,0,0-11.537-5.784c-3.007-.184-6.135.5-8.977-.5-5.329-1.876-7.035-8.427-7.962-14l-3.26-19.6c-.946-5.686-1.887-11.545-.6-17.164,2.006-8.776,8.835-13.853,16.857-16.681,7.982-2.814,15.515-4.852,22.429,2.517" transform="translate(-937.773 -98.004)" fill="#0d0d0d"/>
          <path id="Trazado_750654" data-name="Trazado 750654" d="M1252.223,454.451l1.74,27.367-18.454-4.93,5.25-21.425Z" transform="translate(-1110.414 -407.12)" fill="#dba191"/>
          <g id="Grupo_1019269" data-name="Grupo 1019269" transform="translate(133.709 41.051)" style="mix-blend-mode: multiply;isolation: isolate">
            <g id="Grupo_1019268" data-name="Grupo 1019268" transform="translate(0)">
              <g id="Grupo_1019267" data-name="Grupo 1019267" clip-path="url(#clip-path-4)">
                <path id="Trazado_750655" data-name="Trazado 750655" d="M1260.839,394.154l-7.6,12.774,7.994,2Z" transform="translate(-1253.238 -394.153)" fill="#dba191"/>
              </g>
            </g>
          </g>
          <path id="Trazado_750656" data-name="Trazado 750656" d="M1200.64,152.825c2.666,6.041,4.762,13.537,4.741,20.223-.029,9.084-8.67,11.945-16.068,11.512-9.41-.551-13.375-11.018-14.858-19.786,0,0-5.278-15.933,14.908-18.777,4.6-.648,9.2,2.131,11.278,6.828" transform="translate(-1055.408 -130.709)" fill="#dba191"/>
          <path id="Trazado_750657" data-name="Trazado 750657" d="M1398.069,335.064c.02,1.963,2.712,3.526,6.013,3.492s5.96-1.653,5.939-3.616-2.713-3.526-6.013-3.492-5.959,1.653-5.939,3.616" transform="translate(-1283.403 -296.927)" fill="#dba191"/>
          <path id="Trazado_750658" data-name="Trazado 750658" d="M1251.884,286.172a1.094,1.094,0,1,0,.728-1.365,1.094,1.094,0,0,0-.728,1.365" transform="translate(-1112.175 -255.102)"/>
          <path id="Trazado_750659" data-name="Trazado 750659" d="M1345.007,314.522a1.094,1.094,0,1,0,.728-1.365,1.094,1.094,0,0,0-.728,1.365" transform="translate(-1214.997 -280.499)"/>
          <path id="Trazado_750660" data-name="Trazado 750660" d="M1287.812,328.448l1.276,4.191a.545.545,0,0,1-.362.68l-1.807.55" transform="translate(-1150.917 -294.24)" fill="none" stroke="#000" stroke-linecap="round" stroke-miterlimit="10" stroke-width="1"/>
          <path id="Trazado_750661" data-name="Trazado 750661" d="M1253.042,401.343l-9.032,2.75s6.535,7.136,9.032-2.75" transform="translate(-1110.378 -359.543)" fill="#fff"/>
          <line id="Línea_3177" data-name="Línea 3177" x1="2.459" y2="1.992" transform="translate(127.725 28.105)" fill="none" stroke="#000" stroke-linecap="round" stroke-miterlimit="10" stroke-width="2"/>
          <line id="Línea_3178" data-name="Línea 3178" x2="3.152" y2="0.284" transform="translate(137.964 26.528)" fill="none" stroke="#000" stroke-linecap="round" stroke-miterlimit="10" stroke-width="2"/>
          <path id="Trazado_750662" data-name="Trazado 750662" d="M1392.259,1.786a7.981,7.981,0,1,0,9.96,5.311,7.981,7.981,0,0,0-9.96-5.311" transform="translate(-1274.754 -1.288)" fill="#0d0d0d"/>
          <path id="Trazado_750663" data-name="Trazado 750663" d="M1368.3,151.874l6.313,5.143,9.077-24.247s-14.141,5.7-15.389,19.1" transform="translate(-1253.97 -118.942)" fill="#0d0d0d"/>
          <path id="Trazado_750664" data-name="Trazado 750664" d="M1154,136.336l23.5,15.443s-10.249-26.853-23.5-15.443" transform="translate(-1025.461 -119.607)" fill="#0d0d0d"/>
          <path id="Trazado_750665" data-name="Trazado 750665" d="M1386.3,157.852s-1.059,15.66-8.114,21.413" transform="translate(-1257.615 -141.412)" fill="none" stroke="#000" stroke-linecap="round" stroke-miterlimit="10" stroke-width="2"/>
          <path id="Trazado_750666" data-name="Trazado 750666" d="M1362.928,2.988s24.7-3.452,5.4,17.741" transform="translate(-1245.423 -2.49)" fill="none" stroke="#000" stroke-linecap="round" stroke-miterlimit="10" stroke-width="2"/>
          <path id="Trazado_750667" data-name="Trazado 750667" d="M678.805,653.6a48.761,48.761,0,0,1-1.085,22.69l-2.8,9.635,25.028,8.3a31.392,31.392,0,0,0,13.038,1.436l17.479-1.766L727.2,679.5l-3.661-16.135-.433-13.5,6.3,25.865,4.427,5.574,22.131,27.859,14.373-13.436L759.2,681.87l-11.884-14.788L733.667,624.72a19.433,19.433,0,0,0-10.622-12.258l-15.1-6.856c-7.535,11.57-17.5-1.146-17.5-1.146l-8.4,2.374-5.426,1.533a19.926,19.926,0,0,0-10.39,7.045L639.77,649.884l21.41,6.575,14.452-19.613Z" transform="translate(-564.734 -541.505)" fill="#afabd8"/>
          <g id="Grupo_1019272" data-name="Grupo 1019272" transform="translate(116.651 62.956)" opacity="0.2">
            <g id="Grupo_1019271" data-name="Grupo 1019271">
              <g id="Grupo_1019270" data-name="Grupo 1019270" clip-path="url(#clip-path-5)">
                <path id="Trazado_750668" data-name="Trazado 750668" d="M746.67,616.2a66.66,66.66,0,0,0,77.812,65.666L812.6,667.083,798.951,624.72a19.433,19.433,0,0,0-10.622-12.258l-15.1-6.856c-7.535,11.57-17.5-1.146-17.5-1.146l-8.4,2.374a67.163,67.163,0,0,0-.654,9.371" transform="translate(-746.67 -604.46)" fill="#fff"/>
              </g>
            </g>
          </g>
          <path id="Trazado_750669" data-name="Trazado 750669" d="M845.1,837.631l39.169,42.959a5.377,5.377,0,0,0,7.6.351l24.483-22.323,34.136-31.124a.684.684,0,0,0,.141-.821,6.271,6.271,0,0,1,9.37-7.85l23.646-21.559a5.378,5.378,0,0,0,.351-7.6l-39.169-42.959a5.377,5.377,0,0,0-7.6-.351l-23.574,21.494a6.269,6.269,0,0,1-8.108,9.354c-.067-.042-.133-.084-.2-.129a1.591,1.591,0,0,0-1.965.142l-57.929,52.817a5.377,5.377,0,0,0-.351,7.6" transform="translate(-801.038 -667.366)" fill="#fe7062"/>
          <path id="Trazado_750670" data-name="Trazado 750670" d="M1154.929,1436.569l.714.783a1.324,1.324,0,1,0,1.957-1.785l-.714-.783a1.325,1.325,0,0,0-1.958,1.785" transform="translate(-1005.969 -1284.961)" fill="#fff"/>
          <path id="Trazado_750671" data-name="Trazado 750671" d="M1224.36,1108.466a1.324,1.324,0,0,1,1.872.086l1.388,1.523a1.325,1.325,0,0,1-1.958,1.785l-1.388-1.523a1.325,1.325,0,0,1,.086-1.872m-4.86-5.331a1.325,1.325,0,0,1,1.872.086l1.388,1.523a1.324,1.324,0,1,1-1.957,1.785l-1.388-1.523a1.324,1.324,0,0,1,.085-1.872m-4.859-5.329a1.325,1.325,0,0,1,1.872.086l1.388,1.523a1.325,1.325,0,1,1-1.958,1.785l-1.388-1.523a1.324,1.324,0,0,1,.086-1.872m-4.86-5.329a1.325,1.325,0,0,1,1.872.086l1.388,1.523a1.325,1.325,0,1,1-1.958,1.785l-1.388-1.523a1.325,1.325,0,0,1,.086-1.872m-4.86-5.329a1.324,1.324,0,0,1,1.872.085l1.388,1.524a1.324,1.324,0,0,1-1.958,1.784l-1.388-1.523a1.324,1.324,0,0,1,.086-1.871m-4.86-5.33a1.325,1.325,0,0,1,1.872.086l1.388,1.523a1.324,1.324,0,1,1-1.957,1.785l-1.388-1.523a1.324,1.324,0,0,1,.085-1.872m-4.859-5.329a1.325,1.325,0,0,1,1.872.086l1.388,1.523a1.325,1.325,0,1,1-1.958,1.785l-1.388-1.523a1.325,1.325,0,0,1,.086-1.872" transform="translate(-1080.173 -964.059)" fill="#fff"/>
          <path id="Trazado_750672" data-name="Trazado 750672" d="M1521.718,1034.285l.2.222.511.561a1.325,1.325,0,0,0,1.958-1.785l-.511-.561-.2-.222a1.324,1.324,0,1,0-1.957,1.785" transform="translate(-1410.959 -924.576)" fill="#fff"/>
          <path id="Trazado_750673" data-name="Trazado 750673" d="M1389.286,1300.077c5.307-4.838,10.9-4.236,14.948.207,4.511,4.947,3.409,10.846-1.122,14.977-5.325,4.856-10.875,4.411-15.038-.155-4.4-4.823-3.591-10.65,1.212-15.029m2.585,11.46c1.712,1.878,4.16,1.518,6.938-1.016,2.836-2.586,3.176-4.97,1.579-6.721s-3.839-1.887-6.891.895c-2.95,2.689-3.318,4.985-1.626,6.842m18.688-1.394,6.131-21.3,4.1,4.493-7.778,26.941-4.618,16-4.067-4.461Zm11.4-.287c5.307-4.838,10.906-4.225,14.948.207,4.506,4.942,3.408,10.848-1.122,14.977-5.351,4.88-10.885,4.4-15.039-.155-4.392-4.817-3.6-10.644,1.212-15.029m2.585,11.46c1.712,1.878,4.155,1.523,6.938-1.016,2.857-2.6,3.185-4.96,1.579-6.721s-3.834-1.892-6.891.895c-2.95,2.689-3.318,4.985-1.626,6.842" transform="translate(-1311.829 -1154.605)" fill="#fff"/>
          <g id="Grupo_1019275" data-name="Grupo 1019275" transform="translate(95.508 77.588)" opacity="0.1">
            <g id="Grupo_1019274" data-name="Grupo 1019274">
              <g id="Grupo_1019273" data-name="Grupo 1019273" clip-path="url(#clip-path-6)">
                <path id="Trazado_750674" data-name="Trazado 750674" d="M863.7,809.452a79.569,79.569,0,0,0,1.138,13.452,77.024,77.024,0,0,0,2.45,10.131,72.522,72.522,0,0,0,14.132,25.582l34.136-31.124a.684.684,0,0,0,.141-.821,6.275,6.275,0,0,1,.551-6.587,1.325,1.325,0,0,0,1.778-1.621,6.273,6.273,0,0,1,7.041.357l23.646-21.559a5.378,5.378,0,0,0,.351-7.6l-39.169-42.959a5.377,5.377,0,0,0-7.6-.351l-23.574,21.494a6.269,6.269,0,0,1,.3,7.66l-.2-.222a1.324,1.324,0,1,0-1.957,1.785l.2.222a6.279,6.279,0,0,1-6.453-.092,77.472,77.472,0,0,0-6.917,32.247" transform="translate(-863.699 -744.954)" fill="#fff"/>
              </g>
            </g>
          </g>
          <path id="Trazado_750675" data-name="Trazado 750675" d="M1246.587,1164.871l16.15,10.576,9.3-1.955a11.676,11.676,0,0,1,4.714-.023c3.836.775,10.7,2.52,9.9,4.975a1.456,1.456,0,0,1-1.665.938l-6.525-1.234a5.505,5.505,0,0,0-3,.273l-1.479.571s16.994,9.514,15.806,11.711c-.944,1.746-16.392-7.37-16.392-7.37s16.659,9.557,15.451,11.5-16.953-8.2-16.953-8.2,16.33,9.324,13.9,11.063-15.681-7.766-15.681-7.766,10.944,7.336,10.08,8.147-1.711,1.063-12.826-5.3-10.2-8.849-10.2-8.849l-16.618-9.054Z" transform="translate(-1146.811 -1043.547)" fill="#e3a193"/>
          <path id="Trazado_750676" data-name="Trazado 750676" d="M1487.69,1047.164l23.33,15.727-9.478,14.79-36.025-23.421a12.148,12.148,0,0,1,.763-13.671" transform="translate(-1391.245 -932.21)" fill="#afabd8"/>
        </g>
      </g>
    </g>
  </g>
</svg>
