<svg xmlns="http://www.w3.org/2000/svg" width="48" height="48" viewBox="0 0 48 48">
  <path id="Product_Package" d="M51.4,15.57,28.488,4.115a1.093,1.093,0,0,0-.976,0L4.6,15.57a1.091,1.091,0,0,0-.6.976V39.455a1.091,1.091,0,0,0,.6.976L27.512,51.885a1.093,1.093,0,0,0,.976,0L51.4,40.431a1.091,1.091,0,0,0,.6-.976V16.546A1.091,1.091,0,0,0,51.4,15.57ZM28,6.311,48.47,16.546l-4.379,2.189L23.622,8.5ZM35.364,23.1,14.894,12.864,21.182,9.72l20.47,10.235Zm.818,2.03,6.545-3.273v8.115l-2.093-1.5a1.091,1.091,0,0,0-1.531.267l-2.921,4.22ZM12.455,14.083,32.924,24.318,28,26.781,7.53,16.546ZM6.182,18.311,26.909,28.674V49.144L6.182,38.78ZM29.091,49.144V28.674L34,26.22V36.455a1.091,1.091,0,0,0,1.988.621L40.267,30.9l2.918,2.084a1.091,1.091,0,0,0,1.724-.888V20.765l4.909-2.455V38.78Z" transform="translate(-4 -4)" fill="#57dbd8"/>
</svg>
