<svg id="price-tag" xmlns="http://www.w3.org/2000/svg" width="46.779" height="46.833" viewBox="0 0 46.779 46.833">
  <g id="Grupo_1019186" data-name="Grupo 1019186" transform="translate(0)">
    <g id="Grupo_1019185" data-name="Grupo 1019185">
      <path id="Trazado_748462" data-name="Trazado 748462" d="M282.882,311.038a.779.779,0,0,0-1.068.279l-8.95,15.265a2.337,2.337,0,0,1-3.165.878l-1.743-1.13a.781.781,0,0,0-.85,1.31l1.778,1.151a3.905,3.905,0,0,0,5.33-1.424l8.947-15.261A.78.78,0,0,0,282.882,311.038Z" transform="translate(-242.369 -282.481)" fill="#57dbd8"/>
      <path id="Trazado_748463" data-name="Trazado 748463" d="M43.174,0H30.681a7.873,7.873,0,0,0-6.018,2.571.781.781,0,0,0,1.1,1.1,6.286,6.286,0,0,1,4.914-2.114H43.174A2.345,2.345,0,0,1,45.516,3.9V16.4A6.283,6.283,0,0,1,43.4,21.31L20.214,44.531a2.4,2.4,0,0,1-3.312,0L2.547,30.176a2.342,2.342,0,0,1,0-3.312L23.5,5.936c.322.082.646.164.981.254A59.483,59.483,0,0,1,32.036,8.7a4.678,4.678,0,1,0,4.111-2.458.781.781,0,0,0,0,1.562,3.13,3.13,0,1,1-2.686,1.534,10.032,10.032,0,0,1,2.532,1.541,3.766,3.766,0,0,1-.7.115.781.781,0,0,0,.068,1.559c.023,0,.046,0,.069,0,.48-.043,1.941-.172,2.222-1.219.769-2.873-10.5-6.047-12.767-6.655a57.547,57.547,0,0,0-9.378-1.79C12.34,2.614,10.8,2.975,10.5,4.06c-.139.521-.51,1.9,5.821,4.4A.78.78,0,1,0,16.9,7.007C13.84,5.8,12.572,4.917,12.166,4.5c.963-.283,4.255-.2,9.558,1L1.443,25.759a3.9,3.9,0,0,0,0,5.521L15.8,45.635a3.9,3.9,0,0,0,5.52,0l23.189-23.22A7.871,7.871,0,0,0,47.078,16.4V3.9A3.908,3.908,0,0,0,43.174,0Z" transform="translate(-0.299)" fill="#57dbd8"/>
      <path id="Trazado_748464" data-name="Trazado 748464" d="M157.626,222.093a.78.78,0,0,0-1.1,0l-.422.422a3.9,3.9,0,0,0-6.053,3.254,5.155,5.155,0,0,0,.9,2.755,4.636,4.636,0,0,1,.663,1.929,2.342,2.342,0,1,1-4.276-1.321.781.781,0,0,0-1.288-.882,3.89,3.89,0,0,0-.031,4.353l-.422.422a.781.781,0,1,0,1.1,1.1l.422-.422a3.9,3.9,0,0,0,6.053-3.254,6,6,0,0,0-.9-2.755,3.557,3.557,0,0,1-.663-1.929,2.336,2.336,0,0,1,3.955-1.69c.013.014.018.033.031.047s.033.018.047.031a2.332,2.332,0,0,1-.036,3.271.781.781,0,0,0,1.1,1.1,3.894,3.894,0,0,0,.5-4.914l.422-.422A.78.78,0,0,0,157.626,222.093Z" transform="translate(-132.089 -201.564)" fill="#57dbd8"/>
    </g>
  </g>
</svg>
