<svg id="distribution_1_" data-name="distribution (1)" xmlns="http://www.w3.org/2000/svg" width="47.998" height="48" viewBox="0 0 47.998 48">
  <path id="Trazado_748476" data-name="Trazado 748476" d="M52.7,34.1a.472.472,0,0,0,.235-.406.466.466,0,0,0-.235-.4l-5-2.88,5-2.88a.468.468,0,0,0,0-.81L37.727,17.988a.473.473,0,0,0-.479,0l-5.562,3.2-5.562-3.2a.484.484,0,0,0-.479,0L10.662,26.723a.468.468,0,0,0,0,.81l5,2.88-5,2.88a.467.467,0,0,0,0,.81l5.471,3.19V47.332a.472.472,0,0,0,.235.406l15.074,8.681a.481.481,0,0,0,.24.063.488.488,0,0,0,.24-.063L47,47.738a.467.467,0,0,0,.235-.406V37.293L52.7,34.1Zm-1.179-.4L37.481,41.887l-4.854-2.8,14.129-8.136L51.522,33.7ZM31.684,38.549,17.555,30.413l14.129-8.136,14.129,8.136Zm5.8-19.613,14.039,8.188-4.767,2.743L32.626,21.732l4.854-2.8ZM11.844,27.125l14.039-8.188,4.857,2.8L16.611,29.868Zm4.767,3.831L30.74,39.092l-4.854,2.8L11.844,33.7l4.767-2.743Zm29.673,16.1L32.159,55.193V44.565a.475.475,0,0,0-.949,0V55.193L17.085,47.059V37.845l8.561,4.991a.477.477,0,0,0,.479,0l5.559-3.2,5.559,3.2a.481.481,0,0,0,.24.063.46.46,0,0,0,.24-.066l8.561-4.991Z" transform="translate(-7.683 -13.202)" fill="#57dbd8"/>
  <path id="Trazado_748477" data-name="Trazado 748477" d="M.527,5.586a.528.528,0,0,0,.527-.527V1.8L6.205,6.95a.526.526,0,0,0,.743-.745L1.8,1.053H5.062A.527.527,0,1,0,5.062,0H.527A.528.528,0,0,0,0,.527V5.059a.528.528,0,0,0,.527.527Z" transform="translate(0)" fill="#57dbd8"/>
  <path id="Trazado_748478" data-name="Trazado 748478" d="M179.61,0h-4.533a.527.527,0,0,0,0,1.053h3.263l-5.152,5.152a.526.526,0,1,0,.743.745L179.083,1.8V5.062a.527.527,0,1,0,1.053,0V.527A.528.528,0,0,0,179.61,0Z" transform="translate(-132.139)" fill="#57dbd8"/>
  <path id="Trazado_748479" data-name="Trazado 748479" d="M179.6,174.551a.528.528,0,0,0-.527.527v3.263l-5.152-5.152a.527.527,0,0,0-.745.745l5.152,5.152h-3.263a.527.527,0,0,0,0,1.053H179.6a.528.528,0,0,0,.527-.527V175.08a.528.528,0,0,0-.527-.527Z" transform="translate(-132.132 -132.139)" fill="#57dbd8"/>
  <path id="Trazado_748480" data-name="Trazado 748480" d="M6.205,173.182l-5.152,5.152V175.07a.527.527,0,0,0-1.053,0V179.6a.528.528,0,0,0,.527.527H5.059a.527.527,0,0,0,0-1.053H1.8l5.152-5.152a.527.527,0,1,0-.745-.745Z" transform="translate(0 -132.132)" fill="#57dbd8"/>
</svg>
