<svg xmlns="http://www.w3.org/2000/svg" width="46.529" height="70.519" viewBox="0 0 46.529 70.519">
  <g id="Grupo_1019292" data-name="Grupo 1019292" transform="translate(12164.244 11972.005)">
    <rect id="Rect치ngulo_356082" data-name="Rect치ngulo 356082" width="18.645" height="6.442" transform="translate(-12150.303 -11914.153)" fill="#ffcdc8"/>
    <rect id="Rect치ngulo_356083" data-name="Rect치ngulo 356083" width="18.645" height="6.442" transform="translate(-12150.303 -11914.153)" fill="none" stroke="#e6faf9" stroke-miterlimit="10" stroke-width="4"/>
    <path id="Trazado_750967" data-name="Trazado 750967" d="M140.615,112.9a3.068,3.068,0,0,0,1.867-2.95V109.5c.218-12.614,11.3-16.152,12.2-30.1a21.1,21.1,0,0,0-.023-3.067c-1.735-10.584-11.795-17.69-23.1-17.69-12.881,0-24.145,9.227-23.321,22.315.854,13.537,11.416,16.969,11.624,29.205,0,1.326,1.417,2.854,2.623,2.746Z" transform="translate(-12272.443 -12030.644)" fill="#fe7062" fill-rule="evenodd"/>
    <path id="Trazado_750968" data-name="Trazado 750968" d="M139.991,111.2l-4.821,4.2-8.9-2.147-4.115-2.051-.058.006c-.426-.014-1.053-.905-1.059-1.331a21.829,21.829,0,0,0-3.658-11.636c-1.637-2.656-3.556-5.12-5.066-7.856a22.53,22.53,0,0,1-2.9-9.784,18.112,18.112,0,0,1,3.393-11.932c4.213-5.832,11.412-8.849,18.488-8.849,9.986,0,19.939,6.1,21.666,16.425a19.527,19.527,0,0,1,.015,2.8,22.958,22.958,0,0,1-3.091,10.175c-1.61,2.847-3.645,5.406-5.368,8.18a22.162,22.162,0,0,0-3.745,11.843v.453a1.62,1.62,0,0,1-.78,1.509" transform="translate(-12272.177 -12030.377)" fill="#ffcdc8" fill-rule="evenodd"/>
    <path id="Trazado_750969" data-name="Trazado 750969" d="M133.727,112.935l-1.771,1.683-5.683-1.372-4.114-2.05-.058,0c-.425-.012-1.054-.9-1.059-1.33a21.81,21.81,0,0,0-3.66-11.636c-1.636-2.656-3.554-5.123-5.065-7.856a22.534,22.534,0,0,1-2.9-9.784,18.11,18.11,0,0,1,3.393-11.932c4.213-5.832,11.412-8.849,18.488-8.849a24.93,24.93,0,0,1,6.24.8,20.468,20.468,0,0,1,9.159,14.2,23.444,23.444,0,0,1,.016,3.051,26.705,26.705,0,0,1-3.093,11.1c-1.606,3.1-3.643,5.9-5.365,8.919a25.727,25.727,0,0,0-3.745,12.919v.5a1.81,1.81,0,0,1-.78,1.642" transform="translate(-12272.177 -12030.377)" fill="#ffe1db" fill-rule="evenodd"/>
    <path id="Trazado_750970" data-name="Trazado 750970" d="M119.018,114.382a2.821,2.821,0,0,0,2.795,2.531h2.151l.836,1.366c.481.788.764.84,1.686.84h5.053c.923,0,1.2-.049,1.685-.84l.838-1.366h2.152A2.818,2.818,0,0,0,139,114.436v-.983a.731.731,0,0,0-.708-.559H119.734a.73.73,0,0,0-.709.567c-.007.029.011.088-.006.1Zm19.01-6.459H120a.994.994,0,0,0-.99.993v1.535a.993.993,0,0,0,.99.991h18.033a.993.993,0,0,0,.99-.991v-1.535a.994.994,0,0,0-.99-.993m-.04-5.056H120.037a1.034,1.034,0,0,0-1.031,1.031v1.6a1.034,1.034,0,0,0,1.031,1.031h17.952a1.034,1.034,0,0,0,1.031-1.031v-1.6a1.034,1.034,0,0,0-1.031-1.031" transform="translate(-12269.991 -12020.605)" fill="#fe7062" fill-rule="evenodd"/>
    <path id="Trazado_750971" data-name="Trazado 750971" d="M132.67,108.744l1.908-23.093h2.767a4.332,4.332,0,0,0,3.067-1.272h0a4.339,4.339,0,0,0-3.065-7.406,4.149,4.149,0,0,0-2.966,1.234,4.871,4.871,0,0,0-1.371,3.024l-.216,2.472H124.33l-.215-2.472a4.876,4.876,0,0,0-1.375-3.024,4.134,4.134,0,0,0-2.961-1.234,4.337,4.337,0,0,0-3.066,1.277v0a4.339,4.339,0,0,0,3.066,7.4h2.766l1.908,23.093h1.95l-1.9-23.093h8.12l-1.9,23.093ZM134.747,83.7l.2-2.305a2.917,2.917,0,0,1,.809-1.813,2.219,2.219,0,0,1,1.586-.661A2.39,2.39,0,0,1,139.037,83h0a2.39,2.39,0,0,1-1.688.7Zm-12.373,0h-2.6a2.388,2.388,0,0,1-1.69-4.078v0a2.386,2.386,0,0,1,1.69-.7,2.215,2.215,0,0,1,1.584.661,2.937,2.937,0,0,1,.81,1.813Z" transform="translate(-12270.801 -12026.483)" fill="#748fc8" fill-rule="evenodd"/>
    <path id="Trazado_750972" data-name="Trazado 750972" d="M122.4,65.681a1.216,1.216,0,0,0-.946-2.24c-.506.215-.983.444-1.434.685s-.918.521-1.358.813a1.219,1.219,0,1,0,1.346,2.032q.561-.374,1.168-.7c.411-.223.821-.42,1.225-.591m-5.358,3.887a1.22,1.22,0,0,0-1.842-1.6,16.615,16.615,0,0,0-3.018,5.053,16.288,16.288,0,0,0-1.05,5.762,1.221,1.221,0,0,0,2.442,0,13.916,13.916,0,0,1,.886-4.9,14.211,14.211,0,0,1,2.583-4.31" transform="translate(-12271.777 -12029.575)" fill="#748fc8" fill-rule="evenodd"/>
  </g>
</svg>
