<svg xmlns="http://www.w3.org/2000/svg" width="468.234" height="312.506" viewBox="0 0 468.234 312.506">
  <g id="Grupo_1019293" data-name="Grupo 1019293" transform="translate(12871 12279.976)">
    <path id="Trazado_750809" data-name="Trazado 750809" d="M233.44,258.909c119.662,0,217.259-4.071,217.259-9.061s-97.6-9.06-217.259-9.06-217.262,4.071-217.262,9.06,97.6,9.061,217.262,9.061" transform="translate(-12867.328 -12226.379)" fill="#d1deed" fill-rule="evenodd"/>
    <path id="Trazado_750810" data-name="Trazado 750810" d="M420.456,16.48a7.811,7.811,0,1,1,7.812-7.812,7.812,7.812,0,0,1-7.812,7.812M88.766,203.77H47.03a40.841,40.841,0,1,0,0,81.682H399.938a66.328,66.328,0,0,0,66.133-66.133h0a66.328,66.328,0,0,0-66.133-66.133,27.962,27.962,0,0,1,0-55.925H433.59a29.072,29.072,0,0,0,0-58.144H391.035a11.318,11.318,0,0,1,0-22.636h7.5a7.811,7.811,0,1,0,0-15.623H349.311C338.946.857,337.79,13.1,311.6,13.1H250.883a10.193,10.193,0,0,0,0,20.386h9.789a14.813,14.813,0,0,1,14.769,14.769v0a14.813,14.813,0,0,1-14.769,14.768h-29.46c-39.78,0-45.4,10.394-52.366,31.07s-43.151,22.345-43.151,22.345H86.217a22.256,22.256,0,1,0,0,44.513h2.548a21.407,21.407,0,0,1,0,42.813" transform="translate(-12869.596 -12280.833)" fill="#e9eef7" fill-rule="evenodd"/>
    <rect id="Rectángulo_356075" data-name="Rectángulo 356075" width="290.43" height="10.903" transform="translate(-12786.868 -12246.244)" fill="#91b3fa"/>
    <rect id="Rectángulo_356076" data-name="Rectángulo 356076" width="290.43" height="10.903" transform="translate(-12786.868 -12246.244)" fill="none"/>
    <rect id="Rectángulo_356077" data-name="Rectángulo 356077" width="290.43" height="10.901" transform="translate(-12786.868 -12072.701)" fill="#91b3fa"/>
    <rect id="Rectángulo_356078" data-name="Rectángulo 356078" width="290.43" height="10.901" transform="translate(-12786.868 -12072.701)" fill="none" stroke="#e6faf9" stroke-miterlimit="10" stroke-width="4"/>
    <rect id="Rectángulo_356079" data-name="Rectángulo 356079" width="269.086" height="162.64" transform="translate(-12776.197 -12235.342)" fill="#fff"/>
    <path id="Trazado_750813" data-name="Trazado 750813" d="M205.489,193.271,267,256.362h4.356a1.271,1.271,0,0,1,1.267,1.267V261.8a1.271,1.271,0,0,1-1.267,1.267H253.445a1.271,1.271,0,0,1-1.266-1.267v-4.167a1.271,1.271,0,0,1,1.266-1.267h5.207L222.615,219.4l-17.126,12.171V236.6H195.268V231.57L178.141,219.4,142.1,256.362h5.21a1.271,1.271,0,0,1,1.267,1.267V261.8a1.271,1.271,0,0,1-1.267,1.267H129.4a1.271,1.271,0,0,1-1.269-1.267v-4.167a1.271,1.271,0,0,1,1.269-1.267h4.356l61.507-63.094V178.676h10.222Zm0,31.881,12.517-10.483-12.517-12.841Zm-10.222-23.324-12.516,12.841,12.516,10.484Z" transform="translate(-12841.919 -12240.476)" fill="#91b3fa" fill-rule="evenodd"/>
    <path id="Trazado_750814" data-name="Trazado 750814" d="M205.489,193.271,267,256.362h4.356a1.271,1.271,0,0,1,1.267,1.267V261.8a1.271,1.271,0,0,1-1.267,1.267H253.445a1.271,1.271,0,0,1-1.266-1.267v-4.167a1.271,1.271,0,0,1,1.266-1.267h5.207L222.615,219.4l-17.126,12.171V236.6H195.268V231.57L178.141,219.4,142.1,256.362h5.21a1.271,1.271,0,0,1,1.267,1.267V261.8a1.271,1.271,0,0,1-1.267,1.267H129.4a1.271,1.271,0,0,1-1.269-1.267v-4.167a1.271,1.271,0,0,1,1.269-1.267h4.356l61.507-63.094V178.676h10.222Zm0,31.881,12.517-10.483-12.517-12.841Zm-10.222-23.324-12.516,12.841,12.516,10.484Z" transform="translate(-12841.919 -12240.476)" fill="none"/>
    <path id="Trazado_750815" data-name="Trazado 750815" d="M163.527,129.962l28.465,5.345-.233,35.9-28-5.807Z" transform="translate(-12833.887 -12251.532)" fill="#ffcdc8" fill-rule="evenodd"/>
    <path id="Trazado_750816" data-name="Trazado 750816" d="M191.847,171.769a.648.648,0,0,1-.1-.009l-28-5.807a.481.481,0,0,1-.379-.463l-.232-35.437a.478.478,0,0,1,.563-.472l28.464,5.345a.478.478,0,0,1,.389.472l-.233,35.9a.473.473,0,0,1-.175.366.479.479,0,0,1-.3.106M164.321,165.1l27.054,5.612.227-34.922-27.508-5.165Z" transform="translate(-12833.975 -12251.62)" fill="#619fdf"/>
    <path id="Trazado_750817" data-name="Trazado 750817" d="M210.238,127.925l-23.469,7.844-.232,35.9,23.933-7.435Z" transform="translate(-12828.664 -12251.994)" fill="#91b3fa" fill-rule="evenodd"/>
    <path id="Trazado_750818" data-name="Trazado 750818" d="M186.625,172.232a.468.468,0,0,1-.282-.092.477.477,0,0,1-.194-.387l.232-35.9a.479.479,0,0,1,.325-.448l23.469-7.844a.46.46,0,0,1,.427.065.473.473,0,0,1,.2.383l.233,36.308a.474.474,0,0,1-.335.458l-23.933,7.434a.476.476,0,0,1-.141.022m.705-36.031L187.1,171.11l22.977-7.137-.227-35.3Z" transform="translate(-12828.753 -12252.082)" fill="#619fdf"/>
    <path id="Trazado_750819" data-name="Trazado 750819" d="M215.46,129.075l-23.469,7.844-28.464-5.345,25.56-8.715Z" transform="translate(-12833.887 -12253.144)" fill="#eef8fb" fill-rule="evenodd"/>
    <path id="Trazado_750820" data-name="Trazado 750820" d="M192.054,137.5l-.121-.022-28.464-5.345-.067-.918,25.691-8.759L215.6,128.7l.042.913Zm-26.634-5.969,26.566,4.988,21.765-7.272-24.612-5.8Z" transform="translate(-12833.915 -12253.235)" fill="#619fdf"/>
    <path id="Trazado_750821" data-name="Trazado 750821" d="M231.754,65.992A28.413,28.413,0,0,1,259.2,93.524l-7.494-.018a20.921,20.921,0,0,0-19.955-20.019ZM259.2,95.423a28.413,28.413,0,0,1-27.445,27.361v-7.493A20.923,20.923,0,0,0,251.7,95.4Zm-29.341,27.361A28.409,28.409,0,0,1,202.406,95.27l7.494.02a20.924,20.924,0,0,0,19.956,20ZM202.41,93.372a28.416,28.416,0,0,1,27.447-27.38v7.494A20.925,20.925,0,0,0,209.9,93.392Z" transform="translate(-12825.063 -12266.05)" fill="#a3cffb" fill-rule="evenodd"/>
    <path id="Trazado_750822" data-name="Trazado 750822" d="M231.486,65.985a28.546,28.546,0,0,1,27.578,27.66l0,.135h-.135l-7.494-.021h-.126l-.006-.125a20.794,20.794,0,0,0-19.829-19.894l-.126,0V65.979Zm19.074,8.56a28.179,28.179,0,0,0-18.945-8.292v7.23A21.058,21.058,0,0,1,251.565,93.5l7.23.021a28.178,28.178,0,0,0-8.235-18.971m8.5,21.005a28.536,28.536,0,0,1-27.571,27.487l-.135.006V115.29l.126-.007A20.793,20.793,0,0,0,251.3,95.519l.006-.124h.124l7.493.018.137,0ZM250.5,114.539a28.2,28.2,0,0,0,8.289-18.862l-7.23-.021a21.056,21.056,0,0,1-19.944,19.884v7.23a28.186,28.186,0,0,0,18.885-8.232m-20.92,8.5A28.54,28.54,0,0,1,202,95.4L202,95.262h.137l7.493.021h.126l0,.125a20.793,20.793,0,0,0,19.83,19.875l.126.007v7.754Zm-19.068-8.553a28.194,28.194,0,0,0,18.939,8.286v-7.23a21.055,21.055,0,0,1-19.949-20l-7.232-.018a28.181,28.181,0,0,0,8.241,18.96m-8.505-20.994A28.544,28.544,0,0,1,229.58,65.985l.135-.006v7.757l-.126,0a20.8,20.8,0,0,0-19.826,19.78l0,.126h-.126l-7.493-.021H202Zm8.553-19a28.184,28.184,0,0,0-8.284,18.871l7.23.021a21.057,21.057,0,0,1,19.945-19.9v-7.23a28.172,28.172,0,0,0-18.891,8.238" transform="translate(-12825.155 -12266.053)" fill="#748fc8" fill-rule="evenodd"/>
    <path id="Trazado_750823" data-name="Trazado 750823" d="M246.291,89.909a20.921,20.921,0,0,1-20,19.956l-.02,7.494a28.416,28.416,0,0,0,27.516-27.451Z" transform="translate(-12819.646 -12260.622)" fill="#91b3fa" fill-rule="evenodd"/>
    <path id="Trazado_750824" data-name="Trazado 750824" d="M246.291,89.909a20.921,20.921,0,0,1-20,19.956l-.02,7.494a28.416,28.416,0,0,0,27.516-27.451Z" transform="translate(-12819.646 -12260.622)" fill="none"/>
    <path id="Trazado_750825" data-name="Trazado 750825" d="M246.144,90.163a21.055,21.055,0,0,1-20,19.952l-.02,7.232a28.28,28.28,0,0,0,27.246-27.183ZM239.8,103.8a20.728,20.728,0,0,0,6.084-13.777l0-.126h7.754l0,.137A28.542,28.542,0,0,1,226,117.613l-.135.006v-.136l.02-7.494v-.126l.126-.007A20.73,20.73,0,0,0,239.8,103.8" transform="translate(-12819.738 -12260.624)" fill="#748fc8" fill-rule="evenodd"/>
    <path id="Trazado_750826" data-name="Trazado 750826" d="M226.325,73.486a20.922,20.922,0,0,1,19.956,20l7.494.021a28.414,28.414,0,0,0-27.451-27.516Z" transform="translate(-12819.635 -12266.05)" fill="#fe7062" fill-rule="evenodd"/>
    <path id="Trazado_750827" data-name="Trazado 750827" d="M226.325,73.486a20.922,20.922,0,0,1,19.956,20l7.494.021a28.414,28.414,0,0,0-27.451-27.516Z" transform="translate(-12819.635 -12266.05)" fill="none"/>
    <path id="Trazado_750828" data-name="Trazado 750828" d="M226.184,73.484a21.057,21.057,0,0,1,19.952,20l7.23.02a28.277,28.277,0,0,0-27.182-27.246Zm13.64,6.341a20.729,20.729,0,0,0-13.777-6.084l-.126,0V65.979l.136.006a28.545,28.545,0,0,1,27.578,27.641l0,.137H253.5l-7.494-.018-.126,0-.006-.126a20.724,20.724,0,0,0-6.053-13.79" transform="translate(-12819.727 -12266.053)" fill="#748fc8" fill-rule="evenodd"/>
    <path id="Trazado_750829" data-name="Trazado 750829" d="M209.9,93.441a20.92,20.92,0,0,1,20-19.956l.021-7.5a28.415,28.415,0,0,0-27.516,27.452Z" transform="translate(-12825.063 -12266.051)" fill="#1e77d0" fill-rule="evenodd"/>
    <path id="Trazado_750830" data-name="Trazado 750830" d="M209.5,93.43A21.052,21.052,0,0,1,229.5,73.482l.021-7.233A28.282,28.282,0,0,0,202.274,93.43Zm6.342-13.638A20.725,20.725,0,0,0,209.76,93.57l-.006.126H202l0-.136a28.545,28.545,0,0,1,27.643-27.578l.136,0v.136l-.021,7.493v.126l-.126,0a20.733,20.733,0,0,0-13.79,6.055" transform="translate(-12825.155 -12266.054)" fill="#748fc8" fill-rule="evenodd"/>
    <rect id="Rectángulo_356080" data-name="Rectángulo 356080" width="36.944" height="7.331" transform="translate(-12633.407 -12150.742)" fill="#619fdf"/>
    <path id="Trazado_750831" data-name="Trazado 750831" d="M230.182,106.441H193.5v7.067h36.68Zm-36.811-.264h37.075v7.595H193.24v-7.595Z" transform="translate(-12827.144 -12256.93)" fill="#748fc8" fill-rule="evenodd"/>
    <path id="Trazado_750832" data-name="Trazado 750832" d="M229.857,109.875a20.922,20.922,0,0,1-19.956-20l-7.494-.018a28.407,28.407,0,0,0,27.451,27.513l41.655-.145v3.529c0,1.121-.282,1.411.618.891l6.675-3.853,6.211-3.585c.972-.563,1.363-.461.463-.983l-6.673-3.853-6.212-3.586c-.972-.561-1.081-.951-1.081.09v4.021H229.857Z" transform="translate(-12825.063 -12260.635)" fill="#f98882" fill-rule="evenodd"/>
    <path id="Trazado_750833" data-name="Trazado 750833" d="M229.452,110.124a21.055,21.055,0,0,1-19.949-20l-7.233-.018a28.282,28.282,0,0,0,27.317,27.252l41.653-.147h.133v3.66c0,.264-.017.485-.028.659a1.319,1.319,0,0,0,0,.372c0,.006.126-.065.453-.253l6.675-3.853,6.211-3.585c.231-.134.429-.231.585-.307a1.26,1.26,0,0,0,.323-.182,4.676,4.676,0,0,0-.445-.266l-6.673-3.853-6.21-3.588h0c-.232-.134-.412-.256-.556-.353a1.208,1.208,0,0,0-.321-.189s0,.141,0,.52v4.15h-41.92Zm-13.64-6.342a20.718,20.718,0,0,0,13.777,6.084l.126.007v.009h41.39V106c0-.571.045-.784.271-.784a1.039,1.039,0,0,1,.471.236c.141.094.319.217.54.344l6.208,3.586h0l6.673,3.853c.492.286.655.431.542.626-.06.1-.21.177-.437.288-.155.074-.346.167-.569.3l-6.21,3.585h0l-6.672,3.854c-.493.283-.7.352-.815.156a1.04,1.04,0,0,1-.029-.523c.011-.168.026-.38.026-.64v-3.4l-41.523.145h0A28.538,28.538,0,0,1,202,89.981l0-.136h.137l7.492.021h.126l.006.126a20.724,20.724,0,0,0,6.053,13.79" transform="translate(-12825.155 -12260.637)" fill="#748fc8" fill-rule="evenodd"/>
    <path id="Trazado_750834" data-name="Trazado 750834" d="M173.975,65.993a28.408,28.408,0,0,1,27.448,27.53l-7.493-.018a20.925,20.925,0,0,0-19.955-20.019Zm27.442,29.43a28.413,28.413,0,0,1-27.442,27.362v-7.5A20.923,20.923,0,0,0,193.925,95.4Zm-29.341,27.362a28.416,28.416,0,0,1-27.451-27.517l7.494.021a20.924,20.924,0,0,0,19.956,20ZM144.631,93.371a28.411,28.411,0,0,1,27.445-27.378v7.493a20.923,20.923,0,0,0-19.95,19.9Z" transform="translate(-12838.177 -12266.05)" fill="#a3cffb" fill-rule="evenodd"/>
    <path id="Trazado_750835" data-name="Trazado 750835" d="M173.708,65.982a28.548,28.548,0,0,1,27.576,27.663l.006.135h-.137l-7.494-.02h-.125l0-.125A20.794,20.794,0,0,0,173.7,73.74l-.128,0V65.981Zm19.072,8.563a28.171,28.171,0,0,0-18.944-8.292v7.229A21.061,21.061,0,0,1,193.784,93.5l7.232.021a28.181,28.181,0,0,0-8.237-18.971m8.5,21a28.543,28.543,0,0,1-27.568,27.491l-.137,0v-7.757l.128,0a20.788,20.788,0,0,0,19.824-19.764l.006-.124h.124l7.494.018.136,0Zm-8.557,18.991a28.2,28.2,0,0,0,8.289-18.863l-7.23-.018a21.049,21.049,0,0,1-19.943,19.88v7.232a28.19,28.19,0,0,0,18.884-8.23m-20.92,8.5A28.547,28.547,0,0,1,144.223,95.4l0-.135h.135l7.493.021h.128l0,.124a20.8,20.8,0,0,0,19.832,19.875l.126,0v7.757Zm-19.068-8.556a28.192,28.192,0,0,0,18.942,8.286v-7.232a21.057,21.057,0,0,1-19.952-19.993l-7.23-.021a28.18,28.18,0,0,0,8.24,18.96m-8.5-20.994A28.544,28.544,0,0,1,171.8,65.982h.137v7.754l-.126,0a20.792,20.792,0,0,0-19.826,19.78l-.007.129-.125,0-7.492-.021h-.137Zm8.549-19A28.183,28.183,0,0,0,144.5,93.364l7.228.021a21.062,21.062,0,0,1,19.948-19.9V66.253a28.178,28.178,0,0,0-18.894,8.238" transform="translate(-12838.269 -12266.053)" fill="#748fc8" fill-rule="evenodd"/>
    <path id="Trazado_750836" data-name="Trazado 750836" d="M188.511,89.909a20.919,20.919,0,0,1-20,19.956l-.021,7.494a28.412,28.412,0,0,0,27.516-27.451Z" transform="translate(-12832.761 -12260.622)" fill="#91b3fa" fill-rule="evenodd"/>
    <path id="Trazado_750837" data-name="Trazado 750837" d="M188.511,89.909a20.919,20.919,0,0,1-20,19.956l-.021,7.494a28.412,28.412,0,0,0,27.516-27.451Z" transform="translate(-12832.761 -12260.622)" fill="none"/>
    <path id="Trazado_750838" data-name="Trazado 750838" d="M188.363,90.163a21.055,21.055,0,0,1-19.994,19.952l-.021,7.232A28.279,28.279,0,0,0,195.6,90.163Zm-6.338,13.64a20.733,20.733,0,0,0,6.084-13.777l0-.126h7.756l0,.137a28.545,28.545,0,0,1-27.643,27.577l-.136,0v-.134l.021-7.494v-.126l.126-.007a20.721,20.721,0,0,0,13.792-6.053" transform="translate(-12832.853 -12260.624)" fill="#748fc8" fill-rule="evenodd"/>
    <path id="Trazado_750839" data-name="Trazado 750839" d="M168.546,73.486a20.922,20.922,0,0,1,19.956,20l7.492.02a28.411,28.411,0,0,0-27.448-27.516Z" transform="translate(-12832.748 -12266.05)" fill="#fe7062" fill-rule="evenodd"/>
    <path id="Trazado_750840" data-name="Trazado 750840" d="M168.406,73.483a21.057,21.057,0,0,1,19.948,20l7.233.021a28.275,28.275,0,0,0-27.181-27.246Zm13.638,6.345a20.711,20.711,0,0,0-13.775-6.086l-.129-.006V65.981l.137,0a28.545,28.545,0,0,1,27.577,27.645l.006.136h-.139l-7.493-.021H188.1l0-.125a20.707,20.707,0,0,0-6.055-13.79" transform="translate(-12832.84 -12266.053)" fill="#748fc8" fill-rule="evenodd"/>
    <path id="Trazado_750841" data-name="Trazado 750841" d="M152.123,93.438a20.919,20.919,0,0,1,20-19.954l.021-7.494a28.412,28.412,0,0,0-27.516,27.448Z" transform="translate(-12838.176 -12266.051)" fill="#1e77d0" fill-rule="evenodd"/>
    <path id="Trazado_750842" data-name="Trazado 750842" d="M151.724,93.432a21.054,21.054,0,0,1,20-19.95l.018-7.23a28.277,28.277,0,0,0-27.246,27.181Zm6.342-13.64a20.718,20.718,0,0,0-6.084,13.779l0,.126h-7.754l0-.137a28.545,28.545,0,0,1,27.641-27.578l.139,0v.136l-.021,7.493,0,.126-.126.006a20.727,20.727,0,0,0-13.79,6.053" transform="translate(-12838.268 -12266.054)" fill="#748fc8" fill-rule="evenodd"/>
    <rect id="Rectángulo_356081" data-name="Rectángulo 356081" width="36.944" height="7.331" transform="translate(-12704.3 -12150.742)" fill="#619fdf"/>
    <path id="Trazado_750843" data-name="Trazado 750843" d="M172.405,106.441H135.724v7.067h36.681Zm-36.814-.264h37.077v7.595h-37.21v-7.595Z" transform="translate(-12840.257 -12256.93)" fill="#748fc8" fill-rule="evenodd"/>
    <path id="Trazado_750844" data-name="Trazado 750844" d="M172.077,109.874a20.919,20.919,0,0,1-19.956-20l-7.494-.021a28.416,28.416,0,0,0,27.451,27.517l30.415-.106v-7.372H172.077Z" transform="translate(-12838.177 -12260.635)" fill="#f98882" fill-rule="evenodd"/>
    <path id="Trazado_750845" data-name="Trazado 750845" d="M172.077,109.874a20.919,20.919,0,0,1-19.956-20l-7.494-.021a28.416,28.416,0,0,0,27.451,27.517l30.415-.106v-7.372H172.077Z" transform="translate(-12838.177 -12260.635)" fill="none"/>
    <path id="Trazado_750846" data-name="Trazado 750846" d="M171.672,110.123a21.047,21.047,0,0,1-19.95-19.993l-7.23-.021a28.275,28.275,0,0,0,27.317,27.252l30.776-.109v.265l-30.781.108h0a28.547,28.547,0,0,1-27.577-27.643l0-.136h.136l7.492.021.129,0,0,.124a20.79,20.79,0,0,0,19.831,19.874l.126.006v.011h30.648v.264H171.672Z" transform="translate(-12838.269 -12260.637)" fill="#748fc8" fill-rule="evenodd"/>
    <path id="Trazado_750853" data-name="Trazado 750853" d="M359.23,170.614c-3.807-.321-10.7.412-12.163.375l-115.594-2.859c-3.075-1.969-6.588-.006-6.588,6.957v87.43a3.738,3.738,0,0,0,3.758,3.712l124.628-.364a10.845,10.845,0,0,0,6.346-2.8Z" transform="translate(-12819.961 -12243.033)" fill="#619fdf" fill-rule="evenodd"/>
    <path id="Trazado_750854" data-name="Trazado 750854" d="M357.565,170.36c-.607.05-1.222.119-1.8.182a21.041,21.041,0,0,1-2.415.19l-121.8-2.859a1.561,1.561,0,0,0-.34.029c-1.087.211-3.4-.971-4.784.582a7.836,7.836,0,0,0-1.705,4.713v89.1a3.851,3.851,0,0,0,1.152,2.745,3.908,3.908,0,0,0,2.768,1.131l126.106-.364a2.066,2.066,0,0,0,.4-.043,15.274,15.274,0,0,0,3.342-1.324v-.416a15.2,15.2,0,0,1-3.342,1.348,1.831,1.831,0,0,1-.323.037l-126.106.362a3.578,3.578,0,0,1-2.54-1.042,3.514,3.514,0,0,1-1.059-2.51v-89.1a7.134,7.134,0,0,1,1.577-4.4c1.325-1.478,3.534-.232,4.516-.423a1.479,1.479,0,0,1,.254-.023l121.8,2.859a20.9,20.9,0,0,0,2.467-.19c.589-.065,1.215-.134,1.832-.186Z" transform="translate(-12819.998 -12242.974)" fill="#1e77d0" fill-rule="evenodd"/>
    <path id="Trazado_750855" data-name="Trazado 750855" d="M360.3,261.092V170.545a3.752,3.752,0,0,0-3.757-3.746l-127.089.366a3.781,3.781,0,0,0-3.756,3.768v90.549a3.753,3.753,0,0,0,3.756,3.745l127.089-.367a3.782,3.782,0,0,0,3.757-3.768" transform="translate(-12819.775 -12243.172)" fill="#a3cffb" fill-rule="evenodd"/>
    <path id="Trazado_750856" data-name="Trazado 750856" d="M357.643,260.677V170.13a1.51,1.51,0,0,0-1.505-1.5L229.048,169a1.536,1.536,0,0,0-1.515,1.521v90.549a1.5,1.5,0,0,0,1.5,1.5l127.089-.366a1.535,1.535,0,0,0,1.518-1.521" transform="translate(-12819.36 -12242.756)" fill="#eef8fb" fill-rule="evenodd"/>
    <path id="Trazado_750857" data-name="Trazado 750857" d="M360.532,261.09V170.541a3.913,3.913,0,0,0-3.916-3.907L229.564,167a3.95,3.95,0,0,0-.748.072,4.043,4.043,0,0,0-3.175,3.21,3.956,3.956,0,0,0-.069.725v90.547a3.911,3.911,0,0,0,3.918,3.909l127.052-.368a3.937,3.937,0,0,0,.747-.072,4.047,4.047,0,0,0,3.177-3.21,3.927,3.927,0,0,0,.067-.725m-.4-90.471v90.549a3.6,3.6,0,0,1-.059.648,3.542,3.542,0,0,1-2.789,2.813,3.585,3.585,0,0,1-.672.066l-127.052.366a3.594,3.594,0,0,1-3.6-3.581V170.931a3.533,3.533,0,0,1,2.848-3.461,3.592,3.592,0,0,1,.674-.065l127.052-.367a3.6,3.6,0,0,1,3.595,3.581" transform="translate(-12819.806 -12243.209)" fill="#1e77d0" fill-rule="evenodd"/>
    <path id="Trazado_750858" data-name="Trazado 750858" d="M259.046,187.92a12.39,12.39,0,1,1-12.39,12.39,12.39,12.39,0,0,1,12.39-12.39" transform="translate(-12815.021 -12238.378)" fill="#91b3fa" fill-rule="evenodd"/>
    <path id="Trazado_750859" data-name="Trazado 750859" d="M258.7,209.289a.6.6,0,1,1,0,1.2,10.521,10.521,0,1,1,10.52-10.521.6.6,0,1,1-1.194,0,9.327,9.327,0,1,0-9.326,9.326" transform="translate(-12814.675 -12238.032)" fill="#f98882" fill-rule="evenodd"/>
    <path id="Trazado_750860" data-name="Trazado 750860" d="M258.7,209.289a.6.6,0,1,1,0,1.2,10.521,10.521,0,1,1,10.52-10.521.6.6,0,1,1-1.194,0,9.327,9.327,0,1,0-9.326,9.326Z" transform="translate(-12814.675 -12238.032)" fill="none"/>
    <path id="Trazado_750861" data-name="Trazado 750861" d="M280.476,187.92a12.39,12.39,0,1,1-12.39,12.39,12.39,12.39,0,0,1,12.39-12.39" transform="translate(-12810.156 -12238.378)" fill="#91b3fa" fill-rule="evenodd"/>
    <path id="Trazado_750862" data-name="Trazado 750862" d="M289.131,202.266a.6.6,0,0,1,1.182.119h0a.628.628,0,0,1-.029.188,10.52,10.52,0,0,1-12.835,7.413.479.479,0,0,1-.075-.018,10.517,10.517,0,0,1-7.412-12.836c0-.023.011-.05.018-.074a10.51,10.51,0,0,1,2.212-4.141v0a10.542,10.542,0,0,1,3.829-2.78.6.6,0,1,1,.466,1.1,9.367,9.367,0,0,0-3.4,2.469h0a9.322,9.322,0,0,0-1.966,3.7l0,.007a9.325,9.325,0,0,0,6.58,11.419l.015,0a9.325,9.325,0,0,0,11.414-6.559" transform="translate(-12809.811 -12237.886)" fill="#f98882" fill-rule="evenodd"/>
    <path id="Trazado_750863" data-name="Trazado 750863" d="M289.131,202.266a.6.6,0,0,1,1.182.119h0a.628.628,0,0,1-.029.188,10.52,10.52,0,0,1-12.835,7.413.479.479,0,0,1-.075-.018,10.517,10.517,0,0,1-7.412-12.836c0-.023.011-.05.018-.074a10.51,10.51,0,0,1,2.212-4.141v0a10.542,10.542,0,0,1,3.829-2.78.6.6,0,1,1,.466,1.1,9.367,9.367,0,0,0-3.4,2.469h0a9.322,9.322,0,0,0-1.966,3.7l0,.007a9.325,9.325,0,0,0,6.58,11.419l.015,0a9.325,9.325,0,0,0,11.414-6.559Z" transform="translate(-12809.811 -12237.886)" fill="none"/>
    <path id="Trazado_750864" data-name="Trazado 750864" d="M301.907,187.92a12.39,12.39,0,1,1-12.39,12.39,12.39,12.39,0,0,1,12.39-12.39" transform="translate(-12805.293 -12238.378)" fill="#91b3fa" fill-rule="evenodd"/>
    <path id="Trazado_750865" data-name="Trazado 750865" d="M306.357,191.67a.6.6,0,0,1,.78-.9,10.514,10.514,0,0,1,3.368,14.449l-.011.02a10.512,10.512,0,0,1-14.465,3.4l-.022-.015a10.515,10.515,0,0,1-3.4-14.463.63.63,0,0,1,.086-.107l0,0a.6.6,0,0,1,.905.775,9.328,9.328,0,0,0,3.011,12.771.566.566,0,0,1,.083.053,9.331,9.331,0,0,0,12.771-3.012.668.668,0,0,1,.052-.083,9.327,9.327,0,0,0-3.011-12.77.657.657,0,0,1-.151-.109Z" transform="translate(-12804.947 -12237.758)" fill="#f98882" fill-rule="evenodd"/>
    <path id="Trazado_750866" data-name="Trazado 750866" d="M306.357,191.67a.6.6,0,0,1,.78-.9,10.514,10.514,0,0,1,3.368,14.449l-.011.02a10.512,10.512,0,0,1-14.465,3.4l-.022-.015a10.515,10.515,0,0,1-3.4-14.463.63.63,0,0,1,.086-.107l0,0a.6.6,0,0,1,.905.775,9.328,9.328,0,0,0,3.011,12.771.566.566,0,0,1,.083.053,9.331,9.331,0,0,0,12.771-3.012.668.668,0,0,1,.052-.083,9.327,9.327,0,0,0-3.011-12.77.657.657,0,0,1-.151-.109Z" transform="translate(-12804.947 -12237.758)" fill="none"/>
    <path id="Trazado_750867" data-name="Trazado 750867" d="M251.784,211.193h12.77a1.268,1.268,0,0,1,1.264,1.264v.886a1.267,1.267,0,0,1-1.264,1.263h-12.77a1.268,1.268,0,0,1-1.265-1.263v-.886a1.269,1.269,0,0,1,1.265-1.264" transform="translate(-12814.144 -12233.096)" fill="#91b3fa" fill-rule="evenodd"/>
    <path id="Trazado_750868" data-name="Trazado 750868" d="M273.214,211.193h12.77a1.269,1.269,0,0,1,1.265,1.264v.886a1.268,1.268,0,0,1-1.265,1.263h-12.77a1.267,1.267,0,0,1-1.264-1.263v-.886a1.268,1.268,0,0,1,1.264-1.264" transform="translate(-12809.279 -12233.096)" fill="#91b3fa" fill-rule="evenodd"/>
    <path id="Trazado_750869" data-name="Trazado 750869" d="M294.645,211.193h12.77a1.267,1.267,0,0,1,1.264,1.264v.886a1.267,1.267,0,0,1-1.264,1.263h-12.77a1.268,1.268,0,0,1-1.265-1.263v-.886a1.269,1.269,0,0,1,1.265-1.264" transform="translate(-12804.416 -12233.096)" fill="#91b3fa" fill-rule="evenodd"/>
    <path id="Trazado_750870" data-name="Trazado 750870" d="M236.054,175.628H290.5a.981.981,0,0,1,.979.98v0a.981.981,0,0,1-.979.979H236.054a.983.983,0,0,1-.982-.979v0a.983.983,0,0,1,.982-.98" transform="translate(-12817.649 -12241.168)" fill="#91b3fa" fill-rule="evenodd"/>
    <path id="Trazado_750871" data-name="Trazado 750871" d="M236.054,181.265H290.5a.981.981,0,0,1,0,1.962H236.054a.981.981,0,1,1,0-1.962" transform="translate(-12817.649 -12239.889)" fill="#91b3fa" fill-rule="evenodd"/>
    <path id="Trazado_750872" data-name="Trazado 750872" d="M236.054,218.958H344.7a.981.981,0,0,1,0,1.962H236.054a.981.981,0,1,1,0-1.962" transform="translate(-12817.649 -12231.334)" fill="#91b3fa" fill-rule="evenodd"/>
    <path id="Trazado_750873" data-name="Trazado 750873" d="M236.054,224.595H344.7a.981.981,0,0,1,0,1.962H236.054a.981.981,0,1,1,0-1.962" transform="translate(-12817.649 -12230.055)" fill="#91b3fa" fill-rule="evenodd"/>
    <path id="Trazado_750874" data-name="Trazado 750874" d="M236.054,230.574H344.7a.981.981,0,0,1,0,1.962H236.054a.981.981,0,1,1,0-1.962" transform="translate(-12817.649 -12228.697)" fill="#91b3fa" fill-rule="evenodd"/>
    <path id="Trazado_750875" data-name="Trazado 750875" d="M236.054,236.211H344.7a.983.983,0,0,1,.98.98v0a.983.983,0,0,1-.98.98H236.054a.984.984,0,0,1-.982-.98v0a.984.984,0,0,1,.982-.98" transform="translate(-12817.649 -12227.418)" fill="#91b3fa" fill-rule="evenodd"/>
    <path id="Trazado_750876" data-name="Trazado 750876" d="M195.594,49.021a.327.327,0,1,1,0-.654h63.129a.327.327,0,1,1,0,.654ZM180.453,70.192a.325.325,0,0,1-.459-.058.33.33,0,0,1,.059-.459L194.78,58.288l.2-.069h64.089a.328.328,0,1,1,0,.655h-63.98ZM195.594,56.1a.328.328,0,1,1,0-.656h63.129a.328.328,0,1,1,0,.656Zm0-3.541a.328.328,0,1,1,0-.656h63.129a.328.328,0,1,1,0,.656Z" transform="translate(-12830.164 -12270.05)" fill="#f98882" fill-rule="evenodd"/>
    <path id="Trazado_750877" data-name="Trazado 750877" d="M195.594,49.021a.327.327,0,1,1,0-.654h63.129a.327.327,0,1,1,0,.654ZM180.453,70.192a.325.325,0,0,1-.459-.058.33.33,0,0,1,.059-.459L194.78,58.288l.2-.069h64.089a.328.328,0,1,1,0,.655h-63.98ZM195.594,56.1a.328.328,0,1,1,0-.656h63.129a.328.328,0,1,1,0,.656Zm0-3.541a.328.328,0,1,1,0-.656h63.129a.328.328,0,1,1,0,.656Z" transform="translate(-12830.164 -12270.05)" fill="none" stroke="#e6faf9" stroke-miterlimit="10" stroke-width="4"/>
    <path id="Trazado_750878" data-name="Trazado 750878" d="M225.884,135.737a.328.328,0,0,0,0,.655h63.129a.328.328,0,1,0,0-.655Zm-15.141-21.171a.326.326,0,1,0-.4.517l14.725,11.387.2.071h64.089a.328.328,0,1,0,0-.656H225.381Zm15.141,14.092a.328.328,0,0,0,0,.655h63.129a.328.328,0,1,0,0-.655Zm0,3.539a.328.328,0,0,0,0,.656h63.129a.328.328,0,1,0,0-.656Z" transform="translate(-12823.29 -12255.041)" fill="#619fdf" fill-rule="evenodd"/>
    <path id="Trazado_750879" data-name="Trazado 750879" d="M92.361,203.365l-35.509,30.28L18.183,188.3l35.511-30.278C68.9,145.048,86.677,137.7,101.68,133.564a148.577,148.577,0,0,1,32.6-5.362l.184-.021.144,0a146.322,146.322,0,0,1-10.492,31.574c-6.457,14.184-16.521,30.62-31.752,43.607" transform="translate(-12866.873 -12251.936)" fill="#fe7062" fill-rule="evenodd"/>
    <path id="Trazado_750880" data-name="Trazado 750880" d="M92.361,203.365l-35.509,30.28L18.183,188.3l35.511-30.278C68.9,145.048,86.677,137.7,101.68,133.564a148.577,148.577,0,0,1,32.6-5.362l.184-.021.144,0a146.322,146.322,0,0,1-10.492,31.574C117.656,173.942,107.592,190.378,92.361,203.365Z" transform="translate(-12866.873 -12251.936)" fill="none"/>
    <path id="Trazado_750881" data-name="Trazado 750881" d="M77.822,188.964,42.312,219.245l-14.236-16.7,35.506-30.281a310.242,310.242,0,0,1,39.4-28.4,276.3,276.3,0,0,1,29.047-15.65l.249-.113-.065.092a271.962,271.962,0,0,1-20.152,26.364,310.216,310.216,0,0,1-34.244,34.4" transform="translate(-12864.628 -12251.953)" fill="#f98882" fill-rule="evenodd"/>
    <path id="Trazado_750882" data-name="Trazado 750882" d="M108.67,159.775a32.5,32.5,0,0,1-9.8-5.213,33.882,33.882,0,0,1-9.079-10.693,32.481,32.481,0,0,1-3.552-10.288,148.593,148.593,0,0,1,32.6-5.362l.249-.113-.065.092.142,0a146.355,146.355,0,0,1-10.49,31.574" transform="translate(-12851.429 -12251.953)" fill="#f17038" fill-rule="evenodd"/>
    <path id="Trazado_750883" data-name="Trazado 750883" d="M98.209,154.562a33.882,33.882,0,0,1-9.079-10.693,276.3,276.3,0,0,1,29.047-15.65l.249-.114-.065.093a271.894,271.894,0,0,1-20.152,26.364" transform="translate(-12850.771 -12251.953)" fill="#fe7062" fill-rule="evenodd"/>
    <path id="Trazado_750884" data-name="Trazado 750884" d="M87.371,174.852a14.733,14.733,0,1,1,1.651-20.769,14.733,14.733,0,0,1-1.651,20.769" transform="translate(-12856.685 -12247.231)" fill="#eef8fb" fill-rule="evenodd"/>
    <path id="Trazado_750885" data-name="Trazado 750885" d="M87.478,156.313a12.056,12.056,0,1,0-1.348,17,12.069,12.069,0,0,0,1.348-17m-22.421,19.12A17.41,17.41,0,1,1,89.6,177.383a17.43,17.43,0,0,1-24.545-1.951" transform="translate(-12857.178 -12247.726)" fill="#ef6a30" fill-rule="evenodd"/>
    <path id="Trazado_750886" data-name="Trazado 750886" d="M83.632,167.034a5.893,5.893,0,1,1,.661-8.31,5.889,5.889,0,0,1-.661,8.31" transform="translate(-12854.225 -12245.474)" fill="#fdfdfd" fill-rule="evenodd"/>
    <path id="Trazado_750887" data-name="Trazado 750887" d="M56.182,226.353C71.807,213,81.826,199.113,78.57,195.3s-18.548,3.885-34.2,17.2Z" transform="translate(-12860.931 -12236.926)" fill="#f17038" fill-rule="evenodd"/>
    <path id="Trazado_750888" data-name="Trazado 750888" d="M52.372,222.443c15.636-13.342,27.09-25.546,25.6-27.29s-15.344,7.64-30.992,20.971Z" transform="translate(-12860.337 -12236.783)" fill="#cb594e" fill-rule="evenodd"/>
    <path id="Trazado_750889" data-name="Trazado 750889" d="M45.941,210.706,35.762,225.452l4.806-2.077-4.806,7.808,7.967-4.1L41.087,231.7l15.087-8.991Z" transform="translate(-12862.884 -12233.207)" fill="#ef6a30" fill-rule="evenodd"/>
    <path id="Trazado_750890" data-name="Trazado 750890" d="M46.543,211.994l-7.5,10.861,3.541-1.525-3.543,5.746,5.87-3.016-1.943,3.4,11.111-6.624Z" transform="translate(-12862.139 -12232.914)" fill="#f98882" fill-rule="evenodd"/>
    <path id="Trazado_750891" data-name="Trazado 750891" d="M46.543,211.994l-7.5,10.861,3.541-1.525-3.543,5.746,5.87-3.016-1.943,3.4,11.111-6.624Z" transform="translate(-12862.139 -12232.914)" fill="none"/>
    <path id="Trazado_750892" data-name="Trazado 750892" d="M33.657,218.99c20.578-17.586,33.768-35.875,29.485-40.9S38.715,183.2,18.1,200.747Z" transform="translate(-12866.893 -12240.9)" fill="#f17038" fill-rule="evenodd"/>
    <path id="Trazado_750893" data-name="Trazado 750893" d="M28.646,213.843C49.233,196.27,64.318,180.2,62.359,177.9s-20.209,10.06-40.813,27.614Z" transform="translate(-12866.11 -12240.714)" fill="#cb594e" fill-rule="evenodd"/>
    <path id="Trazado_750894" data-name="Trazado 750894" d="M20.17,198.384,6.768,217.8l6.326-2.732L6.767,225.348l10.492-5.4-3.474,6.075,19.859-11.841Z" transform="translate(-12869.464 -12236.003)" fill="#ef6a30" fill-rule="evenodd"/>
    <path id="Trazado_750895" data-name="Trazado 750895" d="M20.963,200.081l-9.871,14.3,4.66-2.013-4.66,7.573,7.727-3.977-2.562,4.476,14.634-8.722Z" transform="translate(-12868.482 -12235.618)" fill="#f98882" fill-rule="evenodd"/>
    <path id="Trazado_750896" data-name="Trazado 750896" d="M20.963,200.081l-9.871,14.3,4.66-2.013-4.66,7.573,7.727-3.977-2.562,4.476,14.634-8.722Z" transform="translate(-12868.482 -12235.618)" fill="none"/>
    <path id="Trazado_750897" data-name="Trazado 750897" d="M24.566,189.279c15.624-13.355,25.642-27.245,22.388-31.059s-18.55,3.882-34.2,17.2Z" transform="translate(-12868.106 -12245.34)" fill="#f17038" fill-rule="evenodd"/>
    <path id="Trazado_750898" data-name="Trazado 750898" d="M20.76,185.368c15.633-13.343,27.086-25.548,25.6-27.29s-15.348,7.639-30.994,20.971Z" transform="translate(-12867.513 -12245.198)" fill="#cb594e" fill-rule="evenodd"/>
    <path id="Trazado_750899" data-name="Trazado 750899" d="M14.324,173.629,4.148,188.375l4.8-2.074-4.806,7.806,7.968-4.1L9.474,194.62l15.083-8.99Z" transform="translate(-12870.06 -12241.621)" fill="#ef6a30" fill-rule="evenodd"/>
    <path id="Trazado_750900" data-name="Trazado 750900" d="M14.926,174.918,7.43,185.78l3.536-1.529L7.428,190l5.867-3.018-1.943,3.4,11.113-6.623Z" transform="translate(-12869.314 -12241.329)" fill="#f98882" fill-rule="evenodd"/>
    <path id="Trazado_750901" data-name="Trazado 750901" d="M14.926,174.918,7.43,185.78l3.536-1.529L7.428,190l5.867-3.018-1.943,3.4,11.113-6.623Z" transform="translate(-12869.314 -12241.329)" fill="none"/>
    <path id="Trazado_750902" data-name="Trazado 750902" d="M20.868,85.893q-2.266-4.224-5.626-2.725-8.7,17.865-8.7,17.864-8.368,6.721-6.03,13.341,2.569-.4,8-7.424.477,2.163-.465,2.725-.484,1.96,1.162.929,3.48-1.579,2.436-10.44Q20.429,85.3,20.868,85.893" transform="translate(-12871 -12262.241)" fill="#ffb17d" fill-rule="evenodd"/>
    <path id="Trazado_750903" data-name="Trazado 750903" d="M72.79,72.362q-.283-8.24-.285-8.239,16.6-10.8,16.6-10.8c.169-.287-.379-.513-.2-.785.137-.2,1-.465,1.145-.661.157-.217.321-.432.486-.636q4.262-5.315,11.989-5.821c1.467-.094,2.445.438.741,1.254a31.458,31.458,0,0,0-5.752,3.013c4.685.519,4.19,2.674,2.615,2.67a1.952,1.952,0,0,1,1.136,2.67,9.831,9.831,0,0,1-3.408.059q-1.274,3.278-5.854,3.3Q72.79,72.364,72.79,72.362" transform="translate(-12854.545 -12270.722)" fill="#ffb17d" fill-rule="evenodd"/>
    <path id="Trazado_750904" data-name="Trazado 750904" d="M61.383,132.353l-1.7,6.859c-.307.852-1.282,2.912-1.433,3.712-.567,3,13.818-.023,11.083-1.923-.252-.171-1.789-2.1-1.685-3.145.16-1.6.7-4.082.7-4.082Z" transform="translate(-12857.783 -12250.989)" fill="#ffb17d" fill-rule="evenodd"/>
    <path id="Trazado_750905" data-name="Trazado 750905" d="M69.526,139.716a46.864,46.864,0,0,1-4.95.25c-1.648-.063-3.4-2.393-4.637-2.087-1.355.345-2.686,6.935-2.686,6.935s16.188,4.341,20.619,3.932c1.99-.2-2.345-5.684-8.347-9.03" transform="translate(-12858.006 -12249.741)" fill="#284190" fill-rule="evenodd"/>
    <path id="Trazado_750906" data-name="Trazado 750906" d="M14.713,163.522l-1.7,6.859c-.307.848-1.282,2.909-1.433,3.71-.564,3,13.818-.025,11.083-1.923-.252-.171-1.79-2.105-1.685-3.147.16-1.6.7-4.08.7-4.08Z" transform="translate(-12868.375 -12243.915)" fill="#ffb17d" fill-rule="evenodd"/>
    <path id="Trazado_750907" data-name="Trazado 750907" d="M22.854,170.884a46.826,46.826,0,0,1-4.947.25c-1.648-.065-3.4-2.394-4.635-2.086-1.356.342-2.688,6.934-2.688,6.934s16.188,4.341,20.62,3.931c1.989-.194-2.345-5.683-8.349-9.029" transform="translate(-12868.598 -12242.667)" fill="#284190" fill-rule="evenodd"/>
    <path id="Trazado_750908" data-name="Trazado 750908" d="M36.411,94.222A88.99,88.99,0,0,1,48.127,95.73c24.269-35.517,1.467,32.987-15.779,63.8a167.55,167.55,0,0,0-11.137,26.681l-8.466-.347q-.626-28.49,10.439-45.473,3.156-4.829,4.873-16.938-.4-23.953,8.353-29.233" transform="translate(-12868.115 -12261.563)" fill="#1a0f91" fill-rule="evenodd"/>
    <path id="Trazado_750909" data-name="Trazado 750909" d="M71.625,108.946c-31.543,15.973-54.819,12.6-42.512-10.861,7.881-3.542,29.449-5.121,46.379-8.018,7.591-1.3,14.66-1.87,13.928,9.021-8.748,35.282-13.532,46.7-13.806,48.027a76.067,76.067,0,0,0-8.583-.7c4.116-26.654,2.6-35.279,4.592-37.472" transform="translate(-12865.153 -12260.741)" fill="#1a0f91" fill-rule="evenodd"/>
    <path id="Trazado_750910" data-name="Trazado 750910" d="M65.459,57.367q-5.646,7.768-11.136-2.323c-23.572,3.883-39.7,19.09-48.724,51.044q6.033,2.319,6.033,2.321,8.267-15.2,25.29-28.538c-4.486,19.488-5.221,29.7-5.221,29.7,21.035-2.32,30.09-8.278,30.09-8.278,7.733-20.262,8.915-24.535,8.915-24.535a59.437,59.437,0,0,0,38.836-20.085q-6.14,1.623-5.105-5.8Q84,64.442,65.459,57.367" transform="translate(-12869.729 -12269.482)" fill="#fe7062" fill-rule="evenodd"/>
    <path id="Trazado_750911" data-name="Trazado 750911" d="M59.316,75.219s-1.438,5.271-9.132,25.436v.4c1-.52,1.49-.838,1.49-.838.086-.225.169-.445.254-.666,7.505-19.689,8.661-23.869,8.661-23.869A59.434,59.434,0,0,0,99.423,55.6a7.845,7.845,0,0,1-1.941.294A59.432,59.432,0,0,1,59.316,75.219" transform="translate(-12859.61 -12268.41)" fill="#91b3fa" fill-rule="evenodd"/>
    <path id="Trazado_750912" data-name="Trazado 750912" d="M10.75,103.111c5.237-9.625,14.787-20.032,25.29-28.537.28-1.245-2.586,1.129-2.724,1.242-10.333,8.39-18.671,17.341-23.826,26.81Z" transform="translate(-12868.847 -12264.184)" fill="#91b3fa" fill-rule="evenodd"/>
    <path id="Trazado_750913" data-name="Trazado 750913" d="M50.232,46.832l-4.3,9.178S47.919,69.041,51.414,69c2.931-.048,4.261-10.654,4.261-10.654s.142-5.88,1.383-8.477c1.24-2.579-6.826-3.035-6.826-3.035" transform="translate(-12860.575 -12270.398)" fill="#ffb17d" fill-rule="evenodd"/>
    <path id="Trazado_750914" data-name="Trazado 750914" d="M56.328,49.867c1.24-2.579-6.826-3.035-6.826-3.035l-.353.758a4.461,4.461,0,0,0,.422,1.588,10.36,10.36,0,0,0,5.719,4.907,15.541,15.541,0,0,1,1.038-4.217" transform="translate(-12859.846 -12270.398)" fill="#ef8161" fill-rule="evenodd"/>
    <path id="Trazado_750915" data-name="Trazado 750915" d="M52.336,35.729c-.188-.137-4.932,10.436-2.993,14.312,1.947,3.86,7.178,6.494,9.87,4.683A9.016,9.016,0,0,0,63.2,46.956c-.28-4.2.806-8.086-1.125-10.536-3.491-4.413-9.741-.691-9.741-.691" transform="translate(-12859.907 -12273.251)" fill="#ffb17d" fill-rule="evenodd"/>
    <path id="Trazado_750916" data-name="Trazado 750916" d="M52.853,43.538c-.375,1.355-1.318,2.28-2.1,2.051s-1.124-1.487-.747-2.84,1.31-2.265,2.1-2.05,1.12,1.485.745,2.839" transform="translate(-12859.685 -12271.798)" fill="#ffb17d" fill-rule="evenodd"/>
    <path id="Trazado_750917" data-name="Trazado 750917" d="M60.956,52.386q-12.049.733-14.193-3.357-2.915-1.649-2.444-6.757c-.715-5.536,3.44-12.818,5.335-8.046,4.408-5.688,13.392,1.013,20.129-.878,2.786,3.272-.169,8.461-3.2,9.614-1.793,6.44-3.155,9.76-5.622,9.424" transform="translate(-12860.96 -12273.791)" fill="#284190" fill-rule="evenodd"/>
    <path id="Trazado_750918" data-name="Trazado 750918" d="M47.53,34.514q1.443-.559,1.344-1.759a3.4,3.4,0,0,0-3.417-1.077q.974.348,2.074,2.837" transform="translate(-12860.684 -12273.862)" fill="#284190" fill-rule="evenodd"/>
    <path id="Trazado_750919" data-name="Trazado 750919" d="M49.08,33.507c-.744.459-1.294.445-1.659-.04a3.813,3.813,0,0,1,1.423-2.955,4.894,4.894,0,0,0,.236,2.995" transform="translate(-12860.237 -12274.103)" fill="#284190" fill-rule="evenodd"/>
    <path id="Trazado_750920" data-name="Trazado 750920" d="M51.931,36.214q-1.811-1.413-3.262-.372c-.55,2.066-.7,6.5.664,7.884.344-.115,1.557-4.471,2.6-7.513" transform="translate(-12860.045 -12272.993)" fill="#284190" fill-rule="evenodd"/>
    <path id="Trazado_750921" data-name="Trazado 750921" d="M52.76,34.574q-3.962.661-3.183,2.359a19.939,19.939,0,0,0,10.354,1.824q-2.965-.58-7.172-4.184" transform="translate(-12859.777 -12273.181)" fill="#284190" fill-rule="evenodd"/>
    <path id="Trazado_750922" data-name="Trazado 750922" d="M65.633,43.14c-1.837-3.415-6.682-5.186-14.219-4.708-3.99-2.337-4.372-4.611-1.6-7.311,3.918-3.816,8.412,1.437,16.493-.856-1.244,3.267,8.05,9.119-.676,12.876" transform="translate(-12860.101 -12274.29)" fill="#284190" fill-rule="evenodd"/>
    <path id="Trazado_750923" data-name="Trazado 750923" d="M48.813,38.554c1.919.145.656,3.8-.021,5.6-1.335,3.535-3-5.837.021-5.6" transform="translate(-12860.307 -12272.278)" fill="#ffb17d" fill-rule="evenodd"/>
    <path id="Trazado_750924" data-name="Trazado 750924" d="M46.769,58.162c-.093-1.185,1.486-5.806,1.822-7.4-.033-.652-.031-1.464.007-2.432q-4.619-5.628.134-6.273A7.8,7.8,0,0,1,49.971,45.6a1.8,1.8,0,0,0,1.821-.578,53.06,53.06,0,0,1,.426-7.172c2.731-2.261,7.289-1.355,12.943,1.141q-.282,2.468-.8,5.17c.532.89-.661,12.792-8.018,11.122a9.311,9.311,0,0,0-.494,1.974c.032.2-1.573,1.807-1.206,2.077-.076-1.065-6.216,19.906-7.878-1.171" transform="translate(-12860.487 -12272.731)" fill="#ffb17d" fill-rule="evenodd"/>
    <path id="Trazado_750925" data-name="Trazado 750925" d="M65.768,40.383c-5.654-2.494-10.214-3.4-12.943-1.141a53.277,53.277,0,0,0-.426,7.172,1.8,1.8,0,0,1-1.82.578,7.835,7.835,0,0,0-1.239-3.543q-4.754.648-.134,6.275-.059,1.454-.01,2.431c-3.237-1.8-5.222-5.753-5.235-7.214-1.692-9.162,3.807-11.2,6.583-11.714C53.937,25.647,63.34,36,70.2,33.89c1.352,3.826-2.634,6.946-4.434,6.493" transform="translate(-12861.095 -12274.126)" fill="#284190" fill-rule="evenodd"/>
    <path id="Trazado_750926" data-name="Trazado 750926" d="M51.539,50.227a10.333,10.333,0,0,0,3.624,1.951,11.982,11.982,0,0,0-.44,1.594,6.344,6.344,0,0,1-3.184-3.545" transform="translate(-12859.303 -12269.628)" fill="#ef8161" fill-rule="evenodd"/>
    <path id="Trazado_750927" data-name="Trazado 750927" d="M62.146,36.751a1.925,1.925,0,0,1,.2,2.493,3.828,3.828,0,0,1-3.9-1.07q1.137.267,3.707-1.423" transform="translate(-12857.737 -12272.687)" fill="#284190" fill-rule="evenodd"/>
    <path id="Trazado_750928" data-name="Trazado 750928" d="M45.271,54.294a38.984,38.984,0,0,0,2.559,9.489q1.491,3.609,3.61,4.1l.064.01c1.267.139,2.293-1.188,3.086-3.024a37.927,37.927,0,0,0,2.26-8.094L55.836,56.4A39.173,39.173,0,0,1,53.57,64.43c-.6,1.383-1.261,2.4-1.909,2.363q-1.544-.385-2.806-3.432a36.907,36.907,0,0,1-2.67-9.225Z" transform="translate(-12860.726 -12268.741)" fill="#91b3fa" fill-rule="evenodd"/>
    <path id="Trazado_750929" data-name="Trazado 750929" d="M50.6,63.674a1.338,1.338,0,1,0,.9,1.663,1.34,1.34,0,0,0-.9-1.663" transform="translate(-12859.906 -12266.589)" fill="#91b3fa" fill-rule="evenodd"/>
    <path id="Trazado_750930" data-name="Trazado 750930" d="M50.063,65.826a.9.9,0,1,0,.61,1.118.9.9,0,0,0-.61-1.118" transform="translate(-12859.9 -12266.097)" fill="#91b3fa" fill-rule="evenodd"/>
    <path id="Trazado_750931" data-name="Trazado 750931" d="M49.694,67.324a.539.539,0,1,0-.3,1.034.539.539,0,1,0,.3-1.034" transform="translate(-12859.879 -12265.753)" fill="#91b3fa" fill-rule="evenodd"/>
    <path id="Trazado_750933" data-name="Trazado 750933" d="M60.726,39.661c.1-.025.216,0,.314-.013a1.489,1.489,0,0,0-.369-.016.828.828,0,0,1-.183,0A1.352,1.352,0,0,1,60.3,39.6a3.131,3.131,0,0,1,.448-.054,2.465,2.465,0,0,0-.363-.011,2.867,2.867,0,0,1-.355,0c.09-.021.209-.023.288-.045a3.869,3.869,0,0,0-.448-.012,1.9,1.9,0,0,1,.254-.1,2.208,2.208,0,0,0-.6.115.793.793,0,0,1,.31-.148c-.076-.029-.307.064-.379.091a.413.413,0,0,1-.045.011c-.076.027-.153.076-.232.1a1.436,1.436,0,0,1,.35-.211.85.85,0,0,0,.119-.052,1.281,1.281,0,0,0-.378.133.845.845,0,0,1,.175-.115.712.712,0,0,0-.325.139c-.1.065-.216.179-.3.231a1.729,1.729,0,0,1,.416-.4,1.067,1.067,0,0,0-.31.2l-.218.206a.375.375,0,0,1-.076.071,1.26,1.26,0,0,1,.2-.287c.08-.091.174-.161.217-.207a.792.792,0,0,0-.325.228c-.139.147-.185.238-.276.342a1.388,1.388,0,0,1,.287-.447c-.091.007-.191.148-.276.194a.785.785,0,0,1,.107-.129c.039-.034.082-.065.114-.1-.141.036-.372.362-.455.461a1.629,1.629,0,0,1,.3-.5,4.111,4.111,0,0,0-.281.3,1,1,0,0,1,.112-.22c.037-.061.09-.119.12-.171a2.274,2.274,0,0,0-.417.644c0-.15.131-.293.175-.41-.031.047-.077.088-.117.152a6.819,6.819,0,0,0-.288.643,1.346,1.346,0,0,1,.1-.379,2.281,2.281,0,0,1,.182-.323l-.115.11a1.381,1.381,0,0,0-.109.15c-.036.055-.069.11-.1.171-.027.044-.071.141-.093.173a1.508,1.508,0,0,1,.148-.359c.061-.114.134-.2.188-.29a1.756,1.756,0,0,0-.34.472,1.312,1.312,0,0,0-.14.474.483.483,0,0,0,.006.134,1.841,1.841,0,0,1,.256-.548,2.067,2.067,0,0,0-.134.469,2.64,2.64,0,0,1,.131-.375,1.17,1.17,0,0,0-.026.407,1.9,1.9,0,0,1,.079-.283,1.093,1.093,0,0,0-.027.32c.014-.064.016-.121.032-.191.013-.054.036-.162.082-.2a.469.469,0,0,0-.017.253c.025-.107.032-.2.065-.319a.68.68,0,0,1,.144-.282c-.021.072-.1.215-.137.347a1.074,1.074,0,0,0-.047.315c.007-.009.135-.379.163-.444a.855.855,0,0,1,.223-.337c-.029.065-.151.232-.212.364a1.368,1.368,0,0,0-.128.423,1.821,1.821,0,0,1,.163-.4,1.7,1.7,0,0,0-.079.352c.034-.081.049-.183.09-.283a1.339,1.339,0,0,1,.14-.236,2.746,2.746,0,0,0-.188.55c.018-.017.092-.133.117-.162a2.76,2.76,0,0,1,.385-.4,3.151,3.151,0,0,0-.41.507,1.652,1.652,0,0,1,.168-.185c.055-.056.12-.1.172-.151l-.286.32a3.113,3.113,0,0,1,.686-.426c-.044.037-.106.066-.16.1a3.459,3.459,0,0,0-.45.34c.039-.017.076-.05.118-.072a3.208,3.208,0,0,1,.319-.194l.033-.011a1.468,1.468,0,0,1-.137.1.955.955,0,0,0-.131.1c.074-.015.307-.179.4-.2l-.065.06a.979.979,0,0,1,.386-.168.4.4,0,0,1-.069.034c-.043.023-.151.1-.178.11a2.467,2.467,0,0,1,.443-.164c-.07.052-.164.076-.232.131.136-.026.266-.1.4-.126-.043.029-.082.026-.126.064.076,0,.148-.049.222-.05l-.081.05c.07-.011.13-.043.2-.056.027,0,0,0,.032,0l-.091.054c.074,0,.162-.05.242-.05l-.022.01-.012,0-.058.017,0,0-.007,0-.007,0a1.741,1.741,0,0,0,.285.018,1.172,1.172,0,0,1,.244-.044c-.016,0-.031.013-.05.018l-.052.021a1.744,1.744,0,0,0,.177-.007,2.934,2.934,0,0,1,1.323.384,3.88,3.88,0,0,1,.591.483c.113.1.46.434.551.5l-.018-.034-.018-.02-.108-.136c-.047-.059-.093-.119-.137-.18L62.45,40.7a2.668,2.668,0,0,0-.517-.508,1.838,1.838,0,0,1-.193-.157l.168.08a2.67,2.67,0,0,0-.81-.358c.021,0,.053,0,.079,0a.216.216,0,0,0,.04,0l.036,0a1.862,1.862,0,0,0-.274-.054,2.157,2.157,0,0,1-.254-.04" transform="translate(-12857.941 -12272.128)" fill="#125aa2" fill-rule="evenodd"/>
    <path id="Trazado_750934" data-name="Trazado 750934" d="M59.943,41.627a.838.838,0,0,1-.686.932.813.813,0,0,1-.724-.885.84.84,0,0,1,.687-.934.814.814,0,0,1,.723.886" transform="translate(-12857.716 -12271.781)" fill="#badaf9" fill-rule="evenodd"/>
    <path id="Trazado_750935" data-name="Trazado 750935" d="M58.533,41.675a.815.815,0,0,0,.724.886.843.843,0,0,0,.688-.934,1.088,1.088,0,0,0-.162-.556l.01.07a.273.273,0,0,1-.223.3.263.263,0,0,1-.234-.287.274.274,0,0,1,.221-.3h.028a.584.584,0,0,0-.364-.115.843.843,0,0,0-.687.936" transform="translate(-12857.716 -12271.781)" fill="#125aa2" fill-rule="evenodd"/>
    <path id="Trazado_750936" data-name="Trazado 750936" d="M54.247,38.79c-.1-.05-.231-.054-.331-.1a1.738,1.738,0,0,1,.4.082.764.764,0,0,0,.193.048,1.425,1.425,0,0,0,.212.017,3.778,3.778,0,0,0-.459-.171,3.448,3.448,0,0,1,.384.085c.108.028.287.087.378.1-.09-.045-.213-.077-.293-.121.141,0,.337.087.479.107-.07-.076-.171-.1-.242-.161a2.461,2.461,0,0,1,.612.271c-.036-.05-.238-.228-.292-.226.091-.011.308.142.379.186a.377.377,0,0,0,.044.025c.075.044.145.115.221.157a1.611,1.611,0,0,0-.315-.3.935.935,0,0,1-.112-.082,1.435,1.435,0,0,1,.364.229.825.825,0,0,0-.155-.158.814.814,0,0,1,.31.221c.083.087.18.228.254.3a1.838,1.838,0,0,0-.333-.5,1.206,1.206,0,0,1,.274.279l.177.258a.36.36,0,0,0,.061.087,1.323,1.323,0,0,0-.13-.329c-.061-.107-.144-.2-.175-.26a.879.879,0,0,1,.285.309c.106.178.133.279.2.4a1.342,1.342,0,0,0-.187-.507c.094.032.163.2.242.261a.7.7,0,0,0-.08-.153c-.032-.045-.069-.082-.093-.123.141.07.3.445.359.563a1.554,1.554,0,0,0-.187-.566,3.692,3.692,0,0,1,.217.367.98.98,0,0,0-.059-.242c-.022-.069-.064-.137-.082-.2a2.2,2.2,0,0,1,.27.732c.033-.145-.061-.317-.076-.442.02.053.058.107.081.178a6.012,6.012,0,0,1,.134.7,1.28,1.28,0,0,0,0-.393,2.49,2.49,0,0,0-.1-.361l.093.137a1.883,1.883,0,0,1,.075.175c.022.063.043.126.063.193.015.049.036.155.053.19a1.524,1.524,0,0,0-.061-.386c-.036-.126-.09-.225-.121-.329a1.794,1.794,0,0,1,.234.544,1.237,1.237,0,0,1,.017.5.314.314,0,0,1-.042.126,1.665,1.665,0,0,0-.124-.6,1.819,1.819,0,0,1,.015.488,2.215,2.215,0,0,0-.037-.4,1.111,1.111,0,0,1-.082.4,1.726,1.726,0,0,0-.007-.293.991.991,0,0,1-.059.317c0-.065.018-.123.02-.194a.4.4,0,0,0-.033-.212.433.433,0,0,1-.054.249c0-.112.022-.2.018-.326a.64.64,0,0,0-.074-.31c0,.076.047.236.052.372a1.1,1.1,0,0,1-.036.318c0-.011-.043-.4-.055-.472a.814.814,0,0,0-.145-.386c.012.071.1.264.126.409a1.227,1.227,0,0,1,.02.443,1.629,1.629,0,0,0-.063-.428,1.652,1.652,0,0,1-.015.363c-.013-.087,0-.191-.017-.3a1.307,1.307,0,0,0-.083-.265,2.753,2.753,0,0,1,.05.579c-.015-.02-.064-.15-.08-.185a2.806,2.806,0,0,0-.3-.487,3.019,3.019,0,0,1,.3.6,1.333,1.333,0,0,0-.126-.223c-.044-.069-.1-.134-.145-.191l.22.385a3.436,3.436,0,0,0-.613-.593c.037.045.094.091.141.141a4.022,4.022,0,0,1,.386.447,1.015,1.015,0,0,1-.106-.1,3.266,3.266,0,0,0-.286-.269l-.034-.021a1.737,1.737,0,0,0,.119.135.918.918,0,0,1,.115.126C56.3,40,56.1,39.783,56,39.73l.053.076a1.123,1.123,0,0,0-.364-.265c.021.026.04.031.063.052a2.149,2.149,0,0,0,.161.152,2.8,2.8,0,0,0-.428-.276c.06.07.155.117.212.189-.14-.061-.256-.163-.4-.231.037.042.08.049.117.1-.08-.023-.145-.09-.223-.11l.075.069c-.071-.027-.129-.074-.2-.106-.028-.013,0,0-.032-.011l.08.076c-.076-.026-.158-.093-.242-.113l.021.015.011.009.055.031.009.007,0,0,.006.007a2.1,2.1,0,0,1-.306-.06,2.053,2.053,0,0,0-.25-.108.234.234,0,0,0,.05.032l.05.036a1.724,1.724,0,0,1-.188-.055,3.516,3.516,0,0,0-1.509.018,4.256,4.256,0,0,0-.758.31c-.148.069-.607.294-.723.334l.031-.028a.193.193,0,0,1,.023-.015l.153-.1c.065-.044.13-.091.193-.137l.375-.3a2.918,2.918,0,0,1,.686-.352,2.126,2.126,0,0,0,.248-.1l-.2.032a3.063,3.063,0,0,1,.957-.13l-.082-.021a.363.363,0,0,1-.047-.007l-.037-.012a1.979,1.979,0,0,1,.3.02c.086.007.209.031.285.028" transform="translate(-12859.344 -12272.251)" fill="#125aa2" fill-rule="evenodd"/>
    <path id="Trazado_750937" data-name="Trazado 750937" d="M55.242,40.116c-.388-.059-.737.3-.786.8a.891.891,0,0,0,.62,1.012c.386.061.737-.294.784-.8a.891.891,0,0,0-.617-1.012" transform="translate(-12858.642 -12271.924)" fill="#badaf9" fill-rule="evenodd"/>
    <path id="Trazado_750938" data-name="Trazado 750938" d="M55.074,41.926a.891.891,0,0,1-.618-1.015c.047-.5.4-.856.785-.8a.659.659,0,0,1,.412.258l-.053-.018c-.125-.018-.238.1-.253.26a.288.288,0,0,0,.2.329c.124.018.239-.1.254-.258l0-.036a1.185,1.185,0,0,1,.055.479c-.047.5-.4.856-.784.8" transform="translate(-12858.643 -12271.925)" fill="#125aa2" fill-rule="evenodd"/>
    <path id="Trazado_750939" data-name="Trazado 750939" d="M57.976,46.813a4.364,4.364,0,0,1-1.683-.5.121.121,0,0,1-.054-.158A.124.124,0,0,1,56.4,46.1a2.87,2.87,0,0,0,1.864.427.165.165,0,0,0,.1-.125,6.752,6.752,0,0,0-.744-4.037.12.12,0,0,1,.039-.162.122.122,0,0,1,.162.039,6.925,6.925,0,0,1,.773,4.2.4.4,0,0,1-.223.293.9.9,0,0,1-.39.076" transform="translate(-12858.239 -12271.453)" fill="#ef8161"/>
    <path id="Trazado_750940" data-name="Trazado 750940" d="M54.083,47.432q3.686,2.658,5.278.87-4.752-.491-5.278-.87" transform="translate(-12858.726 -12270.263)" fill="#ef8161" fill-rule="evenodd"/>
    <path id="Trazado_750941" data-name="Trazado 750941" d="M151.383,158.521l-24.522,19.451,10.461,7.548Z" transform="translate(-12842.208 -12245.05)" fill="#a3cffb" fill-rule="evenodd"/>
    <path id="Trazado_750942" data-name="Trazado 750942" d="M124.189,174.454l28.944-15.683-37.649,13.935Z" transform="translate(-12844.79 -12244.993)" fill="#a3cffb" fill-rule="evenodd"/>
    <path id="Trazado_750943" data-name="Trazado 750943" d="M122.579,174.511l4.427,12.6.827-9.138,24.522-19.451-.832.307Z" transform="translate(-12843.18 -12245.05)" fill="#91b3fa" fill-rule="evenodd"/>
    <path id="Trazado_750944" data-name="Trazado 750944" d="M126.187,183.512l5.462-5.792-4.635-3.346Z" transform="translate(-12842.361 -12241.452)" fill="#91b3fa" fill-rule="evenodd"/>
    <path id="Trazado_750945" data-name="Trazado 750945" d="M123.818,177.748a.559.559,0,0,1,.586.952c-.312.2-.622.39-.929.593a.559.559,0,0,1-.613-.934c.317-.21.634-.412.956-.611m31.9,57.872a.559.559,0,0,1-1.083-.279c.093-.355.177-.708.254-1.066a.559.559,0,0,1,1.093.233c-.082.374-.168.742-.264,1.112m.734-4.515a.558.558,0,0,1-1.115-.059c.018-.361.032-.723.032-1.085a.558.558,0,0,1,1.117-.006c0,.385-.013.766-.033,1.15m-.282-4.584a.558.558,0,0,1-1.1.21c-.065-.351-.145-.708-.236-1.054a.558.558,0,0,1,1.08-.283c.1.367.184.752.253,1.128m-1.455-4.374a.559.559,0,0,1-1,.5,10.7,10.7,0,0,0-.507-.953.559.559,0,0,1,.964-.564c.2.315.379.683.542,1.017m-2.532-3.835a.559.559,0,0,1-.845.73c-.237-.275-.477-.541-.726-.8a.559.559,0,0,1,.8-.778c.264.282.517.561.769.853m-3.321-3.146a.559.559,0,0,1-.682.885c-.283-.223-.582-.442-.876-.65a.558.558,0,0,1,.64-.914c.31.221.618.444.918.68m-3.827-2.474a.559.559,0,0,1-.526.986c-.323-.175-.648-.34-.977-.5a.559.559,0,0,1,.494-1c.34.168.674.341,1.009.52m-4.14-1.87a.558.558,0,0,1-.386,1.048l-1.038-.371a.558.558,0,0,1,.357-1.058c.358.123.713.249,1.067.38m-4.33-1.331a.557.557,0,0,1-.266,1.082l-1.071-.244a.559.559,0,0,1,.232-1.094Zm-4.451-.838a.559.559,0,0,1-.142,1.109l-1.1-.133a.558.558,0,0,1,.115-1.11c.375.04.748.086,1.124.134m-4.492-.362a.558.558,0,1,1-.066,1.114c-.375-.021-.751-.043-1.125-.072a.558.558,0,0,1,.086-1.113Zm-4.41-.4a.559.559,0,0,1-.147,1.108c-.373-.049-.745-.1-1.119-.157a.559.559,0,0,1,.169-1.105c.366.054.73.107,1.1.155m-4.335-.784a.558.558,0,0,1-.271,1.083c-.368-.091-.74-.182-1.1-.288a.557.557,0,0,1,.309-1.071c.346.1.712.191,1.061.276m-4.14-1.377a.559.559,0,0,1-.46,1.02c-.355-.16-.7-.333-1.042-.512a.558.558,0,0,1,.536-.979c.3.168.653.332.966.471m-3.55-2.321a.559.559,0,0,1-.8.784,9.878,9.878,0,0,1-.789-.892.559.559,0,0,1,.893-.671,8.185,8.185,0,0,0,.693.779M109.2,199.84a.559.559,0,0,1-1.094.223,9.5,9.5,0,0,1-.155-1.191.559.559,0,0,1,1.117-.058,7.978,7.978,0,0,0,.133,1.026m.25-4.156a.558.558,0,0,1-1.074-.307c.1-.372.225-.741.357-1.1a.559.559,0,0,1,1.048.388c-.123.336-.236.679-.331,1.022m1.736-3.953a.56.56,0,0,1-.967-.566c.155-.306.411-.677.6-.974a.559.559,0,0,1,.936.611,8.96,8.96,0,0,0-.568.929m2.5-3.595a.558.558,0,0,1-.869-.7c.234-.3.482-.585.726-.872a.559.559,0,0,1,.845.73c-.237.277-.475.558-.7.844m2.959-3.262a.558.558,0,0,1-.784-.8c.26-.26.539-.545.811-.788a.559.559,0,0,1,.766.813c-.267.255-.531.509-.793.769m3.278-2.956a.559.559,0,0,1-.706-.867l.883-.706a.558.558,0,0,1,.685.882c-.288.21-.585.463-.863.691" transform="translate(-12846.499 -12240.706)" fill="#91b3fa" fill-rule="evenodd"/>
    <path id="Trazado_750946" data-name="Trazado 750946" d="M363.687,35.921l-29.2,11.971,8.016,10.24Z" transform="translate(-12795.087 -12272.875)" fill="#a3cffb" fill-rule="evenodd"/>
    <path id="Trazado_750947" data-name="Trazado 750947" d="M332.6,43.054l32.427-7.078-40.367,2.947Z" transform="translate(-12797.317 -12272.862)" fill="#a3cffb" fill-rule="evenodd"/>
    <path id="Trazado_750948" data-name="Trazado 750948" d="M331.128,43.066l.758,13.443,3.362-8.616,29.2-11.971-.893.066Z" transform="translate(-12795.849 -12272.875)" fill="#91b3fa" fill-rule="evenodd"/>
    <path id="Trazado_750949" data-name="Trazado 750949" d="M331.746,54.294l6.915-4.08-3.552-4.536Z" transform="translate(-12795.709 -12270.66)" fill="#91b3fa" fill-rule="evenodd"/>
    <path id="Trazado_750950" data-name="Trazado 750950" d="M334.614,52.149a.7.7,0,0,0-.147-1.391l-1.4.151a.7.7,0,0,0,.156,1.391ZM286.737,107.82a.7.7,0,1,0,0,1.4l.906,0a.7.7,0,0,0-.013-1.4Zm5.058-.126a.7.7,0,0,0,.08,1.4l1.41-.087a.7.7,0,0,0-.1-1.4Zm5.51-.524a.7.7,0,0,0,.21,1.384Zm5.35-1.179a.7.7,0,0,0,.439,1.331c.459-.148.91-.308,1.359-.485a.7.7,0,0,0-.519-1.3c-.42.168-.848.317-1.28.454m4.752-2.391a.7.7,0,0,0,.88,1.088,9.934,9.934,0,0,0,1.1-1.04.7.7,0,0,0-1.05-.926,8.762,8.762,0,0,1-.932.878m2.62-4.246a.7.7,0,0,0,1.38.239,10.359,10.359,0,0,0,.163-1.493.7.7,0,0,0-1.4-.034,8.566,8.566,0,0,1-.144,1.288m-.375-5.235A.7.7,0,0,0,311,93.746c-.124-.459-.26-.932-.416-1.38a.7.7,0,0,0-1.326.45c.145.427.275.865.391,1.3m-1.931-5.131a.7.7,0,0,0,1.272-.585c-.2-.427-.4-.859-.607-1.28a.7.7,0,0,0-1.26.615c.2.415.4.834.6,1.25m-2.5-4.969a.7.7,0,0,0,1.238-.656l-.658-1.237a.7.7,0,0,0-1.238.658c.225.4.443.827.658,1.236m-2.61-4.978a.7.7,0,0,0,1.254-.623l-.613-1.247a.7.7,0,0,0-1.263.6Zm-2.272-5.227a.7.7,0,0,0,1.33-.436c-.141-.433-.269-.854-.383-1.3a.7.7,0,0,0-1.357.344c.12.471.258.928.41,1.389m-.7-5.816a.7.7,0,0,0,1.388.175,10.187,10.187,0,0,1,.238-1.29.7.7,0,0,0-1.357-.347A11.59,11.59,0,0,0,299.636,68m2.153-5.483a.7.7,0,0,0,1.131.826,12.016,12.016,0,0,1,.831-1.034.7.7,0,0,0-1.039-.94,12.349,12.349,0,0,0-.923,1.148m4.228-3.993a.7.7,0,0,0,.784,1.163c.375-.256.756-.5,1.147-.73a.7.7,0,0,0-.714-1.2c-.415.248-.818.5-1.217.772m5.062-2.687a.7.7,0,0,0,.54,1.292c.422-.179.852-.347,1.278-.512a.7.7,0,0,0-.5-1.309c-.442.171-.883.344-1.32.529m5.367-1.866a.7.7,0,0,0,.383,1.345l1.336-.368a.7.7,0,0,0-.356-1.355Zm5.492-1.344a.7.7,0,0,0,.28,1.371l1.366-.269a.7.7,0,0,0-.261-1.377Zm5.551-.986a.7.7,0,0,0,.21,1.386l1.379-.2a.7.7,0,0,0-.2-1.388Z" transform="translate(-12806.083 -12269.509)" fill="#91b3fa" fill-rule="evenodd"/>
    <path id="Trazado_750951" data-name="Trazado 750951" d="M300.877,114.3l29.2,11.971-8.018,10.241Z" transform="translate(-12802.714 -12255.087)" fill="#a3cffb" fill-rule="evenodd"/>
    <path id="Trazado_750952" data-name="Trazado 750952" d="M334.031,121.433l-32.427-7.08,40.369,2.948Z" transform="translate(-12802.549 -12255.074)" fill="#a3cffb" fill-rule="evenodd"/>
    <path id="Trazado_750953" data-name="Trazado 750953" d="M334.2,121.445l-.758,13.443-3.361-8.618-29.2-11.971.892.067Z" transform="translate(-12802.714 -12255.087)" fill="#91b3fa" fill-rule="evenodd"/>
    <path id="Trazado_750954" data-name="Trazado 750954" d="M328.694,132.673l-6.913-4.082,3.552-4.536Z" transform="translate(-12797.97 -12252.872)" fill="#91b3fa" fill-rule="evenodd"/>
    <path id="Trazado_750955" data-name="Trazado 750955" d="M331.838,125.815a.539.539,0,0,0-.118,1.071l1.065.125a.539.539,0,0,0,.126-1.07Zm60.912,68.975a.539.539,0,0,0-.466-.972c-.318.148-.632.3-.955.438a.538.538,0,0,0,.42.99Zm-4.1,1.573a.538.538,0,0,0-.293-1.034c-.34.093-.675.182-1.016.266a.538.538,0,0,0,.243,1.048c.361-.086.71-.18,1.066-.28m-4.345.783a.539.539,0,0,0-.069-1.076c-.35.022-.7.039-1.044.045a.539.539,0,0,0,0,1.077c.364-.025.737-.022,1.108-.047m-4.426-.231a.539.539,0,0,0,.2-1.059c-.344-.061-.682-.14-1.022-.221a.538.538,0,0,0-.261,1.044c.358.088.723.173,1.085.236m-4.219-1.385a.539.539,0,0,0,.478-.967c-.314-.15-.616-.319-.917-.491a.539.539,0,0,0-.545.93c.318.185.65.367.983.528m-3.678-2.492a.539.539,0,0,0,.721-.8c-.249-.222-.526-.475-.752-.718a.538.538,0,0,0-.773.75c.264.264.525.52.8.769m-2.9-3.343a.539.539,0,0,0,.892-.6c-.2-.292-.383-.582-.566-.883a.538.538,0,0,0-.921.555c.188.317.389.626.6.932m-2.06-3.909a.539.539,0,0,0,1-.394q-.2-.491-.369-.989a.539.539,0,0,0-1.018.352c.123.347.252.688.385,1.031m-1.308-4.178a.538.538,0,0,0,1.045-.256l-.245-1.037a.539.539,0,0,0-1.052.234Zm-.893-4.245a.539.539,0,0,0,1.06-.2l-.191-1.055a.539.539,0,0,0-1.06.19Zm-.757-4.243a.538.538,0,0,0,1.059-.194l-.2-1.064a.538.538,0,0,0-1.056.2Zm-.869-4.186a.538.538,0,0,0,1.045-.258c-.086-.353-.174-.709-.272-1.059a.539.539,0,0,0-1.039.29c.1.32.186.7.266,1.027m-1.072-3.8a.543.543,0,0,0,.816-.643q-.134-.34-.282-.676a.52.52,0,0,0-.341-.568.546.546,0,0,0-.813.62c-.083.227-.168.458-.26.685a.541.541,0,0,0,.881.583m-2.162-3.9a.538.538,0,0,0,.865-.64c-.22-.3-.453-.6-.7-.877a.539.539,0,0,0-.81.712c.226.258.44.529.643.806M357,158.4a.539.539,0,0,0,.585-.9c-.317-.209-.632-.4-.963-.579a.539.539,0,0,0-.507.951c.3.163.6.344.885.532m-3.766-1.677a.538.538,0,0,0,.276-1.04c-.361-.1-.715-.182-1.08-.258a.538.538,0,0,0-.211,1.055c.34.07.68.153,1.015.243m-4.147-.661a.538.538,0,0,0,.075-1.074c-.367-.026-.73-.044-1.1-.058a.538.538,0,0,0-.033,1.076c.353.012.7.031,1.055.055m-4.191.082a.538.538,0,0,0-.145-1.066c-.368.045-.728.1-1.094.171a.539.539,0,0,0,.2,1.059c.345-.065.687-.119,1.034-.163m-3.994,1.077a.539.539,0,0,0-.444-.982c-.353.161-.672.331-1.011.513a.539.539,0,0,0,.545.931l-.545-.931.545.931c.3-.167.6-.321.91-.463m-3.273,2.374a.538.538,0,0,0-.816-.7,8.793,8.793,0,0,0-.694.91.538.538,0,0,0,.9.59,8.181,8.181,0,0,1,.61-.8m-1.759,3.57a.538.538,0,0,0-1.058-.2,9.521,9.521,0,0,0-.15,1.135.539.539,0,0,0,1.076.065,8.094,8.094,0,0,1,.131-1m.223,4a.54.54,0,0,0-1.029.324,10.926,10.926,0,0,0,.391,1.063.539.539,0,0,0,.989-.429,9.389,9.389,0,0,1-.351-.957m1.989,3.53a.538.538,0,0,0-.806.714c.245.279.513.557.784.811a.539.539,0,0,0,.734-.789c-.247-.231-.488-.481-.712-.736m3.218,2.539a.539.539,0,0,0-.513.947c.329.177.664.345,1,.5a.539.539,0,0,0,.434-.986c-.315-.141-.622-.293-.926-.456m3.877,1.453a.539.539,0,0,0-.22,1.055c.366.077.729.148,1.1.2a.539.539,0,0,0,.14-1.069c-.345-.059-.675-.115-1.018-.189m4.115.267a.538.538,0,0,0,.11,1.07,10.423,10.423,0,0,0,1.119-.166.538.538,0,0,0-.217-1.054c-.325.064-.682.119-1.012.15m3.946-1.123a.538.538,0,0,0,.467.969c.339-.157.671-.34.993-.528a.539.539,0,0,0-.552-.925c-.292.173-.6.341-.908.483m3.4-2.345a.538.538,0,0,0,.737.784c.271-.25.541-.517.791-.788a.538.538,0,0,0-.794-.726c-.232.252-.485.5-.735.73m2.671-3.2a.538.538,0,0,0,.9.585c.2-.306.394-.62.579-.94a.538.538,0,0,0-.932-.539c-.175.3-.358.6-.55.893m3.126-7.757a.539.539,0,0,0,1.058.21c.075-.361.14-.719.2-1.082a.539.539,0,0,0-1.065-.163c-.065.346-.123.69-.194,1.036m.515-4.184a.538.538,0,0,0,1.076.036c.015-.368.022-.731.023-1.1a.539.539,0,0,0-1.077,0c0,.355-.01.705-.022,1.059m-.166-4.216a.539.539,0,0,0,1.069-.135c-.043-.363-.093-.729-.152-1.091a.539.539,0,0,0-1.063.182c.066.329.106.708.146,1.044m-.838-4.134a.539.539,0,0,0,1.033-.3c-.1-.351-.212-.7-.326-1.047a.538.538,0,0,0-1.021.342c.11.334.216.669.314,1.009m-1.5-3.936a.539.539,0,0,0,.968-.476c-.162-.33-.324-.658-.5-.98a.538.538,0,0,0-.947.51c.166.312.322.628.476.946m-2.125-3.642a.538.538,0,0,0,.876-.626c-.211-.3-.424-.6-.648-.888a.539.539,0,0,0-.852.66c.215.282.421.564.623.854m-2.691-3.253a.539.539,0,0,0,.769-.755c-.254-.264-.514-.518-.778-.771a.539.539,0,0,0-.741.782q.381.364.75.744m-3.162-2.8a.538.538,0,0,0,.647-.86c-.292-.221-.585-.44-.886-.648a.538.538,0,0,0-.613.883c.288.2.573.412.853.625m-3.537-2.324a.538.538,0,0,0,.524-.94c-.318-.18-.639-.357-.962-.526a.538.538,0,0,0-.488.959c.31.16.622.334.926.507m-3.812-1.861a.539.539,0,0,0,.411-1c-.336-.141-.676-.276-1.016-.406a.537.537,0,0,0-.378,1.006c.328.125.66.26.983.4m-4-1.429a.537.537,0,0,0,.3-1.032l-1.045-.3a.539.539,0,0,0-.279,1.04Zm-4.134-1.038a.54.54,0,0,0,.216-1.058c-.355-.074-.712-.139-1.069-.207a.538.538,0,0,0-.2,1.059c.35.066.7.134,1.048.206" transform="translate(-12795.822 -12252.474)" fill="#91b3fa" fill-rule="evenodd"/>
    <g id="Grupo_1019288" data-name="Grupo 1019288" transform="translate(-12871 -12281.027)">
      <path id="Trazado_750956" data-name="Trazado 750956" d="M206.052,5.134,181.53,24.587l10.462,7.548Z" transform="translate(41.199 1.165)" fill="#a3cffb" fill-rule="evenodd"/>
      <path id="Trazado_750957" data-name="Trazado 750957" d="M178.858,21.067,207.8,5.386,170.154,19.321Z" transform="translate(38.617 1.223)" fill="#a3cffb" fill-rule="evenodd"/>
      <path id="Trazado_750958" data-name="Trazado 750958" d="M177.248,21.124l4.427,12.6.827-9.137L207.023,5.135l-.832.308Z" transform="translate(40.228 1.165)" fill="#6c9afb" fill-rule="evenodd"/>
      <path id="Trazado_750959" data-name="Trazado 750959" d="M180.856,30.125l5.462-5.792-4.635-3.345Z" transform="translate(41.046 4.764)" fill="#91b3fa" fill-rule="evenodd"/>
      <path id="Trazado_750960" data-name="Trazado 750960" d="M193.121,26.258a.531.531,0,0,0-.483-.946c-.323.167-.639.34-.953.52a.531.531,0,0,0,.528.921c.3-.173.6-.336.909-.5M109.352,41.714a.53.53,0,0,0-.844.642l.652.85a.531.531,0,0,0,.832-.66Zm2.685,3.211a.531.531,0,0,0-.771.73c.247.261.5.521.751.775a.531.531,0,0,0,.746-.756c-.244-.245-.488-.5-.726-.75m3.035,2.871a.531.531,0,0,0-.676.818c.275.229.553.459.838.68a.531.531,0,0,0,.649-.84q-.41-.322-.811-.658m3.363,2.481a.53.53,0,0,0-.572.893c.3.2.607.385.914.571a.531.531,0,0,0,.546-.91c-.3-.18-.6-.362-.888-.553m3.643,2.043a.531.531,0,0,0-.456.959c.323.156.65.306.979.453a.53.53,0,0,0,.425-.972q-.477-.213-.947-.44m3.866,1.583a.531.531,0,0,0-.336,1.007c.342.113.682.225,1.023.333a.532.532,0,0,0,.309-1.018c-.335-.1-.665-.21-1-.321m4.032,1.113a.532.532,0,0,0-.22,1.04c.351.075.7.144,1.055.21A.531.531,0,0,0,131,55.222c-.344-.065-.686-.131-1.027-.206m4.135.65A.53.53,0,0,0,134,56.721c.358.038.717.069,1.076.1a.531.531,0,0,0,.07-1.059Zm4.181.2a.531.531,0,0,0,.01,1.061c.358,0,.715-.007,1.074-.018a.53.53,0,0,0-.036-1.059c-.348.009-.7.016-1.048.016m4.183-.233a.53.53,0,0,0,.119,1.053c.356-.037.712-.08,1.066-.126a.531.531,0,0,0-.144-1.051c-.347.044-.693.087-1.042.125m4.139-.659a.53.53,0,0,0,.223,1.037c.351-.072.7-.152,1.048-.236a.53.53,0,0,0-.247-1.031c-.342.08-.682.157-1.025.229m4.045-1.077a.531.531,0,0,0,.334,1.007c.34-.112.68-.225,1.016-.344a.531.531,0,0,0-.356-1c-.331.115-.661.227-.994.336m3.9-1.507a.531.531,0,0,0,.445.963q.488-.223.972-.459a.509.509,0,0,0,.256-.664l.173.036a.531.531,0,0,0,.193-1.044c-.337-.069-.67-.144-1-.228a.531.531,0,0,0-.256,1.031Zm3.68-1.966a.53.53,0,0,0,.568.9c.306-.191.612-.386.909-.59a.531.531,0,0,0-.6-.874c-.288.2-.58.383-.874.568m3.335-2.474a.531.531,0,0,0,.709.791c.271-.242.535-.491.791-.744a.531.531,0,0,0-.745-.756c-.247.242-.5.479-.756.708m2.746-3.059a.53.53,0,0,0,.875.6c.21-.3.407-.616.59-.932a.531.531,0,0,0-.921-.528c-.168.292-.351.585-.544.86M166,41.241a.53.53,0,0,0,1.036.227,9.577,9.577,0,0,0,.19-1.1.531.531,0,0,0-1.055-.113,9.228,9.228,0,0,1-.171.988m-.056-3.936a.531.531,0,0,0,1.018-.3,9.5,9.5,0,0,0-.361-1.063.531.531,0,0,0-.977.416,8.278,8.278,0,0,1,.319.948m-1.851-3.59a.531.531,0,0,0,.856-.627c-.216-.3-.433-.582-.661-.866a.532.532,0,0,0-.823.672c.217.27.423.542.628.821M161.3,30.729a.53.53,0,0,0,.65-.838c-.293-.229-.584-.442-.893-.648a.531.531,0,0,0-.582.89c.286.19.555.385.825.6m-3.556-1.837a.531.531,0,0,0,.269-1.028,9.671,9.671,0,0,0-1.1-.226.531.531,0,0,0-.146,1.052,8.33,8.33,0,0,1,.978.2m-3.961-.114a.531.531,0,0,0-.221-1.038,9.665,9.665,0,0,0-1.082.281.53.53,0,0,0,.329,1.009,8.6,8.6,0,0,1,.974-.252m-3.7,1.568a.531.531,0,0,0-.6-.879c-.308.209-.6.422-.9.654a.53.53,0,0,0,.669.823c.26-.212.545-.411.822-.6m-2.969,2.77a.531.531,0,0,0-.839-.649c-.227.292-.439.589-.643.9a.531.531,0,0,0,.888.58c.185-.283.388-.559.594-.827m-1.963,3.552a.531.531,0,0,0-1-.353c-.125.35-.231.7-.325,1.061a.53.53,0,0,0,1.028.261c.086-.325.184-.652.3-.969m-.631,3.964a.531.531,0,0,0-1.06.054,9.93,9.93,0,0,0,.108,1.113.531.531,0,0,0,1.048-.169,8.5,8.5,0,0,1-.1-1m1.04,3.837a.53.53,0,0,0-.932.5,9.386,9.386,0,0,0,.588.959.53.53,0,0,0,.865-.613,8.468,8.468,0,0,1-.52-.85m2.588,3.051a.53.53,0,0,0-.653.834c.29.231.577.448.886.654a.53.53,0,0,0,.589-.882c-.285-.191-.552-.394-.822-.606m3.536,2.081a.531.531,0,0,0-.431.971c.33.148.659.29.994.427a.531.531,0,0,0,.394-.986c-.321-.13-.642-.27-.957-.411m7.975,1.943c.34,0,.686,0,1.026-.026a.531.531,0,0,1,.072,1.06c-.364.025-.73.028-1.1.028a.531.531,0,0,1,0-1.063m4.054-.528A.531.531,0,0,0,164,52.04c.342-.086.713-.212,1.048-.331a.53.53,0,0,0-.357-1c-.314.109-.655.228-.977.308m3.773-1.6a.531.531,0,0,0,.534.918c.312-.179.633-.371.93-.569a.53.53,0,0,0-.583-.886c-.287.188-.584.368-.881.537m3.383-2.4a.531.531,0,0,0,.686.811c.275-.231.542-.466.812-.707a.531.531,0,0,0-.71-.789c-.26.232-.521.463-.788.685m3.038-2.881a.531.531,0,0,0,.767.734l.734-.78a.531.531,0,0,0-.782-.72c-.238.258-.476.517-.719.767m2.811-3.137a.53.53,0,0,0,.81.685l.686-.81a.532.532,0,0,0-.815-.683Zm2.708-3.259a.532.532,0,0,0,.821.676l.675-.821a.531.531,0,0,0-.82-.675Zm2.725-3.27a.532.532,0,0,0,.809.691l.69-.8a.53.53,0,0,0-.8-.7Zm2.864-3.177a.53.53,0,0,0,.763.736l.736-.747a.531.531,0,0,0-.747-.756Zm3.13-2.948a.531.531,0,0,0,.68.816c.263-.221.537-.45.81-.654a.532.532,0,0,0-.647-.844c-.283.221-.566.45-.843.682" transform="translate(24.6 5.729)" fill="#91b3fa" fill-rule="evenodd"/>
    </g>
  </g>
</svg>
